<?xml version="1.0" encoding="UTF-8" standalone="no"?>
<svg
   xmlns:dc="http://purl.org/dc/elements/1.1/"
   xmlns:cc="http://creativecommons.org/ns#"
   xmlns:rdf="http://www.w3.org/1999/02/22-rdf-syntax-ns#"
   xmlns:svg="http://www.w3.org/2000/svg"
   xmlns="http://www.w3.org/2000/svg"
   xmlns:sodipodi="http://sodipodi.sourceforge.net/DTD/sodipodi-0.dtd"
   xmlns:inkscape="http://www.inkscape.org/namespaces/inkscape"
   width="48"
   height="48"
   viewBox="0 0 12.7 12.7"
   version="1.1"
   id="svg4"
   sodipodi:docname="application_x-doom-wad.svg"
   inkscape:version="1.0.1 (3bc2e813f5, 2020-09-07)">
  <metadata
     id="metadata8">
    <rdf:RDF>
      <cc:Work
         rdf:about="">
        <dc:format>image/svg+xml</dc:format>
        <dc:type
           rdf:resource="http://purl.org/dc/dcmitype/StillImage" />
        <dc:title></dc:title>
      </cc:Work>
    </rdf:RDF>
  </metadata>
  <sodipodi:namedview
     pagecolor="#ffffff"
     bordercolor="#666666"
     borderopacity="1"
     objecttolerance="10"
     gridtolerance="10"
     guidetolerance="10"
     inkscape:pageopacity="0"
     inkscape:pageshadow="2"
     inkscape:window-width="1920"
     inkscape:window-height="1051"
     id="namedview6"
     showgrid="false"
     inkscape:zoom="10.532945"
     inkscape:cx="20.70435"
     inkscape:cy="16.588021"
     inkscape:window-x="0"
     inkscape:window-y="0"
     inkscape:window-maximized="1"
     inkscape:current-layer="g93" />
  <defs
     id="defs8">
    <style
       id="current-color-scheme"
       type="text/css">
      .ColorScheme-Highlight {
        color:#fbc707;
      }
  </style>
  </defs>
  <path
     style="fill:#fbc707"
     d="m 1.0019531,15 v 24 c 0,4.429606 3.5684407,7.998047 7.9980469,7.998047 H 39 A 7.9823621,7.9823621 0 0 0 46.998047,39 V 15 H 44.001953 V 39 A 4.9889763,4.9889763 0 0 1 39,44.001953 H 8.9960938 A 4.9889763,4.9889763 0 0 1 3.9941406,39 V 15 Z"
     transform="scale(0.26458333)"
     id="path855" />
  <path
     style="fill:#fbc707"
     d="M 25.001953,3 V 13.001953 H 46.998047 L 43,3 Z"
     transform="scale(0.26458333)"
     id="path853" />
  <path
     style="fill:#fbc707"
     d="M 5,3 1.0019531,13.001953 H 22.998047 V 3 Z"
     transform="scale(0.26458333)"
     id="path864" />
  <g
     aria-label="DooM"
     id="g93"
     transform="matrix(0.03591793,0,0,0.03591793,-2.6294941,-5.9913111)">
    <path
       stroke-width="3.9063"
       d="m 182.03,330.13 10.625,6.4063 v 76.876 l -47.657,38.125 1.25,-2.9688 v -114.54 l -3.125,-3.9063 z m -18.594,18.438 v 60.157 l 10.469,-7.9688 v -52.188 z"
       id="path85"
       style="fill:#fbc707; " />
    <path
       stroke-width="3.9063"
       d="m 238.59,330.13 7.0313,7.0313 v 71.407 l -25.781,18.906 -21.719,-17.344 v -72.501 l 6.7188,-7.5 z m -22.5,18.594 v 48.75 l 10.469,8.9063 v -57.66 z"
       id="path87"
       style="fill:#fbc707; " />
    <path
       d="m 289.38,330.13 7.0313,7.0313 v 71.407 l -25.79,18.9 -21.71,-17.34 v -72.501 l 6.7188,-7.5 z m -22.5,18.594 v 57.657 l 10.469,-8.9063 v -48.75 z"
       id="path89"
       style="fill:#fbc707; " />
    <path
       d="m 299.69,334.66 -2.9688,-4.5313 h 20.625 l 9.6876,24.688 9.0626,-24.688 h 20 l -1.25,3.75 v 113.59 l 2.0313,9.3751 -10.156,-7.5 -10.625,-7.9688 2.5,-3.5938 v -41.563 l -11.406,31.094 -11.719,-41.719 v 40.313 l -16.875,-12.656 1.0938,-0.93751 z"
       id="path91"
       style="fill:#fbc707; " />
  </g>
</svg>
