<?xml version="1.0" encoding="UTF-8" standalone="no"?>
<svg
   xmlns:dc="http://purl.org/dc/elements/1.1/"
   xmlns:cc="http://creativecommons.org/ns#"
   xmlns:rdf="http://www.w3.org/1999/02/22-rdf-syntax-ns#"
   xmlns:svg="http://www.w3.org/2000/svg"
   xmlns="http://www.w3.org/2000/svg"
   xmlns:sodipodi="http://sodipodi.sourceforge.net/DTD/sodipodi-0.dtd"
   xmlns:inkscape="http://www.inkscape.org/namespaces/inkscape"
   width="48"
   height="48"
   viewBox="0 0 12.7 12.7"
   version="1.1"
   id="svg8"
   inkscape:version="1.0.1 (3bc2e813f5, 2020-09-07)"
   sodipodi:docname="101editor.svg">
  <defs
     id="defs2" />
  <sodipodi:namedview
     id="base"
     pagecolor="#ffffff"
     bordercolor="#666666"
     borderopacity="1.0"
     inkscape:pageopacity="0.0"
     inkscape:pageshadow="2"
     inkscape:zoom="8.0000004"
     inkscape:cx="16.447229"
     inkscape:cy="32.933781"
     inkscape:document-units="px"
     inkscape:current-layer="layer3"
     showgrid="false"
     inkscape:window-width="1920"
     inkscape:window-height="1051"
     inkscape:window-x="0"
     inkscape:window-y="0"
     inkscape:window-maximized="1"
     showguides="true"
     inkscape:guide-bbox="true"
     inkscape:document-rotation="0"
     inkscape:showpageshadow="false"
     showborder="false"
     units="px">
    <inkscape:grid
       type="xygrid"
       id="grid917" />
  </sodipodi:namedview>
  <metadata
     id="metadata5">
    <rdf:RDF>
      <cc:Work
         rdf:about="">
        <dc:format>image/svg+xml</dc:format>
        <dc:type
           rdf:resource="http://purl.org/dc/dcmitype/StillImage" />
        <dc:title></dc:title>
      </cc:Work>
    </rdf:RDF>
  </metadata>
  <g
     inkscape:groupmode="layer"
     id="layer3"
     inkscape:label="Задний фон"
     transform="translate(0,87)"
     style="opacity:1">
    <path
       id="path838"
       style="fill:#fbc707;stroke:none;stroke-width:0.32508;fill-opacity:1"
       d="M 6.2941893,-86.999969 A 6.3499999,6.3499999 0 0 0 2.4147492e-8,-80.649969 6.3499999,6.3499999 0 0 0 6.35,-74.299969 a 6.3499999,6.3499999 0 0 0 6.35,-6.35 6.3499999,6.3499999 0 0 0 -6.35,-6.35 6.3499999,6.3499999 0 0 0 -0.055811,0 z M 6.35,-86.203635 a 5.5534916,5.5534916 0 0 1 5.553666,5.553666 A 5.5534916,5.5534916 0 0 1 6.35,-75.096303 5.5534916,5.5534916 0 0 1 0.79633383,-80.649969 5.5534916,5.5534916 0 0 1 6.35,-86.203635 Z" />
    <g
       id="g1913"
       transform="matrix(0.14938293,0,0,0.14938293,1.5690066,-85.564189)"
       style="display:inline" />
    <g
       id="2-main"
       stroke="none"
       stroke-width="1"
       fill="none"
       fill-rule="evenodd"
       transform="matrix(0.09786004,0,0,0.09786004,1.4569979,-85.543002)">
      <g
         id="2_main_1920"
         transform="translate(-1419,-3925)">
        <g
           id="Get-started"
           transform="translate(0,3557)">
          <g
             id="5"
             transform="translate(1350,328)">
            <g
               id="Group-26"
               transform="translate(6,40)">
              <g
                 id="4k/slideshow_maker"
                 transform="translate(63)" />
            </g>
          </g>
        </g>
      </g>
    </g>
    <path
       id="path4"
       style="fill:#fbc707;stroke-width:0.210504;fill-opacity:1"
       d="m 6.2839573,-84.121913 c -1.1270702,0.02518 -2.584316,0.371705 -4.5648052,0.936128 0.051291,0.533315 0.2066527,0.725061 0.2788468,1.181955 0.1966988,1.244851 0.2638242,2.248227 0.6588539,2.98974 1.2055258,2.262904 3.3347367,2.452107 8.3239962,0.476451 -1.3366444,-4.141941 -2.2173368,-5.639689 -4.6968917,-5.584274 z m -3.5107434,1.261624 c 0.072348,-0.0016 0.1438203,0.01557 0.2080868,0.04979 l 1.6840875,0.865891 -0.028828,0.05923 3.5626344,1.892174 1.0000745,0.696593 -0.00314,0.0073 c 0.5358927,0.08904 0.8259719,0.350179 1.1536519,0.585474 l -0.8501703,0.05346 -0.4691126,-0.273606 -0.00262,0.0068 -1.1447393,-0.469637 -3.5799312,-1.804641 -0.023063,0.04875 -1.6846117,-0.873231 c -0.2089584,-0.103586 -0.2761795,-0.318428 -0.2316736,-0.505803 1.731e-4,-7.1e-4 8.735e-4,-0.0015 0.00105,-0.0021 0.020269,-0.08364 0.062424,-0.160955 0.1247472,-0.220665 2.184e-4,-1.87e-4 3.051e-4,-8.4e-4 5.241e-4,-9.7e-4 0.070578,-0.06732 0.1659402,-0.112051 0.28304,-0.114789 z" />
  </g>
</svg>
