<?xml version="1.0" encoding="UTF-8" standalone="no"?>
<svg
   xmlns:dc="http://purl.org/dc/elements/1.1/"
   xmlns:cc="http://creativecommons.org/ns#"
   xmlns:rdf="http://www.w3.org/1999/02/22-rdf-syntax-ns#"
   xmlns:svg="http://www.w3.org/2000/svg"
   xmlns="http://www.w3.org/2000/svg"
   xmlns:sodipodi="http://sodipodi.sourceforge.net/DTD/sodipodi-0.dtd"
   xmlns:inkscape="http://www.inkscape.org/namespaces/inkscape"
   width="48"
   height="48"
   viewBox="0 0 12.7 12.7"
   version="1.1"
   id="svg8"
   inkscape:version="1.0.1 (3bc2e813f5, 2020-09-07)"
   sodipodi:docname="1cestart.svg">
  <defs
     id="defs2" />
  <sodipodi:namedview
     id="base"
     pagecolor="#ffffff"
     bordercolor="#666666"
     borderopacity="1.0"
     inkscape:pageopacity="0.0"
     inkscape:pageshadow="2"
     inkscape:zoom="16.000001"
     inkscape:cx="21.291516"
     inkscape:cy="24.721291"
     inkscape:document-units="px"
     inkscape:current-layer="layer3"
     showgrid="false"
     inkscape:window-width="1920"
     inkscape:window-height="1051"
     inkscape:window-x="0"
     inkscape:window-y="0"
     inkscape:window-maximized="1"
     showguides="true"
     inkscape:guide-bbox="true"
     inkscape:document-rotation="0"
     inkscape:showpageshadow="false"
     showborder="false"
     units="px">
    <inkscape:grid
       type="xygrid"
       id="grid917" />
  </sodipodi:namedview>
  <metadata
     id="metadata5">
    <rdf:RDF>
      <cc:Work
         rdf:about="">
        <dc:format>image/svg+xml</dc:format>
        <dc:type
           rdf:resource="http://purl.org/dc/dcmitype/StillImage" />
        <dc:title></dc:title>
      </cc:Work>
    </rdf:RDF>
  </metadata>
  <g
     inkscape:groupmode="layer"
     id="layer3"
     inkscape:label="Задний фон"
     transform="translate(0,87)">
    <path
       id="path838"
       style="fill:#fbc707;stroke:none;stroke-width:0.32508;fill-opacity:1"
       d="M 6.2941893,-86.999969 A 6.3499999,6.3499999 0 0 0 0,-80.649969 a 6.3499999,6.3499999 0 0 0 6.35,6.35 6.3499999,6.3499999 0 0 0 6.35,-6.35 6.3499999,6.3499999 0 0 0 -6.35,-6.35 6.3499999,6.3499999 0 0 0 -0.055811,0 z M 6.35,-86.203635 a 5.5534916,5.5534916 0 0 1 5.553666,5.553666 A 5.5534916,5.5534916 0 0 1 6.35,-75.096303 5.5534916,5.5534916 0 0 1 0.79633382,-80.649969 5.5534916,5.5534916 0 0 1 6.35,-86.203635 Z" />
    <rect
       fill="#fecd38"
       width="10.583334"
       height="10.583334"
       x="1.0583332"
       y="-85.941666"
       rx="5.291667"
       ry="5.291667"
       id="rect2"
       style="stroke-width:0.264584" />
    <path
       fill="#fe3838"
       d="m 2.6458332,-83.03125 v 1.058334 h 1.0583332 v 3.704166 h 1.0583334 v -4.7625 z m 5.2916666,0 c -1.315138,0 -2.3812501,1.066112 -2.3812501,2.38125 0,1.306222 1.0520628,2.365402 2.3548976,2.379689 v 0.0016 H 11.07477 c 0.167984,-0.333957 0.299985,-0.688022 0.394811,-1.058333 H 7.9376585 c -0.7306204,0 -1.3229166,-0.592296 -1.3229166,-1.322917 0,-0.73062 0.5922962,-1.322916 1.3229166,-1.322916 0.5254096,6.57e-4 1.0006278,0.312208 1.2107863,0.79375 H 10.256917 C 10.01006,-82.261841 9.0480354,-83.030191 7.9375791,-83.03125 Z"
       id="path10"
       style="stroke-width:0.264584" />
  </g>
</svg>
