<?xml version="1.0" encoding="UTF-8" standalone="no"?>
<svg
   xmlns:dc="http://purl.org/dc/elements/1.1/"
   xmlns:cc="http://creativecommons.org/ns#"
   xmlns:rdf="http://www.w3.org/1999/02/22-rdf-syntax-ns#"
   xmlns:svg="http://www.w3.org/2000/svg"
   xmlns="http://www.w3.org/2000/svg"
   xmlns:sodipodi="http://sodipodi.sourceforge.net/DTD/sodipodi-0.dtd"
   xmlns:inkscape="http://www.inkscape.org/namespaces/inkscape"
   width="48"
   height="48"
   viewBox="0 0 12.7 12.7"
   version="1.1"
   id="svg8"
   inkscape:version="1.0.1 (3bc2e813f5, 2020-09-07)"
   sodipodi:docname="2064-read-only-memories.svg">
  <defs
     id="defs2" />
  <sodipodi:namedview
     id="base"
     pagecolor="#ffffff"
     bordercolor="#666666"
     borderopacity="1.0"
     inkscape:pageopacity="0.0"
     inkscape:pageshadow="2"
     inkscape:zoom="11.313709"
     inkscape:cx="32.089613"
     inkscape:cy="17.496863"
     inkscape:document-units="px"
     inkscape:current-layer="layer3"
     showgrid="false"
     inkscape:window-width="1920"
     inkscape:window-height="1051"
     inkscape:window-x="0"
     inkscape:window-y="0"
     inkscape:window-maximized="1"
     showguides="true"
     inkscape:guide-bbox="true"
     inkscape:document-rotation="0"
     inkscape:showpageshadow="false"
     showborder="false"
     units="px">
    <inkscape:grid
       type="xygrid"
       id="grid917" />
  </sodipodi:namedview>
  <metadata
     id="metadata5">
    <rdf:RDF>
      <cc:Work
         rdf:about="">
        <dc:format>image/svg+xml</dc:format>
        <dc:type
           rdf:resource="http://purl.org/dc/dcmitype/StillImage" />
        <dc:title></dc:title>
      </cc:Work>
    </rdf:RDF>
  </metadata>
  <g
     inkscape:groupmode="layer"
     id="layer3"
     inkscape:label="Задний фон"
     transform="translate(0,87)"
     style="opacity:1">
    <path
       id="path838"
       style="fill:#fbc707;stroke:none;stroke-width:0.32508;fill-opacity:1"
       d="M 6.2941893,-86.999969 A 6.3499999,6.3499999 0 0 0 2.4147492e-8,-80.649969 6.3499999,6.3499999 0 0 0 6.35,-74.299969 a 6.3499999,6.3499999 0 0 0 6.35,-6.35 6.3499999,6.3499999 0 0 0 -6.35,-6.35 6.3499999,6.3499999 0 0 0 -0.055811,0 z M 6.35,-86.203635 a 5.5534916,5.5534916 0 0 1 5.553666,5.553666 A 5.5534916,5.5534916 0 0 1 6.35,-75.096303 5.5534916,5.5534916 0 0 1 0.79633383,-80.649969 5.5534916,5.5534916 0 0 1 6.35,-86.203635 Z" />
    <g
       id="g1913"
       transform="matrix(0.14938293,0,0,0.14938293,1.5690066,-85.564189)"
       style="display:inline" />
    <g
       id="2-main"
       stroke="none"
       stroke-width="1"
       fill="none"
       fill-rule="evenodd"
       transform="matrix(0.09786004,0,0,0.09786004,1.4569979,-85.543002)">
      <g
         id="2_main_1920"
         transform="translate(-1419,-3925)">
        <g
           id="Get-started"
           transform="translate(0,3557)">
          <g
             id="5"
             transform="translate(1350,328)">
            <g
               id="Group-26"
               transform="translate(6,40)">
              <g
                 id="4k/slideshow_maker"
                 transform="translate(63)" />
            </g>
          </g>
        </g>
      </g>
    </g>
    <path
       id="circle4"
       style="fill:#fbc707;fill-opacity:1;stroke-width:0.950355"
       d="M 24.951172 4.5410156 L 24.951172 8.2832031 A 0.95117199 0.95117199 0 1 1 23.048828 8.2832031 L 23.048828 4.5429688 A 19.007139 19.007139 0 0 0 16.457031 6.078125 A 7.6028556 5.7021414 0 0 0 24 11.134766 A 7.6028556 5.7021414 0 0 0 31.550781 6.0820312 A 19.007139 19.007139 0 0 0 24.951172 4.5410156 z M 33.302734 6.9511719 A 9.503569 7.6028556 0 0 1 24 13.035156 A 9.503569 7.6028556 0 0 1 14.6875 6.9550781 A 19.007139 19.007139 0 0 0 4.9921875 23.525391 A 19.007139 19.007139 0 0 0 24 42.53125 A 19.007139 19.007139 0 0 0 43.007812 23.525391 A 19.007139 19.007139 0 0 0 33.302734 6.9511719 z M 17.488281 15.962891 C 17.823432 16.020617 18.12686 16.270968 18.230469 16.615234 C 18.326669 16.9349 18.324786 23.454994 18.228516 23.779297 C 18.159936 24.010246 17.965754 24.242955 17.751953 24.353516 C 17.565325 24.450026 17.238843 24.469941 17.041016 24.396484 C 16.832103 24.318914 16.633738 24.138156 16.521484 23.919922 C 16.440544 23.762571 16.4375 23.610804 16.4375 20.193359 C 16.4375 16.736901 16.440881 16.628613 16.525391 16.462891 C 16.6437 16.230985 16.892969 16.033942 17.148438 15.972656 C 17.261443 15.945546 17.376564 15.943649 17.488281 15.962891 z M 30.642578 15.974609 C 31.013815 15.976609 31.408466 16.274289 31.505859 16.625 C 31.536419 16.735029 31.551251 17.966231 31.550781 20.238281 C 31.550096 23.499596 31.54622 23.696033 31.46875 23.863281 C 31.26027 24.313576 30.685101 24.54923 30.292969 24.345703 C 30.109175 24.250313 29.932169 24.07499 29.857422 23.912109 C 29.777492 23.737924 29.72989 20.333243 29.775391 18.042969 L 29.806641 16.511719 L 29.943359 16.34375 C 30.118626 16.127325 30.41032 15.973363 30.642578 15.974609 z M 34.931641 25.425781 C 36.136415 25.425974 37.341486 25.444406 37.501953 25.478516 C 37.896359 25.562356 38.243094 25.985922 38.244141 26.384766 C 38.244583 26.547568 38.11275 26.859127 37.988281 26.990234 C 37.922381 27.059644 37.79526 27.154784 37.705078 27.201172 C 37.549092 27.281402 37.41263 27.284163 34.919922 27.283203 C 32.609194 27.282316 32.28267 27.275171 32.15625 27.212891 C 31.947321 27.109893 31.716499 26.83173 31.658203 26.615234 C 31.523948 26.11665 31.851523 25.586314 32.363281 25.476562 C 32.522088 25.442504 33.726867 25.425589 34.931641 25.425781 z M 13.076172 25.451172 L 15.683594 25.451172 L 15.894531 25.574219 C 16.193038 25.749686 16.339824 25.988251 16.357422 26.328125 C 16.375132 26.670089 16.246875 26.939108 15.974609 27.130859 L 15.785156 27.261719 L 13.126953 27.275391 L 10.46875 27.287109 L 10.269531 27.185547 C 9.6129495 26.853234 9.6218525 25.903646 10.285156 25.548828 C 10.467189 25.451458 10.47204 25.451172 13.076172 25.451172 z M 30.277344 28.3125 C 30.966441 28.32695 30.971082 28.325964 31.160156 28.458984 C 31.393107 28.622868 31.769654 29.169671 31.876953 29.498047 C 31.985755 29.831023 32.018731 30.355627 31.949219 30.650391 C 31.823035 31.185454 31.422521 31.763 31.048828 31.949219 L 30.828125 32.060547 L 24.484375 32.060547 L 18.138672 32.060547 L 17.912109 31.955078 C 17.207417 31.626955 17.197253 30.655487 17.894531 30.302734 L 18.091797 30.205078 L 23.882812 30.203125 L 29.673828 30.203125 L 29.416016 30.095703 C 29.090405 29.961823 29.002165 29.882318 28.873047 29.607422 C 28.696664 29.231898 28.759559 28.885415 29.060547 28.583984 C 29.316308 28.327846 29.462382 28.295413 30.277344 28.3125 z "
       transform="matrix(0.26458333,0,0,0.26458333,0,-87)" />
  </g>
</svg>
