<?xml version="1.0" encoding="UTF-8" standalone="no"?>
<svg
   xmlns:dc="http://purl.org/dc/elements/1.1/"
   xmlns:cc="http://creativecommons.org/ns#"
   xmlns:rdf="http://www.w3.org/1999/02/22-rdf-syntax-ns#"
   xmlns:svg="http://www.w3.org/2000/svg"
   xmlns="http://www.w3.org/2000/svg"
   xmlns:sodipodi="http://sodipodi.sourceforge.net/DTD/sodipodi-0.dtd"
   xmlns:inkscape="http://www.inkscape.org/namespaces/inkscape"
   width="48"
   height="48"
   viewBox="0 0 12.7 12.7"
   version="1.1"
   id="svg8"
   inkscape:version="1.0.1 (3bc2e813f5, 2020-09-07)"
   sodipodi:docname="3D-Coat.svg">
  <defs
     id="defs2" />
  <sodipodi:namedview
     id="base"
     pagecolor="#ffffff"
     bordercolor="#666666"
     borderopacity="1.0"
     inkscape:pageopacity="0.0"
     inkscape:pageshadow="2"
     inkscape:zoom="16.000001"
     inkscape:cx="26.25051"
     inkscape:cy="21.95618"
     inkscape:document-units="px"
     inkscape:current-layer="layer3"
     showgrid="false"
     inkscape:window-width="1920"
     inkscape:window-height="1051"
     inkscape:window-x="0"
     inkscape:window-y="0"
     inkscape:window-maximized="1"
     showguides="true"
     inkscape:guide-bbox="true"
     inkscape:document-rotation="0"
     inkscape:showpageshadow="false"
     showborder="false"
     units="px">
    <inkscape:grid
       type="xygrid"
       id="grid917" />
  </sodipodi:namedview>
  <metadata
     id="metadata5">
    <rdf:RDF>
      <cc:Work
         rdf:about="">
        <dc:format>image/svg+xml</dc:format>
        <dc:type
           rdf:resource="http://purl.org/dc/dcmitype/StillImage" />
        <dc:title />
      </cc:Work>
    </rdf:RDF>
  </metadata>
  <g
     inkscape:groupmode="layer"
     id="layer3"
     inkscape:label="Задний фон"
     transform="translate(0,87)">
    <g
       id="g1913"
       transform="matrix(0.14938293,0,0,0.14938293,1.5690066,-85.564189)"
       style="display:inline">
      <g
         transform="matrix(3.5423503,0,0,3.5423503,-10.503252,-10.497199)"
         id="g12">
        <path
           id="circle4"
           style="fill:#fbc707;stroke-width:2;fill-opacity:1"
           transform="matrix(0.5,0,0,0.5,-7.8825147e-8,0.24999939)"
           d="M 24,4 A 20,20 0 0 0 4,24 20,20 0 0 0 24,44 20,20 0 0 0 44,24 20,20 0 0 0 24,4 Z m -8,13.5 c 2,0 2,2 2,2 v 8 c 0,0 -0.06091,4 2.96875,4 3.029662,0 3.03125,-4 3.03125,-4 v -6 c 0,0 0.09524,-4 3.046875,-4 2.95164,0 2.953125,4 2.953125,4 v 4 c 0,0 0,2 2,2 2,0 2,-2 2,-2 v -2 c 0,0 0,-2 1.089844,-2 C 36,21.5 36,23.5 36,23.5 v 4 c 0,0 -8.08e-4,2 1.132812,2 C 37.999193,29.5 38,27.5 38,27.5 v -4 c 0,0 0.220493,-2 1.109375,-2 0.888876,0 0.890625,2 0.890625,2 0,8.836556 -7.163444,16 -16,16 -8.836556,0 -16,-7.163444 -16,-16 0.00694,-0.788898 0.072226,-1.576203 0.1953125,-2.355469 C 8.4751899,22.249073 9.1602911,23.5 10.898438,23.5 13.999678,23.5 14,19.5 14,19.5 c 0,0 0,-2 2,-2 z M 23.789062,1.1716339e-4 A 24,24 0 0 0 9.1266112e-8,24.000117 24,24 0 0 0 24,48.000117 a 24,24 0 0 0 24,-24 24,24 0 0 0 -24,-23.99999983661 24,24 0 0 0 -0.210938,0 z M 24,3.0098835 A 20.989575,20.989575 0 0 1 44.990234,24.000117 20.989575,20.989575 0 0 1 24,44.990351 20.989575,20.989575 0 0 1 3.0097657,24.000117 20.989575,20.989575 0 0 1 24,3.0098835 Z" />
      </g>
    </g>
  </g>
</svg>
