<?xml version="1.0" encoding="UTF-8" standalone="no"?>
<svg
   xmlns:dc="http://purl.org/dc/elements/1.1/"
   xmlns:cc="http://creativecommons.org/ns#"
   xmlns:rdf="http://www.w3.org/1999/02/22-rdf-syntax-ns#"
   xmlns:svg="http://www.w3.org/2000/svg"
   xmlns="http://www.w3.org/2000/svg"
   xmlns:sodipodi="http://sodipodi.sourceforge.net/DTD/sodipodi-0.dtd"
   xmlns:inkscape="http://www.inkscape.org/namespaces/inkscape"
   width="48"
   height="48"
   viewBox="0 0 12.7 12.7"
   version="1.1"
   id="svg8"
   inkscape:version="1.0.1 (3bc2e813f5, 2020-09-07)"
   sodipodi:docname="4digits.svg">
  <defs
     id="defs2" />
  <sodipodi:namedview
     id="base"
     pagecolor="#ffffff"
     bordercolor="#666666"
     borderopacity="1.0"
     inkscape:pageopacity="0.0"
     inkscape:pageshadow="2"
     inkscape:zoom="8"
     inkscape:cx="19.550271"
     inkscape:cy="34.918366"
     inkscape:document-units="px"
     inkscape:current-layer="layer3"
     showgrid="false"
     inkscape:window-width="1920"
     inkscape:window-height="1051"
     inkscape:window-x="0"
     inkscape:window-y="0"
     inkscape:window-maximized="1"
     showguides="true"
     inkscape:guide-bbox="true"
     inkscape:document-rotation="0"
     inkscape:showpageshadow="false"
     showborder="false"
     units="px">
    <inkscape:grid
       type="xygrid"
       id="grid917" />
  </sodipodi:namedview>
  <metadata
     id="metadata5">
    <rdf:RDF>
      <cc:Work
         rdf:about="">
        <dc:format>image/svg+xml</dc:format>
        <dc:type
           rdf:resource="http://purl.org/dc/dcmitype/StillImage" />
        <dc:title />
      </cc:Work>
    </rdf:RDF>
  </metadata>
  <g
     inkscape:groupmode="layer"
     id="layer3"
     inkscape:label="Задний фон"
     transform="translate(0,87)"
     style="opacity:1">
    <path
       id="path838"
       style="fill:#fbc707;stroke:none;stroke-width:0.32508;fill-opacity:1"
       d="M 6.2941893,-86.999969 A 6.3499999,6.3499999 0 0 0 2.4147492e-8,-80.649969 6.3499999,6.3499999 0 0 0 6.35,-74.299969 a 6.3499999,6.3499999 0 0 0 6.35,-6.35 6.3499999,6.3499999 0 0 0 -6.35,-6.35 6.3499999,6.3499999 0 0 0 -0.055811,0 z M 6.35,-86.203635 a 5.5534916,5.5534916 0 0 1 5.553666,5.553666 A 5.5534916,5.5534916 0 0 1 6.35,-75.096303 5.5534916,5.5534916 0 0 1 0.79633383,-80.649969 5.5534916,5.5534916 0 0 1 6.35,-86.203635 Z" />
    <g
       id="g1913"
       transform="matrix(0.14938293,0,0,0.14938293,1.5690066,-85.564189)"
       style="display:inline" />
    <g
       id="g1058"
       transform="matrix(1.1357059,0,0,1.1357059,-0.5076214,10.89312)">
      <path
         id="rect933"
         style="opacity:1;fill:#fbc707;stroke:#fbc707;stroke-width:1.11557;stroke-linecap:round;stroke-linejoin:round;paint-order:fill markers stroke"
         d="M 18.132812,9.9335938 C 17.960788,9.9095459 17.744485,10.050301 17.583984,10.3125 l -4.955078,8.091797 c -0.153114,0.250132 -0.206699,0.538895 -0.164062,0.751953 -0.01369,0.03383 -0.03237,0.06647 -0.0332,0.103516 -0.0051,0.229012 0.255127,0.420405 0.582031,0.427734 l 5.238281,0.117188 0.0098,3.072265 c 0.001,0.296053 0.186968,0.533064 0.416015,0.53125 0.229047,-0.0018 0.411179,-0.241061 0.410157,-0.537109 l -0.0098,-3.046875 1.501953,0.0332 c 0.326905,0.0073 0.594475,-0.171371 0.59961,-0.400391 0.0051,-0.229008 -0.255128,-0.420405 -0.582032,-0.427734 l -1.523437,-0.0332 -0.0098,-2.978516 c -0.001,-0.296052 -0.185015,-0.531111 -0.414062,-0.529297 -0.229047,0.0018 -0.413133,0.241061 -0.41211,0.53711 l 0.0098,2.951171 -4.863281,-0.107421 4.830078,-7.890625 c 0.213999,-0.349596 0.245445,-0.778422 0.07031,-0.962891 -0.04378,-0.046118 -0.095,-0.074015 -0.152344,-0.082031 z"
         transform="matrix(0.26458333,0,0,0.26458333,0,-87)" />
      <path
         id="rect933-5"
         style="opacity:1;fill:#fbc707;stroke:#fbc707;stroke-width:1.32342;stroke-linecap:round;stroke-linejoin:round;paint-order:fill markers stroke"
         d="m 18.541016,25.441406 c -0.03597,-0.0068 -0.06977,-0.0024 -0.09766,0.01367 l -2.582031,1.490234 c -0.111525,0.06437 -0.09518,0.299588 0.03516,0.527344 0.130331,0.227746 0.324022,0.359292 0.435547,0.294922 l 1.753907,-1.011719 v 10.46875 c -2e-6,0.04852 0.0097,0.09046 0.01367,0.136719 h -1.4375 c -0.165705,-1.6e-5 -0.29949,0.212238 -0.300781,0.47461 -0.0013,0.262398 0.131169,0.47264 0.296875,0.472656 l 3.835938,0.002 c 0.165705,1.6e-5 0.29949,-0.2122 0.300781,-0.474609 0.0013,-0.262399 -0.131169,-0.472641 -0.296875,-0.472657 h -1.599609 c 0.0034,-0.04303 0.01367,-0.08189 0.01367,-0.126953 v -10.65039 c 4e-6,-0.103226 -0.01036,-0.199723 -0.02734,-0.291016 l 0.0293,-0.01758 c 0.111525,-0.06437 0.09711,-0.299621 -0.0332,-0.527344 -0.09775,-0.170807 -0.231923,-0.288086 -0.339843,-0.308594 z"
         transform="matrix(0.26458333,0,0,0.26458333,0,-87)" />
      <g
         id="g1025">
        <path
           id="path1013"
           style="opacity:1;fill:#fbc707;fill-opacity:1;stroke:#fbc707;stroke-width:1.28248;stroke-linecap:round;stroke-linejoin:round;paint-order:fill markers stroke"
           d="m 28.517578,16 a 3.8412476,3.5716231 0 0 0 -3.841797,3.570312 3.8412476,3.5716231 0 0 0 3.841797,3.572266 3.8412476,3.5716231 0 0 0 3.839844,-3.572266 A 3.8412476,3.5716231 0 0 0 28.517578,16 Z m 0,0.787109 a 2.9942094,2.78404 0 0 1 2.994141,2.783203 2.9942094,2.78404 0 0 1 -2.994141,2.785157 2.9942094,2.78404 0 0 1 -2.99414,-2.785157 2.9942094,2.78404 0 0 1 2.99414,-2.783203 z"
           transform="matrix(0.26458333,0,0,0.26458333,0,-87)" />
        <path
           style="fill:none;stroke:#fbc707;stroke-width:0.47625;stroke-linecap:round;stroke-linejoin:bevel;stroke-miterlimit:4;stroke-dasharray:none;stroke-opacity:1"
           d="m 7.4624774,-84.210039 c 1.3445247,1.434111 1.0151115,2.545364 1.0151115,2.545364"
           id="path1020"
           sodipodi:nodetypes="cc" />
      </g>
      <g
         id="g1042"
         transform="matrix(1,0,0,-1,0.18534169,-161.33058)">
        <path
           id="path1038"
           style="opacity:1;fill:#fbc707;fill-opacity:1;stroke:#fbc707;stroke-width:1.28248;stroke-linecap:round;stroke-linejoin:round;paint-order:fill markers stroke"
           d="m 28.517578,16 a 3.8412476,3.5716231 0 0 0 -3.841797,3.570312 3.8412476,3.5716231 0 0 0 3.841797,3.572266 3.8412476,3.5716231 0 0 0 3.839844,-3.572266 A 3.8412476,3.5716231 0 0 0 28.517578,16 Z m 0,0.787109 a 2.9942094,2.78404 0 0 1 2.994141,2.783203 2.9942094,2.78404 0 0 1 -2.994141,2.785157 2.9942094,2.78404 0 0 1 -2.99414,-2.785157 2.9942094,2.78404 0 0 1 2.99414,-2.783203 z"
           transform="matrix(0.26458333,0,0,0.26458333,0,-87)" />
        <path
           style="fill:none;stroke:#fbc707;stroke-width:0.47625;stroke-linecap:round;stroke-linejoin:bevel;stroke-miterlimit:4;stroke-dasharray:none;stroke-opacity:1"
           d="m 7.4624774,-84.210039 c 1.3445247,1.434111 1.0151115,2.545364 1.0151115,2.545364"
           id="path1040"
           sodipodi:nodetypes="cc" />
      </g>
    </g>
  </g>
</svg>
