<?xml version="1.0" encoding="UTF-8" standalone="no"?>
<svg
   xmlns:dc="http://purl.org/dc/elements/1.1/"
   xmlns:cc="http://creativecommons.org/ns#"
   xmlns:rdf="http://www.w3.org/1999/02/22-rdf-syntax-ns#"
   xmlns:svg="http://www.w3.org/2000/svg"
   xmlns="http://www.w3.org/2000/svg"
   xmlns:sodipodi="http://sodipodi.sourceforge.net/DTD/sodipodi-0.dtd"
   xmlns:inkscape="http://www.inkscape.org/namespaces/inkscape"
   width="48"
   height="48"
   viewBox="0 0 12.7 12.7"
   version="1.1"
   id="svg8"
   inkscape:version="1.0.1 (3bc2e813f5, 2020-09-07)"
   sodipodi:docname="4kslideshowmaker.svg">
  <defs
     id="defs2" />
  <sodipodi:namedview
     id="base"
     pagecolor="#ffffff"
     bordercolor="#666666"
     borderopacity="1.0"
     inkscape:pageopacity="0.0"
     inkscape:pageshadow="2"
     inkscape:zoom="11.313709"
     inkscape:cx="32.593375"
     inkscape:cy="29.084856"
     inkscape:document-units="px"
     inkscape:current-layer="slideshow_maker"
     showgrid="false"
     inkscape:window-width="1920"
     inkscape:window-height="1051"
     inkscape:window-x="0"
     inkscape:window-y="0"
     inkscape:window-maximized="1"
     showguides="true"
     inkscape:guide-bbox="true"
     inkscape:document-rotation="0"
     inkscape:showpageshadow="false"
     showborder="false"
     units="px">
    <inkscape:grid
       type="xygrid"
       id="grid917" />
  </sodipodi:namedview>
  <metadata
     id="metadata5">
    <rdf:RDF>
      <cc:Work
         rdf:about="">
        <dc:format>image/svg+xml</dc:format>
        <dc:type
           rdf:resource="http://purl.org/dc/dcmitype/StillImage" />
        <dc:title></dc:title>
      </cc:Work>
    </rdf:RDF>
  </metadata>
  <g
     inkscape:groupmode="layer"
     id="layer3"
     inkscape:label="Задний фон"
     transform="translate(0,87)"
     style="opacity:1">
    <path
       id="path838"
       style="fill:#fbc707;stroke:none;stroke-width:0.32508;fill-opacity:1"
       d="M 6.2941893,-86.999969 A 6.3499999,6.3499999 0 0 0 2.4147492e-8,-80.649969 6.3499999,6.3499999 0 0 0 6.35,-74.299969 a 6.3499999,6.3499999 0 0 0 6.35,-6.35 6.3499999,6.3499999 0 0 0 -6.35,-6.35 6.3499999,6.3499999 0 0 0 -0.055811,0 z M 6.35,-86.203635 a 5.5534916,5.5534916 0 0 1 5.553666,5.553666 A 5.5534916,5.5534916 0 0 1 6.35,-75.096303 5.5534916,5.5534916 0 0 1 0.79633383,-80.649969 5.5534916,5.5534916 0 0 1 6.35,-86.203635 Z" />
    <g
       id="g1913"
       transform="matrix(0.14938293,0,0,0.14938293,1.5690066,-85.564189)"
       style="display:inline" />
    <g
       id="2-main"
       stroke="none"
       stroke-width="1"
       fill="none"
       fill-rule="evenodd"
       transform="matrix(0.09786004,0,0,0.09786004,1.4569979,-85.543002)">
      <g
         id="2_main_1920"
         transform="translate(-1419,-3925)">
        <g
           id="Get-started"
           transform="translate(0,3557)">
          <g
             id="5"
             transform="translate(1350,328)">
            <g
               id="Group-26"
               transform="translate(6,40)">
              <g
                 id="4k/slideshow_maker"
                 transform="translate(63)">
                <g
                   id="slideshow_maker">
                  <path
                     d="M 72.048422,44.210088 66.886198,39.047863 52.675853,53.257657 47.436596,48.018539 35.521078,59.933644 30.378146,54.791263 20.286859,64.882687 H 72.048422 Z M 29.054001,41.731845 c 3.044611,0 5.512105,-2.467632 5.512105,-5.512105 0,-3.044612 -2.467494,-5.512106 -5.512105,-5.512106 -3.044612,0 -5.512106,2.467494 -5.512106,5.512106 0,3.044473 2.467494,5.512105 5.512106,5.512105 z M 88.584738,26.29795 H 84.175054 V 77.009319 H 19.132211 v 4.409684 c 0,0.608812 0.493609,1.102421 1.102421,1.102421 h 68.350106 c 0.608812,0 1.102421,-0.493609 1.102421,-1.102421 V 27.400371 c 0,-0.608812 -0.493609,-1.102421 -1.102421,-1.102421 z M 15.824948,68.189951 H 75.355686 V 22.990687 H 15.824948 Z m 65.042843,4.409684 V 18.581003 c 0,-0.608812 -0.493609,-1.102421 -1.102421,-1.102421 H 11.415264 c -0.608812,0 -1.102421,0.493609 -1.102421,1.102421 v 54.018632 c 0,0.608812 0.493609,1.102421 1.102421,1.102421 H 79.76537 c 0.608812,0 1.102421,-0.493609 1.102421,-1.102421 z"
                     id="Fill-7"
                     fill="#e7262f"
                     style="stroke-width:1.37803" />
                </g>
              </g>
            </g>
          </g>
        </g>
      </g>
    </g>
  </g>
</svg>
