<?xml version="1.0" encoding="UTF-8" standalone="no"?>
<svg
   xmlns:dc="http://purl.org/dc/elements/1.1/"
   xmlns:cc="http://creativecommons.org/ns#"
   xmlns:rdf="http://www.w3.org/1999/02/22-rdf-syntax-ns#"
   xmlns:svg="http://www.w3.org/2000/svg"
   xmlns="http://www.w3.org/2000/svg"
   xmlns:sodipodi="http://sodipodi.sourceforge.net/DTD/sodipodi-0.dtd"
   xmlns:inkscape="http://www.inkscape.org/namespaces/inkscape"
   width="48"
   height="48"
   viewBox="0 0 12.7 12.7"
   version="1.1"
   id="svg8"
   inkscape:version="1.0.1 (3bc2e813f5, 2020-09-07)"
   sodipodi:docname="4kstogram.svg">
  <defs
     id="defs2" />
  <sodipodi:namedview
     id="base"
     pagecolor="#ffffff"
     bordercolor="#666666"
     borderopacity="1.0"
     inkscape:pageopacity="0.0"
     inkscape:pageshadow="2"
     inkscape:zoom="11.313709"
     inkscape:cx="24.76455"
     inkscape:cy="39.257739"
     inkscape:document-units="px"
     inkscape:current-layer="4k/slideshow_maker"
     showgrid="false"
     inkscape:window-width="1920"
     inkscape:window-height="1051"
     inkscape:window-x="0"
     inkscape:window-y="0"
     inkscape:window-maximized="1"
     showguides="true"
     inkscape:guide-bbox="true"
     inkscape:document-rotation="0"
     inkscape:showpageshadow="false"
     showborder="false"
     units="px">
    <inkscape:grid
       type="xygrid"
       id="grid917" />
  </sodipodi:namedview>
  <metadata
     id="metadata5">
    <rdf:RDF>
      <cc:Work
         rdf:about="">
        <dc:format>image/svg+xml</dc:format>
        <dc:type
           rdf:resource="http://purl.org/dc/dcmitype/StillImage" />
        <dc:title></dc:title>
      </cc:Work>
    </rdf:RDF>
  </metadata>
  <g
     inkscape:groupmode="layer"
     id="layer3"
     inkscape:label="Задний фон"
     transform="translate(0,87)"
     style="opacity:1">
    <path
       id="path838"
       style="fill:#fbc707;stroke:none;stroke-width:0.32508;fill-opacity:1"
       d="M 6.2941893,-86.999969 A 6.3499999,6.3499999 0 0 0 2.4147492e-8,-80.649969 6.3499999,6.3499999 0 0 0 6.35,-74.299969 a 6.3499999,6.3499999 0 0 0 6.35,-6.35 6.3499999,6.3499999 0 0 0 -6.35,-6.35 6.3499999,6.3499999 0 0 0 -0.055811,0 z M 6.35,-86.203635 a 5.5534916,5.5534916 0 0 1 5.553666,5.553666 A 5.5534916,5.5534916 0 0 1 6.35,-75.096303 5.5534916,5.5534916 0 0 1 0.79633383,-80.649969 5.5534916,5.5534916 0 0 1 6.35,-86.203635 Z" />
    <g
       id="g1913"
       transform="matrix(0.14938293,0,0,0.14938293,1.5690066,-85.564189)"
       style="display:inline" />
    <g
       id="2-main"
       stroke="none"
       stroke-width="1"
       fill="none"
       fill-rule="evenodd"
       transform="matrix(0.09786004,0,0,0.09786004,1.4569979,-85.543002)">
      <g
         id="2_main_1920"
         transform="translate(-1419,-3925)">
        <g
           id="Get-started"
           transform="translate(0,3557)">
          <g
             id="5"
             transform="translate(1350,328)">
            <g
               id="Group-26"
               transform="translate(6,40)">
              <g
                 id="4k/slideshow_maker"
                 transform="translate(63)">
                <path
                   style="fill-rule:evenodd;stroke-width:0.916835"
                   d="m 50.000001,95.841756 c -25.277142,0 -45.8417519,-20.56461 -45.8417519,-45.841753 0,-25.277142 20.5646099,-45.8417515 45.8417519,-45.8417515 25.277142,0 45.841752,20.5646095 45.841752,45.8417515 0,25.277143 -20.56461,45.841753 -45.841752,45.841753"
                   id="path4" />
                <path
                   d="m 50.000016,35.31992 c -8.094816,0 -14.680095,6.585293 -14.680095,14.680083 0,8.094788 6.585279,14.680081 14.680095,14.680081 8.094782,0 14.680078,-6.585293 14.680078,-14.680081 0,-8.09479 -6.585296,-14.680083 -14.680078,-14.680083 m 24.892301,-5.106115 a 5.1061153,5.1061153 0 1 1 0,-10.21223 5.1061153,5.1061153 0 0 1 0,10.21223 M 50.000016,72.339257 c -12.339272,0 -22.339271,-10.001604 -22.339271,-22.339254 0,-12.337652 9.999999,-22.339255 22.339271,-22.339255 12.337654,0 22.339254,10.001603 22.339254,22.339255 0,12.33765 -10.0016,22.339254 -22.339254,22.339254 M 75.530592,9.1510803 H 24.469423 c -8.425087,0 -15.3183468,6.8932547 -15.3183468,15.3183457 v 51.061153 c 0,8.42509 6.8932598,15.318347 15.3183468,15.318347 h 51.061169 c 8.425092,0 15.318335,-6.893257 15.318335,-15.318347 V 24.469426 c 0,-8.425091 -6.893243,-15.3183457 -15.318335,-15.3183457"
                   id="path8"
                   style="fill:#ff5c1b;fill-opacity:1;fill-rule:evenodd;stroke-width:1.59566" />
              </g>
            </g>
          </g>
        </g>
      </g>
    </g>
  </g>
</svg>
