<?xml version="1.0" encoding="UTF-8" standalone="no"?>
<svg
   xmlns:dc="http://purl.org/dc/elements/1.1/"
   xmlns:cc="http://creativecommons.org/ns#"
   xmlns:rdf="http://www.w3.org/1999/02/22-rdf-syntax-ns#"
   xmlns:svg="http://www.w3.org/2000/svg"
   xmlns="http://www.w3.org/2000/svg"
   xmlns:sodipodi="http://sodipodi.sourceforge.net/DTD/sodipodi-0.dtd"
   xmlns:inkscape="http://www.inkscape.org/namespaces/inkscape"
   width="48"
   height="48"
   viewBox="0 0 12.7 12.7"
   version="1.1"
   id="svg8"
   inkscape:version="1.0.1 (3bc2e813f5, 2020-09-07)"
   sodipodi:docname="4kvideodownloader.svg">
  <defs
     id="defs2" />
  <sodipodi:namedview
     id="base"
     pagecolor="#ffffff"
     bordercolor="#666666"
     borderopacity="1.0"
     inkscape:pageopacity="0.0"
     inkscape:pageshadow="2"
     inkscape:zoom="11.313709"
     inkscape:cx="43.974318"
     inkscape:cy="34.556843"
     inkscape:document-units="px"
     inkscape:current-layer="4k/slideshow_maker"
     showgrid="false"
     inkscape:window-width="1920"
     inkscape:window-height="1051"
     inkscape:window-x="0"
     inkscape:window-y="0"
     inkscape:window-maximized="1"
     showguides="true"
     inkscape:guide-bbox="true"
     inkscape:document-rotation="0"
     inkscape:showpageshadow="false"
     showborder="false"
     units="px">
    <inkscape:grid
       type="xygrid"
       id="grid917" />
  </sodipodi:namedview>
  <metadata
     id="metadata5">
    <rdf:RDF>
      <cc:Work
         rdf:about="">
        <dc:format>image/svg+xml</dc:format>
        <dc:type
           rdf:resource="http://purl.org/dc/dcmitype/StillImage" />
        <dc:title></dc:title>
      </cc:Work>
    </rdf:RDF>
  </metadata>
  <g
     inkscape:groupmode="layer"
     id="layer3"
     inkscape:label="Задний фон"
     transform="translate(0,87)"
     style="opacity:1">
    <path
       id="path838"
       style="fill:#fbc707;stroke:none;stroke-width:0.32508;fill-opacity:1"
       d="M 6.2941893,-86.999969 A 6.3499999,6.3499999 0 0 0 2.4147492e-8,-80.649969 6.3499999,6.3499999 0 0 0 6.35,-74.299969 a 6.3499999,6.3499999 0 0 0 6.35,-6.35 6.3499999,6.3499999 0 0 0 -6.35,-6.35 6.3499999,6.3499999 0 0 0 -0.055811,0 z M 6.35,-86.203635 a 5.5534916,5.5534916 0 0 1 5.553666,5.553666 A 5.5534916,5.5534916 0 0 1 6.35,-75.096303 5.5534916,5.5534916 0 0 1 0.79633383,-80.649969 5.5534916,5.5534916 0 0 1 6.35,-86.203635 Z" />
    <g
       id="g1913"
       transform="matrix(0.14938293,0,0,0.14938293,1.5690066,-85.564189)"
       style="display:inline" />
    <g
       id="2-main"
       stroke="none"
       stroke-width="1"
       fill="none"
       fill-rule="evenodd"
       transform="matrix(0.09786004,0,0,0.09786004,1.4569979,-85.543002)">
      <g
         id="2_main_1920"
         transform="translate(-1419,-3925)">
        <g
           id="Get-started"
           transform="translate(0,3557)">
          <g
             id="5"
             transform="translate(1350,328)">
            <g
               id="Group-26"
               transform="translate(6,40)">
              <g
                 id="4k/slideshow_maker"
                 transform="translate(63)">
                <g
                   id="g962"
                   transform="matrix(1.066376,0,0,1.066376,-73.029833,-50.139414)">
                  <path
                     style="fill:#88ba14;fill-opacity:1;stroke:none;stroke-width:0.304165;stroke-linecap:round;stroke-linejoin:bevel;paint-order:fill markers stroke"
                     d="m 87.546043,126.48329 c -5.155912,-0.22679 -10.013405,-2.39144 -13.637182,-6.07717 -3.604913,-3.66654 -5.524964,-8.14686 -5.742266,-13.39922 -0.405543,-9.802298 6.488879,-18.532417 16.203938,-20.518376 0.716359,-0.146432 1.457763,-0.266259 1.647559,-0.266259 0.251119,0 0.345086,-0.109878 0.345086,-0.40355 0,-0.707829 0.826283,-3.285239 1.45726,-4.545611 1.495506,-2.987257 4.083855,-5.580584 7.076265,-7.089868 1.006163,-0.507477 3.245987,-1.227319 4.309008,-1.384839 1.657079,-0.245549 1.620179,-0.221864 2.730539,-1.752976 5.99553,-8.267471 16.78126,-11.759523 26.4442,-8.56173 7.06474,2.33796 12.64443,7.915513 15.01627,15.010496 0.70419,2.106489 1.06996,4.142536 1.20929,6.731567 l 0.10625,1.974535 1.19974,0.199316 c 7.13556,1.185485 13.29645,6.487118 15.66861,13.483308 1.39606,4.117377 1.34716,9.134227 -0.12913,13.246767 -2.12742,5.9265 -7.28174,10.79558 -13.25822,12.52452 -2.81728,0.81501 -2.36075,0.803 -31.83603,0.83741 -15.335,0.0178 -28.300041,0.0141 -28.811209,-0.008 z M 133.50879,99.571746 V 83.687562 H 115.34337 97.177943 v 15.884184 15.884184 h 18.165427 18.16542 z"
                     id="path951" />
                  <path
                     style="fill:#88ba14;fill-opacity:1;stroke:none;stroke-width:0.304165;stroke-linecap:round;stroke-linejoin:bevel;paint-order:fill markers stroke"
                     d="m 106.47188,92.812518 v -4.393499 h 8.95598 8.95598 v 4.393499 4.393498 h -8.95598 -8.95598 z"
                     id="path953" />
                  <path
                     style="fill:#88ba14;fill-opacity:1;stroke:none;stroke-width:0.304165;stroke-linecap:round;stroke-linejoin:bevel;paint-order:fill markers stroke"
                     d="m 106.47188,106.33097 v -4.39349 h 8.95598 8.95598 v 4.39349 4.3935 h -8.95598 -8.95598 z"
                     id="path955" />
                </g>
              </g>
            </g>
          </g>
        </g>
      </g>
    </g>
  </g>
</svg>
