<?xml version="1.0" encoding="UTF-8" standalone="no"?>
<svg
   xmlns:dc="http://purl.org/dc/elements/1.1/"
   xmlns:cc="http://creativecommons.org/ns#"
   xmlns:rdf="http://www.w3.org/1999/02/22-rdf-syntax-ns#"
   xmlns:svg="http://www.w3.org/2000/svg"
   xmlns="http://www.w3.org/2000/svg"
   xmlns:sodipodi="http://sodipodi.sourceforge.net/DTD/sodipodi-0.dtd"
   xmlns:inkscape="http://www.inkscape.org/namespaces/inkscape"
   width="48"
   height="48"
   viewBox="0 0 12.7 12.7"
   version="1.1"
   id="svg8"
   inkscape:version="1.0.1 (3bc2e813f5, 2020-09-07)"
   sodipodi:docname="4kvideotomp3.svg">
  <defs
     id="defs2" />
  <sodipodi:namedview
     id="base"
     pagecolor="#ffffff"
     bordercolor="#666666"
     borderopacity="1.0"
     inkscape:pageopacity="0.0"
     inkscape:pageshadow="2"
     inkscape:zoom="16.000001"
     inkscape:cx="24.216671"
     inkscape:cy="25.341633"
     inkscape:document-units="px"
     inkscape:current-layer="4k/slideshow_maker"
     showgrid="false"
     inkscape:window-width="1920"
     inkscape:window-height="1051"
     inkscape:window-x="0"
     inkscape:window-y="0"
     inkscape:window-maximized="1"
     showguides="true"
     inkscape:guide-bbox="true"
     inkscape:document-rotation="0"
     inkscape:showpageshadow="false"
     showborder="false"
     units="px">
    <inkscape:grid
       type="xygrid"
       id="grid917" />
  </sodipodi:namedview>
  <metadata
     id="metadata5">
    <rdf:RDF>
      <cc:Work
         rdf:about="">
        <dc:format>image/svg+xml</dc:format>
        <dc:type
           rdf:resource="http://purl.org/dc/dcmitype/StillImage" />
        <dc:title></dc:title>
      </cc:Work>
    </rdf:RDF>
  </metadata>
  <g
     inkscape:groupmode="layer"
     id="layer3"
     inkscape:label="Задний фон"
     transform="translate(0,87)"
     style="opacity:1">
    <path
       id="path838"
       style="fill:#fbc707;stroke:none;stroke-width:0.32508;fill-opacity:1"
       d="M 6.2941893,-86.999969 A 6.3499999,6.3499999 0 0 0 2.4147492e-8,-80.649969 6.3499999,6.3499999 0 0 0 6.35,-74.299969 a 6.3499999,6.3499999 0 0 0 6.35,-6.35 6.3499999,6.3499999 0 0 0 -6.35,-6.35 6.3499999,6.3499999 0 0 0 -0.055811,0 z M 6.35,-86.203635 a 5.5534916,5.5534916 0 0 1 5.553666,5.553666 A 5.5534916,5.5534916 0 0 1 6.35,-75.096303 5.5534916,5.5534916 0 0 1 0.79633383,-80.649969 5.5534916,5.5534916 0 0 1 6.35,-86.203635 Z" />
    <g
       id="g1913"
       transform="matrix(0.14938293,0,0,0.14938293,1.5690066,-85.564189)"
       style="display:inline" />
    <g
       id="2-main"
       stroke="none"
       stroke-width="1"
       fill="none"
       fill-rule="evenodd"
       transform="matrix(0.09786004,0,0,0.09786004,1.4569979,-85.543002)">
      <g
         id="2_main_1920"
         transform="translate(-1419,-3925)">
        <g
           id="Get-started"
           transform="translate(0,3557)">
          <g
             id="5"
             transform="translate(1350,328)">
            <g
               id="Group-26"
               transform="translate(6,40)">
              <g
                 id="4k/slideshow_maker"
                 transform="translate(63)">
                <path
                   d="m 93.610271,52.156123 -6.60129,-2.790196 V 46.611623 C 87.00769,26.490044 70.40472,10.121075 50.000007,10.121075 c -20.404725,0 -37.007643,16.368969 -37.007643,36.490548 v 2.755634 l -6.6026329,2.788866 c -1.6097674,0.680601 -2.915149,2.63201 -2.915149,4.360097 v 14.074604 c 0,1.728086 1.3053816,3.679495 2.915149,4.360095 l 8.9727639,3.791157 c 1.609781,0.6806 2.915149,-0.168821 2.915149,-1.895579 V 46.611623 c 0,-17.246307 14.231457,-31.278374 31.722363,-31.278374 17.490894,0 31.722351,14.032067 31.722351,31.278374 v 30.233545 c 0,1.728087 1.305381,2.577508 2.915149,1.895579 l 8.972764,-3.791157 c 1.60978,-0.679271 2.915149,-2.63068 2.915149,-4.358766 V 56.51622 c 0,-1.726758 -1.305369,-3.678167 -2.915149,-4.360097 M 62.688149,69.028898 c -2.919139,0 -5.28661,-2.334247 -5.28661,-5.213505 0,-2.879259 2.366141,-5.212176 5.28661,-5.212176 2.92047,0 5.287941,2.332917 5.287941,5.212176 0,2.879258 -2.366141,5.213505 -5.287941,5.213505 M 50.000007,56.51622 c -2.920469,0 -5.286623,-2.334247 -5.286623,-5.212176 0,-2.87926 2.366154,-5.213506 5.286623,-5.213506 2.92047,0 5.286611,2.334246 5.286611,5.213506 0,2.877929 -2.366141,5.212176 -5.286611,5.212176 m -2.11359,7.297844 a 2.1002903,2.1002903 0 0 1 2.11359,-2.084339 c 1.167116,0 2.113578,0.933167 2.113578,2.084339 a 2.1002903,2.1002903 0 0 1 -2.113578,2.085667 2.1002903,2.1002903 0 0 1 -2.11359,-2.085667 m 2.11359,17.723525 c -2.920469,0 -5.286623,-2.332917 -5.286623,-5.212176 0,-2.879259 2.366154,-5.213505 5.286623,-5.213505 2.92047,0 5.286611,2.334246 5.286611,5.213505 0,2.879259 -2.366141,5.212176 -5.286611,5.212176 M 37.311853,69.027569 c -2.920457,0 -5.287941,-2.334247 -5.287941,-5.213505 0,-2.879258 2.367484,-5.212177 5.287941,-5.212177 2.919139,0 5.286623,2.332919 5.286623,5.212177 0,2.879258 -2.366154,5.213505 -5.286623,5.213505 M 50.000007,37.749196 c -14.599673,0 -26.434422,11.669904 -26.434422,26.064868 0,14.396293 11.834749,26.064868 26.434422,26.064868 14.599674,0 26.43441,-11.669904 26.43441,-26.064868 0,-14.394964 -11.834736,-26.064868 -26.43441,-26.064868"
                   fill="#8f64ca"
                   id="path6"
                   style="fill-rule:evenodd;stroke-width:1.3293" />
              </g>
            </g>
          </g>
        </g>
      </g>
    </g>
  </g>
</svg>
