<?xml version="1.0" encoding="UTF-8" standalone="no"?>
<svg
   xmlns:dc="http://purl.org/dc/elements/1.1/"
   xmlns:cc="http://creativecommons.org/ns#"
   xmlns:rdf="http://www.w3.org/1999/02/22-rdf-syntax-ns#"
   xmlns:svg="http://www.w3.org/2000/svg"
   xmlns="http://www.w3.org/2000/svg"
   xmlns:sodipodi="http://sodipodi.sourceforge.net/DTD/sodipodi-0.dtd"
   xmlns:inkscape="http://www.inkscape.org/namespaces/inkscape"
   width="48"
   height="48"
   viewBox="0 0 12.7 12.7"
   version="1.1"
   id="svg8"
   inkscape:version="1.0.1 (3bc2e813f5, 2020-09-07)"
   sodipodi:docname="4kyoutubetomp3.svg">
  <defs
     id="defs2" />
  <sodipodi:namedview
     id="base"
     pagecolor="#ffffff"
     bordercolor="#666666"
     borderopacity="1.0"
     inkscape:pageopacity="0.0"
     inkscape:pageshadow="2"
     inkscape:zoom="8.0000004"
     inkscape:cx="14.479326"
     inkscape:cy="26.317335"
     inkscape:document-units="px"
     inkscape:current-layer="4k/slideshow_maker"
     showgrid="false"
     inkscape:window-width="1920"
     inkscape:window-height="1051"
     inkscape:window-x="0"
     inkscape:window-y="0"
     inkscape:window-maximized="1"
     showguides="true"
     inkscape:guide-bbox="true"
     inkscape:document-rotation="0"
     inkscape:showpageshadow="false"
     showborder="false"
     units="px">
    <inkscape:grid
       type="xygrid"
       id="grid917" />
  </sodipodi:namedview>
  <metadata
     id="metadata5">
    <rdf:RDF>
      <cc:Work
         rdf:about="">
        <dc:format>image/svg+xml</dc:format>
        <dc:type
           rdf:resource="http://purl.org/dc/dcmitype/StillImage" />
        <dc:title />
      </cc:Work>
    </rdf:RDF>
  </metadata>
  <g
     inkscape:groupmode="layer"
     id="layer3"
     inkscape:label="Задний фон"
     transform="translate(0,87)"
     style="opacity:1">
    <path
       id="path838"
       style="fill:#fbc707;stroke:none;stroke-width:0.32508;fill-opacity:1"
       d="M 6.2941893,-86.999969 A 6.3499999,6.3499999 0 0 0 2.4147492e-8,-80.649969 6.3499999,6.3499999 0 0 0 6.35,-74.299969 a 6.3499999,6.3499999 0 0 0 6.35,-6.35 6.3499999,6.3499999 0 0 0 -6.35,-6.35 6.3499999,6.3499999 0 0 0 -0.055811,0 z M 6.35,-86.203635 a 5.5534916,5.5534916 0 0 1 5.553666,5.553666 A 5.5534916,5.5534916 0 0 1 6.35,-75.096303 5.5534916,5.5534916 0 0 1 0.79633383,-80.649969 5.5534916,5.5534916 0 0 1 6.35,-86.203635 Z" />
    <g
       id="g1913"
       transform="matrix(0.14938293,0,0,0.14938293,1.5690066,-85.564189)"
       style="display:inline" />
    <g
       id="2-main"
       stroke="none"
       stroke-width="1"
       fill="none"
       fill-rule="evenodd"
       transform="matrix(0.09786004,0,0,0.09786004,1.4569979,-85.543002)">
      <g
         id="2_main_1920"
         transform="translate(-1419,-3925)">
        <g
           id="Get-started"
           transform="translate(0,3557)">
          <g
             id="5"
             transform="translate(1350,328)">
            <g
               id="Group-26"
               transform="translate(6,40)">
              <g
                 id="4k/slideshow_maker"
                 transform="translate(63)">
                <path
                   style="fill:#678dfd;fill-opacity:1;stroke:none;stroke-width:0.276119;stroke-linecap:round;stroke-linejoin:bevel;paint-order:fill markers stroke"
                   d="M 19.916581,82.356799 C 11.227088,80.990867 4.3962951,74.193046 3.0272045,65.548942 2.685801,63.393429 2.7996294,59.74719 3.2665264,57.882688 5.0331858,50.827725 9.9096959,45.492987 16.655374,43.235746 c 0.881922,-0.295106 2.182121,-0.626351 2.889338,-0.736094 l 1.285855,-0.199542 0.410895,-1.622202 c 1.177701,-4.649566 4.074846,-8.241747 8.339302,-10.339916 1.738845,-0.855536 3.34773,-1.351469 4.9855,-1.536762 l 0.939223,-0.106251 0.740152,-1.091268 c 4.461122,-6.577383 12.485682,-10.568898 20.428442,-10.16136 6.031043,0.30945 11.286086,2.645506 15.558667,6.916387 4.376451,4.374715 6.662778,9.581415 6.923914,15.767938 l 0.0955,2.262643 0.475267,1.54e-4 c 0.616901,3.09e-4 3.304863,0.662672 4.386955,1.081111 6.678183,2.582395 11.573892,8.471758 12.8099,15.409843 0.325145,1.825113 0.328876,5.110395 0.0082,6.941961 -1.507166,8.600012 -8.296072,15.218753 -16.959593,16.534502 -2.013353,0.305772 -58.110758,0.305645 -60.056008,-1.37e-4 z m 18.602031,-8.957683 c 1.929082,-0.600398 3.55713,-2.142695 4.360011,-4.130357 l 0.354721,-0.878183 0.04439,-10.307728 c 0.04131,-9.57167 0.06318,-10.313121 0.306799,-10.383257 0.548344,-0.157838 17.122525,-5.344033 17.316321,-5.4184 0.167225,-0.06418 0.203519,1.145183 0.203519,6.781009 0,6.470943 -0.01525,6.85307 -0.268444,6.75225 -0.147662,-0.05873 -0.786178,-0.143758 -1.418947,-0.188821 -2.854779,-0.203319 -5.43366,1.327287 -6.645893,3.944459 -0.603702,1.303357 -0.739154,3.202382 -0.334931,4.695696 0.686946,2.537776 2.798468,4.393227 5.532501,4.861549 2.821489,0.483301 6.059711,-1.154551 7.31216,-3.698392 l 0.502255,-1.020107 0.04167,-16.642928 c 0.02279,-9.153604 0.0091,-16.728386 -0.03123,-16.832846 -0.05111,-0.133101 -3.826537,1.067297 -12.620472,4.012679 C 46.271869,37.257173 40.19402,39.297143 39.6667,39.47901 l -0.95874,0.330674 v 10.336605 10.336605 l -0.355138,-0.135017 c -0.70877,-0.269478 -2.041032,-0.341648 -3.02234,-0.163738 -1.371986,0.248753 -2.457209,0.799195 -3.52533,1.788083 -3.748384,3.470345 -2.319533,9.850426 2.554825,11.407721 1.189665,0.380085 2.972501,0.388309 4.158544,0.01915 z"
                   id="path899" />
              </g>
            </g>
          </g>
        </g>
      </g>
    </g>
  </g>
</svg>
