<?xml version="1.0" encoding="UTF-8" standalone="no"?>
<svg
   xmlns:dc="http://purl.org/dc/elements/1.1/"
   xmlns:cc="http://creativecommons.org/ns#"
   xmlns:rdf="http://www.w3.org/1999/02/22-rdf-syntax-ns#"
   xmlns:svg="http://www.w3.org/2000/svg"
   xmlns="http://www.w3.org/2000/svg"
   xmlns:sodipodi="http://sodipodi.sourceforge.net/DTD/sodipodi-0.dtd"
   xmlns:inkscape="http://www.inkscape.org/namespaces/inkscape"
   width="48"
   height="48"
   viewBox="0 0 12.7 12.7"
   version="1.1"
   id="svg8"
   inkscape:version="1.0.1 (3bc2e813f5, 2020-09-07)"
   sodipodi:docname="4kyoutubetomp3.svg">
  <defs
     id="defs2" />
  <sodipodi:namedview
     id="base"
     pagecolor="#ffffff"
     bordercolor="#666666"
     borderopacity="1.0"
     inkscape:pageopacity="0.0"
     inkscape:pageshadow="2"
     inkscape:zoom="8.0000004"
     inkscape:cx="14.479326"
     inkscape:cy="26.317335"
     inkscape:document-units="px"
     inkscape:current-layer="4k/slideshow_maker"
     showgrid="false"
     inkscape:window-width="1920"
     inkscape:window-height="1051"
     inkscape:window-x="0"
     inkscape:window-y="0"
     inkscape:window-maximized="1"
     showguides="true"
     inkscape:guide-bbox="true"
     inkscape:document-rotation="0"
     inkscape:showpageshadow="false"
     showborder="false"
     units="px">
    <inkscape:grid
       type="xygrid"
       id="grid917" />
  </sodipodi:namedview>
  <metadata
     id="metadata5">
    <rdf:RDF>
      <cc:Work
         rdf:about="">
        <dc:format>image/svg+xml</dc:format>
        <dc:type
           rdf:resource="http://purl.org/dc/dcmitype/StillImage" />
        <dc:title></dc:title>
      </cc:Work>
    </rdf:RDF>
  </metadata>
  <g
     inkscape:groupmode="layer"
     id="layer3"
     inkscape:label="Задний фон"
     transform="translate(0,87)"
     style="opacity:1">
    <path
       id="path838"
       style="fill:#fbc707;stroke:none;stroke-width:0.32508;fill-opacity:1"
       d="M 6.2941893,-86.999969 A 6.3499999,6.3499999 0 0 0 2.4147492e-8,-80.649969 6.3499999,6.3499999 0 0 0 6.35,-74.299969 a 6.3499999,6.3499999 0 0 0 6.35,-6.35 6.3499999,6.3499999 0 0 0 -6.35,-6.35 6.3499999,6.3499999 0 0 0 -0.055811,0 z M 6.35,-86.203635 a 5.5534916,5.5534916 0 0 1 5.553666,5.553666 A 5.5534916,5.5534916 0 0 1 6.35,-75.096303 5.5534916,5.5534916 0 0 1 0.79633383,-80.649969 5.5534916,5.5534916 0 0 1 6.35,-86.203635 Z" />
    <g
       id="g1913"
       transform="matrix(0.14938293,0,0,0.14938293,1.5690066,-85.564189)"
       style="display:inline" />
    <g
       id="2-main"
       stroke="none"
       stroke-width="1"
       fill="none"
       fill-rule="evenodd"
       transform="matrix(0.09786004,0,0,0.09786004,1.4569979,-85.543002)">
      <g
         id="2_main_1920"
         transform="translate(-1419,-3925)">
        <g
           id="Get-started"
           transform="translate(0,3557)">
          <g
             id="5"
             transform="translate(1350,328)">
            <g
               id="Group-26"
               transform="translate(6,40)">
              <g
                 id="4k/slideshow_maker"
                 transform="translate(63)">
                <path
                   style="fill:#678dfd;fill-opacity:1;stroke:none;stroke-width:0.304165;stroke-linecap:round;stroke-linejoin:bevel;paint-order:fill markers stroke"
                   d="m 16.860991,85.643297 c -9.5720903,-1.50467 -17.09669033,-8.99295 -18.6048403,-18.51504 -0.37608,-2.37445 -0.25069,-6.39104 0.26363,-8.44492 1.94609997,-7.77154 7.31792,-13.64813 14.7487603,-16.13464 0.9715,-0.32508 2.40376,-0.68997 3.18281,-0.81086 l 1.41646,-0.21981 0.45263,-1.78697 c 1.29732,-5.121825 4.48873,-9.078866 9.18633,-11.390147 1.91546,-0.942433 3.68776,-1.488738 5.49188,-1.692851 l 1.03462,-0.117043 0.81533,-1.202109 c 4.91424,-7.245452 13.75386,-11.642387 22.50337,-11.193455 6.64362,0.340881 12.43242,2.914211 17.13897,7.618888 4.82097,4.819057 7.33952,10.554605 7.62718,17.369497 l 0.1052,2.49246 0.52354,1.7e-4 c 0.67956,3.4e-4 3.64054,0.72998 4.83254,1.19092 7.35649,2.84469 12.749459,9.33224 14.111009,16.97503 0.35817,2.01049 0.36228,5.62946 0.009,7.64706 -1.66025,9.47352 -9.138709,16.76453 -18.682189,18.21392 -2.21785,0.33683 -64.0131,0.33669 -66.15593,-1.5e-4 z m 20.49145,-9.86752 c 2.12502,-0.66138 3.91843,-2.36033 4.80286,-4.54988 l 0.39075,-0.96738 0.0489,-11.35469 c 0.0455,-10.54387 0.0696,-11.36063 0.33796,-11.43789 0.60404,-0.17387 18.86167,-5.88683 19.07515,-5.96875 0.18421,-0.0707 0.22419,1.2615 0.22419,7.46976 0,7.1282 -0.0168,7.54914 -0.29571,7.43808 -0.16266,-0.0647 -0.86603,-0.15836 -1.56307,-0.208 -3.14474,-0.22397 -5.98556,1.4621 -7.32092,4.3451 -0.66502,1.43574 -0.81423,3.52765 -0.36895,5.17264 0.75672,2.79554 3.08271,4.83945 6.09444,5.35534 3.10807,0.53239 6.6752,-1.27182 8.05486,-4.07404 l 0.55327,-1.12372 0.0459,-18.33336 c 0.0251,-10.08334 0.01,-18.427497 -0.0344,-18.542567 -0.0563,-0.146621 -4.2152,1.175703 -13.90234,4.420249 -7.60213,2.546208 -14.29731,4.793378 -14.87819,4.993718 l -1.05612,0.36426 v 11.3865 11.3865 l -0.39121,-0.14873 c -0.78076,-0.29685 -2.24834,-0.37635 -3.32932,-0.18037 -1.51134,0.27402 -2.70679,0.88037 -3.8834,1.9697 -4.12911,3.82283 -2.55513,10.85094 2.81432,12.56641 1.3105,0.41869 3.27442,0.42775 4.58093,0.0211 z"
                   id="path899" />
              </g>
            </g>
          </g>
        </g>
      </g>
    </g>
  </g>
</svg>
