<?xml version="1.0" encoding="UTF-8" standalone="no"?>
<svg
   xmlns:dc="http://purl.org/dc/elements/1.1/"
   xmlns:cc="http://creativecommons.org/ns#"
   xmlns:rdf="http://www.w3.org/1999/02/22-rdf-syntax-ns#"
   xmlns:svg="http://www.w3.org/2000/svg"
   xmlns="http://www.w3.org/2000/svg"
   xmlns:sodipodi="http://sodipodi.sourceforge.net/DTD/sodipodi-0.dtd"
   xmlns:inkscape="http://www.inkscape.org/namespaces/inkscape"
   width="48"
   height="48"
   viewBox="0 0 12.7 12.7"
   version="1.1"
   id="svg8"
   inkscape:version="1.0.1 (3bc2e813f5, 2020-09-07)"
   sodipodi:docname="4pane.svg">
  <defs
     id="defs2" />
  <sodipodi:namedview
     id="base"
     pagecolor="#ffffff"
     bordercolor="#666666"
     borderopacity="1.0"
     inkscape:pageopacity="0.0"
     inkscape:pageshadow="2"
     inkscape:zoom="11.313709"
     inkscape:cx="24.40284"
     inkscape:cy="19.463307"
     inkscape:document-units="px"
     inkscape:current-layer="4k/slideshow_maker"
     showgrid="false"
     inkscape:window-width="1920"
     inkscape:window-height="1051"
     inkscape:window-x="0"
     inkscape:window-y="0"
     inkscape:window-maximized="1"
     showguides="true"
     inkscape:guide-bbox="true"
     inkscape:document-rotation="0"
     inkscape:showpageshadow="false"
     showborder="false"
     units="px">
    <inkscape:grid
       type="xygrid"
       id="grid917" />
  </sodipodi:namedview>
  <metadata
     id="metadata5">
    <rdf:RDF>
      <cc:Work
         rdf:about="">
        <dc:format>image/svg+xml</dc:format>
        <dc:type
           rdf:resource="http://purl.org/dc/dcmitype/StillImage" />
        <dc:title />
      </cc:Work>
    </rdf:RDF>
  </metadata>
  <g
     inkscape:groupmode="layer"
     id="layer3"
     inkscape:label="Задний фон"
     transform="translate(0,87)"
     style="opacity:1">
    <path
       id="path838"
       style="fill:#fbc707;stroke:none;stroke-width:0.32508;fill-opacity:1"
       d="M 6.2941893,-86.999969 A 6.3499999,6.3499999 0 0 0 2.4147492e-8,-80.649969 6.3499999,6.3499999 0 0 0 6.35,-74.299969 a 6.3499999,6.3499999 0 0 0 6.35,-6.35 6.3499999,6.3499999 0 0 0 -6.35,-6.35 6.3499999,6.3499999 0 0 0 -0.055811,0 z M 6.35,-86.203635 a 5.5534916,5.5534916 0 0 1 5.553666,5.553666 A 5.5534916,5.5534916 0 0 1 6.35,-75.096303 5.5534916,5.5534916 0 0 1 0.79633383,-80.649969 5.5534916,5.5534916 0 0 1 6.35,-86.203635 Z" />
    <g
       id="g1913"
       transform="matrix(0.14938293,0,0,0.14938293,1.5690066,-85.564189)"
       style="display:inline" />
    <g
       id="2-main"
       stroke="none"
       stroke-width="1"
       fill="none"
       fill-rule="evenodd"
       transform="matrix(0.09786004,0,0,0.09786004,1.4569979,-85.543002)">
      <g
         id="2_main_1920"
         transform="translate(-1419,-3925)">
        <g
           id="Get-started"
           transform="translate(0,3557)">
          <g
             id="5"
             transform="translate(1350,328)">
            <g
               id="Group-26"
               transform="translate(6,40)">
              <g
                 id="4k/slideshow_maker"
                 transform="translate(63)">
                <path
                   id="path2"
                   style="fill:#fbc707;stroke-width:0.762321;fill-opacity:1"
                   d="M 10.277344 10.660156 C 9.4326931 10.660156 8.7539062 11.338943 8.7539062 12.183594 L 8.7539062 35.816406 C 8.7539062 36.661057 9.4326931 37.339844 10.277344 37.339844 L 37.722656 37.339844 C 38.567305 37.339844 39.246094 36.661057 39.246094 35.816406 L 39.246094 12.183594 C 39.246094 11.338943 38.567305 10.660156 37.722656 10.660156 L 10.277344 10.660156 z M 10.552734 11.068359 L 37.447266 11.068359 C 38.274964 11.068359 38.941406 11.574736 38.941406 12.203125 L 38.941406 14.470703 L 9.0585938 14.470703 L 9.0585938 12.203125 C 9.0585938 11.574736 9.7250352 11.068359 10.552734 11.068359 z M 22.474609 15.996094 L 25.525391 15.996094 L 27.048828 15.996094 C 27.048828 15.996094 33.148438 15.995189 33.148438 22.09375 C 33.148437 29.716951 27.048828 29.716797 27.048828 29.716797 L 25.525391 29.716797 L 25.525391 35.816406 L 22.474609 35.816406 L 22.474609 29.716797 L 14.851562 29.716797 L 14.851562 26.667969 L 17.902344 17.519531 L 20.951172 17.519531 L 17.902344 26.667969 L 22.474609 26.667969 L 22.474609 15.996094 z M 25.525391 19.044922 L 25.525391 26.667969 L 27.048828 26.667969 C 27.048828 26.667969 30.097656 26.667671 30.097656 22.09375 C 30.097656 19.044469 27.048828 19.044922 27.048828 19.044922 L 25.525391 19.044922 z "
                   transform="matrix(2.7036912,0,0,2.7036912,-14.888589,-14.88859)" />
                <path
                   d="M 45.877842,30.419759 V 59.274857 H 33.511371 l 8.244314,-24.732941 h -8.244314 l -8.244313,24.732941 v 8.244314 h 20.610784 v 16.488627 h 8.244314 V 67.519171 h 4.122157 c 0,0 16.488627,0 16.488627,-20.610785 0,-16.488627 -16.488627,-16.488627 -16.488627,-16.488627 h -4.122157 z m 8.244314,8.244313 h 4.122157 c 0,0 8.244313,0 8.244313,8.244314 0,12.366471 -8.244313,12.366471 -8.244313,12.366471 h -4.122157 z"
                   style="opacity:0.1;stroke-width:2.06108"
                   id="path4" />
                <path
                   d="M 91.221572,81.946719 V 24.236524 H 49.999999 V 86.068876 H 87.09941 c 2.28367,0 4.122162,-1.838482 4.122162,-4.122157 z"
                   style="opacity:0.15;stroke-width:2.06108"
                   id="path10" />
                <path
                   d="m 8.7784307,81.946719 v 2.061079 c 0,2.283675 1.8384823,4.122156 4.1221563,4.122156 H 87.09941 c 2.28367,0 4.122162,-1.838481 4.122162,-4.122156 v -2.061079 c 0,2.283675 -1.838492,4.122157 -4.122162,4.122157 H 12.900587 c -2.283674,0 -4.1221563,-1.838482 -4.1221563,-4.122157 z"
                   style="opacity:0.2;stroke-width:2.06108"
                   id="path14" />
              </g>
            </g>
          </g>
        </g>
      </g>
    </g>
  </g>
</svg>
