<?xml version="1.0" encoding="UTF-8" standalone="no"?>
<svg
   xmlns:dc="http://purl.org/dc/elements/1.1/"
   xmlns:cc="http://creativecommons.org/ns#"
   xmlns:rdf="http://www.w3.org/1999/02/22-rdf-syntax-ns#"
   xmlns:svg="http://www.w3.org/2000/svg"
   xmlns="http://www.w3.org/2000/svg"
   xmlns:sodipodi="http://sodipodi.sourceforge.net/DTD/sodipodi-0.dtd"
   xmlns:inkscape="http://www.inkscape.org/namespaces/inkscape"
   width="48"
   height="48"
   viewBox="0 0 12.7 12.7"
   version="1.1"
   id="svg8"
   inkscape:version="1.0.1 (3bc2e813f5, 2020-09-07)"
   sodipodi:docname="7kaa.svg">
  <defs
     id="defs2" />
  <sodipodi:namedview
     id="base"
     pagecolor="#ffffff"
     bordercolor="#666666"
     borderopacity="1.0"
     inkscape:pageopacity="0.0"
     inkscape:pageshadow="2"
     inkscape:zoom="16.000001"
     inkscape:cx="23.981726"
     inkscape:cy="23.645157"
     inkscape:document-units="px"
     inkscape:current-layer="4k/slideshow_maker"
     showgrid="false"
     inkscape:window-width="1920"
     inkscape:window-height="1051"
     inkscape:window-x="0"
     inkscape:window-y="0"
     inkscape:window-maximized="1"
     showguides="true"
     inkscape:guide-bbox="true"
     inkscape:document-rotation="0"
     inkscape:showpageshadow="false"
     showborder="false"
     units="px">
    <inkscape:grid
       type="xygrid"
       id="grid917" />
  </sodipodi:namedview>
  <metadata
     id="metadata5">
    <rdf:RDF>
      <cc:Work
         rdf:about="">
        <dc:format>image/svg+xml</dc:format>
        <dc:type
           rdf:resource="http://purl.org/dc/dcmitype/StillImage" />
        <dc:title></dc:title>
      </cc:Work>
    </rdf:RDF>
  </metadata>
  <g
     inkscape:groupmode="layer"
     id="layer3"
     inkscape:label="Задний фон"
     transform="translate(0,87)"
     style="opacity:1">
    <path
       id="path838"
       style="fill:#fbc707;stroke:none;stroke-width:0.32508;fill-opacity:1"
       d="M 6.2941893,-86.999969 A 6.3499999,6.3499999 0 0 0 2.4147492e-8,-80.649969 6.3499999,6.3499999 0 0 0 6.35,-74.299969 a 6.3499999,6.3499999 0 0 0 6.35,-6.35 6.3499999,6.3499999 0 0 0 -6.35,-6.35 6.3499999,6.3499999 0 0 0 -0.055811,0 z M 6.35,-86.203635 a 5.5534916,5.5534916 0 0 1 5.553666,5.553666 A 5.5534916,5.5534916 0 0 1 6.35,-75.096303 5.5534916,5.5534916 0 0 1 0.79633383,-80.649969 5.5534916,5.5534916 0 0 1 6.35,-86.203635 Z" />
    <g
       id="g1913"
       transform="matrix(0.14938293,0,0,0.14938293,1.5690066,-85.564189)"
       style="display:inline" />
    <g
       id="2-main"
       stroke="none"
       stroke-width="1"
       fill="none"
       fill-rule="evenodd"
       transform="matrix(0.09786004,0,0,0.09786004,1.4569979,-85.543002)">
      <g
         id="2_main_1920"
         transform="translate(-1419,-3925)">
        <g
           id="Get-started"
           transform="translate(0,3557)">
          <g
             id="5"
             transform="translate(1350,328)">
            <g
               id="Group-26"
               transform="translate(6,40)">
              <g
                 id="4k/slideshow_maker"
                 transform="translate(63)">
                <rect
                   style="opacity:0.2;stroke-width:1.96676"
                   width="78.670525"
                   height="31.468208"
                   x="10.664741"
                   y="59.83382"
                   rx="7.8670521"
                   ry="7.8670521"
                   id="rect2" />
                <path
                   id="rect4"
                   style="fill:#fbc707;stroke-width:0.727435;fill-opacity:1"
                   d="M 20.267578 9.4257812 L 19.427734 11.910156 L 17.455078 10.179688 L 16.765625 12.216797 L 15.273438 10.90625 L 14.539062 13.076172 L 13.089844 12.361328 L 12.931641 14.816406 L 10.908203 13.816406 L 10.740234 16.412109 L 8.7246094 16.009766 L 9.2382812 18.582031 L 12.349609 26.912109 C 10.743232 26.918597 9.4511719 28.212359 9.4511719 29.820312 L 9.4511719 35.638672 C 9.4511719 37.250671 10.749329 38.548828 12.361328 38.548828 L 35.638672 38.548828 C 37.250671 38.548828 38.548828 37.250671 38.548828 35.638672 L 38.548828 29.820312 C 38.548828 28.208316 37.250671 26.910156 35.638672 26.910156 L 38.761719 18.582031 L 39.275391 16.009766 L 37.259766 16.412109 L 37.091797 13.816406 L 35.068359 14.816406 L 34.910156 12.361328 L 33.460938 13.076172 L 32.726562 10.90625 L 31.234375 12.216797 L 30.544922 10.179688 L 28.572266 11.910156 L 27.732422 9.4257812 L 25.759766 11.158203 L 25.460938 12.275391 L 25.460938 11.632812 L 24.005859 9.4511719 L 24 9.4589844 L 23.994141 9.4511719 L 22.539062 11.632812 L 22.539062 12.275391 L 22.240234 11.158203 L 20.267578 9.4257812 z M 18.539062 20.390625 C 20.30249 20.389701 22.06426 20.414094 22.240234 20.466797 C 22.790289 20.631597 23.233029 21.229474 23.230469 21.804688 C 23.228469 22.25071 23.058807 22.561793 22.478516 23.185547 C 19.78154 26.084524 19.051944 27.755883 18.882812 31.425781 C 18.848793 32.164058 18.814331 32.41942 18.716797 32.628906 C 18.580143 32.922401 18.3086 33.181227 18 33.310547 C 17.773177 33.405597 17.149077 33.417335 16.931641 33.330078 C 16.635748 33.21134 16.355272 32.934453 16.193359 32.603516 L 16.025391 32.261719 L 16.0625 31.0625 C 16.15548 28.124663 16.758941 26.120234 18.197266 23.972656 L 18.669922 23.269531 L 16.964844 23.269531 C 15.765248 23.269531 15.166399 23.246803 14.945312 23.189453 C 14.138186 22.980087 13.69558 22.193137 13.923828 21.371094 C 14.013398 21.04852 14.495154 20.570745 14.832031 20.470703 C 15.010191 20.417796 16.775635 20.391549 18.539062 20.390625 z M 32.060547 20.398438 C 32.389865 20.41907 32.719355 20.566223 32.992188 20.837891 C 33.421551 21.265421 33.539227 21.844655 33.302734 22.365234 C 33.240114 22.503083 32.366936 23.554557 31.361328 24.703125 C 30.355719 25.851693 29.517075 26.828552 29.5 26.873047 C 29.48273 26.918057 30.266869 27.861927 31.265625 29.001953 C 32.25288 30.128853 33.129352 31.155346 33.214844 31.283203 C 33.324838 31.447706 33.378991 31.630437 33.400391 31.908203 C 33.426971 32.253198 33.408784 32.34241 33.25 32.644531 C 32.998739 33.122707 32.553004 33.394531 32.019531 33.394531 C 31.365036 33.394531 31.258412 33.309947 29.746094 31.580078 L 28.388672 30.027344 L 28.355469 31.195312 C 28.319149 32.474146 28.270969 32.661092 27.878906 33.033203 C 27.493397 33.399091 26.743032 33.512852 26.294922 33.273438 C 26.174609 33.209158 25.985256 33.062064 25.875 32.947266 C 25.467281 32.522757 25.480907 32.743642 25.482422 26.871094 C 25.483722 21.651052 25.486249 21.545483 25.611328 21.269531 C 25.78269 20.891547 25.953777 20.718582 26.326172 20.542969 C 27.02634 20.212785 27.836145 20.495756 28.177734 21.189453 C 28.311447 21.460995 28.329002 21.593438 28.357422 22.642578 L 28.388672 23.796875 L 29.648438 22.355469 C 30.341864 21.56362 31.008821 20.829807 31.130859 20.722656 C 31.401489 20.48504 31.731229 20.377804 32.060547 20.398438 z "
                   transform="matrix(2.7036912,0,0,2.7036912,-14.888589,-14.88859)" />
                <path
                   style="opacity:0.2;stroke-width:1.96676"
                   d="m 57.810388,42.074372 a 3.9339194,3.9339194 0 0 0 -3.875906,3.991146 v 11.220537 a 3.9339194,3.9339194 0 0 0 0,1.044843 v 2.969352 a 3.9339194,3.9339194 0 0 0 0,1.033317 v 11.266634 a 3.9339194,3.9339194 0 1 0 7.867052,0 v -5.266468 l 6.872147,7.855526 a 3.9350541,3.9350541 0 1 0 5.923336,-5.181958 L 64.816981,59.832859 74.597017,48.654577 a 3.9350541,3.9350541 0 1 0 -5.923336,-5.181958 l -6.872147,7.855526 v -5.262627 a 3.9339194,3.9339194 0 0 0 -3.991146,-3.991146 z m -31.410589,0.05763 a 3.9339194,3.9339194 0 1 0 0,7.867053 h 9.23841 c -5.117306,6.996207 -7.271647,13.835588 -7.271647,23.601156 a 3.9339194,3.9339194 0 1 0 7.867053,0 c 0,-11.587656 2.015101,-15.723838 10.709638,-24.815019 a 3.9339194,3.9339194 0 0 0 -2.842586,-6.65319 z"
                   id="path14" />
                <path
                   style="opacity:0.2;stroke-width:1.51658"
                   d="m 50.000002,38.199426 -15.734105,-27.534682 31.468209,-1e-6 z"
                   id="path24" />
                <path
                   style="fill:#f43e3e;stroke-width:1.51658"
                   d="M 50.000002,36.232663 34.265897,8.6979805 l 31.468209,-7e-7 z"
                   id="path26" />
                <path
                   style="opacity:0.1;fill:#ffffff;stroke-width:1.96676"
                   d="m 34.265897,8.6979798 1.125512,1.9667632 h 29.217186 l 1.125511,-1.9667632 z"
                   id="path28" />
              </g>
            </g>
          </g>
        </g>
      </g>
    </g>
  </g>
</svg>
