<?xml version="1.0" encoding="UTF-8" standalone="no"?>
<svg
   xmlns:dc="http://purl.org/dc/elements/1.1/"
   xmlns:cc="http://creativecommons.org/ns#"
   xmlns:rdf="http://www.w3.org/1999/02/22-rdf-syntax-ns#"
   xmlns:svg="http://www.w3.org/2000/svg"
   xmlns="http://www.w3.org/2000/svg"
   xmlns:sodipodi="http://sodipodi.sourceforge.net/DTD/sodipodi-0.dtd"
   xmlns:inkscape="http://www.inkscape.org/namespaces/inkscape"
   width="48"
   height="48"
   viewBox="0 0 12.7 12.7"
   version="1.1"
   id="svg8"
   inkscape:version="1.0.1 (3bc2e813f5, 2020-09-07)"
   sodipodi:docname="a-boy-and-his-blob.svg">
  <defs
     id="defs2" />
  <sodipodi:namedview
     id="base"
     pagecolor="#ffffff"
     bordercolor="#666666"
     borderopacity="1.0"
     inkscape:pageopacity="0.0"
     inkscape:pageshadow="2"
     inkscape:zoom="16.000001"
     inkscape:cx="16.35918"
     inkscape:cy="24.5068"
     inkscape:document-units="px"
     inkscape:current-layer="layer3"
     showgrid="false"
     inkscape:window-width="1920"
     inkscape:window-height="1051"
     inkscape:window-x="0"
     inkscape:window-y="0"
     inkscape:window-maximized="1"
     showguides="true"
     inkscape:guide-bbox="true"
     inkscape:document-rotation="0"
     inkscape:showpageshadow="false"
     showborder="false"
     units="px">
    <inkscape:grid
       type="xygrid"
       id="grid917" />
  </sodipodi:namedview>
  <metadata
     id="metadata5">
    <rdf:RDF>
      <cc:Work
         rdf:about="">
        <dc:format>image/svg+xml</dc:format>
        <dc:type
           rdf:resource="http://purl.org/dc/dcmitype/StillImage" />
        <dc:title></dc:title>
      </cc:Work>
    </rdf:RDF>
  </metadata>
  <g
     inkscape:groupmode="layer"
     id="layer3"
     inkscape:label="Задний фон"
     transform="translate(0,87)"
     style="opacity:1">
    <path
       id="path838"
       style="fill:#fbc707;fill-opacity:1;stroke:none;stroke-width:1.22865"
       d="M 23.789062 0 A 24 24 0 0 0 0 24 A 24 24 0 0 0 24 48 A 24 24 0 0 0 48 24 A 24 24 0 0 0 24 0 A 24 24 0 0 0 23.789062 0 z M 24 3.0097656 A 20.989575 20.989575 0 0 1 44.990234 24 A 20.989575 20.989575 0 0 1 24 44.990234 A 20.989575 20.989575 0 0 1 3.0097656 24 A 20.989575 20.989575 0 0 1 24 3.0097656 z "
       transform="matrix(0.26458333,0,0,0.26458333,0,-87)" />
    <path
       id="path883"
       style="fill:#fbc707;fill-opacity:1;stroke:none;stroke-width:1.10636"
       d="M 23.921875 5.0996094 A 18.900471 18.900471 0 0 0 5.0996094 24 A 18.900471 18.900471 0 0 0 24 42.900391 A 18.900471 18.900471 0 0 0 42.900391 24 A 18.900471 18.900471 0 0 0 24 5.0996094 A 18.900471 18.900471 0 0 0 23.921875 5.0996094 z M 29.835938 9.0058594 C 38.589978 9.0058594 38.589844 23.595615 38.589844 29.431641 C 38.589844 35.267666 29.836027 38.185547 24 38.185547 C 18.163973 38.185547 9.4101562 34.902915 9.4101562 29.431641 C 9.4101562 23.595615 14.806718 21.117112 18.164062 17.759766 C 21.082075 14.841751 22.540904 9.0058594 29.835938 9.0058594 z M 26.861328 13.382812 A 1.4590059 1.4590068 0 0 0 25.458984 14.841797 A 1.4590059 1.4590068 0 0 0 26.917969 16.300781 A 1.4590059 1.4590068 0 0 0 28.376953 14.841797 A 1.4590059 1.4590068 0 0 0 26.917969 13.382812 A 1.4590059 1.4590068 0 0 0 26.861328 13.382812 z M 32.697266 13.382812 A 1.4590069 1.4590068 0 0 0 31.294922 14.841797 A 1.4590069 1.4590068 0 0 0 32.753906 16.300781 A 1.4590069 1.4590068 0 0 0 34.212891 14.841797 A 1.4590069 1.4590068 0 0 0 32.753906 13.382812 A 1.4590069 1.4590068 0 0 0 32.697266 13.382812 z M 26.917969 17.759766 C 25.458962 17.759766 25.458984 19.21875 25.458984 19.21875 C 25.458983 22.136764 26.917925 23.595703 29.835938 23.595703 C 32.753951 23.595703 34.212891 22.136764 34.212891 19.21875 C 34.212891 19.21875 34.212913 17.759766 32.753906 17.759766 L 26.917969 17.759766 z "
       transform="matrix(0.26458333,0,0,0.26458333,0,-87)" />
    <g
       id="g1913"
       transform="matrix(0.14938293,0,0,0.14938293,1.5690066,-85.564189)"
       style="display:inline" />
    <g
       id="2-main"
       stroke="none"
       stroke-width="1"
       fill="none"
       fill-rule="evenodd"
       transform="matrix(0.09786004,0,0,0.09786004,1.4569979,-85.543002)">
      <g
         id="2_main_1920"
         transform="translate(-1419,-3925)">
        <g
           id="Get-started"
           transform="translate(0,3557)">
          <g
             id="5"
             transform="translate(1350,328)">
            <g
               id="Group-26"
               transform="translate(6,40)">
              <g
                 id="4k/slideshow_maker"
                 transform="translate(63)" />
            </g>
          </g>
        </g>
      </g>
    </g>
  </g>
</svg>
