<?xml version="1.0" encoding="UTF-8" standalone="no"?>
<svg
   xmlns:dc="http://purl.org/dc/elements/1.1/"
   xmlns:cc="http://creativecommons.org/ns#"
   xmlns:rdf="http://www.w3.org/1999/02/22-rdf-syntax-ns#"
   xmlns:svg="http://www.w3.org/2000/svg"
   xmlns="http://www.w3.org/2000/svg"
   xmlns:sodipodi="http://sodipodi.sourceforge.net/DTD/sodipodi-0.dtd"
   xmlns:inkscape="http://www.inkscape.org/namespaces/inkscape"
   width="48"
   height="48"
   viewBox="0 0 12.7 12.7"
   version="1.1"
   id="svg8"
   inkscape:version="1.0.1 (3bc2e813f5, 2020-09-07)"
   sodipodi:docname="a-story-about-my-uncle.svg">
  <defs
     id="defs2" />
  <sodipodi:namedview
     id="base"
     pagecolor="#ffffff"
     bordercolor="#666666"
     borderopacity="1.0"
     inkscape:pageopacity="0.0"
     inkscape:pageshadow="2"
     inkscape:zoom="16.000001"
     inkscape:cx="30.884194"
     inkscape:cy="19.096707"
     inkscape:document-units="px"
     inkscape:current-layer="layer3"
     showgrid="false"
     inkscape:window-width="1920"
     inkscape:window-height="1051"
     inkscape:window-x="0"
     inkscape:window-y="0"
     inkscape:window-maximized="1"
     showguides="true"
     inkscape:guide-bbox="true"
     inkscape:document-rotation="0"
     inkscape:showpageshadow="false"
     showborder="false"
     units="px">
    <inkscape:grid
       type="xygrid"
       id="grid917" />
  </sodipodi:namedview>
  <metadata
     id="metadata5">
    <rdf:RDF>
      <cc:Work
         rdf:about="">
        <dc:format>image/svg+xml</dc:format>
        <dc:type
           rdf:resource="http://purl.org/dc/dcmitype/StillImage" />
        <dc:title></dc:title>
      </cc:Work>
    </rdf:RDF>
  </metadata>
  <g
     inkscape:groupmode="layer"
     id="layer3"
     inkscape:label="Задний фон"
     transform="translate(0,87)"
     style="opacity:1">
    <path
       id="path838"
       style="fill:#fbc707;stroke:none;stroke-width:0.32508;fill-opacity:1"
       d="M 6.2941893,-86.999969 A 6.3499999,6.3499999 0 0 0 2.4147492e-8,-80.649969 6.3499999,6.3499999 0 0 0 6.35,-74.299969 a 6.3499999,6.3499999 0 0 0 6.35,-6.35 6.3499999,6.3499999 0 0 0 -6.35,-6.35 6.3499999,6.3499999 0 0 0 -0.055811,0 z M 6.35,-86.203635 a 5.5534916,5.5534916 0 0 1 5.553666,5.553666 A 5.5534916,5.5534916 0 0 1 6.35,-75.096303 5.5534916,5.5534916 0 0 1 0.79633383,-80.649969 5.5534916,5.5534916 0 0 1 6.35,-86.203635 Z" />
    <g
       id="g1913"
       transform="matrix(0.14938293,0,0,0.14938293,1.5690066,-85.564189)"
       style="display:inline" />
    <g
       id="2-main"
       stroke="none"
       stroke-width="1"
       fill="none"
       fill-rule="evenodd"
       transform="matrix(0.09786004,0,0,0.09786004,1.4569979,-85.543002)">
      <g
         id="2_main_1920"
         transform="translate(-1419,-3925)">
        <g
           id="Get-started"
           transform="translate(0,3557)">
          <g
             id="5"
             transform="translate(1350,328)">
            <g
               id="Group-26"
               transform="translate(6,40)">
              <g
                 id="4k/slideshow_maker"
                 transform="translate(63)" />
            </g>
          </g>
        </g>
      </g>
    </g>
    <path
       id="circle4"
       style="fill:#fbc707;fill-opacity:1;stroke-width:0.922088"
       d="M 23.919922 5.1757812 A 18.441763 18.441763 0 0 0 5.5585938 23.619141 A 18.441763 18.441763 0 0 0 22.15625 41.966797 L 22.15625 36.326172 L 11.580078 24.869141 A 1.8443607 1.8443607 0 0 1 11.630859 22.314453 L 22.15625 11.789062 L 22.15625 5.2871094 A 18.441763 18.441763 0 0 1 24 5.1757812 A 18.441763 18.441763 0 0 0 23.919922 5.1757812 z M 24.123047 5.1777344 A 18.441763 18.441763 0 0 1 24.402344 5.1816406 A 18.441763 18.441763 0 0 0 24.123047 5.1777344 z M 25.84375 5.2695312 L 25.84375 11.789062 L 31.376953 17.322266 L 32.839844 15.859375 A 1.8443607 1.8443607 0 1 1 35.447266 18.466797 L 32.679688 21.234375 A 1.8443607 1.8443607 0 0 1 30.072266 21.234375 L 24 15.160156 L 15.492188 23.667969 L 23.974609 32.859375 L 29.998047 26.082031 A 1.8443607 1.8443607 0 0 1 32.679688 26.001953 L 35.447266 28.769531 A 1.8443607 1.8443607 0 1 1 32.839844 31.376953 L 31.455078 29.994141 L 25.84375 36.306641 L 25.84375 41.949219 A 18.441763 18.441763 0 0 1 24 42.060547 A 18.441763 18.441763 0 0 0 42.441406 23.619141 A 18.441763 18.441763 0 0 0 25.84375 5.2695312 z M 24 21.773438 A 1.8441763 1.8441763 0 0 1 25.84375 23.619141 A 1.8441763 1.8441763 0 0 1 24 25.462891 A 1.8441763 1.8441763 0 0 1 22.15625 23.619141 A 1.8441763 1.8441763 0 0 1 24 21.773438 z "
       transform="matrix(0.26458333,0,0,0.26458333,0,-87)" />
  </g>
</svg>
