<?xml version="1.0" encoding="UTF-8" standalone="no"?>
<svg
   xmlns:dc="http://purl.org/dc/elements/1.1/"
   xmlns:cc="http://creativecommons.org/ns#"
   xmlns:rdf="http://www.w3.org/1999/02/22-rdf-syntax-ns#"
   xmlns:svg="http://www.w3.org/2000/svg"
   xmlns="http://www.w3.org/2000/svg"
   xmlns:sodipodi="http://sodipodi.sourceforge.net/DTD/sodipodi-0.dtd"
   xmlns:inkscape="http://www.inkscape.org/namespaces/inkscape"
   width="48"
   height="48"
   viewBox="0 0 12.7 12.7"
   version="1.1"
   id="svg8"
   inkscape:version="1.0.1 (3bc2e813f5, 2020-09-07)"
   sodipodi:docname="aafm.svg">
  <defs
     id="defs2" />
  <sodipodi:namedview
     id="base"
     pagecolor="#ffffff"
     bordercolor="#666666"
     borderopacity="1.0"
     inkscape:pageopacity="0.0"
     inkscape:pageshadow="2"
     inkscape:zoom="11.313709"
     inkscape:cx="13.159902"
     inkscape:cy="33.080182"
     inkscape:document-units="px"
     inkscape:current-layer="layer3"
     showgrid="false"
     inkscape:window-width="1920"
     inkscape:window-height="1051"
     inkscape:window-x="0"
     inkscape:window-y="0"
     inkscape:window-maximized="1"
     showguides="true"
     inkscape:guide-bbox="true"
     inkscape:document-rotation="0"
     inkscape:showpageshadow="false"
     showborder="false"
     units="px">
    <inkscape:grid
       type="xygrid"
       id="grid917" />
  </sodipodi:namedview>
  <metadata
     id="metadata5">
    <rdf:RDF>
      <cc:Work
         rdf:about="">
        <dc:format>image/svg+xml</dc:format>
        <dc:type
           rdf:resource="http://purl.org/dc/dcmitype/StillImage" />
        <dc:title></dc:title>
      </cc:Work>
    </rdf:RDF>
  </metadata>
  <g
     inkscape:groupmode="layer"
     id="layer3"
     inkscape:label="Задний фон"
     transform="translate(0,87)"
     style="opacity:1">
    <path
       id="path838"
       style="fill:#fbc707;stroke:none;stroke-width:0.32508;fill-opacity:1"
       d="M 6.2941893,-86.999969 A 6.3499999,6.3499999 0 0 0 2.4147492e-8,-80.649969 6.3499999,6.3499999 0 0 0 6.35,-74.299969 a 6.3499999,6.3499999 0 0 0 6.35,-6.35 6.3499999,6.3499999 0 0 0 -6.35,-6.35 6.3499999,6.3499999 0 0 0 -0.055811,0 z M 6.35,-86.203635 a 5.5534916,5.5534916 0 0 1 5.553666,5.553666 A 5.5534916,5.5534916 0 0 1 6.35,-75.096303 5.5534916,5.5534916 0 0 1 0.79633383,-80.649969 5.5534916,5.5534916 0 0 1 6.35,-86.203635 Z" />
    <g
       id="g1913"
       transform="matrix(0.14938293,0,0,0.14938293,1.5690066,-85.564189)"
       style="display:inline" />
    <g
       id="2-main"
       stroke="none"
       stroke-width="1"
       fill="none"
       fill-rule="evenodd"
       transform="matrix(0.09786004,0,0,0.09786004,1.4569979,-85.543002)">
      <g
         id="2_main_1920"
         transform="translate(-1419,-3925)">
        <g
           id="Get-started"
           transform="translate(0,3557)">
          <g
             id="5"
             transform="translate(1350,328)">
            <g
               id="Group-26"
               transform="translate(6,40)">
              <g
                 id="4k/slideshow_maker"
                 transform="translate(63)" />
            </g>
          </g>
        </g>
      </g>
    </g>
    <path
       id="path10"
       style="fill:#fbc707;stroke-width:0.204129;fill-opacity:1"
       d="m 8.9032854,-84.887156 c -0.066874,-0.0011 -0.1239856,0.01783 -0.1815482,0.06016 -0.036757,0.02703 -0.083808,0.09241 -0.4243162,0.585282 l -0.1498828,0.216908 0.1240227,0.07441 c 0.068143,0.0411 0.1789463,0.116231 0.2464623,0.166771 0.067516,0.05054 0.1263106,0.08849 0.1303557,0.08444 0.027863,-0.02792 0.5155297,-0.747292 0.5298674,-0.781608 0.00991,-0.02367 0.017944,-0.07461 0.017944,-0.11294 0,-0.163043 -0.1274362,-0.290676 -0.2929046,-0.293433 z m -5.0970708,5.28e-4 c -0.075332,-0.0018 -0.1514615,0.02458 -0.2089916,0.07916 -0.083627,0.07933 -0.1183496,0.213639 -0.081275,0.315071 0.00771,0.0211 0.132049,0.210281 0.2765441,0.420093 l 0.2628227,0.381568 0.036943,-0.02797 c 0.036483,-0.02757 0.075858,-0.05107 0.1155788,-0.07916 a 3.6743195,3.6743195 0 0 0 -1.5320767,2.984992 v 3.469998 c 0,0.339263 0.272935,0.612197 0.6121974,0.612197 h 6.1240848 c 0.3392621,0 0.6121959,-0.272934 0.6121959,-0.612197 v -3.469998 a 3.6743195,3.6743195 0 0 0 -3.6742385,-3.674767 3.6743195,3.6743195 0 0 0 -2.0044186,0.594781 c 0.029594,-0.01939 0.061829,-0.0442 0.088663,-0.06069 0.064033,-0.03935 0.1133806,-0.07649 0.1097733,-0.08233 -0.050272,-0.08134 -0.506983,-0.73248 -0.534617,-0.762081 -0.053422,-0.05722 -0.1278543,-0.08687 -0.2031862,-0.08867 z m 0.991654,2.236631 a 0.51032215,0.51032215 0 0 1 0.021111,0 0.51032215,0.51032215 0 0 1 0.5103404,0.509813 0.51032215,0.51032215 0 0 1 -0.5103404,0.510339 0.51032215,0.51032215 0 0 1 -0.5103403,-0.510339 0.51032215,0.51032215 0 0 1 0.4892293,-0.509813 z m 3.2662841,0 a 0.51032215,0.51032215 0 0 1 0.021111,0 0.51032215,0.51032215 0 0 1 0.5103404,0.509813 0.51032215,0.51032215 0 0 1 -0.5103404,0.510339 0.51032215,0.51032215 0 0 1 -0.5103405,-0.510339 0.51032215,0.51032215 0 0 1 0.4892295,-0.509813 z m -2.9390751,2.449317 h 1.0206809 l 0.4084832,0.408484 h 1.0206808 c 0,0 0.2042416,-4.16e-4 0.2042416,0.203714 v 1.83712 c 0,0.204128 -0.2042416,0.204241 -0.2042416,0.204241 H 5.1250776 c -0.2041289,0 -0.2042415,-0.204241 -0.2042415,-0.204241 v -2.245076 c 0,-0.204129 0.2042415,-0.204242 0.2042415,-0.204242 z" />
  </g>
</svg>
