<?xml version="1.0" encoding="UTF-8" standalone="no"?>
<svg
   xmlns:dc="http://purl.org/dc/elements/1.1/"
   xmlns:cc="http://creativecommons.org/ns#"
   xmlns:rdf="http://www.w3.org/1999/02/22-rdf-syntax-ns#"
   xmlns:svg="http://www.w3.org/2000/svg"
   xmlns="http://www.w3.org/2000/svg"
   xmlns:sodipodi="http://sodipodi.sourceforge.net/DTD/sodipodi-0.dtd"
   xmlns:inkscape="http://www.inkscape.org/namespaces/inkscape"
   width="48"
   height="48"
   viewBox="0 0 12.7 12.7"
   version="1.1"
   id="svg8"
   inkscape:version="1.0.1 (3bc2e813f5, 2020-09-07)"
   sodipodi:docname="abe.svg">
  <defs
     id="defs2" />
  <sodipodi:namedview
     id="base"
     pagecolor="#ffffff"
     bordercolor="#666666"
     borderopacity="1.0"
     inkscape:pageopacity="0.0"
     inkscape:pageshadow="2"
     inkscape:zoom="16.000001"
     inkscape:cx="17.8634"
     inkscape:cy="24.564357"
     inkscape:document-units="px"
     inkscape:current-layer="layer3"
     showgrid="false"
     inkscape:window-width="1920"
     inkscape:window-height="1051"
     inkscape:window-x="0"
     inkscape:window-y="0"
     inkscape:window-maximized="1"
     showguides="true"
     inkscape:guide-bbox="true"
     inkscape:document-rotation="0"
     inkscape:showpageshadow="false"
     showborder="false"
     units="px">
    <inkscape:grid
       type="xygrid"
       id="grid917" />
  </sodipodi:namedview>
  <metadata
     id="metadata5">
    <rdf:RDF>
      <cc:Work
         rdf:about="">
        <dc:format>image/svg+xml</dc:format>
        <dc:type
           rdf:resource="http://purl.org/dc/dcmitype/StillImage" />
        <dc:title></dc:title>
      </cc:Work>
    </rdf:RDF>
  </metadata>
  <g
     inkscape:groupmode="layer"
     id="layer3"
     inkscape:label="Задний фон"
     transform="translate(0,87)"
     style="opacity:1">
    <path
       id="path838"
       style="fill:#fbc707;stroke:none;stroke-width:0.32508;fill-opacity:1"
       d="M 6.2941893,-86.999969 A 6.3499999,6.3499999 0 0 0 2.4147492e-8,-80.649969 6.3499999,6.3499999 0 0 0 6.35,-74.299969 a 6.3499999,6.3499999 0 0 0 6.35,-6.35 6.3499999,6.3499999 0 0 0 -6.35,-6.35 6.3499999,6.3499999 0 0 0 -0.055811,0 z M 6.35,-86.203635 a 5.5534916,5.5534916 0 0 1 5.553666,5.553666 A 5.5534916,5.5534916 0 0 1 6.35,-75.096303 5.5534916,5.5534916 0 0 1 0.79633383,-80.649969 5.5534916,5.5534916 0 0 1 6.35,-86.203635 Z" />
    <g
       id="g1913"
       transform="matrix(0.14938293,0,0,0.14938293,1.5690066,-85.564189)"
       style="display:inline" />
    <g
       id="2-main"
       stroke="none"
       stroke-width="1"
       fill="none"
       fill-rule="evenodd"
       transform="matrix(0.09786004,0,0,0.09786004,1.4569979,-85.543002)">
      <g
         id="2_main_1920"
         transform="translate(-1419,-3925)">
        <g
           id="Get-started"
           transform="translate(0,3557)">
          <g
             id="5"
             transform="translate(1350,328)">
            <g
               id="Group-26"
               transform="translate(6,40)">
              <g
                 id="4k/slideshow_maker"
                 transform="translate(63)" />
            </g>
          </g>
        </g>
      </g>
    </g>
    <path
       id="path2"
       style="fill:#fbc707;stroke-width:0.860731;fill-opacity:1"
       d="M 24 6.3554688 A 15.460166 10.328797 0 0 0 8.5390625 16.683594 A 15.460166 10.328797 0 0 0 8.5429688 16.876953 C 7.7378735 17.186606 7.1129773 17.862573 6.9199219 18.681641 C 6.6026222 20.027833 7.4365984 21.392893 8.7949219 21.748047 C 8.9021794 21.77609 9.6668973 21.791409 11.974609 21.800781 L 11.974609 30.455078 C 11.974609 31.169892 12.082808 31.880263 12.253906 32.578125 C 12.275181 32.662033 12.294021 32.746361 12.316406 32.830078 C 12.342524 32.926534 12.36585 33.023338 12.394531 33.119141 C 12.430712 33.240043 12.473857 33.358716 12.513672 33.478516 C 12.557665 33.610075 12.598735 33.742601 12.646484 33.873047 C 13.054025 34.972379 13.604215 36.013418 14.179688 36.941406 C 15.581217 39.20121 17.128906 40.785156 17.128906 40.785156 L 30.871094 40.785156 C 30.871094 40.785156 34.306641 35.620665 34.306641 32.177734 L 39.460938 32.177734 L 34.306641 21.847656 L 34.1875 21.808594 C 37.433248 21.80114 39.042195 21.784951 39.179688 21.75 C 41.092672 21.263727 41.796242 18.952385 40.460938 17.537109 C 40.176507 17.235644 39.831586 17.021464 39.455078 16.876953 A 15.460166 10.328797 0 0 0 39.460938 16.683594 A 15.460166 10.328797 0 0 0 24 6.3554688 z M 12.939453 21.802734 C 15.183702 21.81004 18.228619 21.813334 23.978516 21.814453 C 25.298741 21.81471 25.369288 21.812485 26.470703 21.8125 L 26.470703 25.587891 C 25.875551 26.370242 25.215198 26.892207 24.519531 27.396484 C 24.401936 27.214693 24.367881 27.155027 24.011719 26.619141 C 23.523404 25.884415 23.036859 25.181695 22.931641 25.056641 C 22.459462 24.495447 21.544359 23.930886 20.773438 23.726562 C 20.462059 23.644035 20.280701 23.627781 19.712891 23.626953 C 18.890449 23.625753 18.520768 23.707275 17.833984 24.042969 C 15.711508 25.080416 14.82751 27.670354 15.878906 29.767578 C 15.943305 29.896036 16.956909 31.442059 18.039062 33.076172 C 16.470847 34.481389 15.242464 35.498662 14.869141 35.785156 C 13.862383 34.161694 12.939453 32.144965 12.939453 30.107422 L 12.939453 21.802734 z M 31.730469 23.570312 A 2.5766945 2.5821992 0 0 1 34.306641 26.152344 A 2.5766945 2.5821992 0 0 1 31.730469 28.734375 A 2.5766945 2.5821992 0 0 1 29.154297 26.152344 A 2.5766945 2.5821992 0 0 1 31.730469 23.570312 z "
       transform="matrix(0.26458333,0,0,0.26458333,0,-87)" />
  </g>
</svg>
