<?xml version="1.0" encoding="UTF-8" standalone="no"?>
<svg
   xmlns:dc="http://purl.org/dc/elements/1.1/"
   xmlns:cc="http://creativecommons.org/ns#"
   xmlns:rdf="http://www.w3.org/1999/02/22-rdf-syntax-ns#"
   xmlns:svg="http://www.w3.org/2000/svg"
   xmlns="http://www.w3.org/2000/svg"
   xmlns:sodipodi="http://sodipodi.sourceforge.net/DTD/sodipodi-0.dtd"
   xmlns:inkscape="http://www.inkscape.org/namespaces/inkscape"
   width="48"
   height="48"
   viewBox="0 0 12.7 12.7"
   version="1.1"
   id="svg8"
   inkscape:version="1.0.1 (3bc2e813f5, 2020-09-07)"
   sodipodi:docname="accerciser.svg">
  <defs
     id="defs2" />
  <sodipodi:namedview
     id="base"
     pagecolor="#ffffff"
     bordercolor="#666666"
     borderopacity="1.0"
     inkscape:pageopacity="0.0"
     inkscape:pageshadow="2"
     inkscape:zoom="22.627418"
     inkscape:cx="19.445749"
     inkscape:cy="23.223543"
     inkscape:document-units="px"
     inkscape:current-layer="layer3"
     showgrid="false"
     inkscape:window-width="1920"
     inkscape:window-height="1051"
     inkscape:window-x="0"
     inkscape:window-y="0"
     inkscape:window-maximized="1"
     showguides="true"
     inkscape:guide-bbox="true"
     inkscape:document-rotation="0"
     inkscape:showpageshadow="false"
     showborder="false"
     units="px">
    <inkscape:grid
       type="xygrid"
       id="grid917" />
  </sodipodi:namedview>
  <metadata
     id="metadata5">
    <rdf:RDF>
      <cc:Work
         rdf:about="">
        <dc:format>image/svg+xml</dc:format>
        <dc:type
           rdf:resource="http://purl.org/dc/dcmitype/StillImage" />
        <dc:title></dc:title>
      </cc:Work>
    </rdf:RDF>
  </metadata>
  <g
     inkscape:groupmode="layer"
     id="layer3"
     inkscape:label="Задний фон"
     transform="translate(0,87)"
     style="opacity:1">
    <path
       id="path838"
       style="fill:#fbc707;stroke:none;stroke-width:0.32508;fill-opacity:1"
       d="M 6.2941893,-86.999969 A 6.3499999,6.3499999 0 0 0 2.4147492e-8,-80.649969 6.3499999,6.3499999 0 0 0 6.35,-74.299969 a 6.3499999,6.3499999 0 0 0 6.35,-6.35 6.3499999,6.3499999 0 0 0 -6.35,-6.35 6.3499999,6.3499999 0 0 0 -0.055811,0 z M 6.35,-86.203635 a 5.5534916,5.5534916 0 0 1 5.553666,5.553666 A 5.5534916,5.5534916 0 0 1 6.35,-75.096303 5.5534916,5.5534916 0 0 1 0.79633383,-80.649969 5.5534916,5.5534916 0 0 1 6.35,-86.203635 Z" />
    <g
       id="g1913"
       transform="matrix(0.14938293,0,0,0.14938293,1.5690066,-85.564189)"
       style="display:inline" />
    <g
       id="2-main"
       stroke="none"
       stroke-width="1"
       fill="none"
       fill-rule="evenodd"
       transform="matrix(0.09786004,0,0,0.09786004,1.4569979,-85.543002)">
      <g
         id="2_main_1920"
         transform="translate(-1419,-3925)">
        <g
           id="Get-started"
           transform="translate(0,3557)">
          <g
             id="5"
             transform="translate(1350,328)">
            <g
               id="Group-26"
               transform="translate(6,40)">
              <g
                 id="4k/slideshow_maker"
                 transform="translate(63)" />
            </g>
          </g>
        </g>
      </g>
    </g>
    <path
       id="rect2"
       style="fill:#fbc707;stroke-width:0.191464;fill-opacity:1"
       d="m 4.0524658,-84.479223 c -0.4242848,0 -0.7658446,0.341559 -0.7658446,0.765845 v 0.574125 c 0,-0.212142 -0.1707799,-0.382923 -0.3829225,-0.382923 -0.2121424,0 -0.3829223,0.170781 -0.3829223,0.382923 v 1.87172 c -0.1168745,0.105 -0.1917195,0.255609 -0.1917195,0.425814 v 0.382922 c 0,0.170239 0.074806,0.321328 0.1917195,0.426331 v 1.871203 c 0,0.212142 0.1707799,0.382923 0.3829223,0.382923 0.2121426,0 0.3829225,-0.170781 0.3829225,-0.382923 v 0.574642 c 0,0.424285 0.3415598,0.765845 0.7658446,0.765845 h 0.3829225 c 0.4242847,0 0.7658446,-0.34156 0.7658446,-0.765845 v -2.297534 h 2.2975342 v 2.297534 c 0,0.424285 0.3415599,0.765845 0.7658447,0.765845 h 0.3829224 c 0.4242848,0 0.7658447,-0.34156 0.7658447,-0.765845 v -0.574642 c 0,0.212142 0.1707801,0.382923 0.3829224,0.382923 0.2121427,0 0.3829217,-0.170781 0.3829217,-0.382923 v -1.871203 c 0.116942,-0.105068 0.19172,-0.256125 0.19172,-0.426331 v -0.382922 c 0,-0.170205 -0.07478,-0.320885 -0.19172,-0.425814 v -1.87172 c 0,-0.212142 -0.170779,-0.382923 -0.3829217,-0.382923 -0.2121423,0 -0.3829224,0.170781 -0.3829224,0.382923 v -0.574125 c 0,-0.424286 -0.3415599,-0.765845 -0.7658447,-0.765845 H 8.2646118 c -0.4242848,0 -0.7658447,0.341559 -0.7658447,0.765845 v 2.297534 H 5.2012329 v -2.297534 c 0,-0.424286 -0.3415599,-0.765845 -0.7658446,-0.765845 z" />
  </g>
</svg>
