<?xml version="1.0" encoding="UTF-8" standalone="no"?>
<svg
   xmlns:dc="http://purl.org/dc/elements/1.1/"
   xmlns:cc="http://creativecommons.org/ns#"
   xmlns:rdf="http://www.w3.org/1999/02/22-rdf-syntax-ns#"
   xmlns:svg="http://www.w3.org/2000/svg"
   xmlns="http://www.w3.org/2000/svg"
   xmlns:sodipodi="http://sodipodi.sourceforge.net/DTD/sodipodi-0.dtd"
   xmlns:inkscape="http://www.inkscape.org/namespaces/inkscape"
   width="48"
   height="48"
   viewBox="0 0 12.7 12.7"
   version="1.1"
   id="svg8"
   inkscape:version="1.0.1 (3bc2e813f5, 2020-09-07)"
   sodipodi:docname="acestream.svg">
  <defs
     id="defs2" />
  <sodipodi:namedview
     id="base"
     pagecolor="#ffffff"
     bordercolor="#666666"
     borderopacity="1.0"
     inkscape:pageopacity="0.0"
     inkscape:pageshadow="2"
     inkscape:zoom="11.313709"
     inkscape:cx="25.989348"
     inkscape:cy="27.527176"
     inkscape:document-units="px"
     inkscape:current-layer="layer3"
     showgrid="false"
     inkscape:window-width="1920"
     inkscape:window-height="1051"
     inkscape:window-x="0"
     inkscape:window-y="0"
     inkscape:window-maximized="1"
     showguides="true"
     inkscape:guide-bbox="true"
     inkscape:document-rotation="0"
     inkscape:showpageshadow="false"
     showborder="false"
     units="px">
    <inkscape:grid
       type="xygrid"
       id="grid917" />
  </sodipodi:namedview>
  <metadata
     id="metadata5">
    <rdf:RDF>
      <cc:Work
         rdf:about="">
        <dc:format>image/svg+xml</dc:format>
        <dc:type
           rdf:resource="http://purl.org/dc/dcmitype/StillImage" />
        <dc:title></dc:title>
      </cc:Work>
    </rdf:RDF>
  </metadata>
  <g
     inkscape:groupmode="layer"
     id="layer3"
     inkscape:label="Задний фон"
     transform="translate(0,87)"
     style="opacity:1">
    <path
       id="path838"
       style="fill:#fbc707;stroke:none;stroke-width:0.32508;fill-opacity:1"
       d="M 6.2941893,-86.999969 A 6.3499999,6.3499999 0 0 0 2.4147492e-8,-80.649969 6.3499999,6.3499999 0 0 0 6.35,-74.299969 a 6.3499999,6.3499999 0 0 0 6.35,-6.35 6.3499999,6.3499999 0 0 0 -6.35,-6.35 6.3499999,6.3499999 0 0 0 -0.055811,0 z M 6.35,-86.203635 a 5.5534916,5.5534916 0 0 1 5.553666,5.553666 A 5.5534916,5.5534916 0 0 1 6.35,-75.096303 5.5534916,5.5534916 0 0 1 0.79633383,-80.649969 5.5534916,5.5534916 0 0 1 6.35,-86.203635 Z" />
    <g
       id="g1913"
       transform="matrix(0.14938293,0,0,0.14938293,1.5690066,-85.564189)"
       style="display:inline" />
    <g
       id="2-main"
       stroke="none"
       stroke-width="1"
       fill="none"
       fill-rule="evenodd"
       transform="matrix(0.09786004,0,0,0.09786004,1.4569979,-85.543002)">
      <g
         id="2_main_1920"
         transform="translate(-1419,-3925)">
        <g
           id="Get-started"
           transform="translate(0,3557)">
          <g
             id="5"
             transform="translate(1350,328)">
            <g
               id="Group-26"
               transform="translate(6,40)">
              <g
                 id="4k/slideshow_maker"
                 transform="translate(63)" />
            </g>
          </g>
        </g>
      </g>
    </g>
    <g
       id="g919"
       transform="translate(0,0.12793784)">
      <path
         style="fill:#3591ac;stroke-width:0.255874"
         d="m 6.349993,-80.777937 v 5.117494 a 5.120931,5.1174946 0 0 0 4.4008,-2.51227 5.120931,5.1174946 0 0 0 0.0285,-0.04948 z"
         id="path4" />
      <path
         style="fill:#2cba66;stroke-width:0.255874"
         d="m 6.349993,-80.777937 v 5.117494 a 5.120931,5.1174946 0 0 1 -4.4007999,-2.51227 5.120931,5.1174946 0 0 1 -0.028505,-0.04948 z"
         id="path6" />
      <path
         style="fill:#ff482e;stroke-width:0.255874"
         d="m 6.349993,-80.777937 v -5.117495 a 5.120931,5.1174946 0 0 1 4.4008,2.51227 5.120931,5.1174946 0 0 1 0.0285,0.04948 z"
         id="path8" />
      <path
         style="fill:#ff8201;stroke-width:0.255874"
         d="m 6.349993,-80.777937 v -5.117495 a 5.120931,5.1174946 0 0 0 -4.4007999,2.51227 5.120931,5.1174946 0 0 0 -0.028505,0.04948 z"
         id="path10" />
      <path
         style="fill:#ffc825;stroke-width:0.255874"
         d="m 6.349993,-80.777937 -4.4348562,2.558747 a 5.120931,5.1174946 0 0 1 -0.02325,-5.064782 5.120931,5.1174946 0 0 1 0.028624,-0.04941 z"
         id="path12" />
      <path
         style="fill:#9e56d6;stroke-width:0.255874"
         d="m 6.349993,-80.777937 4.434856,-2.558748 a 5.120931,5.1174946 0 0 1 0.02325,5.064782 5.120931,5.1174946 0 0 1 -0.02863,0.04941 z"
         id="path14" />
      <circle
         style="fill:#ffffff;stroke-width:0.255874"
         cx="6.3499928"
         cy="-80.777939"
         r="4.0939956"
         id="circle18" />
      <path
         style="fill:#33c0e8;stroke-width:0.485668"
         d="m 8.3969905,-80.777937 -1.6631856,1.151435 -1.6631855,1.151437 v -2.302872 -2.302873 l 1.6631855,1.151436 z"
         id="path22" />
    </g>
  </g>
</svg>
