<?xml version="1.0" encoding="UTF-8" standalone="no"?>
<svg
   xmlns:dc="http://purl.org/dc/elements/1.1/"
   xmlns:cc="http://creativecommons.org/ns#"
   xmlns:rdf="http://www.w3.org/1999/02/22-rdf-syntax-ns#"
   xmlns:svg="http://www.w3.org/2000/svg"
   xmlns="http://www.w3.org/2000/svg"
   xmlns:sodipodi="http://sodipodi.sourceforge.net/DTD/sodipodi-0.dtd"
   xmlns:inkscape="http://www.inkscape.org/namespaces/inkscape"
   width="48"
   height="48"
   viewBox="0 0 12.7 12.7"
   version="1.1"
   id="svg8"
   inkscape:version="1.0.1 (3bc2e813f5, 2020-09-07)"
   sodipodi:docname="acreloaded.svg">
  <defs
     id="defs2" />
  <sodipodi:namedview
     id="base"
     pagecolor="#ffffff"
     bordercolor="#666666"
     borderopacity="1.0"
     inkscape:pageopacity="0.0"
     inkscape:pageshadow="2"
     inkscape:zoom="16"
     inkscape:cx="21.992663"
     inkscape:cy="20.32507"
     inkscape:document-units="px"
     inkscape:current-layer="layer3"
     showgrid="false"
     inkscape:window-width="1920"
     inkscape:window-height="1051"
     inkscape:window-x="0"
     inkscape:window-y="0"
     inkscape:window-maximized="1"
     showguides="true"
     inkscape:guide-bbox="true"
     inkscape:document-rotation="0"
     inkscape:showpageshadow="false"
     showborder="false"
     units="px">
    <inkscape:grid
       type="xygrid"
       id="grid917" />
  </sodipodi:namedview>
  <metadata
     id="metadata5">
    <rdf:RDF>
      <cc:Work
         rdf:about="">
        <dc:format>image/svg+xml</dc:format>
        <dc:type
           rdf:resource="http://purl.org/dc/dcmitype/StillImage" />
        <dc:title />
      </cc:Work>
    </rdf:RDF>
  </metadata>
  <g
     inkscape:groupmode="layer"
     id="layer3"
     inkscape:label="Задний фон"
     transform="translate(0,87)"
     style="opacity:1">
    <path
       id="path4"
       style="fill:#fbc707;fill-opacity:1;stroke-width:0.221014"
       d="m 6.325771,-85.291141 a 0.90562708,0.89265399 0 0 0 -0.4291998,0.119576 l -3.2932593,1.87413 a 0.90562708,0.89265399 0 0 0 -0.4524848,0.773441 v 3.748262 a 0.90562708,0.89265399 0 0 0 0.4524848,0.77344 l 3.2932593,1.874131 a 0.90562708,0.89265399 0 0 0 0.9055992,0 l 3.2938886,-1.874131 a 0.90562708,0.89265399 0 0 0 0.453114,-0.77344 v -3.748262 a 0.90562708,0.89265399 0 0 0 -0.453114,-0.773444 l -3.2938886,-1.87413 a 0.90562708,0.89265399 0 0 0 -0.431088,-0.119576 0.90562708,0.89265399 0 0 0 -0.045311,0 z m 0.00378,0.167401 3.90811,2.158586 -3.9131447,1.657014 -3.9206967,-1.703584 z m -3.9181794,2.40591 3.6708546,1.584013 v 4.772802 l -3.6784066,-2.254872 z m 7.8262884,0 0.0076,4.101943 -3.6784062,2.254872 v -4.772802 z" />
    <path
       id="path838"
       style="fill:#fbc707;stroke:none;stroke-width:0.32508;fill-opacity:1"
       d="M 6.2941893,-86.999969 A 6.3499999,6.3499999 0 0 0 2.4147492e-8,-80.649969 6.3499999,6.3499999 0 0 0 6.35,-74.299969 a 6.3499999,6.3499999 0 0 0 6.35,-6.35 6.3499999,6.3499999 0 0 0 -6.35,-6.35 6.3499999,6.3499999 0 0 0 -0.055811,0 z M 6.35,-86.203635 a 5.5534916,5.5534916 0 0 1 5.553666,5.553666 A 5.5534916,5.5534916 0 0 1 6.35,-75.096303 5.5534916,5.5534916 0 0 1 0.79633383,-80.649969 5.5534916,5.5534916 0 0 1 6.35,-86.203635 Z" />
    <g
       id="g1913"
       transform="matrix(0.14938293,0,0,0.14938293,1.5690066,-85.564189)"
       style="display:inline" />
    <g
       id="2-main"
       stroke="none"
       stroke-width="1"
       fill="none"
       fill-rule="evenodd"
       transform="matrix(0.09786004,0,0,0.09786004,1.4569979,-85.543002)">
      <g
         id="2_main_1920"
         transform="translate(-1419,-3925)">
        <g
           id="Get-started"
           transform="translate(0,3557)">
          <g
             id="5"
             transform="translate(1350,328)">
            <g
               id="Group-26"
               transform="translate(6,40)">
              <g
                 id="4k/slideshow_maker"
                 transform="translate(63)" />
            </g>
          </g>
        </g>
      </g>
    </g>
    <path
       style="opacity:0.2;fill:#ffffff;stroke-width:0.181483"
       d="m 6.0951443,-84.642264 a 0.74364682,0.73299409 0 0 0 -0.3891954,0.09783 l -2.7045183,1.539059 a 0.74364682,0.73299409 0 0 0 -0.3718269,0.634835 v 0.181483 a 0.74364682,0.73299409 0 0 1 0.3718269,-0.634835 l 2.7045183,-1.539059 a 0.74364682,0.73299409 0 0 1 0.3891954,-0.09783 0.74364682,0.73299409 0 0 1 0.354104,0.09783 l 2.7048731,1.539059 a 0.74364682,0.73299409 0 0 1 0.3718271,0.634835 v -0.181483 a 0.74364682,0.73299409 0 0 0 -0.3718271,-0.634835 l -2.7048731,-1.539059 a 0.74364682,0.73299409 0 0 0 -0.354104,-0.09783 z"
       id="path8" />
    <path
       id="rect16"
       style="fill:#008000;fill-opacity:1;stroke-width:0.181483"
       d="m 8.3407036,-79.024204 v 0.907438 h -0.907438 v 0.725537 h 0.907438 v 0.907438 h 0.726054 v -0.907438 h 0.907437 v -0.725537 h -0.907437 v -0.907438 z" />
  </g>
</svg>
