<?xml version="1.0" encoding="UTF-8" standalone="no"?>
<svg
   xmlns:dc="http://purl.org/dc/elements/1.1/"
   xmlns:cc="http://creativecommons.org/ns#"
   xmlns:rdf="http://www.w3.org/1999/02/22-rdf-syntax-ns#"
   xmlns:svg="http://www.w3.org/2000/svg"
   xmlns="http://www.w3.org/2000/svg"
   xmlns:sodipodi="http://sodipodi.sourceforge.net/DTD/sodipodi-0.dtd"
   xmlns:inkscape="http://www.inkscape.org/namespaces/inkscape"
   width="48"
   height="48"
   viewBox="0 0 12.7 12.7"
   version="1.1"
   id="svg8"
   inkscape:version="1.0.1 (3bc2e813f5, 2020-09-07)"
   sodipodi:docname="acreloaded.svg">
  <defs
     id="defs2" />
  <sodipodi:namedview
     id="base"
     pagecolor="#ffffff"
     bordercolor="#666666"
     borderopacity="1.0"
     inkscape:pageopacity="0.0"
     inkscape:pageshadow="2"
     inkscape:zoom="16"
     inkscape:cx="21.992663"
     inkscape:cy="20.32507"
     inkscape:document-units="px"
     inkscape:current-layer="layer3"
     showgrid="false"
     inkscape:window-width="1920"
     inkscape:window-height="1051"
     inkscape:window-x="0"
     inkscape:window-y="0"
     inkscape:window-maximized="1"
     showguides="true"
     inkscape:guide-bbox="true"
     inkscape:document-rotation="0"
     inkscape:showpageshadow="false"
     showborder="false"
     units="px">
    <inkscape:grid
       type="xygrid"
       id="grid917" />
  </sodipodi:namedview>
  <metadata
     id="metadata5">
    <rdf:RDF>
      <cc:Work
         rdf:about="">
        <dc:format>image/svg+xml</dc:format>
        <dc:type
           rdf:resource="http://purl.org/dc/dcmitype/StillImage" />
        <dc:title></dc:title>
      </cc:Work>
    </rdf:RDF>
  </metadata>
  <g
     inkscape:groupmode="layer"
     id="layer3"
     inkscape:label="Задний фон"
     transform="translate(0,87)"
     style="opacity:1">
    <path
       id="path4"
       style="fill:#fbc707;fill-opacity:1;stroke-width:0.16365"
       d="m 5.2446147,-85.249872 a 0.67057322,0.66096727 0 0 0 -0.3178018,0.08854 l -2.4384998,1.387703 a 0.67057322,0.66096727 0 0 0 -0.3350432,0.572696 v 2.775407 a 0.67057322,0.66096727 0 0 0 0.3350432,0.572695 l 2.4384998,1.387704 a 0.67057322,0.66096727 0 0 0 0.6705526,0 l 2.4389657,-1.387704 a 0.67057322,0.66096727 0 0 0 0.3355093,-0.572695 v -2.775407 a 0.67057322,0.66096727 0 0 0 -0.3355093,-0.572698 l -2.4389657,-1.387703 a 0.67057322,0.66096727 0 0 0 -0.3191999,-0.08854 0.67057322,0.66096727 0 0 0 -0.033551,0 z m 0.0028,0.123952 2.8937671,1.598329 -2.897495,1.226939 -2.903087,-1.261422 z m -2.901223,1.781461 2.7180909,1.172885 v 3.53403 l -2.7236828,-1.669624 z m 5.7949901,0 0.00559,3.037291 -2.7236828,1.669624 v -3.53403 z" />
    <path
       id="path838"
       style="fill:#fbc707;stroke:none;stroke-width:0.32508;fill-opacity:1"
       d="M 6.2941893,-86.999969 A 6.3499999,6.3499999 0 0 0 2.4147492e-8,-80.649969 6.3499999,6.3499999 0 0 0 6.35,-74.299969 a 6.3499999,6.3499999 0 0 0 6.35,-6.35 6.3499999,6.3499999 0 0 0 -6.35,-6.35 6.3499999,6.3499999 0 0 0 -0.055811,0 z M 6.35,-86.203635 a 5.5534916,5.5534916 0 0 1 5.553666,5.553666 A 5.5534916,5.5534916 0 0 1 6.35,-75.096303 5.5534916,5.5534916 0 0 1 0.79633383,-80.649969 5.5534916,5.5534916 0 0 1 6.35,-86.203635 Z" />
    <g
       id="g1913"
       transform="matrix(0.14938293,0,0,0.14938293,1.5690066,-85.564189)"
       style="display:inline" />
    <g
       id="2-main"
       stroke="none"
       stroke-width="1"
       fill="none"
       fill-rule="evenodd"
       transform="matrix(0.09786004,0,0,0.09786004,1.4569979,-85.543002)">
      <g
         id="2_main_1920"
         transform="translate(-1419,-3925)">
        <g
           id="Get-started"
           transform="translate(0,3557)">
          <g
             id="5"
             transform="translate(1350,328)">
            <g
               id="Group-26"
               transform="translate(6,40)">
              <g
                 id="4k/slideshow_maker"
                 transform="translate(63)" />
            </g>
          </g>
        </g>
      </g>
    </g>
    <path
       style="opacity:0.2;fill:#ffffff;stroke-width:0.181483"
       d="m 6.0951443,-84.642264 a 0.74364682,0.73299409 0 0 0 -0.3891954,0.09783 l -2.7045183,1.539059 a 0.74364682,0.73299409 0 0 0 -0.3718269,0.634835 v 0.181483 a 0.74364682,0.73299409 0 0 1 0.3718269,-0.634835 l 2.7045183,-1.539059 a 0.74364682,0.73299409 0 0 1 0.3891954,-0.09783 0.74364682,0.73299409 0 0 1 0.354104,0.09783 l 2.7048731,1.539059 a 0.74364682,0.73299409 0 0 1 0.3718271,0.634835 v -0.181483 a 0.74364682,0.73299409 0 0 0 -0.3718271,-0.634835 l -2.7048731,-1.539059 a 0.74364682,0.73299409 0 0 0 -0.354104,-0.09783 z"
       id="path8" />
    <path
       id="rect16"
       style="fill:#fbc707;fill-opacity:1;stroke-width:0.181483"
       d="m 8.6361723,-80.384264 v 0.907438 h -0.907438 v 0.725537 h 0.907438 v 0.907438 h 0.726054 v -0.907438 h 0.9074377 v -0.725537 H 9.3622263 v -0.907438 z" />
  </g>
</svg>
