<?xml version="1.0" encoding="UTF-8" standalone="no"?>
<svg
   xmlns:dc="http://purl.org/dc/elements/1.1/"
   xmlns:cc="http://creativecommons.org/ns#"
   xmlns:rdf="http://www.w3.org/1999/02/22-rdf-syntax-ns#"
   xmlns:svg="http://www.w3.org/2000/svg"
   xmlns="http://www.w3.org/2000/svg"
   xmlns:sodipodi="http://sodipodi.sourceforge.net/DTD/sodipodi-0.dtd"
   xmlns:inkscape="http://www.inkscape.org/namespaces/inkscape"
   width="48"
   height="48"
   viewBox="0 0 12.7 12.7"
   version="1.1"
   id="svg8"
   inkscape:version="1.0.1 (3bc2e813f5, 2020-09-07)"
   sodipodi:docname="activitywatch.svg">
  <defs
     id="defs2" />
  <sodipodi:namedview
     id="base"
     pagecolor="#ffffff"
     bordercolor="#666666"
     borderopacity="1.0"
     inkscape:pageopacity="0.0"
     inkscape:pageshadow="2"
     inkscape:zoom="16.000001"
     inkscape:cx="26.390646"
     inkscape:cy="25.142442"
     inkscape:document-units="px"
     inkscape:current-layer="layer3"
     showgrid="false"
     inkscape:window-width="1920"
     inkscape:window-height="1051"
     inkscape:window-x="0"
     inkscape:window-y="0"
     inkscape:window-maximized="1"
     showguides="true"
     inkscape:guide-bbox="true"
     inkscape:document-rotation="0"
     inkscape:showpageshadow="false"
     showborder="false"
     units="px">
    <inkscape:grid
       type="xygrid"
       id="grid917" />
  </sodipodi:namedview>
  <metadata
     id="metadata5">
    <rdf:RDF>
      <cc:Work
         rdf:about="">
        <dc:format>image/svg+xml</dc:format>
        <dc:type
           rdf:resource="http://purl.org/dc/dcmitype/StillImage" />
        <dc:title></dc:title>
      </cc:Work>
    </rdf:RDF>
  </metadata>
  <g
     inkscape:groupmode="layer"
     id="layer3"
     inkscape:label="Задний фон"
     transform="translate(0,87)"
     style="opacity:1">
    <path
       id="path935"
       style="fill:#fbc707;stroke-width:0.0662913;paint-order:fill markers stroke;fill-opacity:1"
       d="M 18.388672 10.929688 C 18.138292 10.929687 17.83995 11.079393 17.683594 11.283203 C 17.533216 11.479219 11.911697 23.668844 11.873047 23.882812 C 11.812129 24.220037 12.074862 24.690201 12.404297 24.833984 C 12.747488 24.983771 13.234195 24.864126 13.464844 24.574219 C 13.527741 24.495164 13.914954 23.703604 14.324219 22.816406 L 15.068359 21.205078 L 18.380859 21.193359 L 21.693359 21.181641 L 21.863281 21.546875 C 21.956257 21.747558 22.036769 21.917581 22.042969 21.925781 C 22.049181 21.933962 22.156224 21.860549 22.28125 21.761719 C 22.578034 21.527124 22.993977 21.331511 23.380859 21.244141 C 23.670811 21.178659 23.687674 21.166995 23.652344 21.078125 C 23.439763 20.543457 19.123851 11.288716 19.050781 11.210938 C 18.903374 11.054031 18.610195 10.929688 18.388672 10.929688 z M 18.388672 14.066406 C 18.409196 14.06647 20.754836 19.106846 20.816406 19.283203 C 20.825646 19.309663 19.923336 19.326172 18.396484 19.326172 C 17.057585 19.326172 15.962891 19.313095 15.962891 19.296875 C 15.962891 19.240373 18.362492 14.066325 18.388672 14.066406 z M 29.693359 16.550781 C 29.211797 16.510846 29.271665 16.454613 27.056641 19.037109 C 25.958302 20.317662 25.066119 21.372406 25.074219 21.378906 C 25.08236 21.385439 25.212886 21.454986 25.365234 21.535156 C 25.69005 21.706081 26.147726 22.112231 26.304688 22.369141 C 26.365451 22.468598 26.419881 22.550127 26.425781 22.550781 C 26.471388 22.555801 30.407408 17.900463 30.455078 17.785156 C 30.679168 17.243102 30.282938 16.599671 29.693359 16.550781 z M 23.833984 21.236328 C 23.124707 21.272903 22.530756 21.540654 22.039062 22.042969 C 20.942606 23.163114 20.952355 24.891063 22.060547 25.980469 C 22.442455 26.355905 23.01824 26.657 23.535156 26.75 C 23.839547 26.804762 24.457509 26.770151 24.757812 26.681641 C 25.658496 26.416183 26.410026 25.659313 26.685547 24.740234 C 26.812264 24.317542 26.792079 23.598537 26.642578 23.144531 C 26.242878 21.930715 25.122983 21.169858 23.833984 21.236328 z M 31.009766 23.082031 C 30.73427 23.082031 30.355439 23.305555 30.230469 23.539062 C 30.20395 23.588613 29.627337 25.207787 28.951172 27.138672 C 28.275008 29.069557 27.710706 30.660388 27.697266 30.673828 C 27.683836 30.687228 27.666603 30.689817 27.658203 30.679688 C 27.649842 30.66956 27.238162 29.64532 26.742188 28.402344 L 25.839844 26.142578 L 25.685547 26.265625 C 25.352692 26.529251 24.681228 26.794922 24.351562 26.794922 C 24.285188 26.794922 24.218775 26.814524 24.203125 26.839844 C 24.187475 26.865167 24.797154 28.439365 25.556641 30.337891 C 27.021726 34.000233 27.030113 34.019638 27.386719 34.181641 C 27.806122 34.372171 28.323376 34.186623 28.539062 33.769531 C 28.578249 33.693751 29.141324 32.116668 29.789062 30.265625 C 30.436801 28.414582 30.985706 26.891799 31.009766 26.880859 C 31.033826 26.86992 31.425751 27.924195 31.880859 29.224609 C 32.335966 30.525022 32.881658 32.085428 33.09375 32.691406 C 33.510325 33.881626 33.594394 34.030208 33.927734 34.181641 C 34.259936 34.332557 34.647009 34.260705 34.914062 34 C 35.060588 33.856956 35.271785 33.351751 37.009766 29.001953 C 38.438643 25.425781 38.942122 24.118123 38.941406 23.988281 C 38.938845 23.524749 38.498388 23.082031 38.037109 23.082031 C 37.727131 23.082031 37.370461 23.31369 37.222656 23.609375 C 37.178979 23.69675 36.522901 25.324557 35.763672 27.226562 C 35.004442 29.128569 34.368872 30.683594 34.351562 30.683594 C 34.334251 30.683594 33.77604 29.128569 33.111328 27.226562 C 32.446617 25.324557 31.867749 23.696755 31.824219 23.609375 C 31.677003 23.313906 31.319853 23.082031 31.009766 23.082031 z M 21.632812 25.548828 L 17.880859 28.9375 C 15.817367 30.801813 14.04471 32.413892 13.941406 32.519531 C 13.79032 32.67403 13.751953 32.742265 13.751953 32.871094 C 13.751953 33.073626 13.810403 33.184828 13.962891 33.267578 C 14.092088 33.337698 14.214472 33.347028 14.335938 33.298828 C 14.377615 33.28229 16.170553 31.679213 18.318359 29.736328 L 22.222656 26.205078 L 22.039062 26.023438 C 21.938434 25.92457 21.805961 25.778776 21.744141 25.697266 L 21.632812 25.548828 z "
       transform="matrix(0.26458333,0,0,0.26458333,0,-87)" />
    <path
       id="path838"
       style="fill:#fbc707;stroke:none;stroke-width:0.32508;fill-opacity:1"
       d="M 6.2941893,-86.999969 A 6.3499999,6.3499999 0 0 0 2.4147492e-8,-80.649969 6.3499999,6.3499999 0 0 0 6.35,-74.299969 a 6.3499999,6.3499999 0 0 0 6.35,-6.35 6.3499999,6.3499999 0 0 0 -6.35,-6.35 6.3499999,6.3499999 0 0 0 -0.055811,0 z M 6.35,-86.203635 a 5.5534916,5.5534916 0 0 1 5.553666,5.553666 A 5.5534916,5.5534916 0 0 1 6.35,-75.096303 5.5534916,5.5534916 0 0 1 0.79633383,-80.649969 5.5534916,5.5534916 0 0 1 6.35,-86.203635 Z" />
    <g
       id="g1913"
       transform="matrix(0.14938293,0,0,0.14938293,1.5690066,-85.564189)"
       style="display:inline" />
    <g
       id="2-main"
       stroke="none"
       stroke-width="1"
       fill="none"
       fill-rule="evenodd"
       transform="matrix(0.09786004,0,0,0.09786004,1.4569979,-85.543002)">
      <g
         id="2_main_1920"
         transform="translate(-1419,-3925)">
        <g
           id="Get-started"
           transform="translate(0,3557)">
          <g
             id="5"
             transform="translate(1350,328)">
            <g
               id="Group-26"
               transform="translate(6,40)">
              <g
                 id="4k/slideshow_maker"
                 transform="translate(63)" />
            </g>
          </g>
        </g>
      </g>
    </g>
    <path
       id="rect2"
       style="fill:#fbc707;stroke-width:0.935448;fill-opacity:1"
       d="M 24 5.2910156 C 13.635224 5.2910156 5.2910156 13.635224 5.2910156 24 C 5.2910156 34.364776 13.635224 42.708984 24 42.708984 C 34.364776 42.708984 42.708984 34.364776 42.708984 24 C 42.708984 13.635224 34.364776 5.2910156 24 5.2910156 z M 24 7.7539062 C 33.000087 7.7539062 40.246094 14.999913 40.246094 24 C 40.246094 33.000087 33.000087 40.246094 24 40.246094 C 14.999912 40.246094 7.7539063 33.000087 7.7539062 24 C 7.7539062 14.999913 14.999912 7.7539062 24 7.7539062 z "
       transform="matrix(0.26458333,0,0,0.26458333,0,-87)" />
  </g>
</svg>
