<?xml version="1.0" encoding="UTF-8" standalone="no"?>
<svg
   xmlns:dc="http://purl.org/dc/elements/1.1/"
   xmlns:cc="http://creativecommons.org/ns#"
   xmlns:rdf="http://www.w3.org/1999/02/22-rdf-syntax-ns#"
   xmlns:svg="http://www.w3.org/2000/svg"
   xmlns="http://www.w3.org/2000/svg"
   xmlns:sodipodi="http://sodipodi.sourceforge.net/DTD/sodipodi-0.dtd"
   xmlns:inkscape="http://www.inkscape.org/namespaces/inkscape"
   width="48"
   height="48"
   viewBox="0 0 12.7 12.7"
   version="1.1"
   id="svg8"
   inkscape:version="1.0.1 (3bc2e813f5, 2020-09-07)"
   sodipodi:docname="AdobeDreamweaver.svg">
  <defs
     id="defs2" />
  <sodipodi:namedview
     id="base"
     pagecolor="#ffffff"
     bordercolor="#666666"
     borderopacity="1.0"
     inkscape:pageopacity="0.0"
     inkscape:pageshadow="2"
     inkscape:zoom="2.8284271"
     inkscape:cx="-88.10433"
     inkscape:cy="26.044833"
     inkscape:document-units="px"
     inkscape:current-layer="layer3"
     showgrid="false"
     inkscape:window-width="1920"
     inkscape:window-height="1051"
     inkscape:window-x="0"
     inkscape:window-y="0"
     inkscape:window-maximized="1"
     showguides="true"
     inkscape:guide-bbox="true"
     inkscape:document-rotation="0"
     inkscape:showpageshadow="false"
     showborder="false"
     units="px">
    <inkscape:grid
       type="xygrid"
       id="grid917" />
  </sodipodi:namedview>
  <metadata
     id="metadata5">
    <rdf:RDF>
      <cc:Work
         rdf:about="">
        <dc:format>image/svg+xml</dc:format>
        <dc:type
           rdf:resource="http://purl.org/dc/dcmitype/StillImage" />
        <dc:title></dc:title>
      </cc:Work>
    </rdf:RDF>
  </metadata>
  <g
     inkscape:groupmode="layer"
     id="layer3"
     inkscape:label="Задний фон"
     transform="translate(0,87)"
     style="opacity:1">
    <path
       id="path929"
       style="fill:#738838;fill-opacity:1;stroke:none;stroke-width:1.06763"
       d="M 24 5.7617188 A 18.23875 18.23875 0 0 0 5.7597656 24 A 18.23875 18.23875 0 0 0 24 42.240234 A 18.23875 18.23875 0 0 0 42.240234 24 A 18.23875 18.23875 0 0 0 24 5.7617188 z M 10.363281 14.910156 L 14 14.910156 L 14.910156 14.910156 C 14.910156 14.910156 22.181641 14.911248 22.181641 24.001953 C 22.181641 33.09265 14.910156 33.091797 14.910156 33.091797 L 10.363281 33.091797 L 10.363281 14.910156 z M 14 17.636719 L 14 30.365234 L 14.910156 30.365234 C 14.910156 30.365234 18.544922 30.365438 18.544922 24.001953 C 18.544922 17.638461 14.910156 17.636719 14.910156 17.636719 L 14 17.636719 z M 24 21.273438 L 26.726562 21.273438 L 28.544922 31.273438 L 29.455078 21.273438 L 32.181641 21.273438 L 33.089844 31.273438 L 34.908203 21.273438 L 37.636719 21.273438 L 34.908203 33.091797 L 32.181641 33.091797 L 30.818359 24.910156 L 29.455078 33.091797 L 26.726562 33.091797 L 24 21.273438 z "
       transform="matrix(0.26458333,0,0,0.26458333,0,-87)" />
    <path
       id="path838"
       style="fill:#fbc707;fill-opacity:1;stroke:none;stroke-width:1.22865"
       d="M 23.789062 0 A 24 24 0 0 0 0 24 A 24 24 0 0 0 24 48 A 24 24 0 0 0 48 24 A 24 24 0 0 0 24 0 A 24 24 0 0 0 23.789062 0 z M 24 3.0097656 A 20.989575 20.989575 0 0 1 44.990234 24 A 20.989575 20.989575 0 0 1 24 44.990234 A 20.989575 20.989575 0 0 1 3.0097656 24 A 20.989575 20.989575 0 0 1 24 3.0097656 z "
       transform="matrix(0.26458333,0,0,0.26458333,0,-87)" />
    <g
       id="g1913"
       transform="matrix(0.14938293,0,0,0.14938293,1.5690066,-85.564189)"
       style="display:inline" />
    <g
       id="2-main"
       stroke="none"
       stroke-width="1"
       fill="none"
       fill-rule="evenodd"
       transform="matrix(0.09786004,0,0,0.09786004,1.4569979,-85.543002)">
      <g
         id="2_main_1920"
         transform="translate(-1419,-3925)">
        <g
           id="Get-started"
           transform="translate(0,3557)">
          <g
             id="5"
             transform="translate(1350,328)">
            <g
               id="Group-26"
               transform="translate(6,40)">
              <g
                 id="4k/slideshow_maker"
                 transform="translate(63)" />
            </g>
          </g>
        </g>
      </g>
    </g>
  </g>
</svg>
