<?xml version="1.0" encoding="UTF-8" standalone="no"?>
<svg
   xmlns:dc="http://purl.org/dc/elements/1.1/"
   xmlns:cc="http://creativecommons.org/ns#"
   xmlns:rdf="http://www.w3.org/1999/02/22-rdf-syntax-ns#"
   xmlns:svg="http://www.w3.org/2000/svg"
   xmlns="http://www.w3.org/2000/svg"
   xmlns:sodipodi="http://sodipodi.sourceforge.net/DTD/sodipodi-0.dtd"
   xmlns:inkscape="http://www.inkscape.org/namespaces/inkscape"
   width="48"
   height="48"
   viewBox="0 0 12.7 12.7"
   version="1.1"
   id="svg8"
   inkscape:version="1.0.1 (3bc2e813f5, 2020-09-07)"
   sodipodi:docname="AdobeBridge.svg">
  <defs
     id="defs2" />
  <sodipodi:namedview
     id="base"
     pagecolor="#ffffff"
     bordercolor="#666666"
     borderopacity="1.0"
     inkscape:pageopacity="0.0"
     inkscape:pageshadow="2"
     inkscape:zoom="8"
     inkscape:cx="-3.0669209"
     inkscape:cy="39.397058"
     inkscape:document-units="px"
     inkscape:current-layer="layer3"
     showgrid="false"
     inkscape:window-width="1920"
     inkscape:window-height="1051"
     inkscape:window-x="0"
     inkscape:window-y="0"
     inkscape:window-maximized="1"
     showguides="true"
     inkscape:guide-bbox="true"
     inkscape:document-rotation="0"
     inkscape:showpageshadow="false"
     showborder="false"
     units="px">
    <inkscape:grid
       type="xygrid"
       id="grid917" />
    <sodipodi:guide
       position="3.2227377,8.7553276"
       orientation="0,-1"
       id="guide911" />
    <sodipodi:guide
       position="3.2227377,3.9441549"
       orientation="0,-1"
       id="guide913" />
  </sodipodi:namedview>
  <metadata
     id="metadata5">
    <rdf:RDF>
      <cc:Work
         rdf:about="">
        <dc:format>image/svg+xml</dc:format>
        <dc:type
           rdf:resource="http://purl.org/dc/dcmitype/StillImage" />
        <dc:title></dc:title>
      </cc:Work>
    </rdf:RDF>
  </metadata>
  <g
     inkscape:groupmode="layer"
     id="layer3"
     inkscape:label="Задний фон"
     transform="translate(0,87)"
     style="opacity:1">
    <path
       id="path929"
       style="fill:#a45024;fill-opacity:1;stroke:none;stroke-width:1.06763"
       d="M 24 5.7617188 A 18.23875 18.23875 0 0 0 5.7597656 24 A 18.23875 18.23875 0 0 0 24 42.240234 A 18.23875 18.23875 0 0 0 42.240234 24 A 18.23875 18.23875 0 0 0 24 5.7617188 z M 12.179688 14.908203 L 15.816406 14.908203 L 16.726562 14.908203 C 16.726562 14.908203 23.089844 14.908089 23.089844 20.363281 C 23.089844 21.883555 22.375221 22.889026 21.427734 23.5625 C 22.828191 24.478325 24 25.995747 24 28.546875 C 24 33.092864 16.726562 33.09375 16.726562 33.09375 L 15.816406 33.09375 L 12.179688 33.09375 L 12.179688 24.910156 L 12.179688 22.181641 L 12.179688 14.908203 z M 15.816406 17.636719 L 15.816406 22.181641 L 16.726562 22.181641 C 16.726562 22.181641 19.453125 22.18168 19.453125 20.363281 C 19.453125 17.635687 16.726562 17.636719 16.726562 17.636719 L 15.816406 17.636719 z M 25.818359 18.470703 L 29.455078 18.470703 L 29.455078 20.289062 C 31.273474 18.470664 35.820312 18.470703 35.820312 18.470703 L 35.820312 22.107422 C 35.820312 22.107422 31.273474 22.107383 29.455078 23.925781 L 29.455078 33.017578 L 25.818359 33.017578 L 25.818359 18.470703 z M 15.816406 24.910156 L 15.816406 30.365234 L 16.726562 30.365234 C 16.726562 30.365234 20.363281 30.36527 20.363281 28.546875 C 20.363281 24.910085 16.726562 24.910156 16.726562 24.910156 L 15.816406 24.910156 z "
       transform="matrix(0.26458333,0,0,0.26458333,0,-87)" />
    <path
       id="path838"
       style="fill:#fbc707;fill-opacity:1;stroke:none;stroke-width:1.22865"
       d="M 23.789062 0 A 24 24 0 0 0 0 24 A 24 24 0 0 0 24 48 A 24 24 0 0 0 48 24 A 24 24 0 0 0 24 0 A 24 24 0 0 0 23.789062 0 z M 24 3.0097656 A 20.989575 20.989575 0 0 1 44.990234 24 A 20.989575 20.989575 0 0 1 24 44.990234 A 20.989575 20.989575 0 0 1 3.0097656 24 A 20.989575 20.989575 0 0 1 24 3.0097656 z "
       transform="matrix(0.26458333,0,0,0.26458333,0,-87)" />
    <g
       id="g1913"
       transform="matrix(0.14938293,0,0,0.14938293,1.5690066,-85.564189)"
       style="display:inline" />
    <g
       id="2-main"
       stroke="none"
       stroke-width="1"
       fill="none"
       fill-rule="evenodd"
       transform="matrix(0.09786004,0,0,0.09786004,1.4569979,-85.543002)">
      <g
         id="2_main_1920"
         transform="translate(-1419,-3925)">
        <g
           id="Get-started"
           transform="translate(0,3557)">
          <g
             id="5"
             transform="translate(1350,328)">
            <g
               id="Group-26"
               transform="translate(6,40)">
              <g
                 id="4k/slideshow_maker"
                 transform="translate(63)" />
            </g>
          </g>
        </g>
      </g>
    </g>
  </g>
</svg>
