<?xml version="1.0" encoding="UTF-8" standalone="no"?>
<svg
   xmlns:dc="http://purl.org/dc/elements/1.1/"
   xmlns:cc="http://creativecommons.org/ns#"
   xmlns:rdf="http://www.w3.org/1999/02/22-rdf-syntax-ns#"
   xmlns:svg="http://www.w3.org/2000/svg"
   xmlns="http://www.w3.org/2000/svg"
   xmlns:sodipodi="http://sodipodi.sourceforge.net/DTD/sodipodi-0.dtd"
   xmlns:inkscape="http://www.inkscape.org/namespaces/inkscape"
   width="48"
   height="48"
   viewBox="0 0 12.7 12.7"
   version="1.1"
   id="svg8"
   inkscape:version="1.0.1 (3bc2e813f5, 2020-09-07)"
   sodipodi:docname="AdobeMediaEncoder.svg">
  <defs
     id="defs2" />
  <sodipodi:namedview
     id="base"
     pagecolor="#ffffff"
     bordercolor="#666666"
     borderopacity="1.0"
     inkscape:pageopacity="0.0"
     inkscape:pageshadow="2"
     inkscape:zoom="8"
     inkscape:cx="-1.3394923"
     inkscape:cy="32.24339"
     inkscape:document-units="px"
     inkscape:current-layer="layer3"
     showgrid="false"
     inkscape:window-width="1920"
     inkscape:window-height="1051"
     inkscape:window-x="0"
     inkscape:window-y="0"
     inkscape:window-maximized="1"
     showguides="true"
     inkscape:guide-bbox="true"
     inkscape:document-rotation="0"
     inkscape:showpageshadow="false"
     showborder="false"
     units="px">
    <inkscape:grid
       type="xygrid"
       id="grid917" />
  </sodipodi:namedview>
  <metadata
     id="metadata5">
    <rdf:RDF>
      <cc:Work
         rdf:about="">
        <dc:format>image/svg+xml</dc:format>
        <dc:type
           rdf:resource="http://purl.org/dc/dcmitype/StillImage" />
        <dc:title></dc:title>
      </cc:Work>
    </rdf:RDF>
  </metadata>
  <g
     inkscape:groupmode="layer"
     id="layer3"
     inkscape:label="Задний фон"
     transform="translate(0,87)"
     style="opacity:1">
    <path
       id="path929"
       style="fill:#2e298a;fill-opacity:1;stroke:none;stroke-width:1.06763"
       d="M 24 5.7617188 A 18.23875 18.23875 0 0 0 5.7597656 24 A 18.23875 18.23875 0 0 0 24 42.240234 A 18.23875 18.23875 0 0 0 42.240234 24 A 18.23875 18.23875 0 0 0 24 5.7617188 z M 12.880859 12.882812 L 14.734375 12.882812 L 14.734375 14.734375 L 16.587891 14.734375 L 16.587891 12.882812 L 18.441406 12.882812 L 18.441406 14.734375 L 20.292969 14.734375 L 20.292969 16.587891 L 22.146484 16.587891 L 22.146484 18.441406 L 24 18.441406 L 24 20.294922 L 25.853516 20.294922 L 25.853516 18.441406 L 27.707031 18.441406 L 27.707031 20.294922 L 25.853516 20.294922 L 25.853516 22.148438 L 27.707031 22.148438 L 27.707031 24 L 29.558594 24 L 29.558594 22.148438 L 31.412109 22.148438 L 31.412109 24 L 33.265625 24 L 33.265625 25.853516 L 35.119141 25.853516 L 35.119141 27.707031 L 33.265625 27.707031 L 33.265625 29.560547 L 35.119141 29.560547 L 35.119141 31.414062 L 33.265625 31.414062 L 33.265625 33.267578 L 35.119141 33.267578 L 35.119141 35.119141 L 12.880859 35.119141 L 12.880859 12.882812 z M 33.265625 31.414062 L 33.265625 29.560547 L 31.412109 29.560547 L 31.412109 31.414062 L 33.265625 31.414062 z M 31.412109 29.560547 L 31.412109 27.707031 L 29.558594 27.707031 L 29.558594 29.560547 L 31.412109 29.560547 z M 29.558594 27.707031 L 29.558594 25.853516 L 27.707031 25.853516 L 27.707031 27.707031 L 29.558594 27.707031 z M 27.707031 25.853516 L 27.707031 24 L 25.853516 24 L 25.853516 25.853516 L 27.707031 25.853516 z M 25.853516 24 L 25.853516 22.148438 L 24 22.148438 L 24 24 L 25.853516 24 z M 24 22.148438 L 24 20.294922 L 22.146484 20.294922 L 22.146484 22.148438 L 24 22.148438 z M 22.146484 20.294922 L 22.146484 18.441406 L 20.292969 18.441406 L 20.292969 20.294922 L 22.146484 20.294922 z M 20.292969 18.441406 L 20.292969 16.587891 L 18.441406 16.587891 L 18.441406 18.441406 L 20.292969 18.441406 z M 18.441406 16.587891 L 18.441406 14.734375 L 16.587891 14.734375 L 16.587891 16.587891 L 18.441406 16.587891 z M 29.558594 25.853516 L 31.412109 25.853516 L 31.412109 24 L 29.558594 24 L 29.558594 25.853516 z M 31.412109 25.853516 L 31.412109 27.707031 L 33.265625 27.707031 L 33.265625 25.853516 L 31.412109 25.853516 z M 29.558594 18.441406 L 31.412109 18.441406 L 31.412109 20.294922 L 29.558594 20.294922 L 29.558594 18.441406 z "
       transform="matrix(0.26458333,0,0,0.26458333,0,-87)" />
    <path
       id="path838"
       style="fill:#fbc707;fill-opacity:1;stroke:none;stroke-width:1.22865"
       d="M 23.789062 0 A 24 24 0 0 0 0 24 A 24 24 0 0 0 24 48 A 24 24 0 0 0 48 24 A 24 24 0 0 0 24 0 A 24 24 0 0 0 23.789062 0 z M 24 3.0097656 A 20.989575 20.989575 0 0 1 44.990234 24 A 20.989575 20.989575 0 0 1 24 44.990234 A 20.989575 20.989575 0 0 1 3.0097656 24 A 20.989575 20.989575 0 0 1 24 3.0097656 z "
       transform="matrix(0.26458333,0,0,0.26458333,0,-87)" />
    <g
       id="g1913"
       transform="matrix(0.14938293,0,0,0.14938293,1.5690066,-85.564189)"
       style="display:inline" />
    <g
       id="2-main"
       stroke="none"
       stroke-width="1"
       fill="none"
       fill-rule="evenodd"
       transform="matrix(0.09786004,0,0,0.09786004,1.4569979,-85.543002)">
      <g
         id="2_main_1920"
         transform="translate(-1419,-3925)">
        <g
           id="Get-started"
           transform="translate(0,3557)">
          <g
             id="5"
             transform="translate(1350,328)">
            <g
               id="Group-26"
               transform="translate(6,40)">
              <g
                 id="4k/slideshow_maker"
                 transform="translate(63)" />
            </g>
          </g>
        </g>
      </g>
    </g>
  </g>
</svg>
