<?xml version="1.0" encoding="UTF-8" standalone="no"?>
<svg
   xmlns:dc="http://purl.org/dc/elements/1.1/"
   xmlns:cc="http://creativecommons.org/ns#"
   xmlns:rdf="http://www.w3.org/1999/02/22-rdf-syntax-ns#"
   xmlns:svg="http://www.w3.org/2000/svg"
   xmlns="http://www.w3.org/2000/svg"
   xmlns:sodipodi="http://sodipodi.sourceforge.net/DTD/sodipodi-0.dtd"
   xmlns:inkscape="http://www.inkscape.org/namespaces/inkscape"
   width="48"
   height="48"
   viewBox="0 0 12.7 12.7"
   version="1.1"
   id="svg8"
   inkscape:version="1.0.1 (3bc2e813f5, 2020-09-07)"
   sodipodi:docname="adventure-capitalist.svg">
  <defs
     id="defs2" />
  <sodipodi:namedview
     id="base"
     pagecolor="#ffffff"
     bordercolor="#666666"
     borderopacity="1.0"
     inkscape:pageopacity="0.0"
     inkscape:pageshadow="2"
     inkscape:zoom="11.313709"
     inkscape:cx="22.669627"
     inkscape:cy="32.448981"
     inkscape:document-units="px"
     inkscape:current-layer="layer3"
     showgrid="false"
     inkscape:window-width="1920"
     inkscape:window-height="1051"
     inkscape:window-x="0"
     inkscape:window-y="0"
     inkscape:window-maximized="1"
     showguides="true"
     inkscape:guide-bbox="true"
     inkscape:document-rotation="0"
     inkscape:showpageshadow="false"
     showborder="false"
     units="px">
    <inkscape:grid
       type="xygrid"
       id="grid917" />
  </sodipodi:namedview>
  <metadata
     id="metadata5">
    <rdf:RDF>
      <cc:Work
         rdf:about="">
        <dc:format>image/svg+xml</dc:format>
        <dc:type
           rdf:resource="http://purl.org/dc/dcmitype/StillImage" />
        <dc:title></dc:title>
      </cc:Work>
    </rdf:RDF>
  </metadata>
  <g
     inkscape:groupmode="layer"
     id="layer3"
     inkscape:label="Задний фон"
     transform="translate(0,87)"
     style="opacity:1">
    <path
       id="path838"
       style="fill:#fbc707;stroke:none;stroke-width:0.32508;fill-opacity:1"
       d="M 6.2941893,-86.999969 A 6.3499999,6.3499999 0 0 0 2.4147492e-8,-80.649969 6.3499999,6.3499999 0 0 0 6.35,-74.299969 a 6.3499999,6.3499999 0 0 0 6.35,-6.35 6.3499999,6.3499999 0 0 0 -6.35,-6.35 6.3499999,6.3499999 0 0 0 -0.055811,0 z M 6.35,-86.203635 a 5.5534916,5.5534916 0 0 1 5.553666,5.553666 A 5.5534916,5.5534916 0 0 1 6.35,-75.096303 5.5534916,5.5534916 0 0 1 0.79633383,-80.649969 5.5534916,5.5534916 0 0 1 6.35,-86.203635 Z" />
    <g
       id="g1913"
       transform="matrix(0.14938293,0,0,0.14938293,1.5690066,-85.564189)"
       style="display:inline" />
    <g
       id="2-main"
       stroke="none"
       stroke-width="1"
       fill="none"
       fill-rule="evenodd"
       transform="matrix(0.09786004,0,0,0.09786004,1.4569979,-85.543002)">
      <g
         id="2_main_1920"
         transform="translate(-1419,-3925)">
        <g
           id="Get-started"
           transform="translate(0,3557)">
          <g
             id="5"
             transform="translate(1350,328)">
            <g
               id="Group-26"
               transform="translate(6,40)">
              <g
                 id="4k/slideshow_maker"
                 transform="translate(63)" />
            </g>
          </g>
        </g>
      </g>
    </g>
    <path
       id="path2"
       style="opacity:1;fill-rule:evenodd;stroke-width:0.927349;fill:#fbc707;fill-opacity:1"
       d="M 23.947266 4.9902344 A 1.8548864 1.8524146 0 0 0 22.119141 6.8671875 L 22.119141 8.6992188 L 19.507812 8.6992188 C 19.592008 8.7081032 19.746094 8.7226562 19.746094 8.7226562 L 19.335938 8.6992188 L 19.507812 8.6992188 C 19.269032 8.6740217 18.822643 8.6350868 18.064453 8.6445312 C 17.038922 8.6570037 15.645261 8.7723594 14.171875 9.1816406 C 12.698487 9.5909181 11.009691 10.326144 9.6015625 11.8125 C 8.1934341 13.298856 7.28125 15.554923 7.28125 17.972656 C 7.28125 20.39039 8.1659201 22.607309 9.4785156 24.138672 C 10.791111 25.670031 12.387764 26.552269 13.820312 27.109375 C 16.685412 28.22358 19.335937 28.173828 19.335938 28.173828 L 22.119141 28.173828 L 22.119141 32.753906 L 14.699219 32.753906 A 3.7097729 3.7097729 0 1 0 14.699219 40.171875 L 22.119141 40.171875 L 22.119141 42.058594 A 1.8548864 1.8524146 0 1 0 25.828125 42.058594 L 25.828125 40.171875 L 28.482422 40.171875 C 28.404802 40.163671 28.253906 40.150391 28.253906 40.150391 L 28.662109 40.171875 L 28.482422 40.171875 C 29.025763 40.229301 31.249698 40.407629 33.828125 39.691406 C 35.301513 39.282129 36.990309 38.54495 38.398438 37.058594 C 39.806568 35.572238 40.71875 33.31617 40.71875 30.898438 C 40.71875 28.34822 39.916785 26.046734 38.576172 24.408203 C 37.235556 22.769676 35.522241 21.857678 34.009766 21.353516 C 31.397308 20.482699 29.115862 20.636933 28.511719 20.697266 L 28.662109 20.697266 L 28.253906 20.720703 C 28.253906 20.720703 28.416328 20.706792 28.511719 20.697266 L 25.828125 20.697266 L 25.828125 16.117188 L 33.248047 16.117188 A 3.7097729 3.7097729 0 1 0 33.248047 8.6992188 L 25.828125 8.6992188 L 25.828125 6.8671875 A 1.8548864 1.8524146 0 0 0 23.947266 4.9902344 z M 18.001953 16.083984 C 18.541461 16.067699 18.927734 16.09375 18.927734 16.09375 A 3.7097729 3.7097729 0 0 0 19.335938 16.117188 L 22.119141 16.117188 L 22.119141 20.753906 L 19.335938 20.753906 C 19.335938 20.753906 17.81579 20.703961 16.507812 20.195312 C 15.853825 19.940989 15.363637 19.604908 15.111328 19.310547 C 14.859022 19.016197 14.699219 18.800645 14.699219 17.972656 C 14.699219 17.144664 14.831506 17.081502 14.988281 16.916016 C 15.145056 16.750548 15.543099 16.500395 16.15625 16.330078 C 16.769402 16.159754 17.462445 16.100269 18.001953 16.083984 z M 29.072266 28.095703 C 29.072266 28.095703 30.515938 28.00791 31.664062 28.390625 C 32.238125 28.581982 32.609694 28.829383 32.833984 29.103516 C 33.058273 29.377645 33.298828 29.739253 33.298828 30.898438 C 33.298828 31.726429 33.168497 31.791552 33.011719 31.957031 C 32.854944 32.122537 32.456901 32.370695 31.84375 32.541016 C 30.617448 32.881664 29.072266 32.777344 29.072266 32.777344 A 3.7097729 3.7097729 0 0 0 28.662109 32.753906 L 25.828125 32.753906 L 25.828125 28.173828 L 25.828125 28.167969 L 25.828125 28.117188 L 28.662109 28.117188 A 3.7097729 3.7097729 0 0 0 29.072266 28.095703 z "
       transform="matrix(0.26458333,0,0,0.26458333,0,-87)" />
    <path
       style="opacity:0.2;fill:#ffffff;fill-rule:evenodd;stroke-width:0.245361"
       d="m 6.3358225,-85.925243 c -0.2709026,0.004 -0.4873418,0.226409 -0.4835346,0.496953 v 0.245361 c -0.00381,-0.270544 0.212632,-0.49299 0.4835346,-0.496953 0.2765333,-0.0041 0.5017976,0.220786 0.4979114,0.496953 v -0.245361 c 0.00389,-0.276168 -0.2213781,-0.500998 -0.4979114,-0.496953 z"
       id="path14" />
  </g>
</svg>
