<?xml version="1.0" encoding="UTF-8" standalone="no"?>
<svg
   xmlns:dc="http://purl.org/dc/elements/1.1/"
   xmlns:cc="http://creativecommons.org/ns#"
   xmlns:rdf="http://www.w3.org/1999/02/22-rdf-syntax-ns#"
   xmlns:svg="http://www.w3.org/2000/svg"
   xmlns="http://www.w3.org/2000/svg"
   xmlns:sodipodi="http://sodipodi.sourceforge.net/DTD/sodipodi-0.dtd"
   xmlns:inkscape="http://www.inkscape.org/namespaces/inkscape"
   width="48"
   height="48"
   viewBox="0 0 12.7 12.7"
   version="1.1"
   id="svg8"
   inkscape:version="1.0.1 (3bc2e813f5, 2020-09-07)"
   sodipodi:docname="adventures-of-shuggy.svg">
  <defs
     id="defs2" />
  <sodipodi:namedview
     id="base"
     pagecolor="#ffffff"
     bordercolor="#666666"
     borderopacity="1.0"
     inkscape:pageopacity="0.0"
     inkscape:pageshadow="2"
     inkscape:zoom="16"
     inkscape:cx="14.882907"
     inkscape:cy="24.675723"
     inkscape:document-units="px"
     inkscape:current-layer="layer3"
     showgrid="false"
     inkscape:window-width="1920"
     inkscape:window-height="1051"
     inkscape:window-x="0"
     inkscape:window-y="0"
     inkscape:window-maximized="1"
     showguides="true"
     inkscape:guide-bbox="true"
     inkscape:document-rotation="0"
     inkscape:showpageshadow="false"
     showborder="false"
     units="px">
    <inkscape:grid
       type="xygrid"
       id="grid917" />
  </sodipodi:namedview>
  <metadata
     id="metadata5">
    <rdf:RDF>
      <cc:Work
         rdf:about="">
        <dc:format>image/svg+xml</dc:format>
        <dc:type
           rdf:resource="http://purl.org/dc/dcmitype/StillImage" />
        <dc:title></dc:title>
      </cc:Work>
    </rdf:RDF>
  </metadata>
  <g
     inkscape:groupmode="layer"
     id="layer3"
     inkscape:label="Задний фон"
     transform="translate(0,87)"
     style="opacity:1">
    <path
       id="path1022"
       style="opacity:1;stroke-width:0.405633;fill:#fbc707;fill-opacity:1"
       d="m 3.9062214,-84.807888 v 2.830835 l -0.1472776,-0.07751 c -0.431927,-0.227917 -0.7874529,-0.462069 -1.1291302,-0.74414 -0.059064,-0.04876 -0.219587,-0.1998 -0.3570841,-0.33538 -0.1774404,-0.174965 -0.2483606,-0.23779 -0.2439128,-0.217041 0.00345,0.01608 0.1259441,0.871154 0.2723348,1.900142 0.1463909,1.028986 0.2678998,1.872937 0.2702678,1.875855 0.00237,0.0029 0.1066502,-0.09644 0.2315103,-0.221176 0.2158966,-0.215681 0.2276311,-0.225594 0.2377117,-0.198437 0.00583,0.01571 0.1021374,0.303726 0.2139405,0.639754 0.1118029,0.336029 0.2064496,0.610816 0.2103229,0.610816 0.00387,0 0.1077073,-0.151776 0.2309936,-0.33693 l 0.2103231,-0.315227 v 1.078487 c 0,0 0.1397866,0.0666 0.40566,0.145728 v 0.05736 l 0.8113202,1.62264 1.2169798,-1.21698 1.2169799,1.21698 0.8113202,-1.62264 v -0.05736 c 0.2658734,-0.07912 0.4056599,-0.145728 0.4056599,-0.145728 0.0073,-0.359828 0.00915,-0.725232 0.012402,-1.089339 L 9.004101,-79.0811 c 0.123286,0.185154 0.2270937,0.33693 0.2309937,0.33693 0.00387,0 0.09852,-0.274787 0.2103231,-0.610816 0.1118031,-0.336028 0.2081104,-0.624044 0.2139405,-0.639754 0.010081,-0.02716 0.021815,-0.01724 0.2377114,0.198437 0.1248603,0.124736 0.2291113,0.224076 0.2315113,0.221176 0.0024,-0.0029 0.123876,-0.846869 0.270267,-1.875855 0.146391,-1.028988 0.268935,-1.884062 0.272335,-1.900142 0.0044,-0.02075 -0.06647,0.04208 -0.243912,0.217041 -0.137498,0.13558 -0.298025,0.28662 -0.357085,0.33538 -0.341677,0.282071 -0.6972032,0.516223 -1.1291302,0.74414 l -0.1503783,0.07958 c -0.00566,-0.989455 -0.015229,-1.960582 -0.016537,-2.832902 l -1.62264,2.0283 h -1.622639 z m -1.3275674,2.477885 c 0.00185,-0.0019 0.058332,0.03689 0.1255736,0.08578 0.3196624,0.232426 0.7080035,0.463683 1.0604005,0.630969 l 0.1415933,0.06718 v 1.442289 l -0.1529622,0.229443 c -0.088446,0.132718 -0.1651339,0.241329 -0.1700154,0.241329 -0.00488,0 -0.09259,-0.252513 -0.1953369,-0.561206 l -0.1870686,-0.561206 -0.1720826,0.172082 c -0.094708,0.09455 -0.1746044,0.169307 -0.1772502,0.166399 -0.00612,-0.0067 -0.277366,-1.908548 -0.2728515,-1.913062 z m 7.542692,0 c 0.0045,0.0045 -0.2667515,1.906362 -0.2728515,1.913062 -0.00265,0.0029 -0.082542,-0.07185 -0.1772502,-0.166399 l -0.1720826,-0.172082 -0.1870686,0.561206 c -0.102747,0.308693 -0.1904371,0.561206 -0.1953369,0.561206 -0.00488,0 -0.081565,-0.108611 -0.1700157,-0.241329 l -0.1534789,-0.230477 c 0.00162,-0.483064 0.00103,-0.964583 -0.00103,-1.440739 l 0.1431438,-0.0677 c 0.352397,-0.167286 0.7407381,-0.398543 1.0604002,-0.630969 0.067243,-0.04889 0.1236744,-0.08768 0.1255744,-0.08578 z m -4.8203775,1.578715 h 5.167e-4 c 0.00827,-1.01e-4 0.016536,-1.01e-4 0.024805,0 0.5599136,1.04e-4 1.0137873,0.453978 1.0138915,1.013892 1.043e-4,-0.559914 0.4539779,-1.013788 1.0138916,-1.013892 0.5601155,-1.81e-4 1.0143042,0.453776 1.0144085,1.013892 -1.043e-4,0.560115 -0.454293,1.014073 -1.0144085,1.013891 -0.5599385,-1.04e-4 -1.0137873,-0.453978 -1.0138916,-1.013891 -1.042e-4,0.559913 -0.4539779,1.013787 -1.0138915,1.013891 -0.5601155,1.82e-4 -1.0143043,-0.453776 -1.0144085,-1.013891 -6.46e-5,-0.550371 0.4388837,-1.000328 0.9890868,-1.013892 z" />
    <path
       id="path838"
       style="fill:#fbc707;stroke:none;stroke-width:0.32508;fill-opacity:1"
       d="M 6.2941893,-86.999969 A 6.3499999,6.3499999 0 0 0 2.4147492e-8,-80.649969 6.3499999,6.3499999 0 0 0 6.35,-74.299969 a 6.3499999,6.3499999 0 0 0 6.35,-6.35 6.3499999,6.3499999 0 0 0 -6.35,-6.35 6.3499999,6.3499999 0 0 0 -0.055811,0 z M 6.35,-86.203635 a 5.5534916,5.5534916 0 0 1 5.553666,5.553666 A 5.5534916,5.5534916 0 0 1 6.35,-75.096303 5.5534916,5.5534916 0 0 1 0.79633383,-80.649969 5.5534916,5.5534916 0 0 1 6.35,-86.203635 Z" />
    <g
       id="g1913"
       transform="matrix(0.14938293,0,0,0.14938293,1.5690066,-85.564189)"
       style="display:inline" />
    <g
       id="2-main"
       stroke="none"
       stroke-width="1"
       fill="none"
       fill-rule="evenodd"
       transform="matrix(0.09786004,0,0,0.09786004,1.4569979,-85.543002)">
      <g
         id="2_main_1920"
         transform="translate(-1419,-3925)">
        <g
           id="Get-started"
           transform="translate(0,3557)">
          <g
             id="5"
             transform="translate(1350,328)">
            <g
               id="Group-26"
               transform="translate(6,40)">
              <g
                 id="4k/slideshow_maker"
                 transform="translate(63)" />
            </g>
          </g>
        </g>
      </g>
    </g>
  </g>
</svg>
