<?xml version="1.0" encoding="UTF-8" standalone="no"?>
<svg
   xmlns:dc="http://purl.org/dc/elements/1.1/"
   xmlns:cc="http://creativecommons.org/ns#"
   xmlns:rdf="http://www.w3.org/1999/02/22-rdf-syntax-ns#"
   xmlns:svg="http://www.w3.org/2000/svg"
   xmlns="http://www.w3.org/2000/svg"
   xmlns:sodipodi="http://sodipodi.sourceforge.net/DTD/sodipodi-0.dtd"
   xmlns:inkscape="http://www.inkscape.org/namespaces/inkscape"
   width="48"
   height="48"
   viewBox="0 0 12.7 12.7"
   version="1.1"
   id="svg8"
   inkscape:version="1.0.1 (3bc2e813f5, 2020-09-07)"
   sodipodi:docname="aeskulap.svg">
  <defs
     id="defs2" />
  <sodipodi:namedview
     id="base"
     pagecolor="#ffffff"
     bordercolor="#666666"
     borderopacity="1.0"
     inkscape:pageopacity="0.0"
     inkscape:pageshadow="2"
     inkscape:zoom="16.000001"
     inkscape:cx="35.026329"
     inkscape:cy="26.711953"
     inkscape:document-units="px"
     inkscape:current-layer="layer3"
     showgrid="false"
     inkscape:window-width="1920"
     inkscape:window-height="1051"
     inkscape:window-x="0"
     inkscape:window-y="0"
     inkscape:window-maximized="1"
     showguides="true"
     inkscape:guide-bbox="true"
     inkscape:document-rotation="0"
     inkscape:showpageshadow="false"
     showborder="false"
     units="px">
    <inkscape:grid
       type="xygrid"
       id="grid917" />
  </sodipodi:namedview>
  <metadata
     id="metadata5">
    <rdf:RDF>
      <cc:Work
         rdf:about="">
        <dc:format>image/svg+xml</dc:format>
        <dc:type
           rdf:resource="http://purl.org/dc/dcmitype/StillImage" />
        <dc:title></dc:title>
      </cc:Work>
    </rdf:RDF>
  </metadata>
  <g
     inkscape:groupmode="layer"
     id="layer3"
     inkscape:label="Задний фон"
     transform="translate(0,87)"
     style="opacity:1">
    <path
       id="path838"
       style="fill:#fbc707;stroke:none;stroke-width:0.32508;fill-opacity:1"
       d="M 6.2941893,-86.999969 A 6.3499999,6.3499999 0 0 0 2.4147492e-8,-80.649969 6.3499999,6.3499999 0 0 0 6.35,-74.299969 a 6.3499999,6.3499999 0 0 0 6.35,-6.35 6.3499999,6.3499999 0 0 0 -6.35,-6.35 6.3499999,6.3499999 0 0 0 -0.055811,0 z M 6.35,-86.203635 a 5.5534916,5.5534916 0 0 1 5.553666,5.553666 A 5.5534916,5.5534916 0 0 1 6.35,-75.096303 5.5534916,5.5534916 0 0 1 0.79633383,-80.649969 5.5534916,5.5534916 0 0 1 6.35,-86.203635 Z" />
    <g
       id="g1913"
       transform="matrix(0.14938293,0,0,0.14938293,1.5690066,-85.564189)"
       style="display:inline" />
    <g
       id="2-main"
       stroke="none"
       stroke-width="1"
       fill="none"
       fill-rule="evenodd"
       transform="matrix(0.09786004,0,0,0.09786004,1.4569979,-85.543002)">
      <g
         id="2_main_1920"
         transform="translate(-1419,-3925)">
        <g
           id="Get-started"
           transform="translate(0,3557)">
          <g
             id="5"
             transform="translate(1350,328)">
            <g
               id="Group-26"
               transform="translate(6,40)">
              <g
                 id="4k/slideshow_maker"
                 transform="translate(63)" />
            </g>
          </g>
        </g>
      </g>
    </g>
    <path
       id="circle4"
       style="fill:#1940ae;stroke-width:0.999999"
       d="M 24 4 A 19.999999 19.999999 0 0 0 4 24 A 19.999999 19.999999 0 0 0 24 44 A 19.999999 19.999999 0 0 0 44 24 A 19.999999 19.999999 0 0 0 24 4 z M 23.802734 10.005859 C 24.186502 9.9597109 24.583401 10.149544 24.865234 10.589844 C 25.346708 11.342023 25.34399 12.20587 24.859375 12.962891 C 24.274516 13.876591 24.803861 14.457934 25.572266 13.746094 C 25.891862 13.450006 26.152344 13.065609 26.152344 12.892578 C 26.152344 12.719551 26.35986 12.284069 26.613281 11.925781 C 27.166793 11.143215 27.546119 11.354983 29.113281 13.316406 C 30.324374 14.832186 31.545748 15.642956 33.074219 15.949219 C 34.072759 16.149307 34.148935 16.223478 33.835938 16.666016 C 33.644202 16.937121 33.195226 17.190183 32.837891 17.230469 C 32.480574 17.270759 32.008577 17.416634 31.789062 17.552734 C 31.569548 17.688873 31.141161 17.711799 30.835938 17.603516 C 30.530703 17.495194 30.212079 17.56173 30.128906 17.751953 C 30.036799 17.962624 29.639626 18.01637 29.113281 17.890625 C 28.577034 17.762537 28.189931 17.819056 28.09375 18.039062 C 28.00066 18.251963 27.637843 18.313322 27.185547 18.193359 C 26.753074 18.078651 26.371087 18.136012 26.287109 18.328125 C 26.19916 18.529347 26.802121 18.937587 27.798828 19.351562 C 29.793032 20.179835 30.480469 20.755126 30.480469 21.59375 C 30.480469 22.46969 29.667795 23.127563 28.259766 23.388672 C 27.602079 23.510637 27.064453 23.680959 27.064453 23.767578 C 27.064453 23.854205 27.372237 24.420224 27.748047 25.025391 C 28.492259 26.223747 28.568713 26.741184 28.166016 27.814453 C 27.860101 28.629735 27.423414 29.111234 25.753906 30.46875 L 24.542969 31.453125 L 25.011719 32.21875 C 25.269974 32.639744 25.539684 33.356142 25.609375 33.810547 C 25.679069 34.264948 25.774896 34.821521 25.824219 35.046875 C 25.94539 35.60058 24.372731 38.022341 23.90625 38 C 23.701589 37.990173 23.319397 37.592498 23.056641 37.115234 C 21.945441 35.096891 21.9007 33.975537 22.871094 32.378906 L 23.421875 31.472656 L 22.224609 30.521484 C 20.385416 29.058769 19.775391 28.118651 19.775391 26.748047 C 19.775391 25.620912 20.421771 24.169922 20.923828 24.169922 C 21.044244 24.169922 21.142578 24.041465 21.142578 23.884766 C 21.142578 23.728066 20.55236 23.496023 19.832031 23.369141 C 18.182196 23.078533 17.287826 22.438716 17.273438 21.537109 C 17.263611 20.935545 18.165826 20.234987 19.933594 19.472656 C 21.29594 18.885159 21.793062 18.543108 21.572266 18.345703 C 21.397954 18.189873 20.922767 18.148571 20.515625 18.253906 C 20.089589 18.364117 19.775391 18.311533 19.775391 18.128906 C 19.775391 17.954368 19.288416 17.806602 18.693359 17.800781 C 16.680266 17.781128 16.331727 17.74333 16.080078 17.523438 C 15.941974 17.402757 15.526749 17.271477 15.158203 17.230469 C 14.789661 17.189461 14.33595 16.940075 14.150391 16.677734 C 13.852413 16.25643 13.942783 16.174411 14.916016 15.972656 C 16.402666 15.664474 17.833895 14.73605 18.875 13.40625 C 20.730786 11.03587 21.300784 10.874065 21.757812 12.585938 C 21.980502 13.420083 22.904628 14.337501 23.171875 13.990234 C 23.223352 13.923375 23.075876 13.375763 22.845703 12.771484 C 22.449926 11.732458 22.448345 11.625949 22.814453 10.835938 C 23.047181 10.333769 23.418966 10.052008 23.802734 10.005859 z M 23.195312 18.052734 C 23.071533 18.052734 22.993617 18.364082 23.023438 18.746094 C 23.07208 19.369005 22.843461 19.527083 20.800781 20.28125 C 17.7467 21.408827 17.7467 21.897067 20.800781 22.607422 C 23.934406 23.336274 23.727794 23.365733 23.5625 22.197266 C 23.484188 21.643784 23.419922 20.484523 23.419922 19.621094 C 23.419922 18.757664 23.319092 18.052734 23.195312 18.052734 z M 24.859375 18.113281 C 24.596685 18.085258 24.558594 18.709083 24.558594 20.648438 L 24.558594 23.244141 L 25.527344 23.035156 C 26.059754 22.920599 27.15302 22.659393 27.957031 22.453125 C 28.761039 22.246876 29.458335 21.905881 29.507812 21.695312 C 29.596594 21.317398 27.443274 20.266805 25.640625 19.808594 C 24.748796 19.581898 24.530025 19.137181 25.146484 18.802734 C 25.436941 18.645166 25.447736 18.55322 25.203125 18.333984 C 25.058855 18.204689 24.946938 18.122622 24.859375 18.113281 z M 24.798828 24.462891 C 24.339605 24.580558 24.330078 25.354924 24.330078 27.390625 C 24.330078 28.984652 24.41877 30.289062 24.525391 30.289062 C 24.632011 30.289062 25.22028 29.912973 25.833984 29.453125 C 27.34228 28.323001 27.519531 28.083763 27.519531 27.169922 C 27.519531 25.904578 27.117735 25.187663 26.207031 24.830078 C 25.511897 24.55714 25.074362 24.39229 24.798828 24.462891 z M 23.082031 24.492188 C 22.080596 24.492188 20.693908 25.471125 20.550781 26.277344 C 20.318945 27.583318 20.676988 28.311855 22.123047 29.470703 C 22.898534 30.092167 23.558527 30.602736 23.589844 30.605469 C 23.621214 30.608167 23.648437 29.235312 23.648438 27.552734 C 23.648438 24.510884 23.643556 24.492188 23.082031 24.492188 z M 24.287109 32.220703 C 24.185402 32.220703 24.103516 33.457117 24.103516 34.96875 L 24.103516 37.71875 L 24.787109 36.617188 C 25.162946 36.012021 25.468754 35.204561 25.46875 34.822266 C 25.46875 34.10357 24.613608 32.220703 24.287109 32.220703 z M 23.498047 32.326172 C 23.401569 32.285112 23.274055 32.543457 22.992188 33.1875 C 22.467026 34.387417 22.497245 35.335232 23.103516 36.660156 C 23.606862 37.760173 23.877279 37.23126 23.859375 35.181641 C 23.850682 34.17369 23.762519 33.059307 23.664062 32.705078 C 23.602692 32.484263 23.555934 32.350808 23.498047 32.326172 z "
       transform="matrix(0.26458333,0,0,0.26458333,0,-87)" />
  </g>
</svg>
