<?xml version="1.0" encoding="UTF-8" standalone="no"?>
<svg
   xmlns:dc="http://purl.org/dc/elements/1.1/"
   xmlns:cc="http://creativecommons.org/ns#"
   xmlns:rdf="http://www.w3.org/1999/02/22-rdf-syntax-ns#"
   xmlns:svg="http://www.w3.org/2000/svg"
   xmlns="http://www.w3.org/2000/svg"
   xmlns:sodipodi="http://sodipodi.sourceforge.net/DTD/sodipodi-0.dtd"
   xmlns:inkscape="http://www.inkscape.org/namespaces/inkscape"
   width="48"
   height="48"
   viewBox="0 0 12.7 12.7"
   version="1.1"
   id="svg8"
   inkscape:version="1.0.1 (3bc2e813f5, 2020-09-07)"
   sodipodi:docname="airstrike.svg">
  <defs
     id="defs2" />
  <sodipodi:namedview
     id="base"
     pagecolor="#ffffff"
     bordercolor="#666666"
     borderopacity="1.0"
     inkscape:pageopacity="0.0"
     inkscape:pageshadow="2"
     inkscape:zoom="11.313709"
     inkscape:cx="31.899365"
     inkscape:cy="28.608504"
     inkscape:document-units="px"
     inkscape:current-layer="layer3"
     showgrid="false"
     inkscape:window-width="1920"
     inkscape:window-height="1051"
     inkscape:window-x="0"
     inkscape:window-y="0"
     inkscape:window-maximized="1"
     showguides="true"
     inkscape:guide-bbox="true"
     inkscape:document-rotation="0"
     inkscape:showpageshadow="false"
     showborder="false"
     units="px">
    <inkscape:grid
       type="xygrid"
       id="grid917" />
  </sodipodi:namedview>
  <metadata
     id="metadata5">
    <rdf:RDF>
      <cc:Work
         rdf:about="">
        <dc:format>image/svg+xml</dc:format>
        <dc:type
           rdf:resource="http://purl.org/dc/dcmitype/StillImage" />
        <dc:title />
      </cc:Work>
    </rdf:RDF>
  </metadata>
  <g
     inkscape:groupmode="layer"
     id="layer3"
     inkscape:label="Задний фон"
     transform="translate(0,87)"
     style="opacity:1">
    <path
       id="path12"
       style="fill:#db3c30;fill-opacity:1;stroke-width:0.44928"
       d="m 6.35,-85.333434 a 3.1449576,3.1449576 0 0 0 -3.1449576,3.144958 3.1449576,3.1449576 0 0 0 2.317037,3.033954 c -0.00402,0.108633 -0.00745,0.238123 -0.00745,0.715162 -3.82e-5,0.356526 3.054e-4,0.531821 0.00176,0.675675 H 5.0561271 l 0.4492797,1.797119 h 1.7971187 l 0.4492797,-1.797119 H 7.294628 c 0.00136,-0.14089 0.00219,-0.301807 0.00219,-0.676114 v -0.749823 A 3.1449576,3.1449576 0 0 0 9.494958,-82.188476 3.1449576,3.1449576 0 0 0 6.35,-85.333434 Z m 0.032468,0.02545 c 0.00227,-0.0025 0.050718,0.01886 0.1074935,0.04738 0.4266189,0.214382 0.7899179,0.475773 1.1214443,0.806422 0.5481903,0.546741 0.859725,1.15961 0.9560355,1.88136 0.025515,0.191207 0.021166,0.631607 -0.0079,0.821338 -0.053341,0.348227 -0.1382998,0.621269 -0.2886973,0.92664 -0.3336888,0.677531 -0.9530911,1.281036 -1.7203374,1.676462 -0.1316607,0.06785 -0.1610212,0.07964 -0.1610212,0.06493 0,-0.0035 0.019989,-0.03985 0.044313,-0.08073 0.074425,-0.125076 0.2578127,-0.499895 0.3316949,-0.677867 0.4221663,-1.016944 0.5722376,-2.047037 0.4440147,-3.046678 -0.066378,-0.517488 -0.1992849,-1.031017 -0.394436,-1.52334 -0.099138,-0.250101 -0.2737953,-0.617006 -0.3742536,-0.786238 -0.034378,-0.05791 -0.060621,-0.107262 -0.058353,-0.109688 z m -0.067568,0.0026 c 0.00284,0.0029 -0.02353,0.05399 -0.058793,0.113636 -0.347186,0.58724 -0.6367696,1.431002 -0.7493845,2.183657 -0.088936,0.594401 -0.074003,1.289129 0.040804,1.888818 0.1203359,0.628574 0.3671601,1.317642 0.664267,1.854156 0.058834,0.10624 0.105594,0.19495 0.103545,0.196999 -0.00205,0.002 -0.079539,-0.03583 -0.1719899,-0.08424 -0.4303277,-0.225354 -0.7797358,-0.485062 -1.1100366,-0.82485 -0.5070707,-0.521633 -0.8068102,-1.128153 -0.8968045,-1.814668 -0.02457,-0.187434 -0.027952,-0.558552 -0.00702,-0.745874 0.057344,-0.51319 0.2587264,-1.033562 0.5651096,-1.46016 0.2934879,-0.408642 0.7189766,-0.796167 1.185063,-1.079324 0.144949,-0.08806 0.4273397,-0.236049 0.4352399,-0.22815 z m 0.5440495,6.220154 -0.00219,0.615566 c -0.00153,0.46874 0.00222,0.572521 0.00571,0.705948 H 5.9472278 l 0.00219,-0.651543 c 0.0011,-0.360353 -4.817e-4,-0.511747 -0.00219,-0.654175 a 3.1449576,3.1449576 0 0 0 0.4027722,0.02589 3.1449576,3.1449576 0 0 0 0.5089496,-0.04168 z" />
    <path
       id="path838"
       style="fill:#fbc707;stroke:none;stroke-width:0.32508;fill-opacity:1"
       d="M 6.2941893,-86.999969 A 6.3499999,6.3499999 0 0 0 2.4147492e-8,-80.649969 6.3499999,6.3499999 0 0 0 6.35,-74.299969 a 6.3499999,6.3499999 0 0 0 6.35,-6.35 6.3499999,6.3499999 0 0 0 -6.35,-6.35 6.3499999,6.3499999 0 0 0 -0.055811,0 z M 6.35,-86.203635 a 5.5534916,5.5534916 0 0 1 5.553666,5.553666 A 5.5534916,5.5534916 0 0 1 6.35,-75.096303 5.5534916,5.5534916 0 0 1 0.79633383,-80.649969 5.5534916,5.5534916 0 0 1 6.35,-86.203635 Z" />
    <g
       id="g1913"
       transform="matrix(0.14938293,0,0,0.14938293,1.5690066,-85.564189)"
       style="display:inline" />
    <g
       id="2-main"
       stroke="none"
       stroke-width="1"
       fill="none"
       fill-rule="evenodd"
       transform="matrix(0.09786004,0,0,0.09786004,1.4569979,-85.543002)">
      <g
         id="2_main_1920"
         transform="translate(-1419,-3925)">
        <g
           id="Get-started"
           transform="translate(0,3557)">
          <g
             id="5"
             transform="translate(1350,328)">
            <g
               id="Group-26"
               transform="translate(6,40)">
              <g
                 id="4k/slideshow_maker"
                 transform="translate(63)" />
            </g>
          </g>
        </g>
      </g>
    </g>
  </g>
</svg>
