<?xml version="1.0" encoding="UTF-8" standalone="no"?>
<svg
   xmlns:dc="http://purl.org/dc/elements/1.1/"
   xmlns:cc="http://creativecommons.org/ns#"
   xmlns:rdf="http://www.w3.org/1999/02/22-rdf-syntax-ns#"
   xmlns:svg="http://www.w3.org/2000/svg"
   xmlns="http://www.w3.org/2000/svg"
   xmlns:sodipodi="http://sodipodi.sourceforge.net/DTD/sodipodi-0.dtd"
   xmlns:inkscape="http://www.inkscape.org/namespaces/inkscape"
   width="48"
   height="48"
   viewBox="0 0 12.7 12.7"
   version="1.1"
   id="svg8"
   inkscape:version="1.0.1 (3bc2e813f5, 2020-09-07)"
   sodipodi:docname="airtame-application.svg">
  <defs
     id="defs2" />
  <sodipodi:namedview
     id="base"
     pagecolor="#ffffff"
     bordercolor="#666666"
     borderopacity="1.0"
     inkscape:pageopacity="0.0"
     inkscape:pageshadow="2"
     inkscape:zoom="11.313709"
     inkscape:cx="-6.4237916"
     inkscape:cy="24.531672"
     inkscape:document-units="px"
     inkscape:current-layer="layer3"
     showgrid="false"
     inkscape:window-width="1920"
     inkscape:window-height="1051"
     inkscape:window-x="0"
     inkscape:window-y="0"
     inkscape:window-maximized="1"
     showguides="true"
     inkscape:guide-bbox="true"
     inkscape:document-rotation="0"
     inkscape:showpageshadow="false"
     showborder="false"
     units="px">
    <inkscape:grid
       type="xygrid"
       id="grid917" />
  </sodipodi:namedview>
  <metadata
     id="metadata5">
    <rdf:RDF>
      <cc:Work
         rdf:about="">
        <dc:format>image/svg+xml</dc:format>
        <dc:type
           rdf:resource="http://purl.org/dc/dcmitype/StillImage" />
        <dc:title></dc:title>
      </cc:Work>
    </rdf:RDF>
  </metadata>
  <g
     inkscape:groupmode="layer"
     id="layer3"
     inkscape:label="Задний фон"
     transform="translate(0,87)"
     style="opacity:1">
    <path
       id="path838"
       style="fill:#fbc707;fill-opacity:1;stroke:none;stroke-width:1.22865"
       d="M 23.789062 0 A 24 24 0 0 0 0 24 A 24 24 0 0 0 24 48 A 24 24 0 0 0 48 24 A 24 24 0 0 0 24 0 A 24 24 0 0 0 23.789062 0 z M 24 3.0097656 A 20.989575 20.989575 0 0 1 44.990234 24 A 20.989575 20.989575 0 0 1 24 44.990234 A 20.989575 20.989575 0 0 1 3.0097656 24 A 20.989575 20.989575 0 0 1 24 3.0097656 z "
       transform="matrix(0.26458333,0,0,0.26458333,0,-87)" />
    <path
       id="path873"
       style="fill:#3c77e1;fill-opacity:1;stroke:none;stroke-width:1.11247"
       d="M 24 4.9941406 A 19.004848 19.004848 0 0 0 4.9941406 24 A 19.004848 19.004848 0 0 0 24 43.005859 A 19.004848 19.004848 0 0 0 43.005859 24 A 19.004848 19.004848 0 0 0 24 4.9941406 z M 19.96875 17.013672 C 21.602576 17.100005 23.241 17.585032 24.683594 18.457031 C 26.239879 19.397756 27.084468 19.664062 28.503906 19.664062 C 29.865244 19.664062 31.223769 19.226926 32.230469 18.462891 C 32.59223 18.188346 33.025716 17.962891 33.195312 17.962891 C 33.364911 17.962891 33.865673 18.438376 34.306641 19.019531 C 35.24496 20.256155 35.219434 20.352263 33.697266 21.417969 C 31.805358 22.742538 28.834767 23.311732 26.527344 22.791016 C 25.858713 22.640137 24.441115 22.045733 23.3125 21.443359 C 21.587252 20.522542 21.113302 20.352579 20.044922 20.277344 C 18.512256 20.169438 17.598161 20.402444 16.154297 21.267578 C 15.542951 21.63389 14.926791 21.933594 14.785156 21.933594 C 14.483512 21.933594 13 20.125115 13 19.757812 C 13 19.441277 14.162733 18.525232 15.279297 17.960938 C 16.70483 17.240493 18.334924 16.927339 19.96875 17.013672 z M 19.554688 25.091797 C 21.740937 25.091797 22.833436 25.407621 24.865234 26.626953 C 25.556501 27.041805 26.556833 27.484559 27.087891 27.611328 C 28.868364 28.036332 30.880433 27.589694 32.355469 26.443359 C 32.604645 26.249734 32.965757 26.091797 33.158203 26.091797 C 33.584324 26.091797 35.075162 27.91549 34.996094 28.339844 C 34.906802 28.81905 32.666304 30.205329 31.300781 30.625 C 29.67963 31.123232 27.213163 31.126668 25.660156 30.632812 C 25.047867 30.438167 24.048152 29.97345 23.439453 29.599609 C 21.934528 28.675326 20.954201 28.359375 19.576172 28.359375 C 18.092895 28.359375 17.359334 28.574391 16.017578 29.398438 C 15.423926 29.763049 14.845845 30.060547 14.734375 30.060547 C 14.364083 30.060547 12.961243 28.024824 13.080078 27.660156 C 13.230322 27.199099 15.145375 25.997799 16.527344 25.498047 C 17.400228 25.182381 18.084022 25.091797 19.554688 25.091797 z "
       transform="matrix(0.26458333,0,0,0.26458333,0,-87)" />
    <g
       id="g1913"
       transform="matrix(0.14938293,0,0,0.14938293,1.5690066,-85.564189)"
       style="display:inline" />
    <g
       id="2-main"
       stroke="none"
       stroke-width="1"
       fill="none"
       fill-rule="evenodd"
       transform="matrix(0.09786004,0,0,0.09786004,1.4569979,-85.543002)">
      <g
         id="2_main_1920"
         transform="translate(-1419,-3925)">
        <g
           id="Get-started"
           transform="translate(0,3557)">
          <g
             id="5"
             transform="translate(1350,328)">
            <g
               id="Group-26"
               transform="translate(6,40)">
              <g
                 id="4k/slideshow_maker"
                 transform="translate(63)" />
            </g>
          </g>
        </g>
      </g>
    </g>
    <rect
       style="fill:#3c77e1;stroke-width:0.264583"
       width="10.583333"
       height="10.583333"
       x="-2.2514758"
       y="-70.066864"
       rx="0.52916664"
       ry="0.52916664"
       id="rect4" />
  </g>
</svg>
