<?xml version="1.0" encoding="UTF-8" standalone="no"?>
<svg
   xmlns:dc="http://purl.org/dc/elements/1.1/"
   xmlns:cc="http://creativecommons.org/ns#"
   xmlns:rdf="http://www.w3.org/1999/02/22-rdf-syntax-ns#"
   xmlns:svg="http://www.w3.org/2000/svg"
   xmlns="http://www.w3.org/2000/svg"
   xmlns:sodipodi="http://sodipodi.sourceforge.net/DTD/sodipodi-0.dtd"
   xmlns:inkscape="http://www.inkscape.org/namespaces/inkscape"
   width="48"
   height="48"
   viewBox="0 0 12.7 12.7"
   version="1.1"
   id="svg8"
   inkscape:version="1.0.1 (3bc2e813f5, 2020-09-07)"
   sodipodi:docname="airvpn.svg">
  <defs
     id="defs2" />
  <sodipodi:namedview
     id="base"
     pagecolor="#ffffff"
     bordercolor="#666666"
     borderopacity="1.0"
     inkscape:pageopacity="0.0"
     inkscape:pageshadow="2"
     inkscape:zoom="8.0000004"
     inkscape:cx="0.0059247232"
     inkscape:cy="32.309201"
     inkscape:document-units="px"
     inkscape:current-layer="layer3"
     showgrid="false"
     inkscape:window-width="1920"
     inkscape:window-height="1051"
     inkscape:window-x="0"
     inkscape:window-y="0"
     inkscape:window-maximized="1"
     showguides="true"
     inkscape:guide-bbox="true"
     inkscape:document-rotation="0"
     inkscape:showpageshadow="false"
     showborder="false"
     units="px">
    <inkscape:grid
       type="xygrid"
       id="grid917" />
  </sodipodi:namedview>
  <metadata
     id="metadata5">
    <rdf:RDF>
      <cc:Work
         rdf:about="">
        <dc:format>image/svg+xml</dc:format>
        <dc:type
           rdf:resource="http://purl.org/dc/dcmitype/StillImage" />
        <dc:title></dc:title>
      </cc:Work>
    </rdf:RDF>
  </metadata>
  <g
     inkscape:groupmode="layer"
     id="layer3"
     inkscape:label="Задний фон"
     transform="translate(0,87)"
     style="opacity:1">
    <path
       id="path838"
       style="fill:#fbc707;stroke:none;stroke-width:0.32508;fill-opacity:1"
       d="M 6.2941893,-86.999969 A 6.3499999,6.3499999 0 0 0 2.4147492e-8,-80.649969 6.3499999,6.3499999 0 0 0 6.35,-74.299969 a 6.3499999,6.3499999 0 0 0 6.35,-6.35 6.3499999,6.3499999 0 0 0 -6.35,-6.35 6.3499999,6.3499999 0 0 0 -0.055811,0 z M 6.35,-86.203635 a 5.5534916,5.5534916 0 0 1 5.553666,5.553666 A 5.5534916,5.5534916 0 0 1 6.35,-75.096303 5.5534916,5.5534916 0 0 1 0.79633383,-80.649969 5.5534916,5.5534916 0 0 1 6.35,-86.203635 Z" />
    <g
       id="g1913"
       transform="matrix(0.14938293,0,0,0.14938293,1.5690066,-85.564189)"
       style="display:inline" />
    <g
       id="2-main"
       stroke="none"
       stroke-width="1"
       fill="none"
       fill-rule="evenodd"
       transform="matrix(0.09786004,0,0,0.09786004,1.4569979,-85.543002)">
      <g
         id="2_main_1920"
         transform="translate(-1419,-3925)">
        <g
           id="Get-started"
           transform="translate(0,3557)">
          <g
             id="5"
             transform="translate(1350,328)">
            <g
               id="Group-26"
               transform="translate(6,40)">
              <g
                 id="4k/slideshow_maker"
                 transform="translate(63)" />
            </g>
          </g>
        </g>
      </g>
    </g>
    <path
       id="path4"
       style="fill:#006680;stroke-width:0.245816"
       d="m 5.7417015,-84.09142 c -1.1167545,0 -2.0736813,0.712586 -2.4692013,1.697186 -1.0566811,0.359334 -1.838818,1.339698 -1.838818,2.50713 0,1.460549 1.2055452,2.678529 2.6694068,2.678529 h 4.4938215 c 1.4639735,0 2.6694075,-1.218063 2.6694075,-2.678529 0,-1.460549 -1.205546,-2.678049 -2.6694075,-2.678049 h -0.018724 l -0.019205,4.81e-4 c -0.036289,0.0011 -0.067218,0.01939 -0.1032236,0.02208 -0.1314881,-0.07791 -0.2577128,-0.154582 -0.4037717,-0.205967 -0.6539273,-0.770415 -1.347599,-1.342866 -2.310285,-1.342866 z m 0,1.22908 c 0.7129649,0 1.3045572,0.521104 1.4196826,1.205554 0.041294,-0.0037 0.084093,-0.0053 0.1286694,-0.0077 0.3506812,0 0.6630242,0.165015 0.8646765,0.422016 0.1353958,-0.05589 0.2835142,-0.08918 0.4421805,-0.0941 0.7954855,0 1.4403275,0.649024 1.4403275,1.449449 0,0.800377 -0.6446218,1.44945 -1.4403275,1.44945 H 4.103089 c -0.7954848,0 -1.4403274,-0.649024 -1.4403274,-1.44945 0,-0.800426 0.644867,-1.449449 1.4403274,-1.449449 0.071805,0.0073 0.1404304,0.01796 0.2059669,0.03121 -0.00399,-0.03541 -0.00657,-0.07099 -0.00768,-0.107546 0,-0.800426 0.6448667,-1.449449 1.4403274,-1.449449 z" />
  </g>
</svg>
