<?xml version="1.0" encoding="UTF-8" standalone="no"?>
<svg
   xmlns:dc="http://purl.org/dc/elements/1.1/"
   xmlns:cc="http://creativecommons.org/ns#"
   xmlns:rdf="http://www.w3.org/1999/02/22-rdf-syntax-ns#"
   xmlns:svg="http://www.w3.org/2000/svg"
   xmlns="http://www.w3.org/2000/svg"
   xmlns:sodipodi="http://sodipodi.sourceforge.net/DTD/sodipodi-0.dtd"
   xmlns:inkscape="http://www.inkscape.org/namespaces/inkscape"
   width="48"
   height="48"
   viewBox="0 0 12.7 12.7"
   version="1.1"
   id="svg8"
   inkscape:version="1.0.1 (3bc2e813f5, 2020-09-07)"
   sodipodi:docname="akira.svg">
  <defs
     id="defs2" />
  <sodipodi:namedview
     id="base"
     pagecolor="#ffffff"
     bordercolor="#666666"
     borderopacity="1.0"
     inkscape:pageopacity="0.0"
     inkscape:pageshadow="2"
     inkscape:zoom="8"
     inkscape:cx="26.489311"
     inkscape:cy="34.533572"
     inkscape:document-units="px"
     inkscape:current-layer="layer3"
     showgrid="false"
     inkscape:window-width="1920"
     inkscape:window-height="1051"
     inkscape:window-x="0"
     inkscape:window-y="0"
     inkscape:window-maximized="1"
     showguides="true"
     inkscape:guide-bbox="true"
     inkscape:document-rotation="0"
     inkscape:showpageshadow="false"
     showborder="false"
     units="px">
    <inkscape:grid
       type="xygrid"
       id="grid917" />
  </sodipodi:namedview>
  <metadata
     id="metadata5">
    <rdf:RDF>
      <cc:Work
         rdf:about="">
        <dc:format>image/svg+xml</dc:format>
        <dc:type
           rdf:resource="http://purl.org/dc/dcmitype/StillImage" />
        <dc:title></dc:title>
      </cc:Work>
    </rdf:RDF>
  </metadata>
  <g
     inkscape:groupmode="layer"
     id="layer3"
     inkscape:label="Задний фон"
     transform="translate(0,87)"
     style="opacity:1">
    <path
       id="path838"
       style="fill:#fbc707;stroke:none;stroke-width:0.32508;fill-opacity:1"
       d="M 6.2941893,-86.999969 A 6.3499999,6.3499999 0 0 0 2.4147492e-8,-80.649969 6.3499999,6.3499999 0 0 0 6.35,-74.299969 a 6.3499999,6.3499999 0 0 0 6.35,-6.35 6.3499999,6.3499999 0 0 0 -6.35,-6.35 6.3499999,6.3499999 0 0 0 -0.055811,0 z M 6.35,-86.203635 a 5.5534916,5.5534916 0 0 1 5.553666,5.553666 A 5.5534916,5.5534916 0 0 1 6.35,-75.096303 5.5534916,5.5534916 0 0 1 0.79633383,-80.649969 5.5534916,5.5534916 0 0 1 6.35,-86.203635 Z" />
    <g
       id="g1913"
       transform="matrix(0.14938293,0,0,0.14938293,1.5690066,-85.564189)"
       style="display:inline" />
    <g
       id="2-main"
       stroke="none"
       stroke-width="1"
       fill="none"
       fill-rule="evenodd"
       transform="matrix(0.09786004,0,0,0.09786004,1.4569979,-85.543002)">
      <g
         id="2_main_1920"
         transform="translate(-1419,-3925)">
        <g
           id="Get-started"
           transform="translate(0,3557)">
          <g
             id="5"
             transform="translate(1350,328)">
            <g
               id="Group-26"
               transform="translate(6,40)">
              <g
                 id="4k/slideshow_maker"
                 transform="translate(63)" />
            </g>
          </g>
        </g>
      </g>
    </g>
    <path
       id="path10"
       style="fill:#fbc707;fill-opacity:1;fill-rule:evenodd;stroke-width:0.327482"
       d="m 5.9413615,-84.579875 -1.5267605,3.764134 c -0.095328,0.0057 -0.1702471,0.03939 -0.1758942,0.08443 -0.00228,-0.0093 -0.00192,-0.01599 -0.00192,-0.01599 l -1.595839,3.98608 c -0.0201,0.04201 -0.011353,0.0522 0.028143,0.02878 l 3.9201992,-2.34163 3.439209,2.078748 c 0.04282,0.02822 0.04904,0.01696 0.03262,-0.01983 -0.3981339,-0.989909 -0.7555807,-1.864494 -1.3489474,-3.326637 l 0.4637205,-0.276953 c 0.029771,-0.01862 0.031241,-0.02826 0,-0.02814 H 8.5887274 C 7.9004581,-82.34238 6.9941675,-84.579875 6.9941675,-84.579875 Z m 0,0.327483 h 0.2596837 l 0.2596837,0.327483 0.2667193,-0.327483 h 0.2667193 l -0.5334386,0.654966 z m 1.0630399,0.456685 1.3240027,3.148824 H 4.8591334 l -0.1682188,-0.115131 1.2811484,-2.995316 0.5174483,0.640254 z m 1.0054743,3.547944 -1.3585417,0.82894 -0.3146907,0.191885 -3.1277163,1.907971 -6.396e-4,6.39e-4 -0.03262,0.01983 0.9856462,-2.891698 1.3348762,-0.01983 z m 0.4982601,0.02814 1.2242227,2.912167 -2.8411689,-1.946988 z" />
  </g>
</svg>
