<?xml version="1.0" encoding="UTF-8" standalone="no"?>
<svg
   xmlns:dc="http://purl.org/dc/elements/1.1/"
   xmlns:cc="http://creativecommons.org/ns#"
   xmlns:rdf="http://www.w3.org/1999/02/22-rdf-syntax-ns#"
   xmlns:svg="http://www.w3.org/2000/svg"
   xmlns="http://www.w3.org/2000/svg"
   xmlns:sodipodi="http://sodipodi.sourceforge.net/DTD/sodipodi-0.dtd"
   xmlns:inkscape="http://www.inkscape.org/namespaces/inkscape"
   width="48"
   height="48"
   viewBox="0 0 12.7 12.7"
   version="1.1"
   id="svg8"
   inkscape:version="1.0.1 (3bc2e813f5, 2020-09-07)"
   sodipodi:docname="aks.svg">
  <defs
     id="defs2" />
  <sodipodi:namedview
     id="base"
     pagecolor="#ffffff"
     bordercolor="#666666"
     borderopacity="1.0"
     inkscape:pageopacity="0.0"
     inkscape:pageshadow="2"
     inkscape:zoom="16.000001"
     inkscape:cx="29.516776"
     inkscape:cy="31.357899"
     inkscape:document-units="px"
     inkscape:current-layer="layer3"
     showgrid="false"
     inkscape:window-width="1920"
     inkscape:window-height="1051"
     inkscape:window-x="0"
     inkscape:window-y="0"
     inkscape:window-maximized="1"
     showguides="true"
     inkscape:guide-bbox="true"
     inkscape:document-rotation="0"
     inkscape:showpageshadow="false"
     showborder="false"
     units="px">
    <inkscape:grid
       type="xygrid"
       id="grid917" />
  </sodipodi:namedview>
  <metadata
     id="metadata5">
    <rdf:RDF>
      <cc:Work
         rdf:about="">
        <dc:format>image/svg+xml</dc:format>
        <dc:type
           rdf:resource="http://purl.org/dc/dcmitype/StillImage" />
        <dc:title></dc:title>
      </cc:Work>
    </rdf:RDF>
  </metadata>
  <g
     inkscape:groupmode="layer"
     id="layer3"
     inkscape:label="Задний фон"
     transform="translate(0,87)"
     style="opacity:1">
    <path
       id="path838"
       style="fill:#fbc707;fill-opacity:1;stroke:none;stroke-width:1.22865"
       d="M 23.789062 0 A 24 24 0 0 0 0 24 A 24 24 0 0 0 24 48 A 24 24 0 0 0 48 24 A 24 24 0 0 0 24 0 A 24 24 0 0 0 23.789062 0 z M 24 3.0097656 A 20.989575 20.989575 0 0 1 44.990234 24 A 20.989575 20.989575 0 0 1 24 44.990234 A 20.989575 20.989575 0 0 1 3.0097656 24 A 20.989575 20.989575 0 0 1 24 3.0097656 z "
       transform="matrix(0.26458333,0,0,0.26458333,0,-87)" />
    <path
       style="fill:#413e4d;fill-opacity:1;stroke:none;stroke-width:0.275044"
       d="m 6.35,-85.348816 a 4.6986995,4.6986995 0 0 1 4.698847,4.698847 A 4.6986995,4.6986995 0 0 1 6.35,-75.951122 4.6986995,4.6986995 0 0 1 1.6511528,-80.649969 4.6986995,4.6986995 0 0 1 6.35,-85.348816 Z"
       id="path885" />
    <g
       id="g1913"
       transform="matrix(0.14938293,0,0,0.14938293,1.5690066,-85.564189)"
       style="display:inline" />
    <g
       id="2-main"
       stroke="none"
       stroke-width="1"
       fill="none"
       fill-rule="evenodd"
       transform="matrix(0.09786004,0,0,0.09786004,1.4569979,-85.543002)">
      <g
         id="2_main_1920"
         transform="translate(-1419,-3925)">
        <g
           id="Get-started"
           transform="translate(0,3557)">
          <g
             id="5"
             transform="translate(1350,328)">
            <g
               id="Group-26"
               transform="translate(6,40)">
              <g
                 id="4k/slideshow_maker"
                 transform="translate(63)" />
            </g>
          </g>
        </g>
      </g>
    </g>
    <path
       style="fill:#b648b6;stroke-width:0.264583"
       d="m 7.1834865,-77.619483 c 0,-0.0083 0.057124,-0.03471 0.1269418,-0.05875 0.082188,-0.0283 0.1343158,-0.0605 0.1478571,-0.09134 0.011509,-0.02619 0.086013,-0.08522 0.1655763,-0.13117 0.079563,-0.04595 0.2175404,-0.132185 0.3066177,-0.191648 0.1396629,-0.09323 0.1601999,-0.11512 0.1491774,-0.159044 -0.00849,-0.03379 -0.00159,-0.05519 0.020188,-0.06358 0.039931,-0.01532 0.043892,-0.05822 0.00537,-0.05809 -0.015187,4.2e-5 -0.0723,0.03039 -0.1269418,0.06742 -0.1374457,0.09314 -0.2933012,0.170844 -0.3220482,0.16056 -0.013203,-0.0047 -0.07778,0.01643 -0.1434967,0.04703 -0.06572,0.03059 -0.1455579,0.05572 -0.1774243,0.05584 -0.031864,1.11e-4 -0.1001713,0.01511 -0.1517941,0.03333 -0.05162,0.0182 -0.104275,0.03311 -0.1170067,0.03311 -0.040039,0 0.075523,-0.107246 0.2203952,-0.204531 0.1451875,-0.0975 0.1796918,-0.140824 0.082828,-0.103997 -0.07484,0.02846 -0.1862164,0.02751 -0.1862164,-0.0016 0,-0.0127 0.030715,-0.04003 0.068255,-0.06071 0.1544453,-0.0851 0.267216,-0.16207 0.2551377,-0.174146 -0.00706,-0.0071 -0.081981,0.02821 -0.1664652,0.0784 -0.084484,0.05019 -0.1642877,0.09126 -0.1773423,0.09126 -0.058161,0 -0.012171,-0.0515 0.131064,-0.146735 0.1605333,-0.106749 0.1973395,-0.160981 0.050424,-0.0743 -0.1180306,0.06964 -0.2935314,0.136062 -0.2935314,0.11109 0,-0.01154 0.085323,-0.07718 0.1896057,-0.145856 0.1042855,-0.06868 0.2073355,-0.154017 0.2290022,-0.189646 0.021669,-0.03563 0.1048147,-0.118742 0.1847718,-0.184695 0.079957,-0.06595 0.1547865,-0.137422 0.1662853,-0.158824 0.011509,-0.02141 0.081701,-0.113421 0.156001,-0.204488 0.1627928,-0.199525 0.3622463,-0.588145 0.419227,-0.816841 0.0245,-0.09836 0.047715,-0.300011 0.057169,-0.496726 0.014129,-0.294111 0.010451,-0.358116 -0.032914,-0.572225 -0.1274577,-0.629274 -0.3505332,-1.045927 -0.7068449,-1.320218 -0.3610557,-0.277944 -0.6598973,-0.378372 -1.1259159,-0.378372 -0.3492447,0 -0.5629587,0.05011 -0.9299713,0.21804 -0.3509875,0.1606 -0.4531023,0.230905 -0.6977462,0.480396 -0.2075396,0.211654 -0.2099489,0.215517 -0.402546,0.645155 l -0.069275,0.154538 0.014206,-0.110384 c 0.01805,-0.140248 0.1317324,-0.387729 0.254838,-0.554763 0.1896075,-0.25727 0.5365382,-0.541321 0.7376959,-0.603991 0.048569,-0.01513 0.1817568,-0.07851 0.2959727,-0.140837 l 0.2076656,-0.113321 -0.097282,-0.0061 c -0.053505,-0.0033 -0.1196202,-0.01741 -0.1469229,-0.03131 -0.036205,-0.01842 -0.070565,-0.01884 -0.1269415,-0.0016 -0.1190842,0.03655 -0.092438,-0.0093 0.044386,-0.07646 0.1226775,-0.06017 0.136547,-0.08393 0.07254,-0.124309 -0.04395,-0.02772 -0.2487668,0.05758 -0.4736073,0.197252 -0.250607,0.155676 -0.5073764,0.405937 -0.313777,0.305824 l 0.069144,-0.03576 -0.015232,0.06069 c -0.00983,0.03918 -0.00551,0.0667 0.012184,0.07763 0.019693,0.01217 0.00295,0.04574 -0.059431,0.119171 -0.1275731,0.150164 -0.2770931,0.347411 -0.3461268,0.456612 -0.033324,0.05271 -0.098303,0.142933 -0.1443972,0.200488 -0.086319,0.107786 -0.2034336,0.414526 -0.2034336,0.532826 0,0.03347 -0.00975,0.07907 -0.021672,0.101343 -0.015743,0.02942 -0.013486,0.04364 0.00825,0.05198 0.044623,0.01712 0.062566,0.146066 0.068139,0.489659 0.00594,0.366236 0.0367,0.46817 0.2236573,0.741159 0.065454,0.09557 0.119007,0.179207 0.119007,0.185856 0,0.0066 -0.02732,0.006 -0.060711,-0.0016 -0.051632,-0.01159 -0.036471,0.01053 0.1013767,0.14792 0.089148,0.08885 0.1527889,0.164653 0.1414237,0.168439 -0.011364,0.0038 -0.065689,-0.01241 -0.120719,-0.036 -0.0904,-0.03875 -0.1441638,-0.09047 -0.3010845,-0.289647 -0.053235,-0.06757 -0.086357,-0.04383 -0.050043,0.03587 0.0449,0.09855 0.012081,0.08208 -0.07625,-0.03825 -0.046361,-0.06316 -0.087933,-0.103912 -0.092381,-0.09057 -0.010679,0.03203 0.016555,0.08064 0.1550641,0.276764 0.063619,0.09008 0.1326959,0.195027 0.1535038,0.233215 0.024932,0.04576 0.06021,0.07391 0.1034532,0.08256 0.036091,0.0072 0.071039,0.02724 0.077662,0.0445 0.015325,0.03994 0.2979301,0.16782 0.3373948,0.152675 0.016304,-0.0062 0.079471,0.0083 0.1403697,0.03227 0.060899,0.024 0.1625129,0.04365 0.2258102,0.04366 0.3134688,4.5e-5 0.6993398,0.341368 0.6999113,0.619109 2.646e-4,0.136075 -0.1086752,0.31786 -0.2453378,0.409321 -0.1725052,0.115448 -0.5484016,0.156742 -0.7856006,0.0863 -0.2931279,-0.08705 -1.1216346,-0.817092 -1.4530099,-1.280324 -0.1966074,-0.274841 -0.3020213,-0.503598 -0.3967575,-0.860994 -0.128524,-0.571135 0.038537,-1.359757 0.1897211,-1.807364 0.1254225,-0.368554 0.1631148,-0.447391 0.2211485,-0.462568 0.054108,-0.01416 0.064294,0.0026 0.040192,0.06596 -0.039178,0.103045 -0.02813,0.124704 0.056601,0.110953 0.097879,-0.01588 0.097859,-0.0113 -0.00122,0.284851 -0.077996,0.233122 -0.093924,0.351316 -0.019976,0.14823 0.1192152,-0.327403 0.2089335,-0.463389 0.1779688,-0.269745 -0.020246,0.126613 0.026003,0.104502 0.1001871,-0.0479 0.032048,-0.06584 0.090111,-0.149514 0.1290294,-0.185939 l 0.07076,-0.06623 -0.061576,0.126322 c -0.033867,0.06948 -0.05451,0.133393 -0.045874,0.142029 0.024429,0.02442 0.050877,-0.01328 0.1241309,-0.176951 0.050823,-0.113557 0.059152,-0.148132 0.033293,-0.13821 -0.020653,0.0079 -0.00522,-0.02761 0.03847,-0.0886 0.040126,-0.05601 0.08484,-0.106434 0.099364,-0.112059 0.014523,-0.0056 0.071521,-0.07146 0.1266584,-0.146301 0.1787504,-0.242623 0.4090088,-0.393594 0.9308121,-0.610291 0.1202576,-0.04994 0.2846755,-0.130593 0.3653724,-0.179223 0.2052225,-0.123677 0.2769515,-0.140163 0.5971265,-0.137247 0.3442758,0.0031 0.5349584,0.03347 0.832948,0.132524 0.4176395,0.138816 0.7846086,0.351872 1.1159807,0.64792 0.096816,0.08649 0.1797103,0.146216 0.1842082,0.132717 0.025744,-0.07725 -0.3638285,-0.475191 -0.5966883,-0.609504 -0.1638988,-0.09454 -0.2105951,-0.142158 -0.1393957,-0.142158 0.017912,0 0.1255368,0.04967 0.2391621,0.110384 0.2236973,0.119525 0.2511717,0.127614 0.262009,0.07714 0.012568,-0.05857 0.1913255,0.05044 0.3610716,0.220192 0.445889,0.445889 0.7625979,1.171048 0.8487912,1.943459 0.049509,0.443646 0.028387,0.668155 -0.1235763,1.313569 -0.06758,0.287018 -0.282358,0.735328 -0.4600839,0.960337 -0.067135,0.085 -0.1627849,0.207518 -0.2125583,0.272275 -0.1020234,0.132736 -0.5653008,0.487815 -0.7928504,0.607679 -0.2258351,0.118962 -0.7285329,0.283213 -0.7285329,0.238038 z m 0.5748761,-0.246407 c 0.048085,-0.02453 0.087426,-0.04912 0.087426,-0.05465 0,-0.01532 -0.1087755,0.02939 -0.1616498,0.06642 -0.066627,0.04667 -0.028469,0.04061 0.074224,-0.01177 z m 0.176829,-5.020696 c -0.052602,-0.06338 -0.2758202,-0.197437 -0.4302284,-0.258382 -0.2429086,-0.09587 -0.2434881,-0.07277 -0.00132,0.05416 0.1214226,0.06365 0.2702084,0.147164 0.3306339,0.185589 0.1116066,0.07097 0.1503204,0.07811 0.1009571,0.01863 z m -0.7808304,-0.379013 c -0.081103,-0.04396 -0.3633496,-0.102592 -0.3961871,-0.0823 -0.027633,0.01707 0.022357,0.03474 0.237662,0.084 0.1855655,0.04245 0.2389082,0.04188 0.1585251,-0.0016 z m 0.6472767,4.019886 c 0,-0.0109 0.2056077,-0.283649 0.2492772,-0.330679 0.02798,-0.03013 -0.066897,0.15721 -0.1313709,0.259403 -0.028726,0.04553 -0.067008,0.08279 -0.085069,0.08279 -0.018071,0 -0.032837,-0.0052 -0.032837,-0.01151 z m 0.3662468,-0.601118 c 0.062442,-0.164838 0.1133475,-0.353224 0.1558052,-0.576601 0.00548,-0.02875 0.014235,-0.04797 0.0195,-0.04272 0.016007,0.01601 -0.049183,0.374806 -0.089466,0.492377 -0.03783,0.110408 -0.1370013,0.320111 -0.1513867,0.320111 -0.00421,0 0.025294,-0.08693 0.065548,-0.19317 z m 0.1691614,-0.833397 c 2.46e-4,-0.04857 0.00476,-0.06584 0.010054,-0.03838 0.00529,0.02746 0.00508,0.0672 -5.291e-4,0.08831 -0.00553,0.02111 -0.00984,-0.0013 -0.0096,-0.04993 z m -0.025691,-0.369896 c -0.017145,-0.106304 -0.025241,-0.199202 -0.018018,-0.206438 0.024527,-0.02453 0.062489,0.169243 0.055814,0.284813 -0.00651,0.112816 -0.0072,0.111392 -0.037806,-0.07838 z m -4.0465462,-1.753468 c 0.1069049,-0.15154 0.5568984,-0.532913 0.5222444,-0.442605 -0.00986,0.02569 -0.2764327,0.267049 -0.5054611,0.457639 l -0.066324,0.05519 z m 1.2408503,-0.02912 c 0,-0.01214 0.015489,-0.02207 0.034418,-0.02207 0.018931,0 0.028278,0.0099 0.020775,0.02207 -0.0075,0.01214 -0.022992,0.02207 -0.034418,0.02207 -0.011425,0 -0.020772,-0.0099 -0.020772,-0.02207 z m -1.346682,-0.108783 c 0,-0.02342 0.02732,-0.06409 0.060711,-0.09041 0.05044,-0.03977 0.061876,-0.04212 0.067597,-0.01394 0.00909,0.04475 -0.058876,0.146915 -0.097732,0.146915 -0.016817,0 -0.030576,-0.01916 -0.030576,-0.04255 z m 2.1414441,-0.79873 c 0,-0.0213 0.087146,-0.04114 0.1821338,-0.04149 0.045535,-1.77e-4 0.082788,0.0096 0.082788,0.02177 0,0.02373 -0.00238,0.02416 -0.1600571,0.03024 -0.057674,0.0021 -0.1048649,-0.0026 -0.1048649,-0.01053 z m -0.044151,-0.105904 c 0,-0.06505 0.3303535,-0.13811 0.4163616,-0.09208 0.069368,0.03713 0.060177,0.08996 -0.015663,0.08996 -0.034594,0 -0.1389063,0.0064 -0.2318068,0.01429 -0.1244256,0.01053 -0.1689047,0.0073 -0.1689047,-0.01217 z"
       id="path10" />
  </g>
</svg>
