<?xml version="1.0" encoding="UTF-8" standalone="no"?>
<svg
   xmlns:dc="http://purl.org/dc/elements/1.1/"
   xmlns:cc="http://creativecommons.org/ns#"
   xmlns:rdf="http://www.w3.org/1999/02/22-rdf-syntax-ns#"
   xmlns:svg="http://www.w3.org/2000/svg"
   xmlns="http://www.w3.org/2000/svg"
   xmlns:sodipodi="http://sodipodi.sourceforge.net/DTD/sodipodi-0.dtd"
   xmlns:inkscape="http://www.inkscape.org/namespaces/inkscape"
   width="48"
   height="48"
   viewBox="0 0 12.7 12.7"
   version="1.1"
   id="svg8"
   inkscape:version="1.0.1 (3bc2e813f5, 2020-09-07)"
   sodipodi:docname="albert.svg">
  <defs
     id="defs2" />
  <sodipodi:namedview
     id="base"
     pagecolor="#ffffff"
     bordercolor="#666666"
     borderopacity="1.0"
     inkscape:pageopacity="0.0"
     inkscape:pageshadow="2"
     inkscape:zoom="8.0000004"
     inkscape:cx="35.828265"
     inkscape:cy="61.544703"
     inkscape:document-units="px"
     inkscape:current-layer="layer3"
     showgrid="false"
     inkscape:window-width="1920"
     inkscape:window-height="1051"
     inkscape:window-x="0"
     inkscape:window-y="0"
     inkscape:window-maximized="1"
     showguides="true"
     inkscape:guide-bbox="true"
     inkscape:document-rotation="0"
     inkscape:showpageshadow="false"
     showborder="false"
     units="px">
    <inkscape:grid
       type="xygrid"
       id="grid917" />
  </sodipodi:namedview>
  <metadata
     id="metadata5">
    <rdf:RDF>
      <cc:Work
         rdf:about="">
        <dc:format>image/svg+xml</dc:format>
        <dc:type
           rdf:resource="http://purl.org/dc/dcmitype/StillImage" />
        <dc:title></dc:title>
      </cc:Work>
    </rdf:RDF>
  </metadata>
  <g
     inkscape:groupmode="layer"
     id="layer3"
     inkscape:label="Задний фон"
     transform="translate(0,87)"
     style="opacity:1">
    <path
       id="path838"
       style="fill:#fbc707;stroke:none;stroke-width:0.32508;fill-opacity:1"
       d="M 6.2941893,-86.999969 A 6.3499999,6.3499999 0 0 0 2.4147492e-8,-80.649969 6.3499999,6.3499999 0 0 0 6.35,-74.299969 a 6.3499999,6.3499999 0 0 0 6.35,-6.35 6.3499999,6.3499999 0 0 0 -6.35,-6.35 6.3499999,6.3499999 0 0 0 -0.055811,0 z M 6.35,-86.203635 a 5.5534916,5.5534916 0 0 1 5.553666,5.553666 A 5.5534916,5.5534916 0 0 1 6.35,-75.096303 5.5534916,5.5534916 0 0 1 0.79633383,-80.649969 5.5534916,5.5534916 0 0 1 6.35,-86.203635 Z" />
    <g
       id="g1913"
       transform="matrix(0.14938293,0,0,0.14938293,1.5690066,-85.564189)"
       style="display:inline" />
    <g
       id="2-main"
       stroke="none"
       stroke-width="1"
       fill="none"
       fill-rule="evenodd"
       transform="matrix(0.09786004,0,0,0.09786004,1.4569979,-85.543002)">
      <g
         id="2_main_1920"
         transform="translate(-1419,-3925)">
        <g
           id="Get-started"
           transform="translate(0,3557)">
          <g
             id="5"
             transform="translate(1350,328)">
            <g
               id="Group-26"
               transform="translate(6,40)">
              <g
                 id="4k/slideshow_maker"
                 transform="translate(63)" />
            </g>
          </g>
        </g>
      </g>
    </g>
    <path
       style="fill:#fbc707;stroke-width:0.264583;fill-opacity:1"
       d="m 10.717815,-80.159757 c -1.2045895,1.509036 -0.03763,0.06594 -1.1889381,1.516814 -0.4007847,0.239803 -1.1356181,0.420954 -1.4678377,0.351988 -0.4657034,-0.07024 -0.9760384,-0.591891 -1.3503394,-1.108432 -0.4735181,-0.653674 -0.8204033,-1.566848 -1.3003011,-2.127907 -0.4452893,-0.520568 -1.0782946,-0.840694 -1.6797216,-0.41811 -0.2972848,0.209167 -0.587552,0.585443 -0.8125888,0.988117 -0.3594847,0.642712 -0.1516034,1.478301 0.7896918,1.660622 0.740755,0.06381 1.1157569,-0.03574 2.0983813,-0.473731 1.266726,-0.593719 2.1692947,-1.369957 4.5809496,-3.200671 -1.3471317,1.398967 -0.07031,0.03597 -1.3911975,1.426588 -0.6707958,0.706207 -2.013903,1.513475 -3.4229971,2.33502 -0.6677899,0.38301 -1.2546875,0.626829 -2.1130493,0.836018 -0.5137089,0.125276 -1.2701579,0.241358 -1.4358652,-0.303795 -0.1725656,-0.568218 0.2392312,-1.444279 0.3250354,-1.634185 0.647519,-1.431952 1.6144914,-2.918713 3.3052178,-2.697914 1.6124179,0.210733 1.6884772,2.726311 2.8919694,3.387367 0.5926394,0.325473 1.0346767,0.05708 2.1715905,-0.537789 z"
       id="path10" />
  </g>
</svg>
