<?xml version="1.0" encoding="UTF-8" standalone="no"?>
<svg
   xmlns:dc="http://purl.org/dc/elements/1.1/"
   xmlns:cc="http://creativecommons.org/ns#"
   xmlns:rdf="http://www.w3.org/1999/02/22-rdf-syntax-ns#"
   xmlns:svg="http://www.w3.org/2000/svg"
   xmlns="http://www.w3.org/2000/svg"
   xmlns:sodipodi="http://sodipodi.sourceforge.net/DTD/sodipodi-0.dtd"
   xmlns:inkscape="http://www.inkscape.org/namespaces/inkscape"
   width="48"
   height="48"
   viewBox="0 0 12.7 12.7"
   version="1.1"
   id="svg8"
   inkscape:version="1.0.1 (3bc2e813f5, 2020-09-07)"
   sodipodi:docname="alexandra.svg">
  <defs
     id="defs2" />
  <sodipodi:namedview
     id="base"
     pagecolor="#ffffff"
     bordercolor="#666666"
     borderopacity="1.0"
     inkscape:pageopacity="0.0"
     inkscape:pageshadow="2"
     inkscape:zoom="11.313709"
     inkscape:cx="15.663694"
     inkscape:cy="24.544815"
     inkscape:document-units="px"
     inkscape:current-layer="layer3"
     showgrid="false"
     inkscape:window-width="1920"
     inkscape:window-height="1051"
     inkscape:window-x="0"
     inkscape:window-y="0"
     inkscape:window-maximized="1"
     showguides="true"
     inkscape:guide-bbox="true"
     inkscape:document-rotation="0"
     inkscape:showpageshadow="false"
     showborder="false"
     units="px">
    <inkscape:grid
       type="xygrid"
       id="grid917" />
  </sodipodi:namedview>
  <metadata
     id="metadata5">
    <rdf:RDF>
      <cc:Work
         rdf:about="">
        <dc:format>image/svg+xml</dc:format>
        <dc:type
           rdf:resource="http://purl.org/dc/dcmitype/StillImage" />
        <dc:title></dc:title>
      </cc:Work>
    </rdf:RDF>
  </metadata>
  <g
     inkscape:groupmode="layer"
     id="layer3"
     inkscape:label="Задний фон"
     transform="translate(0,87)"
     style="opacity:1">
    <path
       id="path838"
       style="fill:#fbc707;stroke:none;stroke-width:0.32508;fill-opacity:1"
       d="M 6.2941893,-86.999969 A 6.3499999,6.3499999 0 0 0 2.4147492e-8,-80.649969 6.3499999,6.3499999 0 0 0 6.35,-74.299969 a 6.3499999,6.3499999 0 0 0 6.35,-6.35 6.3499999,6.3499999 0 0 0 -6.35,-6.35 6.3499999,6.3499999 0 0 0 -0.055811,0 z M 6.35,-86.203635 a 5.5534916,5.5534916 0 0 1 5.553666,5.553666 A 5.5534916,5.5534916 0 0 1 6.35,-75.096303 5.5534916,5.5534916 0 0 1 0.79633383,-80.649969 5.5534916,5.5534916 0 0 1 6.35,-86.203635 Z" />
    <g
       id="g1913"
       transform="matrix(0.14938293,0,0,0.14938293,1.5690066,-85.564189)"
       style="display:inline" />
    <g
       id="2-main"
       stroke="none"
       stroke-width="1"
       fill="none"
       fill-rule="evenodd"
       transform="matrix(0.09786004,0,0,0.09786004,1.4569979,-85.543002)">
      <g
         id="2_main_1920"
         transform="translate(-1419,-3925)">
        <g
           id="Get-started"
           transform="translate(0,3557)">
          <g
             id="5"
             transform="translate(1350,328)">
            <g
               id="Group-26"
               transform="translate(6,40)">
              <g
                 id="4k/slideshow_maker"
                 transform="translate(63)" />
            </g>
          </g>
        </g>
      </g>
    </g>
    <path
       id="path2"
       style="stroke-width:0.798516;fill:#fbc707;fill-opacity:1"
       d="M 16.013672 7.6308594 C 11.603612 7.6308594 8.0292969 11.205176 8.0292969 15.615234 C 8.0331142 17.818907 8.9482638 19.923281 10.556641 21.429688 C 10.474066 21.64667 10.425781 21.884661 10.425781 22.138672 L 10.425781 26.794922 C 9.5437385 26.794922 8.828125 27.510557 8.828125 28.392578 C 8.828125 29.274599 9.5437624 29.988281 10.425781 29.988281 L 10.425781 34.644531 C 10.425781 35.605147 11.081914 36.376953 11.896484 36.376953 L 17.224609 36.376953 L 15.388672 38.361328 C 14.891196 38.899533 15.512873 39.572266 16.507812 39.572266 L 28.296875 39.572266 C 29.025924 39.572266 29.612204 39.195392 29.589844 38.740234 C 29.583494 38.606893 29.523003 38.477118 29.416016 38.361328 L 27.580078 36.376953 L 32.910156 36.376953 C 33.724645 36.376953 34.380859 35.605147 34.380859 34.644531 L 34.380859 30.367188 L 35.574219 31.103516 L 38.759766 33.068359 C 39.297967 33.400542 39.970703 32.98385 39.970703 32.320312 L 39.970703 24.462891 C 39.970703 23.977395 39.593032 23.587185 39.138672 23.601562 C 39.005368 23.606098 38.875208 23.645439 38.759766 23.716797 L 35.574219 25.681641 L 34.380859 26.416016 L 34.380859 22.138672 C 34.380859 21.886313 34.333413 21.649193 34.251953 21.433594 C 35.860967 19.925989 36.774951 17.819942 36.777344 15.615234 C 36.777344 11.205176 33.201235 7.6308594 28.791016 7.6308594 C 26.275683 7.6346389 23.908706 8.8222686 22.404297 10.837891 C 20.899088 8.8213917 18.531757 7.6336524 16.015625 7.6308594 L 16.013672 7.6308594 z M 16.013672 11.623047 C 18.209597 11.623047 20.007812 13.41931 20.007812 15.615234 C 20.007812 17.811163 18.209597 19.607422 16.013672 19.607422 C 13.817746 19.607422 12.021484 17.811163 12.021484 15.615234 C 12.021484 13.41931 13.817746 11.623047 16.013672 11.623047 z M 28.791016 11.623047 C 30.986945 11.623047 32.783203 13.41931 32.783203 15.615234 C 32.783203 17.811163 30.986945 19.607422 28.791016 19.607422 C 26.59509 19.607422 24.798828 17.811163 24.798828 15.615234 C 24.798828 13.41931 26.59509 11.623047 28.791016 11.623047 z M 16.013672 13.220703 C 14.680946 13.220703 13.619141 14.282509 13.619141 15.615234 C 13.619141 16.947964 14.680946 18.011719 16.013672 18.011719 C 17.346401 18.011719 18.410156 16.947964 18.410156 15.615234 C 18.410156 14.282509 17.346401 13.220703 16.013672 13.220703 z M 28.791016 13.220703 C 27.45829 13.220703 26.394531 14.282509 26.394531 15.615234 C 26.394531 16.947964 27.45829 18.011719 28.791016 18.011719 C 30.123745 18.011719 31.185547 16.947964 31.185547 15.615234 C 31.185547 14.282509 30.123745 13.220703 28.791016 13.220703 z "
       transform="matrix(0.26458333,0,0,0.26458333,0,-87)" />
  </g>
</svg>
