<?xml version="1.0" encoding="UTF-8" standalone="no"?>
<svg
   xmlns:dc="http://purl.org/dc/elements/1.1/"
   xmlns:cc="http://creativecommons.org/ns#"
   xmlns:rdf="http://www.w3.org/1999/02/22-rdf-syntax-ns#"
   xmlns:svg="http://www.w3.org/2000/svg"
   xmlns="http://www.w3.org/2000/svg"
   xmlns:sodipodi="http://sodipodi.sourceforge.net/DTD/sodipodi-0.dtd"
   xmlns:inkscape="http://www.inkscape.org/namespaces/inkscape"
   width="48"
   height="48"
   viewBox="0 0 12.7 12.7"
   version="1.1"
   id="svg8"
   inkscape:version="1.0.1 (3bc2e813f5, 2020-09-07)"
   sodipodi:docname="alienblaster.svg">
  <defs
     id="defs2" />
  <sodipodi:namedview
     id="base"
     pagecolor="#ffffff"
     bordercolor="#666666"
     borderopacity="1.0"
     inkscape:pageopacity="0.0"
     inkscape:pageshadow="2"
     inkscape:zoom="16.000001"
     inkscape:cx="30.081623"
     inkscape:cy="19.498173"
     inkscape:document-units="px"
     inkscape:current-layer="layer3"
     showgrid="false"
     inkscape:window-width="1920"
     inkscape:window-height="1051"
     inkscape:window-x="0"
     inkscape:window-y="0"
     inkscape:window-maximized="1"
     showguides="true"
     inkscape:guide-bbox="true"
     inkscape:document-rotation="0"
     inkscape:showpageshadow="false"
     showborder="false"
     units="px">
    <inkscape:grid
       type="xygrid"
       id="grid917" />
  </sodipodi:namedview>
  <metadata
     id="metadata5">
    <rdf:RDF>
      <cc:Work
         rdf:about="">
        <dc:format>image/svg+xml</dc:format>
        <dc:type
           rdf:resource="http://purl.org/dc/dcmitype/StillImage" />
        <dc:title></dc:title>
      </cc:Work>
    </rdf:RDF>
  </metadata>
  <g
     inkscape:groupmode="layer"
     id="layer3"
     inkscape:label="Задний фон"
     transform="translate(0,87)"
     style="opacity:1">
    <path
       id="path838"
       style="fill:#fbc707;stroke:none;stroke-width:0.32508;fill-opacity:1"
       d="M 6.2941893,-86.999969 A 6.3499999,6.3499999 0 0 0 2.4147492e-8,-80.649969 6.3499999,6.3499999 0 0 0 6.35,-74.299969 a 6.3499999,6.3499999 0 0 0 6.35,-6.35 6.3499999,6.3499999 0 0 0 -6.35,-6.35 6.3499999,6.3499999 0 0 0 -0.055811,0 z M 6.35,-86.203635 a 5.5534916,5.5534916 0 0 1 5.553666,5.553666 A 5.5534916,5.5534916 0 0 1 6.35,-75.096303 5.5534916,5.5534916 0 0 1 0.79633383,-80.649969 5.5534916,5.5534916 0 0 1 6.35,-86.203635 Z" />
    <g
       id="g1913"
       transform="matrix(0.14938293,0,0,0.14938293,1.5690066,-85.564189)"
       style="display:inline" />
    <g
       id="2-main"
       stroke="none"
       stroke-width="1"
       fill="none"
       fill-rule="evenodd"
       transform="matrix(0.09786004,0,0,0.09786004,1.4569979,-85.543002)">
      <g
         id="2_main_1920"
         transform="translate(-1419,-3925)">
        <g
           id="Get-started"
           transform="translate(0,3557)">
          <g
             id="5"
             transform="translate(1350,328)">
            <g
               id="Group-26"
               transform="translate(6,40)">
              <g
                 id="4k/slideshow_maker"
                 transform="translate(63)" />
            </g>
          </g>
        </g>
      </g>
    </g>
    <g
       id="g923"
       transform="matrix(0.85487782,0,0,0.85487782,0.92164267,-11.591042)">
      <path
         id="path4"
         style="fill:#2fa28e;stroke-width:0.999999"
         d="m 24.023438,4.5039062 c -1.336279,-0.057298 -2.5968,0.567472 -3.265626,1.6191407 L 13.162109,18.064453 C 12.83439,17.712589 12.435517,17.5 12,17.5 c -1.108,0 -2,1.337998 -2,3 v 2.537109 l -5.875,9.236329 c -0.6467943,2.530196 1.2761762,4.410951 4.1523438,5.791015 0.5475578,0.262734 1.1366933,0.50311 1.7421872,0.730469 C 10.119177,40.315158 10.959456,41.5 12,41.5 c 0.760876,0 1.411755,-0.638705 1.75,-1.572266 4.513474,1.131513 9.100521,1.555005 10.103516,1.570313 1.749041,0.03705 6.12913,-0.546425 10.359375,-1.671875 C 34.538972,40.815979 35.211484,41.5 36,41.5 c 1.079417,0 1.947791,-1.27282 1.992188,-2.875 0.161666,-0.06071 0.336185,-0.115215 0.49414,-0.177734 3.88746,-1.538684 6.588821,-3.62351 5.095703,-6.173828 L 38,23.498047 V 20.5 c 0,-1.662002 -0.892,-3 -2,-3 -0.51235,0 -0.973032,0.295647 -1.326172,0.767578 L 26.949219,6.1230469 C 26.340772,5.166301 25.239095,4.5561733 24.023438,4.5039062 Z"
         transform="matrix(0.26458333,0,0,0.26458333,0,-87)" />
      <path
         id="path8"
         style="fill:#ebebeb;stroke-width:0.999999"
         d="m 24.023438,4.5039062 c -0.04339,-0.00186 -0.08567,0.00238 -0.128907,0.00195 C 23.073289,4.5262652 22.30174,4.7793814 21.625,5.2167937 21.28318,5.465033 20.984184,5.7670953 20.757812,6.1230437 L 19.345703,8.34375 C 19.13095,9.0141966 19,9.7366413 19,10.5 v 28 c 0,3 2.865625,4 5,4 2.134375,0 5,-1 5,-4 v -28 C 29,10.022608 28.942473,9.5637945 28.855469,9.1191406 L 26.949219,6.1230469 C 26.340772,5.166301 25.239096,4.5561771 24.023438,4.5039062 Z M 24,24.5 a 3.9999999,4.9999997 0 0 1 4,5 3.9999999,4.9999997 0 0 1 -4,5 3.9999999,4.9999997 0 0 1 -4,-5 3.9999999,4.9999997 0 0 1 4,-5 z"
         transform="matrix(0.26458333,0,0,0.26458333,0,-87)" />
    </g>
  </g>
</svg>
