<?xml version="1.0" encoding="UTF-8" standalone="no"?>
<svg
   xmlns:dc="http://purl.org/dc/elements/1.1/"
   xmlns:cc="http://creativecommons.org/ns#"
   xmlns:rdf="http://www.w3.org/1999/02/22-rdf-syntax-ns#"
   xmlns:svg="http://www.w3.org/2000/svg"
   xmlns="http://www.w3.org/2000/svg"
   xmlns:sodipodi="http://sodipodi.sourceforge.net/DTD/sodipodi-0.dtd"
   xmlns:inkscape="http://www.inkscape.org/namespaces/inkscape"
   width="48"
   height="48"
   viewBox="0 0 12.7 12.7"
   version="1.1"
   id="svg8"
   inkscape:version="1.0.1 (3bc2e813f5, 2020-09-07)"
   sodipodi:docname="alien-swarm-reactive-drop.svg">
  <defs
     id="defs2" />
  <sodipodi:namedview
     id="base"
     pagecolor="#ffffff"
     bordercolor="#666666"
     borderopacity="1.0"
     inkscape:pageopacity="0.0"
     inkscape:pageshadow="2"
     inkscape:zoom="5.6568545"
     inkscape:cx="44.444837"
     inkscape:cy="60.823412"
     inkscape:document-units="px"
     inkscape:current-layer="layer3"
     showgrid="false"
     inkscape:window-width="1920"
     inkscape:window-height="1051"
     inkscape:window-x="0"
     inkscape:window-y="0"
     inkscape:window-maximized="1"
     showguides="true"
     inkscape:guide-bbox="true"
     inkscape:document-rotation="0"
     inkscape:showpageshadow="false"
     showborder="false"
     units="px">
    <inkscape:grid
       type="xygrid"
       id="grid917" />
  </sodipodi:namedview>
  <metadata
     id="metadata5">
    <rdf:RDF>
      <cc:Work
         rdf:about="">
        <dc:format>image/svg+xml</dc:format>
        <dc:type
           rdf:resource="http://purl.org/dc/dcmitype/StillImage" />
        <dc:title></dc:title>
      </cc:Work>
    </rdf:RDF>
  </metadata>
  <g
     inkscape:groupmode="layer"
     id="layer3"
     inkscape:label="Задний фон"
     transform="translate(0,87)"
     style="opacity:1">
    <path
       id="path838"
       style="fill:#fbc707;stroke:none;stroke-width:0.32508;fill-opacity:1"
       d="M 6.2941893,-86.999969 A 6.3499999,6.3499999 0 0 0 2.4147492e-8,-80.649969 6.3499999,6.3499999 0 0 0 6.35,-74.299969 a 6.3499999,6.3499999 0 0 0 6.35,-6.35 6.3499999,6.3499999 0 0 0 -6.35,-6.35 6.3499999,6.3499999 0 0 0 -0.055811,0 z M 6.35,-86.203635 a 5.5534916,5.5534916 0 0 1 5.553666,5.553666 A 5.5534916,5.5534916 0 0 1 6.35,-75.096303 5.5534916,5.5534916 0 0 1 0.79633383,-80.649969 5.5534916,5.5534916 0 0 1 6.35,-86.203635 Z" />
    <g
       id="g1913"
       transform="matrix(0.14938293,0,0,0.14938293,1.5690066,-85.564189)"
       style="display:inline" />
    <g
       id="2-main"
       stroke="none"
       stroke-width="1"
       fill="none"
       fill-rule="evenodd"
       transform="matrix(0.09786004,0,0,0.09786004,1.4569979,-85.543002)">
      <g
         id="2_main_1920"
         transform="translate(-1419,-3925)">
        <g
           id="Get-started"
           transform="translate(0,3557)">
          <g
             id="5"
             transform="translate(1350,328)">
            <g
               id="Group-26"
               transform="translate(6,40)">
              <g
                 id="4k/slideshow_maker"
                 transform="translate(63)" />
            </g>
          </g>
        </g>
      </g>
    </g>
    <path
       d="m 3.6125334,-78.056611 1.1626588,-3.457852 -0.2906648,0.288155 0.5813293,-2.017082 0.2906648,-0.288154 -0.1453324,-0.288154 0.2365451,-0.96405 c 0,0 0.2597187,-0.764876 0.5194374,-0.764876 0.7791565,0 1.298594,1.022353 1.298594,1.022353 l -0.2597187,0.514951 0.5194374,-0.257476 0.7791568,1.287379 -0.2597187,1.029903 0.5194374,-0.257477 c 0,0 0.4888068,1.526596 0.5194378,2.317282 0.02349,0.60643 -0.066136,1.226598 -0.2597191,1.802331 -0.5194374,1.544855 -1.432904,2.338003 -1.432904,2.338003 l 0.3940292,-1.565575 -0.3940292,-0.451505 h 0.5813293 l -0.5813293,-0.57631 0.6537479,-0.259564 -0.6537479,-0.604899 0.5813293,-0.288154 -0.5813293,-0.288155 0.3940292,-0.363647 V -80.40666 H 7.0060469 l 0.9664569,-0.819648 -0.9664569,0.304697 0.2597187,-0.514952 H 6.7463281 l 0.5194375,-0.772428 -0.7791562,0.349185 0.3232358,-0.807274 -0.2906648,-0.288154 -1.4533237,5.186779 -0.2906645,0.288154 v -0.57631 l -0.5813296,0.864464 0.1453324,-0.576308 -0.2906645,0.288154 0.1453321,-0.57631 -0.2906645,0.288156 v -0.57631 z"
       style="fill:#733317;stroke-width:0.288154;fill-opacity:1"
       id="path10" />
  </g>
</svg>
