<?xml version="1.0" encoding="UTF-8" standalone="no"?>
<svg
   xmlns:dc="http://purl.org/dc/elements/1.1/"
   xmlns:cc="http://creativecommons.org/ns#"
   xmlns:rdf="http://www.w3.org/1999/02/22-rdf-syntax-ns#"
   xmlns:svg="http://www.w3.org/2000/svg"
   xmlns="http://www.w3.org/2000/svg"
   xmlns:sodipodi="http://sodipodi.sourceforge.net/DTD/sodipodi-0.dtd"
   xmlns:inkscape="http://www.inkscape.org/namespaces/inkscape"
   width="48"
   height="48"
   viewBox="0 0 12.7 12.7"
   version="1.1"
   id="svg8"
   inkscape:version="1.0.1 (3bc2e813f5, 2020-09-07)"
   sodipodi:docname="allegorithmic-Substance_Painter.svg">
  <defs
     id="defs2" />
  <sodipodi:namedview
     id="base"
     pagecolor="#ffffff"
     bordercolor="#666666"
     borderopacity="1.0"
     inkscape:pageopacity="0.0"
     inkscape:pageshadow="2"
     inkscape:zoom="11.313709"
     inkscape:cx="7.054225"
     inkscape:cy="25.923787"
     inkscape:document-units="px"
     inkscape:current-layer="layer3"
     showgrid="false"
     inkscape:window-width="1920"
     inkscape:window-height="1051"
     inkscape:window-x="0"
     inkscape:window-y="0"
     inkscape:window-maximized="1"
     showguides="true"
     inkscape:guide-bbox="true"
     inkscape:document-rotation="0"
     inkscape:showpageshadow="false"
     showborder="false"
     units="px">
    <inkscape:grid
       type="xygrid"
       id="grid917" />
  </sodipodi:namedview>
  <metadata
     id="metadata5">
    <rdf:RDF>
      <cc:Work
         rdf:about="">
        <dc:format>image/svg+xml</dc:format>
        <dc:type
           rdf:resource="http://purl.org/dc/dcmitype/StillImage" />
        <dc:title></dc:title>
      </cc:Work>
    </rdf:RDF>
  </metadata>
  <g
     inkscape:groupmode="layer"
     id="layer3"
     inkscape:label="Задний фон"
     transform="translate(0,87)"
     style="opacity:1">
    <path
       id="path838"
       style="fill:#fbc707;stroke:none;stroke-width:0.32508;fill-opacity:1"
       d="M 6.2941893,-86.999969 A 6.3499999,6.3499999 0 0 0 2.4147492e-8,-80.649969 6.3499999,6.3499999 0 0 0 6.35,-74.299969 a 6.3499999,6.3499999 0 0 0 6.35,-6.35 6.3499999,6.3499999 0 0 0 -6.35,-6.35 6.3499999,6.3499999 0 0 0 -0.055811,0 z M 6.35,-86.203635 a 5.5534916,5.5534916 0 0 1 5.553666,5.553666 A 5.5534916,5.5534916 0 0 1 6.35,-75.096303 5.5534916,5.5534916 0 0 1 0.79633383,-80.649969 5.5534916,5.5534916 0 0 1 6.35,-86.203635 Z" />
    <g
       id="g1913"
       transform="matrix(0.14938293,0,0,0.14938293,1.5690066,-85.564189)"
       style="display:inline" />
    <g
       id="2-main"
       stroke="none"
       stroke-width="1"
       fill="none"
       fill-rule="evenodd"
       transform="matrix(0.09786004,0,0,0.09786004,1.4569979,-85.543002)">
      <g
         id="2_main_1920"
         transform="translate(-1419,-3925)">
        <g
           id="Get-started"
           transform="translate(0,3557)">
          <g
             id="5"
             transform="translate(1350,328)">
            <g
               id="Group-26"
               transform="translate(6,40)">
              <g
                 id="4k/slideshow_maker"
                 transform="translate(63)" />
            </g>
          </g>
        </g>
      </g>
    </g>
    <circle
       style="fill:#e2222f;stroke-width:0.207842"
       cx="6.3500004"
       cy="-84.849869"
       r="0.5196051"
       id="circle10" />
    <path
       id="circle12"
       style="fill:#e2222f;stroke-width:0.785545"
       d="M 23.607422 10.875 A 13.35426 13.35426 0 0 0 10.253906 24.230469 A 13.35426 13.35426 0 0 0 23.607422 37.583984 A 13.35426 13.35426 0 0 0 36.960938 24.230469 A 13.35426 13.35426 0 0 0 23.607422 10.875 z M 23.607422 14.017578 L 33.033203 18.730469 L 33.033203 23.445312 L 29.105469 22.134766 L 29.105469 21.087891 L 23.607422 18.337891 L 19.322266 20.445312 L 33.033203 25.015625 L 33.033203 29.728516 L 23.607422 34.441406 L 14.181641 29.728516 L 14.181641 25.015625 L 18.109375 26.324219 L 18.109375 27.373047 L 23.607422 30.121094 L 27.892578 28.015625 L 14.181641 23.445312 L 14.181641 18.730469 L 23.607422 14.017578 z "
       transform="matrix(0.26458333,0,0,0.26458333,0,-87)" />
    <circle
       style="fill:#e2222f;stroke-width:0.207842"
       cx="9.7793932"
       cy="-77.679321"
       r="0.83136809"
       id="circle14" />
    <circle
       style="fill:#e2222f;stroke-width:0.207842"
       cx="2.5049224"
       cy="-77.679321"
       r="0.41568404"
       id="circle16" />
  </g>
</svg>
