<?xml version="1.0" encoding="UTF-8" standalone="no"?>
<svg
   xmlns:dc="http://purl.org/dc/elements/1.1/"
   xmlns:cc="http://creativecommons.org/ns#"
   xmlns:rdf="http://www.w3.org/1999/02/22-rdf-syntax-ns#"
   xmlns:svg="http://www.w3.org/2000/svg"
   xmlns="http://www.w3.org/2000/svg"
   xmlns:sodipodi="http://sodipodi.sourceforge.net/DTD/sodipodi-0.dtd"
   xmlns:inkscape="http://www.inkscape.org/namespaces/inkscape"
   width="48"
   height="48"
   viewBox="0 0 12.7 12.7"
   version="1.1"
   id="svg8"
   inkscape:version="1.0.1 (3bc2e813f5, 2020-09-07)"
   sodipodi:docname="allegorithmic-Substance_B2M.svg">
  <defs
     id="defs2" />
  <sodipodi:namedview
     id="base"
     pagecolor="#ffffff"
     bordercolor="#666666"
     borderopacity="1.0"
     inkscape:pageopacity="0.0"
     inkscape:pageshadow="2"
     inkscape:zoom="22.627418"
     inkscape:cx="20.987753"
     inkscape:cy="21.395817"
     inkscape:document-units="px"
     inkscape:current-layer="layer3"
     showgrid="false"
     inkscape:window-width="1920"
     inkscape:window-height="1051"
     inkscape:window-x="0"
     inkscape:window-y="0"
     inkscape:window-maximized="1"
     showguides="true"
     inkscape:guide-bbox="true"
     inkscape:document-rotation="0"
     inkscape:showpageshadow="false"
     showborder="false"
     units="px">
    <inkscape:grid
       type="xygrid"
       id="grid917" />
  </sodipodi:namedview>
  <metadata
     id="metadata5">
    <rdf:RDF>
      <cc:Work
         rdf:about="">
        <dc:format>image/svg+xml</dc:format>
        <dc:type
           rdf:resource="http://purl.org/dc/dcmitype/StillImage" />
        <dc:title></dc:title>
      </cc:Work>
    </rdf:RDF>
  </metadata>
  <g
     inkscape:groupmode="layer"
     id="layer3"
     inkscape:label="Задний фон"
     transform="translate(0,87)"
     style="opacity:1">
    <path
       id="path838"
       style="fill:#fbc707;stroke:none;stroke-width:0.32508;fill-opacity:1"
       d="M 6.2941893,-86.999969 A 6.3499999,6.3499999 0 0 0 2.4147492e-8,-80.649969 6.3499999,6.3499999 0 0 0 6.35,-74.299969 a 6.3499999,6.3499999 0 0 0 6.35,-6.35 6.3499999,6.3499999 0 0 0 -6.35,-6.35 6.3499999,6.3499999 0 0 0 -0.055811,0 z M 6.35,-86.203635 a 5.5534916,5.5534916 0 0 1 5.553666,5.553666 A 5.5534916,5.5534916 0 0 1 6.35,-75.096303 5.5534916,5.5534916 0 0 1 0.79633383,-80.649969 5.5534916,5.5534916 0 0 1 6.35,-86.203635 Z" />
    <g
       id="g1913"
       transform="matrix(0.14938293,0,0,0.14938293,1.5690066,-85.564189)"
       style="display:inline" />
    <g
       id="2-main"
       stroke="none"
       stroke-width="1"
       fill="none"
       fill-rule="evenodd"
       transform="matrix(0.09786004,0,0,0.09786004,1.4569979,-85.543002)">
      <g
         id="2_main_1920"
         transform="translate(-1419,-3925)">
        <g
           id="Get-started"
           transform="translate(0,3557)">
          <g
             id="5"
             transform="translate(1350,328)">
            <g
               id="Group-26"
               transform="translate(6,40)">
              <g
                 id="4k/slideshow_maker"
                 transform="translate(63)" />
            </g>
          </g>
        </g>
      </g>
    </g>
    <path
       id="path4"
       style="fill:#16aca8;stroke-width:0.999999"
       d="M 27.876953 5.0058594 C 27.478437 5.0494696 27.173125 5.3391302 26.859375 5.9472656 L 25.78125 8.0429688 C 24.558248 7.8724743 23.350891 7.9302988 22.212891 8.03125 L 21.140625 5.9472656 C 20.604624 5.0045645 20.125249 4.9539855 19.28125 5.1796875 C 17.530252 5.9064869 15.778344 6.6305667 14.027344 7.3554688 C 13.148344 7.719475 12.925766 8.1718453 13.259766 9.2148438 L 13.974609 11.453125 C 13.038609 12.195126 12.188453 13.039703 11.439453 13.970703 L 9.2128906 13.259766 C 8.1701904 12.925769 7.7193688 13.148362 7.3554688 14.027344 C 6.6312689 15.779344 5.9057877 17.530252 5.1796875 19.28125 C 4.815787 20.159249 4.9741658 20.638624 5.9472656 21.140625 L 8.0410156 22.21875 C 7.8707177 23.441752 7.9304651 24.649109 8.03125 25.787109 L 5.9472656 26.859375 C 4.9741658 27.361372 4.8157874 27.840751 5.1796875 28.71875 C 5.9064872 30.469752 6.6305686 32.221658 7.3554688 33.972656 C 7.7193692 34.851657 8.1701904 35.074235 9.2128906 34.740234 L 11.453125 34.025391 C 12.195125 34.961391 13.039703 35.81155 13.970703 36.560547 L 13.259766 38.785156 C 12.925765 39.828158 13.148344 40.280529 14.027344 40.644531 C 15.779344 41.36853 17.530252 42.094314 19.28125 42.820312 C 20.159249 43.184319 20.638624 43.025751 21.140625 42.052734 L 22.21875 39.958984 C 23.441752 40.12997 24.649109 40.069777 25.787109 39.96875 L 26.859375 42.052734 C 27.361376 43.025732 27.840747 43.184311 28.71875 42.820312 C 30.469748 42.093313 32.221658 41.369532 33.972656 40.644531 C 34.851657 40.281545 35.074235 39.828158 34.740234 38.785156 L 34.025391 36.546875 C 34.961391 35.803877 35.81155 34.9603 36.560547 34.029297 L 38.785156 34.740234 C 39.828158 35.074231 40.280529 34.851642 40.644531 33.972656 C 41.36853 32.220656 42.094314 30.469752 42.820312 28.71875 C 43.184319 27.840751 43.025713 27.361372 42.052734 26.859375 L 39.957031 25.78125 C 40.127034 24.558252 40.069777 23.350891 39.96875 22.212891 L 42.052734 21.140625 C 43.025736 20.638624 43.184307 20.159249 42.820312 19.28125 C 42.093313 17.530252 41.369528 15.778346 40.644531 14.027344 C 40.280525 13.148347 39.828155 12.925765 38.785156 13.259766 L 36.546875 13.974609 C 35.804874 13.038609 34.960297 12.188453 34.029297 11.439453 L 34.740234 9.2148438 C 35.074231 8.1718453 34.851638 7.7193654 33.972656 7.3554688 C 32.220656 6.6312659 30.469748 5.9057877 28.71875 5.1796875 C 28.3895 5.0431851 28.116063 4.9796932 27.876953 5.0058594 z M 24 11 L 36 17 L 36 23 L 31 21.332031 L 31 20 L 24 16.5 L 18.544922 19.181641 L 36 25 L 36 31 L 24 37 L 12 31 L 12 25 L 17 26.667969 L 17 28 L 24 31.5 L 29.455078 28.818359 L 12 23 L 12 17 L 24 11 z "
       transform="matrix(0.26458333,0,0,0.26458333,0,-87)" />
  </g>
</svg>
