<?xml version="1.0" encoding="UTF-8" standalone="no"?>
<svg
   xmlns:dc="http://purl.org/dc/elements/1.1/"
   xmlns:cc="http://creativecommons.org/ns#"
   xmlns:rdf="http://www.w3.org/1999/02/22-rdf-syntax-ns#"
   xmlns:svg="http://www.w3.org/2000/svg"
   xmlns="http://www.w3.org/2000/svg"
   xmlns:sodipodi="http://sodipodi.sourceforge.net/DTD/sodipodi-0.dtd"
   xmlns:inkscape="http://www.inkscape.org/namespaces/inkscape"
   width="48"
   height="48"
   viewBox="0 0 12.7 12.7"
   version="1.1"
   id="svg8"
   inkscape:version="1.0.1 (3bc2e813f5, 2020-09-07)"
   sodipodi:docname="almanah.svg">
  <defs
     id="defs2" />
  <sodipodi:namedview
     id="base"
     pagecolor="#ffffff"
     bordercolor="#666666"
     borderopacity="1.0"
     inkscape:pageopacity="0.0"
     inkscape:pageshadow="2"
     inkscape:zoom="45.254836"
     inkscape:cx="28.668246"
     inkscape:cy="22.312281"
     inkscape:document-units="px"
     inkscape:current-layer="layer3"
     showgrid="false"
     inkscape:window-width="1920"
     inkscape:window-height="1051"
     inkscape:window-x="0"
     inkscape:window-y="0"
     inkscape:window-maximized="1"
     showguides="true"
     inkscape:guide-bbox="true"
     inkscape:document-rotation="0"
     inkscape:showpageshadow="false"
     showborder="false"
     units="px">
    <inkscape:grid
       type="xygrid"
       id="grid917" />
  </sodipodi:namedview>
  <metadata
     id="metadata5">
    <rdf:RDF>
      <cc:Work
         rdf:about="">
        <dc:format>image/svg+xml</dc:format>
        <dc:type
           rdf:resource="http://purl.org/dc/dcmitype/StillImage" />
        <dc:title />
      </cc:Work>
    </rdf:RDF>
  </metadata>
  <g
     inkscape:groupmode="layer"
     id="layer3"
     inkscape:label="Задний фон"
     transform="translate(0,87)"
     style="opacity:1">
    <path
       id="rect4"
       style="fill:#fbc707;stroke-width:0.774293;fill-opacity:1"
       d="M 12.773438 8.1269531 C 11.915522 8.1269531 11.224609 8.8178668 11.224609 9.6757812 L 11.224609 37.550781 C 11.224609 38.408696 11.915522 39.099609 12.773438 39.099609 L 34.453125 39.099609 C 35.311041 39.099609 36.001953 38.408696 36.001953 37.550781 L 36.001953 25.273438 C 36.345274 25.178636 36.594384 24.970983 36.697266 24.714844 C 36.720665 24.664942 36.729753 24.609767 36.742188 24.554688 C 36.745244 24.529665 36.761719 24.508033 36.761719 24.482422 L 36.761719 24.455078 C 36.763868 24.431436 36.775391 24.410934 36.775391 24.386719 L 36.775391 22.837891 C 36.775391 22.813675 36.763868 22.793161 36.761719 22.769531 L 36.761719 22.708984 C 36.761719 22.652898 36.733049 22.603782 36.71875 22.550781 C 36.717346 22.545576 36.716379 22.540327 36.714844 22.535156 C 36.714272 22.533798 36.71347 22.532604 36.712891 22.53125 C 36.627407 22.250184 36.369088 22.021299 36.001953 21.919922 L 36.001953 9.6757812 C 36.001953 8.8178668 35.311041 8.1269531 34.453125 8.1269531 L 12.773438 8.1269531 z M 13.509766 9.0488281 L 16.607422 9.0488281 L 16.607422 38.175781 L 13.509766 38.175781 C 12.65185 38.175781 11.960938 37.527504 11.960938 36.720703 L 11.960938 10.505859 C 11.960938 9.6990607 12.65185 9.0488281 13.509766 9.0488281 z M 25.162109 19.742188 C 27.115935 19.742188 27.805831 20.951423 28.070312 21.859375 L 26.384766 21.859375 C 26.163947 21.551789 25.797892 21.289063 25.162109 21.289062 C 23.613525 21.289062 23.613281 22.837891 23.613281 22.837891 L 23.613281 25.935547 L 26.710938 25.935547 L 26.710938 25.333984 L 28.257812 25.333984 L 28.257812 25.935547 L 29.033203 25.935547 C 29.033203 25.935547 29.806641 25.936645 29.806641 26.710938 L 29.806641 31.355469 C 29.806641 31.355469 29.807495 32.130859 29.033203 32.130859 L 21.289062 32.130859 C 21.289062 32.130859 20.515625 32.129762 20.515625 31.355469 L 20.515625 26.710938 C 20.515625 26.710938 20.514774 25.935547 21.289062 25.935547 L 22.064453 25.935547 L 22.064453 22.837891 C 22.064453 22.837891 22.064941 19.742188 25.162109 19.742188 z M 25.757812 22.332031 L 35.289062 22.332031 C 35.928892 22.332031 36.443359 22.608414 36.443359 22.951172 L 36.443359 24.240234 C 36.443359 24.582962 35.928892 24.859375 35.289062 24.859375 L 25.757812 24.859375 C 25.117983 24.859375 24.603516 24.582992 24.603516 24.240234 L 24.603516 22.951172 C 24.603516 22.608444 25.117983 22.332031 25.757812 22.332031 z "
       transform="matrix(0.26458333,0,0,0.26458333,0,-87)" />
    <rect
       style="fill:#fbc707;stroke-width:0.065124;paint-order:fill markers stroke;fill-opacity:1"
       id="rect840"
       width="1.095529"
       height="0.2881397"
       x="6.7643895"
       y="-80.900955"
       rx="0.10686"
       ry="0.07055743" />
    <path
       id="path838"
       style="fill:#fbc707;fill-opacity:1;stroke:none;stroke-width:0.32508"
       d="M 6.2941893,-86.999969 A 6.3499999,6.3499999 0 0 0 1.4444012e-8,-80.649969 6.3499999,6.3499999 0 0 0 6.35,-74.299969 a 6.3499999,6.3499999 0 0 0 6.35,-6.35 6.3499999,6.3499999 0 0 0 -6.35,-6.35 6.3499999,6.3499999 0 0 0 -0.055811,0 z M 6.35,-86.203635 a 5.5534916,5.5534916 0 0 1 5.553666,5.553666 A 5.5534916,5.5534916 0 0 1 6.35,-75.096303 5.5534916,5.5534916 0 0 1 0.79633382,-80.649969 5.5534916,5.5534916 0 0 1 6.35,-86.203635 Z" />
    <g
       id="g1913"
       transform="matrix(0.14938293,0,0,0.14938293,1.5690066,-85.564189)"
       style="display:inline" />
    <g
       id="2-main"
       stroke="none"
       stroke-width="1"
       fill="none"
       fill-rule="evenodd"
       transform="matrix(0.09786004,0,0,0.09786004,1.4569979,-85.543002)">
      <g
         id="2_main_1920"
         transform="translate(-1419,-3925)">
        <g
           id="Get-started"
           transform="translate(0,3557)">
          <g
             id="5"
             transform="translate(1350,328)">
            <g
               id="Group-26"
               transform="translate(6,40)">
              <g
                 id="4k/slideshow_maker"
                 transform="translate(63)" />
            </g>
          </g>
        </g>
      </g>
    </g>
  </g>
</svg>
