<?xml version="1.0" encoding="UTF-8" standalone="no"?>
<svg
   xmlns:dc="http://purl.org/dc/elements/1.1/"
   xmlns:cc="http://creativecommons.org/ns#"
   xmlns:rdf="http://www.w3.org/1999/02/22-rdf-syntax-ns#"
   xmlns:svg="http://www.w3.org/2000/svg"
   xmlns="http://www.w3.org/2000/svg"
   xmlns:sodipodi="http://sodipodi.sourceforge.net/DTD/sodipodi-0.dtd"
   xmlns:inkscape="http://www.inkscape.org/namespaces/inkscape"
   width="48"
   height="48"
   viewBox="0 0 12.7 12.7"
   version="1.1"
   id="svg8"
   inkscape:version="1.0.1 (3bc2e813f5, 2020-09-07)"
   sodipodi:docname="anbox.svg">
  <defs
     id="defs2" />
  <sodipodi:namedview
     id="base"
     pagecolor="#ffffff"
     bordercolor="#666666"
     borderopacity="1.0"
     inkscape:pageopacity="0.0"
     inkscape:pageshadow="2"
     inkscape:zoom="16.000001"
     inkscape:cx="14.089741"
     inkscape:cy="29.268789"
     inkscape:document-units="px"
     inkscape:current-layer="layer3"
     showgrid="false"
     inkscape:window-width="1920"
     inkscape:window-height="1051"
     inkscape:window-x="0"
     inkscape:window-y="0"
     inkscape:window-maximized="1"
     showguides="true"
     inkscape:guide-bbox="true"
     inkscape:document-rotation="0"
     inkscape:showpageshadow="false"
     showborder="false"
     units="px">
    <inkscape:grid
       type="xygrid"
       id="grid917" />
  </sodipodi:namedview>
  <metadata
     id="metadata5">
    <rdf:RDF>
      <cc:Work
         rdf:about="">
        <dc:format>image/svg+xml</dc:format>
        <dc:type
           rdf:resource="http://purl.org/dc/dcmitype/StillImage" />
        <dc:title></dc:title>
      </cc:Work>
    </rdf:RDF>
  </metadata>
  <g
     inkscape:groupmode="layer"
     id="layer3"
     inkscape:label="Задний фон"
     transform="translate(0,87)"
     style="opacity:1">
    <path
       style="fill:#008000;stroke-width:0.910975"
       d="m 6.3591095,-85.566531 a 4.9265508,4.9265508 0 0 1 4.9165305,4.907421 4.9256401,4.9256401 0 0 1 -9.8512801,0 c 0,-2.721082 2.2136684,-4.907421 4.9347496,-4.907421 z"
       id="path881" />
    <path
       id="path2"
       style="fill:#fbc707;stroke-width:3.77953"
       d="M 23.982422 0.2265625 A 23.792126 23.792126 0 0 0 0.22851562 23.980469 A 23.792126 23.792126 0 0 0 23.982422 47.773438 A 23.792126 23.792126 0 0 0 47.771484 23.980469 A 23.792126 23.792126 0 0 0 23.982422 0.2265625 z M 23.941406 3.7792969 A 20.439685 20.439685 0 0 1 44.339844 24.140625 A 20.435906 20.435906 0 0 1 3.4667969 24.140625 C 3.4667969 12.851176 12.651957 3.7792969 23.941406 3.7792969 z "
       transform="matrix(0.26458333,0,0,0.26458333,0,-87)" />
    <g
       id="g1913"
       transform="matrix(0.14938293,0,0,0.14938293,1.5690066,-85.564189)"
       style="display:inline" />
    <g
       id="2-main"
       stroke="none"
       stroke-width="1"
       fill="none"
       fill-rule="evenodd"
       transform="matrix(0.09786004,0,0,0.09786004,1.4569979,-85.543002)">
      <g
         id="2_main_1920"
         transform="translate(-1419,-3925)">
        <g
           id="Get-started"
           transform="translate(0,3557)">
          <g
             id="5"
             transform="translate(1350,328)">
            <g
               id="Group-26"
               transform="translate(6,40)">
              <g
                 id="4k/slideshow_maker"
                 transform="translate(63)" />
            </g>
          </g>
        </g>
      </g>
    </g>
    <path
       style="fill:#ffffff;stroke-width:0.861308;fill-opacity:1"
       d="m 9.3124687,-81.708906 a 0.45477042,0.45477042 0 0 0 -0.4564931,0.456493 v 1.822527 a 0.45649316,0.45649316 0 0 0 0.912986,0 v -1.82425 a 0.45477042,0.45477042 0 0 0 -0.4564929,-0.455631 z"
       id="path893" />
    <path
       style="fill:#ffffff;stroke-width:0.861308;fill-opacity:1"
       d="m 3.3875336,-81.708906 a 0.45477042,0.45477042 0 0 0 -0.4564929,0.456493 v 1.822527 a 0.45649303,0.45649303 0 1 0 0.912986,0 v -1.82425 a 0.45477042,0.45477042 0 0 0 -0.4564931,-0.455631 z"
       id="path891" />
    <path
       style="fill:#ffffff;stroke-width:0.861308;fill-opacity:1"
       d="m 4.2987972,-81.937152 v 2.963759 c 0,0.251502 0.2041299,0.45477 0.456493,0.45477 h 0.2273852 v 1.367757 a 0.45649303,0.45649303 0 0 0 0.9121247,0 v -1.368618 h 0.9104022 v 1.367757 a 0.45649303,0.45649303 0 1 0 0.9121247,0 v -1.367757 h 0.2273852 a 0.45649303,0.45649303 0 0 0 0.456493,-0.455632 v -2.962036 z"
       id="path889" />
    <path
       id="path883"
       style="fill:#ffffff;stroke-width:3.25534;fill-opacity:1"
       d="M 18.773438 8.9746094 A 0.4297043 0.4297043 0 0 0 18.5 9.0722656 A 0.4297043 0.4297043 0 0 0 18.447266 9.6855469 L 20.033203 11.572266 A 7.7509545 7.3212502 0 0 0 16.267578 17.423828 L 31.732422 17.488281 A 7.7509545 7.3212502 0 0 0 27.966797 11.570312 L 29.544922 9.6875 A 0.4297043 0.4297043 0 0 0 29.494141 9.0820312 A 0.4297043 0.4297043 0 0 0 28.884766 9.1347656 L 27.175781 11.171875 A 7.7509545 7.3212502 0 0 0 23.998047 10.527344 A 7.7509545 7.3212502 0 0 0 20.824219 11.179688 L 19.105469 9.1347656 A 0.4297043 0.4297043 0 0 0 18.8125 8.9824219 L 18.8125 8.9785156 A 0.4297043 0.4297043 0 0 0 18.769531 8.9785156 L 18.773438 8.9746094 z M 21.388672 13.105469 A 0.86266396 0.86266396 0 0 1 21.414062 13.105469 A 0.86266396 0.86266396 0 0 1 22.279297 13.96875 A 0.86266396 0.86266396 0 0 1 21.414062 14.832031 A 0.86266396 0.86266396 0 0 1 20.554688 13.96875 A 0.86266396 0.86266396 0 0 1 21.388672 13.105469 z M 26.583984 13.105469 A 0.86266397 0.86266397 0 0 1 27.445312 13.96875 A 0.86266397 0.86266397 0 0 1 26.583984 14.832031 A 0.86266397 0.86266397 0 0 1 25.720703 13.96875 A 0.86266397 0.86266397 0 0 1 26.583984 13.105469 z "
       transform="matrix(0.26458333,0,0,0.26458333,0,-87)" />
  </g>
</svg>
