<?xml version="1.0" encoding="UTF-8" standalone="no"?>
<svg
   xmlns:dc="http://purl.org/dc/elements/1.1/"
   xmlns:cc="http://creativecommons.org/ns#"
   xmlns:rdf="http://www.w3.org/1999/02/22-rdf-syntax-ns#"
   xmlns:svg="http://www.w3.org/2000/svg"
   xmlns="http://www.w3.org/2000/svg"
   xmlns:sodipodi="http://sodipodi.sourceforge.net/DTD/sodipodi-0.dtd"
   xmlns:inkscape="http://www.inkscape.org/namespaces/inkscape"
   width="48"
   height="48"
   viewBox="0 0 12.7 12.7"
   version="1.1"
   id="svg8"
   inkscape:version="1.0.1 (3bc2e813f5, 2020-09-07)"
   sodipodi:docname="android-messages-desktop.svg">
  <defs
     id="defs2" />
  <sodipodi:namedview
     id="base"
     pagecolor="#ffffff"
     bordercolor="#666666"
     borderopacity="1.0"
     inkscape:pageopacity="0.0"
     inkscape:pageshadow="2"
     inkscape:zoom="11.313709"
     inkscape:cx="15.091197"
     inkscape:cy="35.915576"
     inkscape:document-units="px"
     inkscape:current-layer="layer3"
     showgrid="false"
     inkscape:window-width="1920"
     inkscape:window-height="1051"
     inkscape:window-x="0"
     inkscape:window-y="0"
     inkscape:window-maximized="1"
     showguides="true"
     inkscape:guide-bbox="true"
     inkscape:document-rotation="0"
     inkscape:showpageshadow="false"
     showborder="false"
     units="px">
    <inkscape:grid
       type="xygrid"
       id="grid917" />
  </sodipodi:namedview>
  <metadata
     id="metadata5">
    <rdf:RDF>
      <cc:Work
         rdf:about="">
        <dc:format>image/svg+xml</dc:format>
        <dc:type
           rdf:resource="http://purl.org/dc/dcmitype/StillImage" />
        <dc:title></dc:title>
      </cc:Work>
    </rdf:RDF>
  </metadata>
  <g
     inkscape:groupmode="layer"
     id="layer3"
     inkscape:label="Задний фон"
     transform="translate(0,87)"
     style="opacity:1">
    <path
       id="path838"
       style="fill:#fbc707;stroke:none;stroke-width:0.32508;fill-opacity:1"
       d="M 6.2941893,-86.999969 A 6.3499999,6.3499999 0 0 0 2.4147492e-8,-80.649969 6.3499999,6.3499999 0 0 0 6.35,-74.299969 a 6.3499999,6.3499999 0 0 0 6.35,-6.35 6.3499999,6.3499999 0 0 0 -6.35,-6.35 6.3499999,6.3499999 0 0 0 -0.055811,0 z M 6.35,-86.203635 a 5.5534916,5.5534916 0 0 1 5.553666,5.553666 A 5.5534916,5.5534916 0 0 1 6.35,-75.096303 5.5534916,5.5534916 0 0 1 0.79633383,-80.649969 5.5534916,5.5534916 0 0 1 6.35,-86.203635 Z" />
    <g
       id="g1913"
       transform="matrix(0.14938293,0,0,0.14938293,1.5690066,-85.564189)"
       style="display:inline" />
    <g
       id="2-main"
       stroke="none"
       stroke-width="1"
       fill="none"
       fill-rule="evenodd"
       transform="matrix(0.09786004,0,0,0.09786004,1.4569979,-85.543002)">
      <g
         id="2_main_1920"
         transform="translate(-1419,-3925)">
        <g
           id="Get-started"
           transform="translate(0,3557)">
          <g
             id="5"
             transform="translate(1350,328)">
            <g
               id="Group-26"
               transform="translate(6,40)">
              <g
                 id="4k/slideshow_maker"
                 transform="translate(63)" />
            </g>
          </g>
        </g>
      </g>
    </g>
    <path
       id="circle4"
       style="fill:#fbc707;fill-opacity:1;stroke-width:0.239833"
       d="M 6.3499999,-85.44667 A 4.7966694,4.7966694 0 0 0 1.5533303,-80.65 4.7966694,4.7966694 0 0 0 6.3499999,-75.85333 4.7966694,4.7966694 0 0 0 11.14667,-80.65 4.7966694,4.7966694 0 0 0 6.3499999,-85.44667 Z m -2.814296,2.758085 h 1.3752951 1.3799793 1.737856 c 0.531471,0 0.9593339,0.427863 0.9593339,0.959334 v 2.158502 c 0,0.531471 -0.4278629,0.959334 -0.9593339,0.959334 H 4.910999 c -0.531471,0 -0.9593339,-0.427863 -0.9593339,-0.959334 v -1.679303 l -0.6787475,-1.036624 a 0.30348865,0.26781265 0 0 1 0.2627863,-0.401909 z" />
    <rect
       style="fill:#fbc707;fill-opacity:1;stroke-width:0.239833"
       width="3.5975022"
       height="0.47966695"
       x="4.6711411"
       y="-81.969086"
       rx="0.23983347"
       ry="0.23983347"
       id="rect14" />
    <rect
       style="fill:#fbc707;fill-opacity:1;stroke-width:0.239833"
       width="3.5975022"
       height="0.47966695"
       x="4.6711411"
       y="-81.00975"
       rx="0.23983347"
       ry="0.23983347"
       id="rect16" />
    <rect
       style="fill:#fbc707;fill-opacity:1;stroke-width:0.239833"
       width="2.6381683"
       height="0.47966695"
       x="4.6711411"
       y="-80.050415"
       rx="0.23983347"
       ry="0.23983347"
       id="rect18" />
  </g>
</svg>
