<?xml version="1.0" encoding="UTF-8" standalone="no"?>
<svg
   xmlns:dc="http://purl.org/dc/elements/1.1/"
   xmlns:cc="http://creativecommons.org/ns#"
   xmlns:rdf="http://www.w3.org/1999/02/22-rdf-syntax-ns#"
   xmlns:svg="http://www.w3.org/2000/svg"
   xmlns="http://www.w3.org/2000/svg"
   xmlns:sodipodi="http://sodipodi.sourceforge.net/DTD/sodipodi-0.dtd"
   xmlns:inkscape="http://www.inkscape.org/namespaces/inkscape"
   width="48"
   height="48"
   viewBox="0 0 12.7 12.7"
   version="1.1"
   id="svg8"
   inkscape:version="1.0.1 (3bc2e813f5, 2020-09-07)"
   sodipodi:docname="another-redis-desktop-manager.svg">
  <defs
     id="defs2" />
  <sodipodi:namedview
     id="base"
     pagecolor="#ffffff"
     bordercolor="#666666"
     borderopacity="1.0"
     inkscape:pageopacity="0.0"
     inkscape:pageshadow="2"
     inkscape:zoom="16.000001"
     inkscape:cx="23.471919"
     inkscape:cy="27.421847"
     inkscape:document-units="px"
     inkscape:current-layer="layer3"
     showgrid="false"
     inkscape:window-width="1920"
     inkscape:window-height="1051"
     inkscape:window-x="0"
     inkscape:window-y="0"
     inkscape:window-maximized="1"
     showguides="true"
     inkscape:guide-bbox="true"
     inkscape:document-rotation="0"
     inkscape:showpageshadow="false"
     showborder="false"
     units="px">
    <inkscape:grid
       type="xygrid"
       id="grid917" />
  </sodipodi:namedview>
  <metadata
     id="metadata5">
    <rdf:RDF>
      <cc:Work
         rdf:about="">
        <dc:format>image/svg+xml</dc:format>
        <dc:type
           rdf:resource="http://purl.org/dc/dcmitype/StillImage" />
        <dc:title></dc:title>
      </cc:Work>
    </rdf:RDF>
  </metadata>
  <g
     inkscape:groupmode="layer"
     id="layer3"
     inkscape:label="Задний фон"
     transform="translate(0,87)"
     style="opacity:1">
    <path
       id="path838"
       style="fill:#fbc707;stroke:none;stroke-width:0.32508;fill-opacity:1"
       d="M 6.2941893,-86.999969 A 6.3499999,6.3499999 0 0 0 2.4147492e-8,-80.649969 6.3499999,6.3499999 0 0 0 6.35,-74.299969 a 6.3499999,6.3499999 0 0 0 6.35,-6.35 6.3499999,6.3499999 0 0 0 -6.35,-6.35 6.3499999,6.3499999 0 0 0 -0.055811,0 z M 6.35,-86.203635 a 5.5534916,5.5534916 0 0 1 5.553666,5.553666 A 5.5534916,5.5534916 0 0 1 6.35,-75.096303 5.5534916,5.5534916 0 0 1 0.79633383,-80.649969 5.5534916,5.5534916 0 0 1 6.35,-86.203635 Z" />
    <g
       id="g1913"
       transform="matrix(0.14938293,0,0,0.14938293,1.5690066,-85.564189)"
       style="display:inline" />
    <g
       id="2-main"
       stroke="none"
       stroke-width="1"
       fill="none"
       fill-rule="evenodd"
       transform="matrix(0.09786004,0,0,0.09786004,1.4569979,-85.543002)">
      <g
         id="2_main_1920"
         transform="translate(-1419,-3925)">
        <g
           id="Get-started"
           transform="translate(0,3557)">
          <g
             id="5"
             transform="translate(1350,328)">
            <g
               id="Group-26"
               transform="translate(6,40)">
              <g
                 id="4k/slideshow_maker"
                 transform="translate(63)" />
            </g>
          </g>
        </g>
      </g>
    </g>
    <path
       id="rect4"
       style="fill:#bb2612;stroke-width:0.999999"
       d="M 24 4 C 12.920001 4 4 12.920001 4 24 C 4 35.079999 12.920001 44 24 44 C 35.08 44 44 35.079999 44 24 C 44 12.920001 35.08 4 24 4 z M 32.949219 8 A 3 3 0 0 1 33 8 A 3 3 0 0 1 36 11 A 3 3 0 0 1 33 14 A 3 3 0 0 1 30 11 A 3 3 0 0 1 32.949219 8 z M 27.160156 13 C 27.352548 13.005178 27.543396 13.039762 27.732422 13.072266 C 29.138019 13.206832 30.049014 14.557352 30.03125 15.880859 C 29.439164 18.822345 28.424682 21.661664 27.65625 24.560547 C 28.673162 26.085828 29.807193 27.530866 30.849609 29.039062 C 31.690233 30.398045 33.217406 31.637945 32.974609 33.390625 C 32.878776 34.67362 31.79697 35.697219 30.503906 35.783203 C 28.340413 35.847516 22.935547 34.833984 22.935547 34.833984 C 22.935547 34.833984 21.057111 38.481663 19.443359 40.220703 C 18.200232 41.532562 15.742193 41.122007 15.011719 39.474609 C 14.328849 37.14509 13.853042 34.756931 13.242188 32.40625 C 12.070384 31.839355 10.887634 31.292824 9.734375 30.689453 C 8.1866139 30.089805 7.5483196 28.10725 8.3398438 26.693359 C 9.4416417 25.230697 10.746998 23.931856 12 22.589844 C 11.975887 20.552263 11.975471 18.514283 12 16.476562 C 11.927254 15.153442 12.763141 13.81922 14.150391 13.638672 C 14.732118 13.368198 15.323551 13.6479 15.894531 13.806641 C 17.339421 14.594517 18.545753 15.739732 19.892578 16.675781 C 21.017609 16.061257 22.130846 15.423936 23.244141 14.789062 C 24.546531 14.187892 25.662361 13.084661 27.160156 13 z M 26.820312 16.269531 C 26.546012 16.430222 26.086146 16.75239 24.730469 17.394531 L 24.5 17.511719 C 24.606696 17.462472 24.622281 17.447963 24.71875 17.402344 C 23.613448 18.032686 22.489208 18.676509 21.332031 19.308594 L 19.703125 20.197266 L 18.181641 19.138672 C 16.815986 18.189534 15.887217 17.41144 15 16.832031 C 14.979515 18.739234 14.977436 20.646517 15 22.554688 L 15.013672 23.757812 L 14.193359 24.636719 C 13.045633 25.86598 12.025347 26.95066 11.146484 28.041016 C 12.206834 28.594924 13.352309 29.126225 14.548828 29.705078 L 15.796875 30.308594 L 16.146484 31.652344 C 16.690436 33.745563 17.126302 35.698938 17.628906 37.582031 C 18.676829 36.169803 20.267578 33.460938 20.267578 33.460938 L 21.291016 31.474609 L 23.488281 31.886719 C 23.488281 31.886719 24.793877 32.130665 26.357422 32.367188 C 27.689942 32.568749 29.03367 32.685617 29.816406 32.722656 C 29.80438 32.704137 29.820247 32.73015 29.806641 32.708984 C 29.53408 32.291815 28.932117 31.640985 28.298828 30.617188 L 28.380859 30.746094 C 27.40671 29.336663 26.262248 27.877654 25.160156 26.224609 L 24.410156 25.099609 L 24.757812 23.791016 C 25.475721 21.082735 26.262248 18.648562 26.820312 16.269531 z "
       transform="matrix(0.26458333,0,0,0.26458333,0,-87)" />
  </g>
</svg>
