<?xml version="1.0" encoding="UTF-8" standalone="no"?>
<svg
   xmlns:dc="http://purl.org/dc/elements/1.1/"
   xmlns:cc="http://creativecommons.org/ns#"
   xmlns:rdf="http://www.w3.org/1999/02/22-rdf-syntax-ns#"
   xmlns:svg="http://www.w3.org/2000/svg"
   xmlns="http://www.w3.org/2000/svg"
   xmlns:sodipodi="http://sodipodi.sourceforge.net/DTD/sodipodi-0.dtd"
   xmlns:inkscape="http://www.inkscape.org/namespaces/inkscape"
   width="48"
   height="48"
   viewBox="0 0 12.7 12.7"
   version="1.1"
   id="svg8"
   inkscape:version="1.0.1 (3bc2e813f5, 2020-09-07)"
   sodipodi:docname="ant-downloader.svg">
  <defs
     id="defs2" />
  <sodipodi:namedview
     id="base"
     pagecolor="#ffffff"
     bordercolor="#666666"
     borderopacity="1.0"
     inkscape:pageopacity="0.0"
     inkscape:pageshadow="2"
     inkscape:zoom="11.313709"
     inkscape:cx="18.218879"
     inkscape:cy="31.172001"
     inkscape:document-units="px"
     inkscape:current-layer="layer3"
     showgrid="false"
     inkscape:window-width="1920"
     inkscape:window-height="1051"
     inkscape:window-x="0"
     inkscape:window-y="0"
     inkscape:window-maximized="1"
     showguides="true"
     inkscape:guide-bbox="true"
     inkscape:document-rotation="0"
     inkscape:showpageshadow="false"
     showborder="false"
     units="px">
    <inkscape:grid
       type="xygrid"
       id="grid917" />
  </sodipodi:namedview>
  <metadata
     id="metadata5">
    <rdf:RDF>
      <cc:Work
         rdf:about="">
        <dc:format>image/svg+xml</dc:format>
        <dc:type
           rdf:resource="http://purl.org/dc/dcmitype/StillImage" />
        <dc:title></dc:title>
      </cc:Work>
    </rdf:RDF>
  </metadata>
  <g
     inkscape:groupmode="layer"
     id="layer3"
     inkscape:label="Задний фон"
     transform="translate(0,87)"
     style="opacity:1">
    <path
       id="path838"
       style="fill:#fbc707;stroke:none;stroke-width:0.32508;fill-opacity:1"
       d="M 6.2941893,-86.999969 A 6.3499999,6.3499999 0 0 0 2.4147492e-8,-80.649969 6.3499999,6.3499999 0 0 0 6.35,-74.299969 a 6.3499999,6.3499999 0 0 0 6.35,-6.35 6.3499999,6.3499999 0 0 0 -6.35,-6.35 6.3499999,6.3499999 0 0 0 -0.055811,0 z M 6.35,-86.203635 a 5.5534916,5.5534916 0 0 1 5.553666,5.553666 A 5.5534916,5.5534916 0 0 1 6.35,-75.096303 5.5534916,5.5534916 0 0 1 0.79633383,-80.649969 5.5534916,5.5534916 0 0 1 6.35,-86.203635 Z" />
    <g
       id="g1913"
       transform="matrix(0.14938293,0,0,0.14938293,1.5690066,-85.564189)"
       style="display:inline" />
    <g
       id="2-main"
       stroke="none"
       stroke-width="1"
       fill="none"
       fill-rule="evenodd"
       transform="matrix(0.09786004,0,0,0.09786004,1.4569979,-85.543002)">
      <g
         id="2_main_1920"
         transform="translate(-1419,-3925)">
        <g
           id="Get-started"
           transform="translate(0,3557)">
          <g
             id="5"
             transform="translate(1350,328)">
            <g
               id="Group-26"
               transform="translate(6,40)">
              <g
                 id="4k/slideshow_maker"
                 transform="translate(63)" />
            </g>
          </g>
        </g>
      </g>
    </g>
    <g
       id="g899"
       transform="translate(-1.8819014,-13.115247)"
       style="fill:#fbc707;fill-opacity:1">
      <path
         style="fill:#fbc707;stroke-width:0.264583;fill-opacity:1"
         d="m 5.2933224,-71.768086 c -0.00494,0.686075 0.1005757,1.405669 0.4716928,1.996993 0.1412557,0.178428 0.4114657,0.555189 0.6494325,0.574891 0.1401437,-0.155681 0.407775,-0.458512 0.3583479,-0.627631 -0.5925206,-0.11528 -1.0924418,-0.756743 -1.2834808,-1.280884 -0.081173,-0.21629 -0.1358857,-0.440757 -0.1959924,-0.663369 z"
         id="path10" />
      <path
         style="fill:#fbc707;stroke-width:0.264583;fill-opacity:1"
         d="m 7.9241774,-71.263237 c -0.8483323,0.855872 -1.7375963,1.732498 -2.1936091,2.869962 -0.2900485,0.639289 -0.4882277,1.317238 -0.6134577,2.00648 0.1468869,-0.124747 0.3153365,-0.542925 0.4671042,-0.77406 0.5262637,-0.925418 1.0182233,-1.870186 1.5557397,-2.788945 0.2610297,-0.438036 0.5225907,-0.875758 0.7842229,-1.313437 z"
         id="path12" />
      <path
         style="fill:#fbc707;stroke-width:0.264583;fill-opacity:1"
         d="m 7.9802198,-71.303019 c -0.8899117,1.638106 -1.7807466,3.276274 -2.6529313,4.923534 -0.042778,0.162926 0.278874,-0.173074 0.37411,-0.205306 0.4699391,-0.327107 0.9343231,-0.66194 1.3996368,-0.995449 0.1314456,-0.32693 0.1732698,-0.692163 0.2689082,-1.034195 0.2019621,-0.882734 0.4262636,-1.762933 0.6102763,-2.648162 0,-0.01347 0,-0.02695 0,-0.04042 z"
         id="path14" />
      <path
         style="fill:#fbc707;stroke-width:0.264583;fill-opacity:1"
         d="m 7.5255717,-66.660707 c -0.4118041,0.127375 -0.8697825,0.281204 -1.1201249,0.654387 -0.1489485,0.364449 0.134262,0.712586 0.4066868,0.925932 0.3301093,0.262868 0.6926781,0.492533 1.0794333,0.662327 -0.3353705,-0.467457 -0.6557584,-1.021158 -0.5559827,-1.619669 0.021003,-0.219692 0.1131229,-0.419537 0.1899875,-0.622977 z"
         id="path16" />
      <path
         style="fill:#fbc707;stroke-width:0.264583;fill-opacity:1"
         d="m 4.7923179,-65.635447 c 0.00437,0.190882 0.2515836,0.514362 0.3558662,0.755988 0.2627175,0.524716 0.5199094,1.052238 0.7804851,1.57804 -0.1336593,-0.608494 -0.3362018,-1.206569 -0.4360323,-1.823228 0.2436382,-0.155733 0.5170207,-0.258927 0.7771133,-0.384675 -0.4924779,-0.04204 -0.9849543,-0.08408 -1.4774323,-0.126125 z"
         id="path18" />
      <path
         style="fill:#fbc707;stroke-width:0.264583;fill-opacity:1"
         d="m 11.17048,-71.768086 c 0.0049,0.686075 -0.100576,1.405669 -0.471693,1.996993 -0.141255,0.178428 -0.411465,0.555189 -0.649432,0.574891 -0.1401438,-0.155681 -0.4077752,-0.458512 -0.3583481,-0.627631 0.5925201,-0.11528 1.0924421,-0.756743 1.2834811,-1.280884 0.08117,-0.21629 0.135885,-0.440757 0.195992,-0.663369 z"
         id="path20" />
      <path
         style="fill:#fbc707;stroke-width:0.264583;fill-opacity:1"
         d="m 8.5396252,-71.263237 c 0.8483319,0.855872 1.7375958,1.732498 2.1936088,2.869962 0.290049,0.639289 0.488228,1.317238 0.613458,2.00648 -0.146887,-0.124747 -0.315337,-0.542925 -0.467104,-0.77406 -0.526264,-0.925418 -1.0182236,-1.870186 -1.5557399,-2.788945 -0.2610298,-0.438036 -0.5225908,-0.875758 -0.7842229,-1.313437 z"
         id="path22" />
      <path
         style="fill:#fbc707;stroke-width:0.264583;fill-opacity:1"
         d="m 8.4835827,-71.303019 c 0.8899118,1.638106 1.7807463,3.276274 2.6529313,4.923534 0.04278,0.162926 -0.278874,-0.173074 -0.37411,-0.205306 -0.469939,-0.327107 -0.9343231,-0.66194 -1.3996368,-0.995449 -0.1314455,-0.32693 -0.1732701,-0.692163 -0.2689082,-1.034195 -0.2019623,-0.882734 -0.4262636,-1.762933 -0.6102763,-2.648162 0,-0.01347 0,-0.02695 0,-0.04042 z"
         id="path24" />
      <path
         style="fill:#fbc707;stroke-width:0.264583;fill-opacity:1"
         d="m 8.9382308,-66.660707 c 0.4118041,0.127375 0.8697825,0.281204 1.1201242,0.654387 0.148949,0.364449 -0.1342613,0.712586 -0.4066861,0.925932 -0.3301092,0.262868 -0.6926781,0.492533 -1.0794333,0.662327 0.3353705,-0.467457 0.6557584,-1.021158 0.5559827,-1.619669 -0.021003,-0.219692 -0.1131228,-0.419537 -0.1899875,-0.622977 z"
         id="path26" />
      <path
         style="fill:#fbc707;stroke-width:0.264583;fill-opacity:1"
         d="m 11.671485,-65.635447 c -0.0044,0.190882 -0.251584,0.514362 -0.355867,0.755988 -0.262717,0.524716 -0.519909,1.052238 -0.780485,1.57804 0.13366,-0.608494 0.336202,-1.206569 0.436033,-1.823228 -0.243639,-0.155733 -0.517021,-0.258927 -0.777114,-0.384675 0.492478,-0.04204 0.984955,-0.08408 1.477433,-0.126125 z"
         id="path28" />
    </g>
  </g>
</svg>
