<?xml version="1.0" encoding="UTF-8" standalone="no"?>
<svg
   xmlns:dc="http://purl.org/dc/elements/1.1/"
   xmlns:cc="http://creativecommons.org/ns#"
   xmlns:rdf="http://www.w3.org/1999/02/22-rdf-syntax-ns#"
   xmlns:svg="http://www.w3.org/2000/svg"
   xmlns="http://www.w3.org/2000/svg"
   xmlns:sodipodi="http://sodipodi.sourceforge.net/DTD/sodipodi-0.dtd"
   xmlns:inkscape="http://www.inkscape.org/namespaces/inkscape"
   width="48"
   height="48"
   version="1.1"
   viewBox="0 0 12.7 12.7"
   id="svg4"
   sodipodi:docname="anydesk.svg"
   inkscape:version="1.0.1 (3bc2e813f5, 2020-09-07)">
  <metadata
     id="metadata10">
    <rdf:RDF>
      <cc:Work
         rdf:about="">
        <dc:format>image/svg+xml</dc:format>
        <dc:type
           rdf:resource="http://purl.org/dc/dcmitype/StillImage" />
        <dc:title />
      </cc:Work>
    </rdf:RDF>
  </metadata>
  <defs
     id="defs8" />
  <sodipodi:namedview
     pagecolor="#ffffff"
     bordercolor="#666666"
     borderopacity="1"
     objecttolerance="10"
     gridtolerance="10"
     guidetolerance="10"
     inkscape:pageopacity="0"
     inkscape:pageshadow="2"
     inkscape:window-width="1920"
     inkscape:window-height="1051"
     id="namedview6"
     showgrid="false"
     inkscape:zoom="4.9166667"
     inkscape:cx="2.1355932"
     inkscape:cy="24"
     inkscape:window-x="0"
     inkscape:window-y="0"
     inkscape:window-maximized="1"
     inkscape:current-layer="svg4"
     inkscape:document-rotation="0" />
  <path
     id="path2"
     style="fill:#fbc707;stroke-width:3.77945"
     d="M 23.962891 0.26367188 C 10.818056 0.26353789 0.1674534 10.930338 0.18945312 24.076172 C 0.21089401 37.205007 10.871165 47.831546 24 47.810547 C 37.114835 47.790137 47.736328 37.151944 47.736328 24.037109 C 47.736442 10.907275 37.091725 0.26462501 23.962891 0.265625 L 23.962891 0.26367188 z M 23.886719 3.7792969 C 35.158577 3.7789064 44.334982 12.954605 44.333984 24.226562 C 44.354897 35.51342 35.210386 44.672873 23.923828 44.671875 C 12.636971 44.692787 3.4755625 35.55023 3.4765625 24.263672 C 3.435074 12.962814 12.585561 3.7782969 23.886719 3.7792969 z "
     transform="scale(0.26458333)" />
  <path
     style="fill:#ef443b;stroke-width:0.99998009;fill-opacity:1"
     d="M 7.549348,3.2958651 6.9416342,3.9015152 9.4039744,6.3700731 6.97005,8.7983089 7.5741391,9.403959 10.615751,6.3700201 7.5492686,3.2958651 Z"
     id="path836" />
  <path
     style="fill:#ef443b;stroke-width:0.99998009;fill-opacity:1"
     d="M 5.1257422,3.2958651 2.0841306,6.329804 5.1506128,9.403959 8.1922244,6.3700201 Z"
     id="path834" />
</svg>
