<?xml version="1.0" encoding="UTF-8" standalone="no"?>
<svg
   xmlns:dc="http://purl.org/dc/elements/1.1/"
   xmlns:cc="http://creativecommons.org/ns#"
   xmlns:rdf="http://www.w3.org/1999/02/22-rdf-syntax-ns#"
   xmlns:svg="http://www.w3.org/2000/svg"
   xmlns="http://www.w3.org/2000/svg"
   xmlns:sodipodi="http://sodipodi.sourceforge.net/DTD/sodipodi-0.dtd"
   xmlns:inkscape="http://www.inkscape.org/namespaces/inkscape"
   width="48"
   height="48"
   viewBox="0 0 12.7 12.7"
   version="1.1"
   id="svg8"
   inkscape:version="1.0.1 (3bc2e813f5, 2020-09-07)"
   sodipodi:docname="appimagekit-diffuse.svg">
  <defs
     id="defs2" />
  <sodipodi:namedview
     id="base"
     pagecolor="#ffffff"
     bordercolor="#666666"
     borderopacity="1.0"
     inkscape:pageopacity="0.0"
     inkscape:pageshadow="2"
     inkscape:zoom="5.6568545"
     inkscape:cx="44.444837"
     inkscape:cy="60.823412"
     inkscape:document-units="px"
     inkscape:current-layer="layer3"
     showgrid="false"
     inkscape:window-width="1920"
     inkscape:window-height="1051"
     inkscape:window-x="0"
     inkscape:window-y="0"
     inkscape:window-maximized="1"
     showguides="true"
     inkscape:guide-bbox="true"
     inkscape:document-rotation="0"
     inkscape:showpageshadow="false"
     showborder="false"
     units="px">
    <inkscape:grid
       type="xygrid"
       id="grid917" />
  </sodipodi:namedview>
  <metadata
     id="metadata5">
    <rdf:RDF>
      <cc:Work
         rdf:about="">
        <dc:format>image/svg+xml</dc:format>
        <dc:type
           rdf:resource="http://purl.org/dc/dcmitype/StillImage" />
        <dc:title></dc:title>
      </cc:Work>
    </rdf:RDF>
  </metadata>
  <g
     inkscape:groupmode="layer"
     id="layer3"
     inkscape:label="Задний фон"
     transform="translate(0,87)"
     style="opacity:1">
    <path
       id="path838"
       style="fill:#fbc707;stroke:none;stroke-width:0.32508;fill-opacity:1"
       d="M 6.2941893,-86.999969 A 6.3499999,6.3499999 0 0 0 2.4147492e-8,-80.649969 6.3499999,6.3499999 0 0 0 6.35,-74.299969 a 6.3499999,6.3499999 0 0 0 6.35,-6.35 6.3499999,6.3499999 0 0 0 -6.35,-6.35 6.3499999,6.3499999 0 0 0 -0.055811,0 z M 6.35,-86.203635 a 5.5534916,5.5534916 0 0 1 5.553666,5.553666 A 5.5534916,5.5534916 0 0 1 6.35,-75.096303 5.5534916,5.5534916 0 0 1 0.79633383,-80.649969 5.5534916,5.5534916 0 0 1 6.35,-86.203635 Z" />
    <g
       id="g1913"
       transform="matrix(0.14938293,0,0,0.14938293,1.5690066,-85.564189)"
       style="display:inline" />
    <g
       id="2-main"
       stroke="none"
       stroke-width="1"
       fill="none"
       fill-rule="evenodd"
       transform="matrix(0.09786004,0,0,0.09786004,1.4569979,-85.543002)">
      <g
         id="2_main_1920"
         transform="translate(-1419,-3925)">
        <g
           id="Get-started"
           transform="translate(0,3557)">
          <g
             id="5"
             transform="translate(1350,328)">
            <g
               id="Group-26"
               transform="translate(6,40)">
              <g
                 id="4k/slideshow_maker"
                 transform="translate(63)" />
            </g>
          </g>
        </g>
      </g>
    </g>
    <path
       id="Shape"
       style="fill:#fbc707;stroke-width:0.264583;fill-opacity:0.9137255"
       d="m 3.842902,-83.295808 c -0.536703,-0.0076 -0.536703,0.801341 0,0.79375 h 0.2351278 0.5482873 c 0.535668,-0.0076 0.535668,0.801341 0,0.79375 H 4.1875841 3.3137353 c -0.536703,-0.0076 -0.536703,0.801341 0,0.79375 h 0.7834149 0.00465 c 0.3767819,-0.0047 0.5092599,0.427432 0.3095189,0.658031 -0.114339,0.131444 -0.177227,0.135719 -0.3095189,0.135719 h -0.258899 c -0.536703,-0.0076 -0.536703,0.801341 0,0.79375 h 0.6035819 c 0.03545,0.01527 0.06046,0.05033 0.06046,0.09147 v 1.027327 c 0.0017,0.11211 0.09253,0.202407 0.204638,0.204122 h 2.551783 c 0.756405,0 1.366371,-0.176551 1.829862,-0.529167 0.463491,-0.352615 0.695298,-0.872236 0.695565,-1.559078 v -1.124479 c 5.29e-4,-0.65486 -0.237618,-1.164982 -0.714169,-1.530658 -0.476284,-0.365409 -1.081844,-0.548287 -1.81746,-0.548287 h -0.503845 z m 2.7724411,1.5875 h 0.491443 c 0.377557,0 0.566623,0.182164 0.56689,0.54622 v 1.016476 c 0,0.182389 -0.05165,0.320292 -0.155029,0.413411 -0.110064,0.09581 -0.259156,0.14646 -0.411861,0.140043 h -0.491443 z" />
  </g>
</svg>
