<?xml version="1.0" encoding="UTF-8" standalone="no"?>
<svg
   xmlns:dc="http://purl.org/dc/elements/1.1/"
   xmlns:cc="http://creativecommons.org/ns#"
   xmlns:rdf="http://www.w3.org/1999/02/22-rdf-syntax-ns#"
   xmlns:svg="http://www.w3.org/2000/svg"
   xmlns="http://www.w3.org/2000/svg"
   xmlns:sodipodi="http://sodipodi.sourceforge.net/DTD/sodipodi-0.dtd"
   xmlns:inkscape="http://www.inkscape.org/namespaces/inkscape"
   width="48"
   height="48"
   viewBox="0 0 12.7 12.7"
   version="1.1"
   id="svg8"
   inkscape:version="1.0.1 (3bc2e813f5, 2020-09-07)"
   sodipodi:docname="AppImageLauncher.svg">
  <defs
     id="defs2" />
  <sodipodi:namedview
     id="base"
     pagecolor="#ffffff"
     bordercolor="#666666"
     borderopacity="1.0"
     inkscape:pageopacity="0.0"
     inkscape:pageshadow="2"
     inkscape:zoom="11.313709"
     inkscape:cx="33.901535"
     inkscape:cy="39.857512"
     inkscape:document-units="px"
     inkscape:current-layer="layer3"
     showgrid="false"
     inkscape:window-width="1920"
     inkscape:window-height="1051"
     inkscape:window-x="0"
     inkscape:window-y="0"
     inkscape:window-maximized="1"
     showguides="true"
     inkscape:guide-bbox="true"
     inkscape:document-rotation="0"
     inkscape:showpageshadow="false"
     showborder="false"
     units="px">
    <inkscape:grid
       type="xygrid"
       id="grid917" />
  </sodipodi:namedview>
  <metadata
     id="metadata5">
    <rdf:RDF>
      <cc:Work
         rdf:about="">
        <dc:format>image/svg+xml</dc:format>
        <dc:type
           rdf:resource="http://purl.org/dc/dcmitype/StillImage" />
        <dc:title></dc:title>
      </cc:Work>
    </rdf:RDF>
  </metadata>
  <g
     inkscape:groupmode="layer"
     id="layer3"
     inkscape:label="Задний фон"
     transform="translate(0,87)"
     style="opacity:1">
    <path
       id="path838"
       style="fill:#fbc707;stroke:none;stroke-width:0.32508;fill-opacity:1"
       d="M 6.2941893,-86.999969 A 6.3499999,6.3499999 0 0 0 2.4147492e-8,-80.649969 6.3499999,6.3499999 0 0 0 6.35,-74.299969 a 6.3499999,6.3499999 0 0 0 6.35,-6.35 6.3499999,6.3499999 0 0 0 -6.35,-6.35 6.3499999,6.3499999 0 0 0 -0.055811,0 z M 6.35,-86.203635 a 5.5534916,5.5534916 0 0 1 5.553666,5.553666 A 5.5534916,5.5534916 0 0 1 6.35,-75.096303 5.5534916,5.5534916 0 0 1 0.79633383,-80.649969 5.5534916,5.5534916 0 0 1 6.35,-86.203635 Z" />
    <g
       id="g1913"
       transform="matrix(0.14938293,0,0,0.14938293,1.5690066,-85.564189)"
       style="display:inline" />
    <g
       id="2-main"
       stroke="none"
       stroke-width="1"
       fill="none"
       fill-rule="evenodd"
       transform="matrix(0.09786004,0,0,0.09786004,1.4569979,-85.543002)">
      <g
         id="2_main_1920"
         transform="translate(-1419,-3925)">
        <g
           id="Get-started"
           transform="translate(0,3557)">
          <g
             id="5"
             transform="translate(1350,328)">
            <g
               id="Group-26"
               transform="translate(6,40)">
              <g
                 id="4k/slideshow_maker"
                 transform="translate(63)" />
            </g>
          </g>
        </g>
      </g>
    </g>
    <g
       id="g867"
       transform="matrix(1.1672828,0,0,1.1672828,-0.69292893,-0.061389)"
       style="fill:#fbc707;fill-opacity:1">
      <path
         style="fill:#fbc707;fill-opacity:1;stroke-width:0.264583"
         d="m 6.0336093,-73.272822 a 4.2333365,4.2333392 0 0 0 -4.2333333,4.233333 4.2333365,4.2333392 0 0 0 4.2333333,4.233334 4.2333365,4.2333392 0 0 0 4.2333337,-4.233334 4.2333365,4.2333392 0 0 0 -4.2333337,-4.233333 z m 0,0.529167 a 3.7041688,3.7041709 0 0 1 3.7041667,3.704166 3.7041688,3.7041709 0 0 1 -3.7041667,3.704167 3.7041688,3.7041709 0 0 1 -3.7041666,-3.704167 3.7041688,3.7041709 0 0 1 3.7041666,-3.704166 z"
         id="path9" />
      <path
         style="fill:#fbc707;fill-opacity:1;stroke-width:0.264583"
         d="m 6.0336091,-72.743639 -3.3072875,5.556243 2.8934352,-1.632236 0.4138523,-0.233302 z m 0,0 3.3072874,5.556243 -2.8934352,-1.632236 -0.4138522,-0.233302 z"
         id="path11" />
    </g>
  </g>
</svg>
