<?xml version="1.0" encoding="UTF-8" standalone="no"?>
<svg
   xmlns:dc="http://purl.org/dc/elements/1.1/"
   xmlns:cc="http://creativecommons.org/ns#"
   xmlns:rdf="http://www.w3.org/1999/02/22-rdf-syntax-ns#"
   xmlns:svg="http://www.w3.org/2000/svg"
   xmlns="http://www.w3.org/2000/svg"
   xmlns:sodipodi="http://sodipodi.sourceforge.net/DTD/sodipodi-0.dtd"
   xmlns:inkscape="http://www.inkscape.org/namespaces/inkscape"
   width="48"
   height="48"
   viewBox="0 0 12.7 12.7"
   version="1.1"
   id="svg8"
   inkscape:version="1.0.1 (3bc2e813f5, 2020-09-07)"
   sodipodi:docname="alt-linux-team.svg">
  <defs
     id="defs2" />
  <sodipodi:namedview
     id="base"
     pagecolor="#ffffff"
     bordercolor="#666666"
     borderopacity="1.0"
     inkscape:pageopacity="0.0"
     inkscape:pageshadow="2"
     inkscape:zoom="256"
     inkscape:cx="23.612285"
     inkscape:cy="31.256494"
     inkscape:document-units="px"
     inkscape:current-layer="layer3"
     showgrid="false"
     inkscape:window-width="1920"
     inkscape:window-height="1051"
     inkscape:window-x="0"
     inkscape:window-y="0"
     inkscape:window-maximized="1"
     showguides="true"
     inkscape:guide-bbox="true"
     inkscape:document-rotation="0"
     inkscape:showpageshadow="false"
     showborder="false"
     units="px">
    <inkscape:grid
       type="xygrid"
       id="grid917" />
  </sodipodi:namedview>
  <metadata
     id="metadata5">
    <rdf:RDF>
      <cc:Work
         rdf:about="">
        <dc:format>image/svg+xml</dc:format>
        <dc:type
           rdf:resource="http://purl.org/dc/dcmitype/StillImage" />
        <dc:title />
      </cc:Work>
    </rdf:RDF>
  </metadata>
  <g
     inkscape:groupmode="layer"
     id="layer3"
     inkscape:label="Задний фон"
     transform="translate(0,87)">
    <path
       id="path866"
       style="opacity:0.660185;fill:#fbc707;fill-opacity:1;stroke:none;stroke-width:0.0769376;stroke-opacity:1;paint-order:fill markers stroke"
       d="m 24.904297,5.1738281 c -0.302049,0.00181 -0.420617,0.042365 -0.892578,0.3144531 l -0.542969,0.3144532 0.605469,0.4296875 c 0.739861,0.5245946 1.339802,1.1284969 1.654297,1.6621093 0.273339,0.463767 0.533326,1.2349163 0.585937,1.7382813 l 0.03711,0.3496094 -0.341796,0.2343751 c -0.425439,0.293008 -1.120085,1.009149 -1.501954,1.548828 -0.159359,0.225214 -0.483714,0.829901 -0.722656,1.34375 -1.195585,2.571197 -1.441781,3.045556 -1.55664,2.998047 -0.719929,-0.2978 -1.568585,-0.430135 -2.765625,-0.427734 -1.550616,0.003 -2.39446,0.230762 -3.230469,0.871093 -1.377275,1.054908 -2.247367,2.578554 -2.902344,5.085938 -0.26547,1.016281 -0.483559,2.368416 -0.566406,3.496093 -0.101858,1.386618 0.03264,3.594006 0.414062,6.78711 0.04929,0.412501 0.119841,1.073438 0.158204,1.46875 0.03836,0.395312 0.110379,1.021882 0.160156,1.392578 0.04978,0.370711 0.09182,0.947291 0.0918,1.28125 -3.8e-5,0.538174 -0.0214,0.649773 -0.179688,0.984375 -0.312461,0.66048 -0.861691,1.023997 -1.789062,1.181641 -0.571964,0.09724 -0.795621,0.560928 -0.556641,1.158203 l 0.09961,0.251953 4.134766,-0.002 c 4.739732,-0.0016 4.372908,0.04326 5.033203,-0.603516 0.549014,-0.537751 0.588607,-0.746343 0.376953,-1.972656 -0.125971,-0.730337 -0.126493,-0.774357 -0.02539,-1.384766 0.169217,-1.021735 0.540177,-2.375605 1.24414,-4.529297 0.363515,-1.112171 0.66211,-2.059509 0.66211,-2.105468 0,-0.04596 0.02527,-0.09986 0.05664,-0.119141 0.03145,-0.01945 0.148119,0.240777 0.259766,0.576172 0.111647,0.335388 0.269294,0.733548 0.349609,0.884765 0.08031,0.151219 0.146485,0.283206 0.146485,0.294922 0,0.01183 -0.268171,0.147711 -0.595703,0.300782 -0.515116,0.240706 -0.607905,0.307559 -0.6875,0.498046 -0.182348,0.436411 -0.08669,0.758648 0.287109,0.96875 0.495005,0.2782 0.549513,0.443545 0.373047,1.13086 -0.09008,0.350857 -0.0631,0.495122 0.310547,1.65625 0.165959,0.515626 0.320695,1.050001 0.34375,1.1875 0.02317,0.137499 0.05362,0.294731 0.06836,0.349609 0.01803,0.06667 -0.08573,0.173643 -0.3125,0.324219 -0.572852,0.380353 -0.787109,0.771312 -0.787109,1.431641 0,0.554335 0.217725,0.888564 0.642578,0.984375 0.140848,0.03163 0.282623,0.02126 0.412109,-0.0332 0.175518,-0.07381 0.221921,-0.06975 0.400391,0.03906 0.196528,0.119834 0.354354,0.122797 7.023437,0.123047 h 6.824219 l -0.191406,-0.574219 c -0.231417,-0.690006 -0.379894,-0.854932 -1.429688,-1.59375 -1.389951,-0.978221 -1.536531,-1.229875 -1.478515,-2.548828 0.01931,-0.438833 0.112294,-1.169532 0.222656,-1.751953 0.816903,-4.310748 0.834161,-7.278575 0.06445,-11.125 -1.1439,-5.716347 -1.486767,-7.056049 -2.007813,-7.814453 C 32.218153,13.263031 32.177441,13.1477 31.958984,11.607422 31.716977,9.9010709 31.408572,9.0055453 30.804688,8.2441406 30.484834,7.8408726 30.306473,7.7141558 29.712891,7.4746094 28.992724,7.1839561 27.955553,6.6684557 26.962891,6.1054688 25.390275,5.2135834 25.29812,5.1714281 24.904297,5.1738281 Z m -0.292969,0.3789063 c 0.228447,-0.015663 0.496063,0.082354 0.603516,0.1542968 1.004276,0.6210709 2.008108,1.1480203 3.011718,1.6738282 0.525805,0.3345411 1.339061,0.3815747 1.769532,0.859375 1.147545,1.3388182 1.003353,2.8678926 1.33789,4.4453126 0.04793,0.286537 0.190654,0.717825 0.333985,0.957031 0.191866,0.334537 0.718445,0.859681 0.814453,1.242188 0.621076,2.055224 0.954228,3.920213 1.384766,6.023437 0.813006,3.68058 1.051887,6.119472 0.382812,10.564453 -0.191263,1.530085 -0.812456,3.296844 -0.333984,4.683594 0.286604,0.90768 1.862568,1.672361 2.484375,2.246094 0.09526,0.04802 0.192291,0.238888 0.240234,0.382812 H 24.068359 c -0.286539,0 -0.239685,-0.478071 -0.574218,-0.52539 -0.239201,0 -0.286782,0.477649 -0.525391,0.429687 -0.191206,0 -0.142578,-0.334071 -0.142578,-0.525391 0,-0.191271 0.04664,-0.335195 0.142578,-0.478515 0.318287,-0.409475 0.847373,-0.435219 0.939453,-0.970703 0.0047,-0.02745 0.01332,-0.04979 0.01563,-0.08008 0,-0.406538 -0.155123,-0.94141 -0.328125,-1.470704 0.173477,0.529203 0.330078,1.064168 0.330078,1.470704 -0.0024,0.03061 -0.01278,0.05268 -0.01758,0.08008 0.174716,0.161461 0.563063,0.238793 0.636719,0.349609 0.14327,0.19132 -0.09378,0.525526 0.04883,0.716797 0.04801,0.143924 0.240591,0.189898 0.335938,0.142578 0.239201,-0.048 0.334119,-0.333984 0.52539,-0.333984 0.334537,-0.04732 0.765302,-0.0472 1.003906,0.191406 0.09594,0.048 0.142579,4.41e-4 0.142578,-0.04687 0.04734,-0.191282 -0.716568,-0.383432 -0.8125,-1.148437 -0.09594,-0.621139 -0.04805,-1.565305 -0.478515,-2.234376 -0.09533,-0.096 -0.237232,-0.09695 -0.285156,-0.240234 0,-0.191282 0.142578,-0.43132 0.142578,-0.669922 0,-0.09589 -0.04665,-0.286664 -0.142578,-0.333984 -0.143331,-0.048 -0.33614,0.04883 -0.527344,0.04883 -0.286605,0 -0.619278,-3.65e-4 -0.810547,-0.0957 -0.04793,-0.04796 -0.04906,-0.09649 0.04687,-0.144531 0.190605,-0.048 0.668539,0.193494 0.955078,-0.09375 0.334602,-0.286602 0.574911,-0.765904 0.431641,-1.148438 -0.107947,-0.322885 -0.430811,-0.484345 -0.78711,-0.484375 -0.118767,-7e-6 -0.241706,0.01698 -0.361328,0.05273 -0.286613,0.048 -0.383345,0.43178 -0.191406,0.623046 0,0 0.143402,0.09469 0.191406,0.142578 v 0.0957 c -0.128621,0.12907 -0.577374,0.110764 -0.835937,0.128906 -0.09491,-0.123733 -0.205187,-0.2413 -0.310547,-0.367188 -0.09467,-0.09592 -0.192002,-0.143406 -0.335938,-0.191406 -0.09527,0 -0.09527,-0.143406 0,-0.191406 0.526472,-0.239203 1.265946,-0.672864 1.743821,-0.768146 0.137418,-0.03863 0.200887,-0.04569 0.326844,-0.05369 1.71274,-0.02154 1.003949,2.515761 1.323872,3.601128 0.238609,0.669074 0.812039,1.465691 1.003906,2.134765 0.286598,0.860346 0.143567,1.431796 -0.0957,2.244141 h 1.720703 c 1.578082,-0.143282 3.203262,-2.292714 3.394531,-3.630859 0.09533,-0.477812 -0.04725,-2.389844 -0.287109,-2.820313 -0.429872,-0.717078 -1.051352,-1.195952 -1.337891,-1.673828 -0.907679,-1.290811 -0.573939,-3.39404 -0.191406,-4.828125 0.334537,-1.338149 1.146023,-3.105469 1.193359,-3.105469 0.09593,-0.143282 -0.142349,-0.288862 -0.238281,-0.09766 -0.382533,0.430469 -0.859512,1.769946 -1.050781,2.34375 -0.238538,0.717075 -0.430055,1.529015 -0.525391,2.246094 -0.14327,1.099544 0.190367,2.294927 -0.04883,3.394531 -0.04734,0.239206 -0.429227,0.477244 -0.621094,0.333984 -1.576755,-1.242875 -1.911283,-3.775998 -1.863281,-5.640625 0.04734,-1.911957 0.859282,-3.679907 1.146484,-5.591797 0.09535,-0.430531 -0.335485,-0.811714 -0.382812,-1.242187 -0.09535,-0.573804 -0.04769,-0.767229 -0.0957,-1.292969 0,-0.334601 0.240234,-1.099056 0.240234,-1.433594 0.04801,-0.813 -0.04801,-1.672861 0,-2.533203 -0.0014,-0.01212 -0.0044,-0.01734 -0.0059,-0.0293 -0.0042,-0.560633 0.0019,-1.22502 0.101562,-1.357421 0.238606,-0.287169 0.716246,-0.04754 1.050782,0.0957 0.238606,0.096 0.382489,0.382124 0.621093,0.52539 0.239203,0.09593 0.478259,0.14411 0.716797,0.04883 0.238609,-0.048 0.478884,-0.239985 0.574219,-0.478515 0.143274,-0.430537 -0.286506,-2.1501124 -1.242188,-1.767578 -0.382472,0.143282 -0.431087,0.717369 -0.765625,1.003906 -0.190605,0.143282 -0.382485,0.190616 -0.621093,0.142578 -0.239207,0 -0.527021,-0.14274 -0.765625,-0.333984 -0.334541,-0.238526 -0.668246,-0.525816 -1.050782,-0.621094 -0.0514,0.02535 -0.216053,0.15275 -0.357422,0.259766 l -0.002,-0.002 c 0.07741,-0.05882 0.184956,-0.14712 0.214844,-0.16211 0.669075,-0.382465 0.479208,-0.9090464 0.335938,-1.5781249 -0.334538,-1.4341455 -1.101167,-2.3900503 -2.248047,-3.203125 0.05965,-0.035839 0.132835,-0.053373 0.208984,-0.058594 z m 0.365234,0.2988281 c 0.813007,0.4304693 1.815993,1.9590711 2.341797,2.7714844 0.239271,0.334526 0.573621,0.048282 0.429688,-0.2382813 C 26.936301,7.2372217 25.980836,6.2820318 24.976562,5.8515625 Z m -5.6875,10.2070315 c 0.812346,0 1.958587,0.04623 3.105469,0.667968 0.239271,0.143282 0.621895,0.430355 0.8125,0.574219 1.099611,0.860345 1.62578,0.954797 2.294922,1.671875 0.286534,0.430473 0.811808,1.959956 0.955078,2.199219 0.238606,0.669086 0.33663,1.338738 0.19336,2.007813 -0.143271,0.717068 -0.622726,1.338072 -0.861329,2.007812 -0.143937,0.381857 -0.239545,1.05255 -0.382812,1.482422 -0.143271,0.430469 -0.143613,0.71714 -0.382812,1.099609 -0.190674,0.191282 -0.429085,0.04784 -0.285157,-0.191406 0.143271,-0.286564 0.191271,-1.052321 0,-1.578125 -0.239198,-0.717078 -0.574355,-1.482302 -0.765625,-1.912109 -0.194258,-0.350514 -0.483752,-1.053513 -0.673828,-1.556641 0.01293,0.01866 0.04668,0.06022 0.05469,0.07227 -0.191271,-0.573816 -0.240458,-1.917133 0.476562,-1.869141 0.382533,0.04804 0.333337,0.33523 0.955078,0.478516 0.190606,0.04804 0.620798,-0.09512 0.716797,-0.429688 0.238537,-0.717075 0.0015,-1.340551 -0.572265,-1.818359 -0.335203,-0.287244 -0.765439,-0.429804 -1.195313,-0.142578 -0.09594,0.09536 -0.240234,0.381447 -0.240234,0.52539 0.09533,0.621139 -0.237956,0.429876 -0.476563,0 -0.334537,-0.525804 -1.578906,-0.89995 -2.248047,-0.804687 -0.812344,0.096 -1.721778,0.238696 -2.294922,0.8125 -0.717074,0.621074 -1.003353,1.291313 -1.33789,2.294922 -0.287199,0.860349 -0.142352,1.433176 -0.238281,1.958984 -0.142606,1.290142 0.143933,1.722861 0,3.013672 -0.142606,1.338149 -0.383388,1.519825 -0.669922,2.523437 -0.190606,0.57374 -0.381199,1.416062 -0.763672,1.894532 -0.14267,0.191282 -0.573923,0.334909 -0.669922,0.0957 -0.429807,-0.908345 -0.191181,-2.603005 -0.28711,-3.416016 -0.09593,-0.191282 -0.191406,-0.14332 -0.191406,0 -0.09527,0.478473 8.3e-4,2.269482 0.04883,2.890625 0.143267,0.908349 0.573002,1.769459 0.763672,2.677734 0.239199,1.051616 1.338074,3.918489 0.908203,4.826172 -0.123632,0.205493 -0.315805,0.521436 -0.519531,0.669922 H 14.94727 11.361332 c -0.04801,-0.09589 0.04897,-0.191406 0.240234,-0.191406 1.29088,-0.239203 1.958864,-0.715873 2.388672,-2.054688 0.048,-0.238534 0.09603,-1.242993 -0.142578,-2.533203 -0.09594,-1.194886 -0.238948,-2.34223 -0.382812,-3.537109 -0.19067,-1.816683 -0.383045,-3.702916 -0.28711,-5.519531 0.09593,-1.33815 0.334264,-2.676584 0.716797,-3.966797 0.477807,-1.673352 1.14898,-3.155197 2.677735,-4.302734 0.717075,-0.525839 1.856456,-0.621094 2.716796,-0.621094 z m 5.496094,7.626953 c -0.107543,0.02382 -0.190249,0.131584 -0.142578,0.298828 0.19186,1.004281 0.52548,2.341659 0.238281,3.25 0.42988,-1.003612 0.478016,-2.007554 0.191407,-3.345703 -0.04797,-0.167257 -0.179566,-0.226949 -0.28711,-0.203125 z m -0.382812,8.089844 c 0.14327,0 0.335109,0.192272 0.287109,0.240234 -0.09594,0.09536 -0.142717,-0.04883 -0.333984,-0.04883 -0.143271,0 -0.28711,0.04913 -0.28711,-0.04687 0,-0.09536 0.142714,-0.144531 0.333985,-0.144531 z m -4.552735,6.429687 c -0.01417,0.01733 -0.01859,0.03812 -0.03516,0.05469 -0.04145,0.03625 -0.05828,0.05117 -0.09375,0.08398 0.04359,-0.04356 0.08596,-0.0918 0.128906,-0.138672 z"
       transform="matrix(0.26458333,0,0,0.26458333,0,-87)"
       sodipodi:nodetypes="ccccccccscccssccssscccccccccscssscscsccccsccccccsccsssccccccccccccccccsccscscccccccccccccscsccccsccccccccccccccccccccccccccccccccccccccccccccccscsccscccccccccccccccccccccccccccccccccccccccccccsscccssccssccccccsc" />
    <path
       id="path838"
       style="fill:#fbc707;fill-opacity:1;stroke:none;stroke-width:1.22865"
       d="M 23.789062 0 A 24 24 0 0 0 0 24 A 24 24 0 0 0 24 48 A 24 24 0 0 0 48 24 A 24 24 0 0 0 24 0 A 24 24 0 0 0 23.789062 0 z M 24 3.0097656 A 20.989575 20.989575 0 0 1 44.990234 24 A 20.989575 20.989575 0 0 1 24 44.990234 A 20.989575 20.989575 0 0 1 3.0097656 24 A 20.989575 20.989575 0 0 1 24 3.0097656 z "
       transform="matrix(0.26458333,0,0,0.26458333,0,-87)" />
    <path
       style="fill:#231f20;fill-opacity:1;stroke-width:0.17786"
       d="m 22.02943,-75.650679 c -0.126438,0.02521 -0.34137,0.12642 -0.480665,0.189709 -0.02521,0.0127 -0.02521,0.05061 0,0.05061 0.03808,0.0127 0.06348,0.02523 0.08853,0.05061 0.06346,0.07583 0.139278,0.139119 0.139278,0.24033 0,0.113721 -0.06329,0.151645 -0.05061,0.252841 0.03792,0.202426 0.20225,0.553636 0.20225,0.768762 -0.01253,0.164327 -0.164326,0.164327 -0.252857,0.278221 -0.02538,0.03792 -0.03806,0.07583 -0.03806,0.126438 0,0.05062 -0.01253,0.139121 0.03806,0.139121 0.06313,0.01269 0.07583,-0.113739 0.13912,-0.113739 0.08851,0.01252 0.07601,0.13912 0.15182,0.13912 h 3.326132 c -0.01269,-0.03808 -0.03791,-0.08851 -0.06311,-0.101215 -0.16452,-0.1518 -0.58186,-0.354226 -0.657691,-0.594383 -0.126596,-0.366911 0.03791,-0.834701 0.08851,-1.239536 0.177026,-1.176068 0.113913,-1.821234 -0.101195,-2.795054 -0.113914,-0.556478 -0.202426,-1.04965 -0.366753,-1.593428 -0.0254,-0.101205 -0.164343,-0.240331 -0.215108,-0.328844 -0.03792,-0.06329 -0.07583,-0.177202 -0.08851,-0.253015 -0.08851,-0.417359 -0.05045,-0.822017 -0.354069,-1.176246 -0.113895,-0.126418 -0.328828,-0.139118 -0.467947,-0.227632 -0.26554,-0.13912 -0.531096,-0.27824 -0.796811,-0.442565 -0.03791,-0.02538 -0.151802,-0.06331 -0.214933,-0.02538 0.303446,0.215126 0.505872,0.467966 0.594385,0.847417 0.03791,0.177027 0.08851,0.316147 -0.08851,0.417341 -0.05061,0.02538 -0.379537,0.272347 -0.531339,0.639099 -0.03791,0.07581 -0.252857,0.569159 -0.505872,1.037125 -0.303445,-0.164503 -0.607084,-0.177027 -0.822017,-0.177027 -0.227632,0 -0.529082,0.0252 -0.718808,0.164328 -0.404483,0.30362 -0.581685,0.695597 -0.708105,1.138338 -0.101212,0.341369 -0.164343,0.695597 -0.189725,1.049649 -0.02538,0.480646 0.02547,0.97964 0.07592,1.460304 0.03806,0.316145 0.07581,0.619839 0.101196,0.935986 0.06313,0.341368 0.05061,0.607083 0.03791,0.670196 -0.11372,0.354228 -0.290746,0.480665 -0.632291,0.543954 -0.05061,0 -0.07599,0.02524 -0.06329,0.05061 h 0.948612 v 0 h 1.060161 c 0.101037,0 0.12642,-0.05061 0.227632,-0.13912 0.139119,-0.139119 -0.05061,-0.379451 0,-0.695598 0.113895,-0.784266 0.45518,-1.460376 0.619507,-2.219262 0.0254,-0.08851 0.03808,-0.202409 0.05078,-0.328829 0.06313,0.303623 0.151728,0.491043 0.240241,0.781963 0.08851,0.303445 0.177025,0.390316 0.316321,0.466128 v 0 c -0.0127,0 -0.0254,0 -0.03808,0.0127 z"
       id="path8-1" />
  </g>
</svg>
