<?xml version="1.0" encoding="UTF-8" standalone="no"?>
<svg
   xmlns:dc="http://purl.org/dc/elements/1.1/"
   xmlns:cc="http://creativecommons.org/ns#"
   xmlns:rdf="http://www.w3.org/1999/02/22-rdf-syntax-ns#"
   xmlns:svg="http://www.w3.org/2000/svg"
   xmlns="http://www.w3.org/2000/svg"
   xmlns:sodipodi="http://sodipodi.sourceforge.net/DTD/sodipodi-0.dtd"
   xmlns:inkscape="http://www.inkscape.org/namespaces/inkscape"
   width="48"
   height="48"
   viewBox="0 0 12.7 12.7"
   version="1.1"
   id="svg8"
   inkscape:version="1.0.1 (3bc2e813f5, 2020-09-07)"
   sodipodi:docname="epic-games.svg">
  <defs
     id="defs2" />
  <sodipodi:namedview
     id="base"
     pagecolor="#ffffff"
     bordercolor="#666666"
     borderopacity="1.0"
     inkscape:pageopacity="0.0"
     inkscape:pageshadow="2"
     inkscape:zoom="11.313709"
     inkscape:cx="8.9717692"
     inkscape:cy="31.567931"
     inkscape:document-units="px"
     inkscape:current-layer="layer3"
     showgrid="false"
     inkscape:window-width="1920"
     inkscape:window-height="1051"
     inkscape:window-x="0"
     inkscape:window-y="0"
     inkscape:window-maximized="1"
     showguides="true"
     inkscape:guide-bbox="true"
     inkscape:document-rotation="0"
     inkscape:showpageshadow="false"
     showborder="false"
     units="px">
    <inkscape:grid
       type="xygrid"
       id="grid917" />
  </sodipodi:namedview>
  <metadata
     id="metadata5">
    <rdf:RDF>
      <cc:Work
         rdf:about="">
        <dc:format>image/svg+xml</dc:format>
        <dc:type
           rdf:resource="http://purl.org/dc/dcmitype/StillImage" />
        <dc:title></dc:title>
      </cc:Work>
    </rdf:RDF>
  </metadata>
  <g
     inkscape:groupmode="layer"
     id="layer3"
     inkscape:label="Задний фон"
     transform="translate(0,87)"
     style="opacity:1">
    <path
       id="path838"
       style="fill:#fbc707;stroke:none;stroke-width:0.32508;fill-opacity:1"
       d="M 6.2941893,-86.999969 A 6.3499999,6.3499999 0 0 0 2.4147492e-8,-80.649969 6.3499999,6.3499999 0 0 0 6.35,-74.299969 a 6.3499999,6.3499999 0 0 0 6.35,-6.35 6.3499999,6.3499999 0 0 0 -6.35,-6.35 6.3499999,6.3499999 0 0 0 -0.055811,0 z M 6.35,-86.203635 a 5.5534916,5.5534916 0 0 1 5.553666,5.553666 A 5.5534916,5.5534916 0 0 1 6.35,-75.096303 5.5534916,5.5534916 0 0 1 0.79633383,-80.649969 5.5534916,5.5534916 0 0 1 6.35,-86.203635 Z" />
    <g
       id="g1913"
       transform="matrix(0.14938293,0,0,0.14938293,1.5690066,-85.564189)"
       style="display:inline" />
    <g
       id="2-main"
       stroke="none"
       stroke-width="1"
       fill="none"
       fill-rule="evenodd"
       transform="matrix(0.09786004,0,0,0.09786004,1.4569979,-85.543002)">
      <g
         id="2_main_1920"
         transform="translate(-1419,-3925)">
        <g
           id="Get-started"
           transform="translate(0,3557)">
          <g
             id="5"
             transform="translate(1350,328)">
            <g
               id="Group-26"
               transform="translate(6,40)">
              <g
                 id="4k/slideshow_maker"
                 transform="translate(63)" />
            </g>
          </g>
        </g>
      </g>
    </g>
    <path
       style="fill:#fbc707;fill-opacity:1;stroke-width:0.526506"
       d="m 2.6627511,-77.286363 3.6855437,1.579517 3.6855422,-1.579476 z"
       id="path911" />
    <g
       id="g924">
      <path
         id="path903"
         style="fill:#fbc707;fill-opacity:1;stroke-width:1.02872"
         d="M 18.402344 27.867188 L 16.130859 33.015625 L 17.669922 33.011719 L 18.021484 32.083984 L 20 32.083984 L 20.339844 33.011719 L 21.775391 33.011719 L 19.666016 27.867188 L 18.402344 27.867188 z M 19.021484 29.441406 L 19.570312 30.931641 L 18.457031 30.931641 L 19.021484 29.441406 z "
         transform="matrix(0.26458333,0,0,0.26458333,0,-87)" />
      <path
         id="path891"
         style="fill:#fbc707;fill-opacity:1;stroke-width:1.02872"
         d="M 17.820312 8.3222656 L 17.820312 24.78125 L 19.878906 24.78125 L 19.878906 18.609375 L 21.935547 18.609375 C 23.645284 18.609375 25.021484 17.233175 25.021484 15.523438 L 25.021484 11.408203 C 25.021484 9.6984658 23.645284 8.3222656 21.935547 8.3222656 L 19.878906 8.3222656 L 17.820312 8.3222656 z M 19.878906 10.378906 L 21.935547 10.378906 C 22.505459 10.378906 22.964844 10.838318 22.964844 11.408203 L 22.964844 15.523438 C 22.964844 16.093345 22.505454 16.552734 21.935547 16.552734 L 19.878906 16.552734 L 19.878906 11.408203 L 19.878906 10.378906 z "
         transform="matrix(0.26458333,0,0,0.26458333,0,-87)" />
      <path
         style="fill:#fbc707;fill-opacity:1;stroke-width:0.272183"
         d="m 7.4370272,-79.626711 v 1.360916 H 8.4438931 V -78.53794 H 7.7092103 v -0.272184 l 0.6804587,0.0059 v -0.278012 H 7.7092103 v -0.272184 h 0.7346828 v -0.27218 z"
         id="path907" />
      <path
         style="fill:#fbc707;fill-opacity:1;stroke-width:0.272183"
         d="m 5.8039276,-79.626711 v 1.360916 h 0.332786 v -0.755416 l 0.3466092,0.515661 0.3370387,-0.536392 0.022324,0.776147 h 0.3221548 v -1.360861 H 6.8203576 l -0.337039,0.542772 -0.336508,-0.542772 z"
         id="path905" />
      <path
         style="fill:#fbc707;fill-opacity:1;stroke-width:0.272183"
         d="m 3.7072651,-79.633511 c -0.3361253,-0.0064 -0.698372,0.241138 -0.7091644,0.688964 -0.00761,0.317562 0.2801731,0.67349 0.6687634,0.678863 0.3408946,0.0047 0.5874261,-0.212644 0.5874261,-0.212644 v -0.577858 H 3.6870641 v 0.263679 l 0.2328445,-0.02021 0.01008,0.172241 c 0,0 -0.075982,0.07821 -0.2126434,0.08081 -0.2401979,0.0045 -0.3568902,-0.1929 -0.3646829,-0.364683 -0.00833,-0.18447 0.1223028,-0.405285 0.3689366,-0.404021 0.1643737,8.42e-4 0.2695248,0.150443 0.2695248,0.150443 l 0.2227435,-0.273246 c 0,0 -0.2124893,-0.176691 -0.5066221,-0.18234 z"
         id="path901" />
      <path
         style="fill:#fbc707;fill-opacity:1;stroke-width:0.272183"
         d="m 9.1243509,-79.644691 c -0.2264849,0.0014 -0.4629434,0.143144 -0.4694099,0.491205 -0.00658,0.353421 0.7020128,0.304198 0.7043808,0.484295 8.159e-4,0.06244 -0.093224,0.09743 -0.1552293,0.104729 -0.1430102,0.01686 -0.404554,-0.15204 -0.404554,-0.15204 l -0.1988216,0.238692 c 0,0 0.2432542,0.203963 0.58849,0.205732 0.2288983,0.0012 0.5258663,-0.110862 0.5236341,-0.444424 -0.00268,-0.401078 -0.6975214,-0.383071 -0.70757,-0.519912 -0.00504,-0.0687 0.066929,-0.110927 0.1408755,-0.10844 0.133222,0.0043 0.3466082,0.130244 0.3466082,0.130244 l 0.166394,-0.253046 c 0,0 -0.2154437,-0.179066 -0.5347978,-0.177024 z"
         id="path899" />
      <path
         style="fill:#fbc707;fill-opacity:1;stroke-width:0.272183"
         d="m 8.2535771,-84.7981 c -0.3015788,0 -0.5443668,0.242787 -0.5443668,0.544367 v 3.266199 c 0,0.301581 0.242788,0.544368 0.5443668,0.544368 H 9.070127 c 0.3015787,0 0.5443669,-0.242787 0.5443669,-0.544368 v -1.088733 H 9.070127 v 0.789439 c 0,0.150788 -0.1509242,0.299294 -0.2721829,0.299294 h -0.272184 c -0.1507895,0 -0.272183,-0.121401 -0.272183,-0.272183 v -2.721833 c 0,-0.150789 0.1607104,-0.272183 0.272183,-0.272183 h 0.272184 c 0.1507893,0 0.2721829,0.121401 0.2721829,0.272183 v 0.81655 h 0.5443669 v -1.088733 c 0,-0.30158 -0.2427882,-0.544367 -0.5443669,-0.544367 z"
         id="path895" />
      <path
         style="fill:#fbc707;fill-opacity:1;stroke-width:0.272183"
         d="m 6.8926602,-84.7981 v 4.354934 h 0.544367 V -84.7981 Z"
         id="path893" />
      <path
         style="fill:#fbc707;fill-opacity:1;stroke-width:0.272183"
         d="m 3.082095,-84.7981 v 4.354934 h 1.3609159 v -0.544368 h -0.81655 v -1.360915 h 0.81655 v -0.544367 h -0.81655 v -1.360917 h 0.81655 V -84.7981 Z"
         id="path8" />
    </g>
  </g>
</svg>
