<?xml version="1.0" encoding="UTF-8" standalone="no"?>
<svg
   xmlns:dc="http://purl.org/dc/elements/1.1/"
   xmlns:cc="http://creativecommons.org/ns#"
   xmlns:rdf="http://www.w3.org/1999/02/22-rdf-syntax-ns#"
   xmlns:svg="http://www.w3.org/2000/svg"
   xmlns="http://www.w3.org/2000/svg"
   xmlns:sodipodi="http://sodipodi.sourceforge.net/DTD/sodipodi-0.dtd"
   xmlns:inkscape="http://www.inkscape.org/namespaces/inkscape"
   width="48"
   height="48"
   viewBox="0 0 12.7 12.7"
   version="1.1"
   id="svg8"
   inkscape:version="1.0.1 (3bc2e813f5, 2020-09-07)"
   sodipodi:docname="glImageReader-alt.svg">
  <defs
     id="defs2" />
  <sodipodi:namedview
     id="base"
     pagecolor="#ffffff"
     bordercolor="#666666"
     borderopacity="1.0"
     inkscape:pageopacity="0.0"
     inkscape:pageshadow="2"
     inkscape:zoom="5.6568543"
     inkscape:cx="57.162167"
     inkscape:cy="-0.41532644"
     inkscape:document-units="px"
     inkscape:current-layer="text963"
     showgrid="false"
     inkscape:window-width="1920"
     inkscape:window-height="1051"
     inkscape:window-x="0"
     inkscape:window-y="0"
     inkscape:window-maximized="1"
     showguides="true"
     inkscape:guide-bbox="true"
     inkscape:document-rotation="0"
     inkscape:showpageshadow="false"
     showborder="false"
     units="px">
    <inkscape:grid
       type="xygrid"
       id="grid917" />
  </sodipodi:namedview>
  <metadata
     id="metadata5">
    <rdf:RDF>
      <cc:Work
         rdf:about="">
        <dc:format>image/svg+xml</dc:format>
        <dc:type
           rdf:resource="http://purl.org/dc/dcmitype/StillImage" />
        <dc:title />
      </cc:Work>
    </rdf:RDF>
  </metadata>
  <g
     inkscape:groupmode="layer"
     id="layer3"
     inkscape:label="Задний фон"
     transform="translate(0,87)">
    <g
       id="g1913"
       transform="matrix(0.14938293,0,0,0.14938293,1.5690066,-85.564189)"
       style="display:inline">
      <g
         id="g989">
        <g
           id="g1019"
           style="stroke-width:1.00071396;stroke-miterlimit:4;stroke-dasharray:none">
          <g
             id="g992"
             transform="matrix(6.6942054,0,0,6.6942054,-10.503252,572.78425)"
             style="stroke-width:0.14948958;stroke-miterlimit:4;stroke-dasharray:none" />
          <g
             id="g977"
             style="stroke-width:1.00071396;stroke-miterlimit:4;stroke-dasharray:none">
            <g
               id="g934"
               transform="matrix(1.1149463,0,0,1.1149463,44.051745,4.5377873)"
               style="stroke-width:0.897545;stroke-miterlimit:4;stroke-dasharray:none">
              <g
                 id="g928"
                 transform="translate(0.87207466,-1.0906473)"
                 style="stroke-width:0.897545;stroke-miterlimit:4;stroke-dasharray:none" />
            </g>
            <g
               id="g957"
               transform="matrix(1.0433895,0,0,1,-0.4009205,-1.249123)"
               style="stroke-width:0.979686;stroke-miterlimit:4;stroke-dasharray:none" />
            <g
               aria-label="OCR"
               transform="scale(1.0512048,0.9512894)"
               id="text963"
               style="font-style:normal;font-weight:normal;font-size:13.6978px;line-height:1.25;font-family:sans-serif;fill:#808080;fill-opacity:1;stroke:none;stroke-width:1.00071;stroke-miterlimit:4;stroke-dasharray:none">
              <path
                 id="path1025"
                 style="font-style:normal;font-variant:normal;font-weight:bold;font-stretch:normal;font-family:sans-serif;-inkscape-font-specification:'sans-serif Bold';fill:#fbc707;fill-opacity:1;stroke-width:1.00071;stroke-miterlimit:4;stroke-dasharray:none"
                 d="m 40.730069,52.264711 q 0.809294,0 1.15709,-0.300977 0.354484,-0.300977 0.354484,-0.98988 0,-0.682215 -0.354484,-0.976503 -0.347796,-0.294289 -1.15709,-0.294289 h -1.083517 v 2.561649 z m -1.083517,1.779109 v 3.778934 h -2.575026 v -9.98575 h 3.932767 q 1.973071,0 2.889379,0.66215 0.922997,0.662149 0.922997,2.093462 0,0.989881 -0.481564,1.625277 -0.474875,0.635395 -1.438001,0.936373 0.528382,0.12039 0.943061,0.548447 0.421368,0.421367 0.849424,1.284168 l 1.397872,2.835873 H 43.345225 L 42.12794,55.341365 Q 41.760079,54.592267 41.378842,54.318043 41.004293,54.04382 40.375585,54.04382 Z m -4.70862,3.230487 q -0.708968,0.367861 -1.478132,0.555135 -0.769163,0.187275 -1.60521,0.187275 -2.494766,0 -3.952832,-1.391183 -1.458067,-1.397871 -1.458067,-3.785622 0,-2.39444 1.458067,-3.785623 1.458066,-1.397871 3.952832,-1.397871 0.836047,0 1.60521,0.187275 0.769164,0.187274 1.478132,0.555135 v 2.066709 q -0.715656,-0.488251 -1.411248,-0.715656 -0.695591,-0.227405 -1.464755,-0.227405 -1.377806,0 -2.167034,0.882866 -0.789229,0.882866 -0.789229,2.43457 0,1.545015 0.789229,2.427881 0.789228,0.882866 2.167034,0.882866 0.769164,0 1.464755,-0.227405 0.695592,-0.227405 1.411248,-0.715656 z M 19.935899,49.522476 q -1.177155,0 -1.825928,0.869489 -0.648772,0.869489 -0.648772,2.447947 0,1.571769 0.648772,2.441258 0.648773,0.869489 1.825928,0.869489 1.183843,0 1.832615,-0.869489 0.648773,-0.869489 0.648773,-2.441258 0,-1.578458 -0.648773,-2.447947 -0.648772,-0.869489 -1.832615,-0.869489 z m 0,-1.866058 q 2.407816,0 3.772245,1.377806 1.36443,1.377806 1.36443,3.805688 0,2.421193 -1.36443,3.798999 -1.364429,1.377806 -3.772245,1.377806 -2.401128,0 -3.772246,-1.377806 -1.364429,-1.377806 -1.364429,-3.798999 0,-2.427882 1.364429,-3.805688 1.371118,-1.377806 3.772246,-1.377806 z M 14.80447,32.54885 v 4.321456 H 46.087473 V 32.54885 Z m 0,8.642911 v 4.321456 H 46.087473 V 41.191761 Z M 25.566512,16.176953 a 1.6179676,1.7879053 0 0 0 -1.617967,1.787906 1.6179676,1.7879053 0 0 0 1.617967,1.787905 1.6179676,1.7879053 0 0 0 1.617967,-1.787905 1.6179676,1.7879053 0 0 0 -1.617967,-1.787906 z m -9.014391,3.064981 v 3.064981 3.064981 h 11.094636 v -3.064981 h -4.160489 c 0,-1.697999 -1.237052,-3.064981 -2.773659,-3.064981 z m -1.387259,-6.389082 c -0.256101,0 -0.462305,0.227862 -0.462305,0.510862 v 14.835264 c 0,0.282998 0.206204,0.51086 0.462305,0.51086 h 13.869153 c 0.256101,0 0.462305,-0.227862 0.462305,-0.51086 V 13.383987 c 0,-0.283 -0.206204,-0.510862 -0.462305,-0.510862 h -6.009966 c 0,0 -1.029407,-0.06059 -7.859187,-0.02027 z m 0.462305,2.047503 H 28.57171 V 26.650174 H 15.627167 Z M 10.842583,5.7004366 c -1.2066405,0 -2.1773914,1.0727094 -2.1773914,2.4060839 V 61.055585 c 0,1.333374 0.9707509,2.406084 2.1773914,2.406084 h 39.206775 c 1.206641,0 2.177392,-1.07271 2.177392,-2.406084 V 21.341887 L 51.590386,20.642488 50.049358,18.935803 48.958944,17.73466 41.33636,9.3076632 40.245944,8.1065205 38.704916,6.4036368 38.388457,6.0501363 38.068555,5.7004366 Z m 2.17739,3.6072266 h 23.961608 v 9.6281398 c 0,1.333372 0.970749,2.406084 2.17739,2.406084 h 9.799973 V 58.6495 c 0,0.333344 -0.12306,0.633923 -0.319901,0.851443 -0.196841,0.217514 -0.465413,0.353499 -0.767075,0.353499 H 13.019973 c -0.30166,0 -0.570233,-0.135985 -0.767075,-0.353499 C 12.056057,59.283425 11.932996,58.982844 11.932996,58.6495 V 10.512604 c 0,-0.333342 0.123061,-0.6339238 0.319902,-0.8514415 0.196842,-0.2175158 0.465415,-0.3534993 0.767075,-0.3534993 z M 30.090563,-10.103563 A 40.437604,44.684828 0 0 0 -9.9916323,34.581266 40.437604,44.684828 0 0 0 30.445972,79.266095 40.437604,44.684828 0 0 0 70.883577,34.581266 40.437604,44.684828 0 0 0 30.445972,-10.103563 a 40.437604,44.684828 0 0 0 -0.355409,0 z m 0.355409,5.6037873 A 35.365338,39.079815 0 0 1 65.812421,34.581266 35.365338,39.079815 0 0 1 30.445972,73.662308 35.365338,39.079815 0 0 1 -4.9204777,34.581266 35.365338,39.079815 0 0 1 30.445972,-4.4997757 Z" />
            </g>
          </g>
        </g>
      </g>
    </g>
  </g>
</svg>
