<?xml version="1.0" encoding="UTF-8" standalone="no"?>
<svg
   xmlns:dc="http://purl.org/dc/elements/1.1/"
   xmlns:cc="http://creativecommons.org/ns#"
   xmlns:rdf="http://www.w3.org/1999/02/22-rdf-syntax-ns#"
   xmlns:svg="http://www.w3.org/2000/svg"
   xmlns="http://www.w3.org/2000/svg"
   xmlns:sodipodi="http://sodipodi.sourceforge.net/DTD/sodipodi-0.dtd"
   xmlns:inkscape="http://www.inkscape.org/namespaces/inkscape"
   width="48"
   height="48"
   viewBox="0 0 12.7 12.7"
   version="1.1"
   id="svg8"
   inkscape:version="1.0.1 (3bc2e813f5, 2020-09-07)"
   sodipodi:docname="gzdoom.svg">
  <defs
     id="defs2" />
  <sodipodi:namedview
     id="base"
     pagecolor="#ffffff"
     bordercolor="#666666"
     borderopacity="1.0"
     inkscape:pageopacity="0.0"
     inkscape:pageshadow="2"
     inkscape:zoom="5.6568543"
     inkscape:cx="-22.55621"
     inkscape:cy="59.801877"
     inkscape:document-units="px"
     inkscape:current-layer="layer3"
     showgrid="false"
     inkscape:window-width="1920"
     inkscape:window-height="1051"
     inkscape:window-x="0"
     inkscape:window-y="0"
     inkscape:window-maximized="1"
     showguides="false"
     inkscape:guide-bbox="true"
     inkscape:document-rotation="0"
     inkscape:showpageshadow="false"
     showborder="false"
     units="px">
    <inkscape:grid
       type="xygrid"
       id="grid917" />
    <sodipodi:guide
       position="10.467578,6.2590495"
       orientation="0,-1"
       id="guide990" />
    <sodipodi:guide
       position="10.007353,4.6716981"
       orientation="0,-1"
       id="guide992" />
    <sodipodi:guide
       position="8.6816406,5.8373698"
       orientation="1,0"
       id="guide994" />
    <sodipodi:guide
       position="10.467578,6.2590495"
       orientation="1,0"
       id="guide996" />
    <sodipodi:guide
       position="10.748478,6.868843"
       orientation="0,-1"
       id="guide998" />
    <sodipodi:guide
       position="10.467578,4.1056143"
       orientation="0,-1"
       id="guide1000" />
    <sodipodi:guide
       position="10.924602,6.25905"
       orientation="1,0"
       id="guide1002" />
  </sodipodi:namedview>
  <metadata
     id="metadata5">
    <rdf:RDF>
      <cc:Work
         rdf:about="">
        <dc:format>image/svg+xml</dc:format>
        <dc:type
           rdf:resource="http://purl.org/dc/dcmitype/StillImage" />
        <dc:title />
      </cc:Work>
    </rdf:RDF>
  </metadata>
  <g
     inkscape:groupmode="layer"
     id="layer3"
     inkscape:label="Задний фон"
     transform="translate(0,87)">
    <path
       id="path838"
       style="fill:#fbc707;stroke:none;stroke-width:0.32508;fill-opacity:1"
       d="M 6.2941893,-86.999969 A 6.3499999,6.3499999 0 0 0 1.4444012e-8,-80.649969 6.3499999,6.3499999 0 0 0 6.35,-74.299969 a 6.3499999,6.3499999 0 0 0 6.35,-6.35 6.3499999,6.3499999 0 0 0 -6.35,-6.35 6.3499999,6.3499999 0 0 0 -0.055811,0 z M 6.35,-86.203635 a 5.5534916,5.5534916 0 0 1 5.553666,5.553666 A 5.5534916,5.5534916 0 0 1 6.35,-75.096303 5.5534916,5.5534916 0 0 1 0.79633382,-80.649969 5.5534916,5.5534916 0 0 1 6.35,-86.203635 Z" />
    <g
       id="g1913"
       transform="matrix(0.14938293,0,0,0.14938293,1.5690066,-85.564189)"
       style="display:inline" />
    <g
       id="g1006"
       transform="translate(0.21370786,0.18887172)">
      <path
         id="rect933"
         style="opacity:1;fill:#001355;fill-opacity:1;stroke-width:0.0260131"
         d="m 3.8778353,-83.307202 c -1.4332068,0 -2.5376241,0.848458 -2.5376241,2.283065 0,0.270061 -0.00105,0.377754 -0.00105,0.377754 -0.00103,1.051888 0.8559184,2.281787 2.5418143,2.27583 1.1215541,-0.004 3.3499785,-0.02945 3.3499785,-0.02945 0.2645467,-0.02222 0.4792416,-0.205388 0.4792416,-0.460437 -5.133e-4,-0.379828 0.00127,-2.80476 -0.00105,-2.302702 l -1.9002067,-0.0057 v 0.993222 c 0,0.302628 -0.00236,0.546219 -0.00577,0.546219 H 3.85479 c -0.269374,0.01651 -0.5310942,-0.355212 -0.5310942,-0.65784 v -1.157553 c 0,-0.302629 0.2379602,-0.625801 0.5703762,-0.625801 h 3.8161261 v -0.77618 c 0,-0.255049 -0.2136863,-0.460437 -0.4792416,-0.460437 z"
         sodipodi:nodetypes="csccccccsscssscscc" />
      <path
         id="rect969"
         style="opacity:1;fill:#001355;fill-opacity:1;stroke-width:0.0296333"
         d="m 10.748478,-81.168839 c 0.176003,-0.0041 0.176124,-5.8e-4 0.176124,0.17547 v 0.434319 l -1.5657728,1.587352 h 1.5745948 l -0.0064,0.484201 c -0.0011,0.08188 -0.145686,0.08188 -0.155656,0.07921 -0.641035,0.01822 -1.6628247,0.0077 -2.4386822,0.0077 -0.17605,0 -0.1762881,-0.0039 -0.1762881,-0.179916 v -0.391187 l 1.6677356,-1.587352 H 8.1528985 c 0,-0.120466 3.837e-4,-0.347554 3.837e-4,-0.426262 0,-0.124713 0.091997,-0.183531 0.1740811,-0.183531 0,0 1.5780476,0.01951 2.4211147,4e-6 z"
         sodipodi:nodetypes="cscccsccscccsccc" />
    </g>
  </g>
</svg>
