<?xml version="1.0" encoding="UTF-8" standalone="no"?>
<svg
   xmlns:dc="http://purl.org/dc/elements/1.1/"
   xmlns:cc="http://creativecommons.org/ns#"
   xmlns:rdf="http://www.w3.org/1999/02/22-rdf-syntax-ns#"
   xmlns:svg="http://www.w3.org/2000/svg"
   xmlns="http://www.w3.org/2000/svg"
   xmlns:sodipodi="http://sodipodi.sourceforge.net/DTD/sodipodi-0.dtd"
   xmlns:inkscape="http://www.inkscape.org/namespaces/inkscape"
   width="48"
   height="48"
   viewBox="0 0 12.7 12.7"
   version="1.1"
   id="svg8"
   inkscape:version="1.0.1 (3bc2e813f5, 2020-09-07)"
   sodipodi:docname="hurrican.svg">
  <defs
     id="defs2" />
  <sodipodi:namedview
     id="base"
     pagecolor="#ffffff"
     bordercolor="#666666"
     borderopacity="1.0"
     inkscape:pageopacity="0.0"
     inkscape:pageshadow="2"
     inkscape:zoom="16.000001"
     inkscape:cx="25.95252"
     inkscape:cy="25.664424"
     inkscape:document-units="px"
     inkscape:current-layer="layer3"
     showgrid="false"
     inkscape:window-width="1920"
     inkscape:window-height="1051"
     inkscape:window-x="0"
     inkscape:window-y="0"
     inkscape:window-maximized="1"
     showguides="true"
     inkscape:guide-bbox="true"
     inkscape:document-rotation="0"
     inkscape:showpageshadow="false"
     showborder="false"
     units="px">
    <inkscape:grid
       type="xygrid"
       id="grid917" />
  </sodipodi:namedview>
  <metadata
     id="metadata5">
    <rdf:RDF>
      <cc:Work
         rdf:about="">
        <dc:format>image/svg+xml</dc:format>
        <dc:type
           rdf:resource="http://purl.org/dc/dcmitype/StillImage" />
        <dc:title></dc:title>
      </cc:Work>
    </rdf:RDF>
  </metadata>
  <g
     inkscape:groupmode="layer"
     id="layer3"
     inkscape:label="Задний фон"
     transform="translate(0,87)"
     style="opacity:1">
    <path
       id="path838"
       style="fill:#fbc707;stroke:none;stroke-width:0.32508;fill-opacity:1"
       d="M 6.2941893,-86.999969 A 6.3499999,6.3499999 0 0 0 2.4147492e-8,-80.649969 6.3499999,6.3499999 0 0 0 6.35,-74.299969 a 6.3499999,6.3499999 0 0 0 6.35,-6.35 6.3499999,6.3499999 0 0 0 -6.35,-6.35 6.3499999,6.3499999 0 0 0 -0.055811,0 z M 6.35,-86.203635 a 5.5534916,5.5534916 0 0 1 5.553666,5.553666 A 5.5534916,5.5534916 0 0 1 6.35,-75.096303 5.5534916,5.5534916 0 0 1 0.79633383,-80.649969 5.5534916,5.5534916 0 0 1 6.35,-86.203635 Z" />
    <g
       id="g1913"
       transform="matrix(0.14938293,0,0,0.14938293,1.5690066,-85.564189)"
       style="display:inline" />
    <g
       id="2-main"
       stroke="none"
       stroke-width="1"
       fill="none"
       fill-rule="evenodd"
       transform="matrix(0.09786004,0,0,0.09786004,1.4569979,-85.543002)">
      <g
         id="2_main_1920"
         transform="translate(-1419,-3925)">
        <g
           id="Get-started"
           transform="translate(0,3557)">
          <g
             id="5"
             transform="translate(1350,328)">
            <g
               id="Group-26"
               transform="translate(6,40)">
              <g
                 id="4k/slideshow_maker"
                 transform="translate(63)" />
            </g>
          </g>
        </g>
      </g>
    </g>
    <g
       id="g1105"
       transform="matrix(0.29426402,0,0,0.29426402,-9.1947073,-85.86994)"
       style="opacity:1">
      <path
         transform="scale(0.26458333)"
         inkscape:connector-curvature="0"
         id="path880"
         d="m 198.2793,5.6699219 -2.90235,3.453125 c 0,0 -10.8496,5.4005221 -16.0039,6.4667971 -4.03403,0.834522 -8.30178,4.697208 -9.25782,5.867187 -1.29755,1.587923 -4.57799,6.549249 -5.48437,10.388672 -0.60174,2.548983 -0.8265,5.293828 -1.36328,7.771485 -0.33188,1.531952 -0.90625,4.330078 -0.90625,4.330078 l -5.48633,0.714843 -16.16992,13.027344 c 0,0 19.67339,14.442308 20.33789,16.152344 0.94419,2.429828 5.1665,25.130173 6.61719,27.697263 0.91912,1.62645 2.26017,2.14586 4.61914,2.14649 2.29743,0.0412 4.35507,0.01 6.29297,0.58593 0.23641,2.38791 -0.062,9.79276 -0.89454,13.03321 -1.27026,4.94444 -4.28125,11.05859 -4.28125,11.05859 9.65819,0.12975 19.7147,0 26.25977,0 6.54507,0 16.60158,0.12975 26.25977,0 0,0 -3.01099,-6.11415 -4.28125,-11.05859 -0.8325,-3.24045 -1.13095,-10.6453 -0.89454,-13.03321 1.9379,-0.57603 3.99554,-0.54474 6.29297,-0.58593 2.35897,-6.3e-4 3.70002,-0.52004 4.61914,-2.14649 1.45069,-2.56709 5.673,-25.267435 6.61719,-27.697263 0.6645,-1.710036 20.33789,-16.152344 20.33789,-16.152344 L 242.4375,44.662109 236.95117,43.947266 c 0,0 -0.57437,-2.798126 -0.90625,-4.330078 -0.53678,-2.477657 -0.76154,-5.222502 -1.36328,-7.771485 -0.90638,-3.839423 -4.18682,-8.800749 -5.48437,-10.388672 -0.95604,-1.169979 -5.22379,-5.032665 -9.25782,-5.867187 -5.1543,-1.066275 -16.0039,-6.4667971 -16.0039,-6.4667971 l -2.90235,-3.453125 c -0.45617,0.00202 -0.7107,0.00834 -1.37695,0.00195 -0.66625,0.00639 -0.92078,6.33e-5 -1.37695,-0.00195 z"
         style="display:inline;opacity:1;fill:#4d4d4d;stroke:#4d4d4d;stroke-width:1px;stroke-linecap:butt;stroke-linejoin:miter;stroke-opacity:1" />
      <path
         sodipodi:nodetypes="cscscsc"
         inkscape:connector-curvature="0"
         id="path928"
         d="m 46.337375,26.945186 c 0,0 3.867474,0.531375 6.488341,0.531375 2.817686,0 7.269884,-0.580263 7.269884,-0.580263 0,0 -2.837438,-6.968941 -4.769153,-8.563013 -0.379865,-0.313469 -2.500731,-0.341786 -2.500731,-0.341786 0,0 -1.986635,0.117836 -2.428706,0.433473 -2.247997,1.60506 -4.059635,8.520214 -4.059635,8.520214 z"
         style="display:inline;opacity:1;fill:#999999;stroke:#999999;stroke-width:0.264583px;stroke-linecap:butt;stroke-linejoin:miter;stroke-opacity:1" />
      <rect
         rx="0.20063308"
         y="10.832042"
         x="45.364964"
         height="1.3231453"
         width="15.172511"
         id="rect915"
         style="opacity:1;fill:#800000;fill-opacity:1;fill-rule:nonzero;stroke:#800000;stroke-width:0.85456;stroke-miterlimit:4;stroke-dasharray:none;stroke-opacity:1" />
      <path
         sodipodi:nodetypes="ccccc"
         inkscape:connector-curvature="0"
         id="rect919"
         d="m 40.560323,12.408866 7.63e-4,5.536225 -1.242756,-0.954265 -0.0015,-3.578813 z"
         inkscape:transform-center-y="0.77419761"
         inkscape:transform-center-x="2.9010127"
         style="display:inline;opacity:1;fill:#800000;fill-opacity:1;fill-rule:nonzero;stroke:none;stroke-width:1.16042;stroke-miterlimit:4;stroke-dasharray:none;stroke-opacity:1" />
      <path
         style="display:inline;opacity:1;fill:#800000;fill-opacity:1;fill-rule:nonzero;stroke:none;stroke-width:1.16042;stroke-miterlimit:4;stroke-dasharray:none;stroke-opacity:1"
         inkscape:transform-center-x="-2.9010127"
         inkscape:transform-center-y="0.77419761"
         d="m 65.091651,12.408866 -7.63e-4,5.536225 1.242756,-0.954265 0.0015,-3.578813 z"
         id="path926"
         inkscape:connector-curvature="0"
         sodipodi:nodetypes="ccccc" />
    </g>
  </g>
</svg>
