<?xml version="1.0" encoding="UTF-8" standalone="no"?>
<svg
   xmlns:dc="http://purl.org/dc/elements/1.1/"
   xmlns:cc="http://creativecommons.org/ns#"
   xmlns:rdf="http://www.w3.org/1999/02/22-rdf-syntax-ns#"
   xmlns:svg="http://www.w3.org/2000/svg"
   xmlns="http://www.w3.org/2000/svg"
   xmlns:sodipodi="http://sodipodi.sourceforge.net/DTD/sodipodi-0.dtd"
   xmlns:inkscape="http://www.inkscape.org/namespaces/inkscape"
   width="48"
   height="48"
   viewBox="0 0 12.7 12.7"
   version="1.1"
   id="svg8"
   inkscape:version="1.0.1 (3bc2e813f5, 2020-09-07)"
   sodipodi:docname="qstardict-grey.svg">
  <defs
     id="defs2" />
  <sodipodi:namedview
     id="base"
     pagecolor="#ffffff"
     bordercolor="#666666"
     borderopacity="1.0"
     inkscape:pageopacity="0.0"
     inkscape:pageshadow="2"
     inkscape:zoom="16.000001"
     inkscape:cx="21.32505"
     inkscape:cy="21.148218"
     inkscape:document-units="px"
     inkscape:current-layer="layer3"
     showgrid="false"
     inkscape:window-width="1920"
     inkscape:window-height="1051"
     inkscape:window-x="0"
     inkscape:window-y="0"
     inkscape:window-maximized="1"
     showguides="true"
     inkscape:guide-bbox="true"
     inkscape:document-rotation="0"
     inkscape:showpageshadow="false"
     showborder="false"
     units="px">
    <inkscape:grid
       type="xygrid"
       id="grid917" />
  </sodipodi:namedview>
  <metadata
     id="metadata5">
    <rdf:RDF>
      <cc:Work
         rdf:about="">
        <dc:format>image/svg+xml</dc:format>
        <dc:type
           rdf:resource="http://purl.org/dc/dcmitype/StillImage" />
        <dc:title />
      </cc:Work>
    </rdf:RDF>
  </metadata>
  <g
     inkscape:groupmode="layer"
     id="layer3"
     inkscape:label="Задний фон"
     transform="translate(0,87)">
    <g
       id="g1913"
       transform="matrix(0.14938293,0,0,0.14938293,1.5690066,-85.564189)"
       style="display:inline;stroke:none;fill:#fbc707;fill-opacity:1">
      <g
         id="g857"
         style="stroke:none;fill:#fbc707;fill-opacity:1">
        <g
           id="g882"
           style="stroke:none;fill:#fbc707;fill-opacity:1" />
        <g
           id="g849"
           style="stroke:none;fill:#fbc707;fill-opacity:1">
          <g
             aria-label="D"
             id="text841"
             style="font-style:normal;font-weight:normal;font-size:32.04px;line-height:1.25;font-family:sans-serif;fill:#fbc707;fill-opacity:1;stroke:none;stroke-width:0.801006" />
        </g>
      </g>
    </g>
    <g
       aria-label="D"
       id="text913"
       style="font-style:normal;font-weight:normal;font-size:4.66171px;line-height:1.25;font-family:sans-serif;fill:#fbc707;fill-opacity:1;stroke:none;stroke-width:0.116543">
      <path
         id="path844"
         style="fill:#fbc707;fill-opacity:1;stroke-width:0.116543"
         d="m 6.0428639,-81.971349 v 2.642698 h 0.555399 q 0.7033537,0 1.0288539,-0.318672 0.3277765,-0.318672 0.3277765,-1.006092 0,-0.682867 -0.3277765,-0.999263 -0.3255002,-0.318671 -1.0288539,-0.318671 z m -0.4597976,-0.377854 h 0.9446336 q 0.9878819,0 1.4499557,0.411997 0.4620737,0.409721 0.4620737,1.283791 0,0.878623 -0.46435,1.29062 -0.46435,0.411997 -1.4476794,0.411997 H 5.5830663 Z m -2.5977189,-2.327941 v 0.131774 7.902877 0.01964 h 6.7293049 v -8.054288 H 4.5315062 Z m 1.5006836,0.264066 h 4.9190795 v 7.526155 H 4.486031 Z m 1.8081583,-2.586891 A 6.3499999,6.3499999 0 0 0 2.4147492e-8,-80.649969 6.3499999,6.3499999 0 0 0 6.35,-74.299969 a 6.3499999,6.3499999 0 0 0 6.35,-6.35 6.3499999,6.3499999 0 0 0 -6.35,-6.35 6.3499999,6.3499999 0 0 0 -0.055811,0 z M 6.35,-86.203635 a 5.5534916,5.5534916 0 0 1 5.553666,5.553666 A 5.5534916,5.5534916 0 0 1 6.35,-75.096303 5.5534916,5.5534916 0 0 1 0.79633383,-80.649969 5.5534916,5.5534916 0 0 1 6.35,-86.203635 Z" />
    </g>
  </g>
</svg>
