<?xml version="1.0" encoding="UTF-8" standalone="no"?>
<svg
   xmlns:dc="http://purl.org/dc/elements/1.1/"
   xmlns:cc="http://creativecommons.org/ns#"
   xmlns:rdf="http://www.w3.org/1999/02/22-rdf-syntax-ns#"
   xmlns:svg="http://www.w3.org/2000/svg"
   xmlns="http://www.w3.org/2000/svg"
   xmlns:sodipodi="http://sodipodi.sourceforge.net/DTD/sodipodi-0.dtd"
   xmlns:inkscape="http://www.inkscape.org/namespaces/inkscape"
   width="48"
   height="48"
   viewBox="0 0 12.7 12.7"
   version="1.1"
   id="svg8"
   inkscape:version="1.0.1 (3bc2e813f5, 2020-09-07)"
   sodipodi:docname="qtox-alt.svg">
  <defs
     id="defs2" />
  <sodipodi:namedview
     id="base"
     pagecolor="#ffffff"
     bordercolor="#666666"
     borderopacity="1.0"
     inkscape:pageopacity="0.0"
     inkscape:pageshadow="2"
     inkscape:zoom="5.6568546"
     inkscape:cx="-18.231387"
     inkscape:cy="30.046581"
     inkscape:document-units="px"
     inkscape:current-layer="layer3"
     showgrid="false"
     inkscape:window-width="1920"
     inkscape:window-height="1051"
     inkscape:window-x="0"
     inkscape:window-y="0"
     inkscape:window-maximized="1"
     showguides="true"
     inkscape:guide-bbox="true"
     inkscape:document-rotation="0"
     inkscape:showpageshadow="false"
     showborder="false"
     units="px">
    <inkscape:grid
       type="xygrid"
       id="grid917" />
  </sodipodi:namedview>
  <metadata
     id="metadata5">
    <rdf:RDF>
      <cc:Work
         rdf:about="">
        <dc:format>image/svg+xml</dc:format>
        <dc:type
           rdf:resource="http://purl.org/dc/dcmitype/StillImage" />
        <dc:title></dc:title>
      </cc:Work>
    </rdf:RDF>
  </metadata>
  <g
     inkscape:groupmode="layer"
     id="layer3"
     inkscape:label="Задний фон"
     transform="translate(0,87)">
    <path
       id="path838"
       style="fill:#fbc707;stroke:none;stroke-width:0.32508;fill-opacity:1"
       d="M 6.2941893,-86.999969 A 6.3499999,6.3499999 0 0 0 2.4147492e-8,-80.649969 6.3499999,6.3499999 0 0 0 6.35,-74.299969 a 6.3499999,6.3499999 0 0 0 6.35,-6.35 6.3499999,6.3499999 0 0 0 -6.35,-6.35 6.3499999,6.3499999 0 0 0 -0.055811,0 z M 6.35,-86.203635 a 5.5534916,5.5534916 0 0 1 5.553666,5.553666 A 5.5534916,5.5534916 0 0 1 6.35,-75.096303 5.5534916,5.5534916 0 0 1 0.79633383,-80.649969 5.5534916,5.5534916 0 0 1 6.35,-86.203635 Z" />
    <g
       id="g1913"
       transform="matrix(0.14938293,0,0,0.14938293,1.5690066,-85.564189)"
       style="display:inline">
      <path
         d="m 32.018797,1.2181374 c -7.158326,0 -14.321269,4.7883707 -14.321269,14.3651126 v 6.922947 H 14.00529 c -4.1399225,0 -6.6921816,2.849947 -6.6921816,6.922947 v 23.999547 c 0,4.17223 2.7553326,6.909102 6.9229466,6.922946 l 35.537794,0.115381 c 4.149151,0.01382 6.922945,-2.879946 6.922945,-7.03833 V 29.429144 c 0,-4.139923 -2.785331,-7.056791 -6.922945,-6.922947 h -3.461475 l 0.0069,-6.922947 C 46.330846,6.0065081 39.177124,1.2181374 32.018797,1.2181374 Z m -0.01382,5.8268137 c 4.859909,0 8.307535,3.5722389 8.307535,8.0767699 0,4.723757 -1.846118,9.230596 -8.307535,11.538244 1.153823,-1.846118 1.615353,-2.538413 1.84612,-4.384533 -6.692182,0.692294 -10.153656,-2.815331 -10.153656,-7.153711 0,-4.338379 3.447628,-8.0767699 8.307536,-8.0767699 z m 0,22.1534269 c 3.429165,0 6.230652,2.73918 6.230652,6.230652 0,3.491473 -2.769178,5.538358 -4.02454,5.826813 0,0 5.87066,1.788428 5.87066,8.01908 v 2.538415 c 0,1.384588 -0.92306,2.307647 -2.30765,2.307647 H 26.005094 c -1.38459,0 -2.307649,-0.923059 -2.307649,-2.307647 v -2.538415 c 0,-6.230652 6.087577,-8.012157 6.087577,-8.012157 -1.243822,-0.29307 -4.010693,-2.372262 -4.010693,-5.833736 0,-3.461472 2.801487,-6.230652 6.230652,-6.230652 z"
         id="path3581"
         style="stroke-width:0.230765;fill:#fbc707;fill-opacity:1" />
    </g>
  </g>
</svg>
