<?xml version="1.0" encoding="UTF-8" standalone="no"?>
<svg
   xmlns:dc="http://purl.org/dc/elements/1.1/"
   xmlns:cc="http://creativecommons.org/ns#"
   xmlns:rdf="http://www.w3.org/1999/02/22-rdf-syntax-ns#"
   xmlns:svg="http://www.w3.org/2000/svg"
   xmlns="http://www.w3.org/2000/svg"
   xmlns:xlink="http://www.w3.org/1999/xlink"
   xmlns:sodipodi="http://sodipodi.sourceforge.net/DTD/sodipodi-0.dtd"
   xmlns:inkscape="http://www.inkscape.org/namespaces/inkscape"
   width="48"
   height="48"
   viewBox="0 0 12.7 12.7"
   version="1.1"
   id="svg8"
   inkscape:version="1.0.1 (3bc2e813f5, 2020-09-07)"
   sodipodi:docname="quaternion-alt.svg">
  <defs
     id="defs2">
    <linearGradient
       inkscape:collect="always"
       xlink:href="#b"
       id="linearGradient5173"
       gradientUnits="userSpaceOnUse"
       gradientTransform="matrix(0.80454501,0,0,0.80454501,29.039903,1009.4479)"
       x1="-8.4545803"
       y1="4.9617052"
       x2="10.555012"
       y2="48.902145" />
    <linearGradient
       id="b"
       y1="23.774559"
       x1="22.540125"
       y2="44.054428"
       x2="42.645557"
       gradientUnits="userSpaceOnUse"
       gradientTransform="translate(30)">
      <stop
         stop-color="#292c2f"
         id="stop12" />
      <stop
         offset="1"
         stop-color="#292c2f"
         stop-opacity="0"
         id="stop14" />
    </linearGradient>
    <linearGradient
       inkscape:collect="always"
       xlink:href="#linearGradient4416"
       id="linearGradient5175"
       gradientUnits="userSpaceOnUse"
       gradientTransform="matrix(0.89628968,0,0,0.89628968,2.535611,1907.0938)"
       x1="34.2505"
       y1="-976.61401"
       x2="8.5004978"
       y2="-1002.614" />
    <linearGradient
       inkscape:collect="always"
       id="linearGradient4416">
      <stop
         style="stop-color:#ffffff;stop-opacity:0"
         offset="0"
         id="stop4418" />
      <stop
         style="stop-color:#ffffff;stop-opacity:1"
         offset="1"
         id="stop4420" />
    </linearGradient>
  </defs>
  <sodipodi:namedview
     id="base"
     pagecolor="#ffffff"
     bordercolor="#666666"
     borderopacity="1.0"
     inkscape:pageopacity="0.0"
     inkscape:pageshadow="2"
     inkscape:zoom="11.313709"
     inkscape:cx="20.073633"
     inkscape:cy="32.70751"
     inkscape:document-units="px"
     inkscape:current-layer="layer3"
     showgrid="false"
     inkscape:window-width="1920"
     inkscape:window-height="1051"
     inkscape:window-x="0"
     inkscape:window-y="0"
     inkscape:window-maximized="1"
     showguides="true"
     inkscape:guide-bbox="true"
     inkscape:document-rotation="0"
     inkscape:showpageshadow="false"
     showborder="false"
     units="px">
    <inkscape:grid
       type="xygrid"
       id="grid917" />
  </sodipodi:namedview>
  <metadata
     id="metadata5">
    <rdf:RDF>
      <cc:Work
         rdf:about="">
        <dc:format>image/svg+xml</dc:format>
        <dc:type
           rdf:resource="http://purl.org/dc/dcmitype/StillImage" />
        <dc:title></dc:title>
      </cc:Work>
    </rdf:RDF>
  </metadata>
  <g
     inkscape:groupmode="layer"
     id="layer3"
     inkscape:label="Задний фон"
     transform="translate(0,87)">
    <path
       id="path838"
       style="fill:#fbc707;stroke:none;stroke-width:0.32508;fill-opacity:1"
       d="M 6.2941893,-86.999969 A 6.3499999,6.3499999 0 0 0 2.4147492e-8,-80.649969 6.3499999,6.3499999 0 0 0 6.35,-74.299969 a 6.3499999,6.3499999 0 0 0 6.35,-6.35 6.3499999,6.3499999 0 0 0 -6.35,-6.35 6.3499999,6.3499999 0 0 0 -0.055811,0 z M 6.35,-86.203635 a 5.5534916,5.5534916 0 0 1 5.553666,5.553666 A 5.5534916,5.5534916 0 0 1 6.35,-75.096303 5.5534916,5.5534916 0 0 1 0.79633383,-80.649969 5.5534916,5.5534916 0 0 1 6.35,-86.203635 Z" />
    <g
       id="g1913"
       transform="matrix(0.14938293,0,0,0.14938293,1.5690066,-85.564189)"
       style="display:inline">
      <g
         id="g931"
         transform="matrix(1.3059474,0,0,1.3059474,0.57499998,-1310.1446)">
        <g
           id="g923">
          <path
             style="opacity:0.3;fill:#ffffff;fill-opacity:1;stroke-width:2.8;stroke-opacity:0.55"
             inkscape:connector-curvature="0"
             d="m 6.1310739,1028.8503 c -0.00358,-0.1498 -0.010755,-0.2976 -0.010755,-0.4483 0,-9.9308 7.9949041,-17.9257 17.9257941,-17.9257 9.93089,0 17.925795,7.9949 17.925795,17.9257 0,0.1507 -0.0072,0.2985 -0.01076,0.4483 -0.23662,-9.7221 -8.138312,-17.4777 -17.91504,-17.4777 -9.780313,0 -17.6784178,7.7556 -17.9150383,17.4777"
             id="path5163"
             inkscape:export-xdpi="96"
             inkscape:export-ydpi="96" />
          <path
             id="path1039"
             style="fill:#1d99f3;fill-opacity:1;stroke-width:0.362255"
             d="m 24.061485,1002.2655 a 26.139658,26.139658 0 0 0 -26.1340644,26.1393 26.139658,26.139658 0 0 0 26.1393624,26.1394 26.139658,26.139658 0 0 0 17.382093,-6.6196 l -5.95738,-6.9004 c 0.04052,-0.038 0.0817,-0.08 0.12185,-0.1165 l -0.0106,-0.077 c 5.451221,-4.9759 7.116519,-13.1196 3.560124,-20.0045 -0.851377,-1.6484 -1.953185,-3.0669 -3.210468,-4.2885 l -2.497915,7.8407 -0.725798,-5.5892 1.250281,-3.9309 0.760235,-2.3788 v -0.01 c 2.684765,1.7503 4.974387,4.1931 6.556032,7.2553 3.710948,7.1846 2.426781,15.5594 -2.564137,21.2919 l 4.476643,5.1866 a 26.139658,26.139658 0 0 0 6.9984,-17.8007 26.139658,26.139658 0 0 0 -26.139363,-26.1393 26.139658,26.139658 0 0 0 -0.0053,0 z m -0.248997,6.5163 c 0.383929,0 0.768009,0 1.152272,0.024 h 0.0026 v -0.01 c 2.049412,0.1039 4.090914,0.5375 6.052741,1.3139 l -2.275406,1.7376 c -6.533638,-1.9293 -13.832825,0.2666 -18.144979,6.0687 -1.1065792,1.4891 -1.894183,3.1042 -2.4396374,4.7707 l 7.9546524,-1.1735 -3.907131,2.9959 -4.691204,0.6861 -2.4687765,0.3655 c 0.3919792,-3.1789 1.5748639,-6.3073 3.6289958,-9.0725 3.7171037,-4.999 9.3768847,-7.6548 15.1358237,-7.7109 z m -19.1118256,22.4097 2.6171155,1.0913 c 1.5375612,6.8467 7.2833001,12.2289 14.6669681,12.9585 1.84616,0.1826 3.641239,0.027 5.350781,-0.3629 l -5.326941,-6.4846 4.696502,1.9496 3.11511,3.7933 h 0.0079 l 1.581394,1.9258 c -2.929011,1.3001 -6.230981,1.894 -9.660544,1.5549 -9.014245,-0.8915 -15.8897643,-7.8425 -17.0483316,-16.4285 z" />
        </g>
      </g>
    </g>
  </g>
</svg>
