<?xml version="1.0" encoding="UTF-8" standalone="no"?>
<svg
   xmlns:dc="http://purl.org/dc/elements/1.1/"
   xmlns:cc="http://creativecommons.org/ns#"
   xmlns:rdf="http://www.w3.org/1999/02/22-rdf-syntax-ns#"
   xmlns:svg="http://www.w3.org/2000/svg"
   xmlns="http://www.w3.org/2000/svg"
   xmlns:sodipodi="http://sodipodi.sourceforge.net/DTD/sodipodi-0.dtd"
   xmlns:inkscape="http://www.inkscape.org/namespaces/inkscape"
   width="48"
   height="48"
   viewBox="0 0 12.7 12.7"
   version="1.1"
   id="svg4"
   sodipodi:docname="thunderbird.svg"
   inkscape:version="1.0.1 (3bc2e813f5, 2020-09-07)">
  <metadata
     id="metadata10">
    <rdf:RDF>
      <cc:Work
         rdf:about="">
        <dc:format>image/svg+xml</dc:format>
        <dc:type
           rdf:resource="http://purl.org/dc/dcmitype/StillImage" />
        <dc:title />
      </cc:Work>
    </rdf:RDF>
  </metadata>
  <defs
     id="defs8" />
  <sodipodi:namedview
     pagecolor="#ffffff"
     bordercolor="#666666"
     borderopacity="1"
     objecttolerance="10"
     gridtolerance="10"
     guidetolerance="10"
     inkscape:pageopacity="0"
     inkscape:pageshadow="2"
     inkscape:window-width="1920"
     inkscape:window-height="1051"
     id="namedview6"
     showgrid="false"
     inkscape:zoom="16"
     inkscape:cx="7.8904019"
     inkscape:cy="24.894724"
     inkscape:window-x="0"
     inkscape:window-y="0"
     inkscape:window-maximized="1"
     inkscape:current-layer="svg4"
     inkscape:document-rotation="0" />
  <path
     id="path2"
     style="fill:#fbc707;stroke-width:3.77953"
     d="M 23.976562 0.27148438 L 23.976562 0.27539062 A 23.773228 23.773228 0 0 0 0.203125 24.048828 A 23.773228 23.773228 0 0 0 23.976562 47.814453 A 23.773228 23.773228 0 0 0 47.75 24.044922 A 23.773228 23.773228 0 0 0 23.976562 0.27148438 z M 23.910156 3.8144531 A 20.435906 20.435906 0 0 1 44.345703 24.25 A 20.435906 20.435906 0 0 1 23.910156 44.685547 A 20.435906 20.435906 0 0 1 3.4765625 24.25 A 20.435906 20.435906 0 0 1 23.910156 3.8164062 L 23.910156 3.8144531 z "
     transform="scale(0.26458333)" />
  <path
     style="fill:#fbc707"
     d="M 4.064,4.285 A 0.045,0.045 0 0 0 4.05,4.318 0.045,0.045 0 0 0 4.05,4.32 0.137,0.137 0 0 1 4.064,4.285 Z"
     id="path862" />
  <path
     id="path860"
     style="fill:#008cff;fill-opacity:1"
     d="M 4.191,4.214 A 0.14,0.14 0 0 0 4.067,4.282 0.045,0.045 0 0 1 4.095,4.272 0.045,0.045 0 0 1 4.14,4.318 0.045,0.045 0 0 1 4.095,4.362 0.045,0.045 0 0 1 4.05,4.321 C 4.048,4.331 4.043,4.341 4.043,4.351 A 0.143,0.143 0 0 0 4.181,4.498 0.143,0.143 0 0 0 4.33,4.361 0.144,0.144 0 0 0 4.191,4.214 Z M 5.6658038,1.5249715 C 5.4338047,1.5079715 4.7869644,1.6568971 4.2219644,2.2778971 2.4849647,3.000897 1.444873,4.5980474 1.444873,6.3360474 c 0,1.9229998 1.074083,3.0458224 1.8520835,3.5548215 l 0.00517,0.00413 c 0.118,0.083999 0.2459223,0.1559737 0.3829222,0.2149737 0.1400001,0.066 0.256045,0.105172 0.3250449,0.113172 0.026,0.008 -0.3460464,-0.5803275 -0.5100463,-1.2893275 0.3199998,0.326 0.7021634,0.5844191 1.1301635,0.6294189 0.044,0.006 -0.1514195,-0.2370384 -0.3674195,-0.5560383 l 3.4680054,1.1539349 c -0.3160001,0.323 -0.735897,0.634055 -1.3068969,0.911055 0,0 1.2859136,-0.105172 1.9239134,-0.822172 -0.26,0.596 -0.9710002,0.917774 -0.9710002,0.917774 0.523,-0.077 1.8990244,-0.482682 2.7750245,-1.5776817 0.991,-1.24 1.290154,-2.4040656 0.991154,-3.9630657 C 10.840989,4.0470468 9.4788798,2.6020371 8.2728799,2.3130371 A 3.698,3.698 0 0 0 6.9809692,1.8670695 c -0.568,-0.073 -1.0429401,-0.05988 -1.44694,0.01912 0.127,-0.1219999 0.2728515,-0.1824178 0.2728515,-0.1824178 -0.1900002,0.017 -0.4280029,0.1413685 -0.6320028,0.2733684 -0.02,0.006 -0.037912,0.014704 -0.058911,0.021704 -0.07,0.015 -0.1351219,0.03626 -0.2041221,0.05426 0.05,-0.064 0.1041299,-0.1298675 0.1581298,-0.1808675 0.2400001,-0.228 0.5958292,-0.3472656 0.5958292,-0.3472656 z M 5.828068,2.745052 v 0.00103 c 4.493e-4,-2.299e-4 -0.00399,0.00124 -0.00362,0.00103 -0.1198395,0.059797 -0.2414182,0.1390025 -0.3612181,0.2330608 a 3.4700001,3.4700001 0 0 0 -0.182418,0.1519288 c -0.3,0.269 -0.5856889,0.6077397 -0.8226888,0.9167397 a 0.22199999,0.22199999 0 0 1 0.019637,0.084233 0.308,0.308 0 0 1 -0.00568,0.094051 l -0.0093,0.040824 a 0.565,0.565 0 0 1 -0.026872,0.073897 l -0.00207,0.00723 A 0.55299998,0.55299998 0 0 1 4.3728597,4.4560587 0.40799998,0.40799998 0 0 1 4.0638346,4.5971354 c -0.1199999,0.18 -0.1937867,0.2997234 -0.1937867,0.2997231 A 1.9449999,1.9449999 0 0 1 3.7961506,4.2467691 c 0.002,-0.027 0.00682,-0.054682 0.00982,-0.082682 a 1.1579999,1.1579999 0 0 1 0.031006,-0.1539957 0.85999999,0.85999999 0 0 1 0.036174,-0.099219 c 0.009,-0.022 0.016939,-0.044629 0.028939,-0.065629 l 0.00982,-0.018087 A 0.62,0.62 0 0 1 3.9878703,3.7201863 C 4.5379814,3.1133729 5.8948989,2.7080408 5.8244506,2.747119 c 0.0012,-5.977e-4 0.00242,-0.00147 0.00362,-0.00207 z M 2.9698444,4.1139607 3.120223,4.141866 3.2902384,4.1692544 c 0.009,0.062 0.018556,0.1236527 0.032556,0.1896525 0.034,0.1540002 0.040234,0.3990721 0.00723,0.557072 -0.007,0.032 -0.093272,0.1138634 -0.1162722,0.3348633 V 5.270996 C 2.9817573,4.927996 2.6838137,4.4882344 2.6298136,4.4152343 A 1.44,1.44 0 0 1 2.9698444,4.1139607 Z M 2.5419637,4.5294393 c 0.335248,0.4773816 2.0261133,3.0204873 2.1301025,3.0204873 h 0.00207 c 0.007,-0.003 0.014738,-0.00678 0.022737,-0.00879 v 0.00362 c 0.734,-0.2610001 2.6982296,-0.9368358 3.8602295,-1.3358357 -0.019,0.5599999 -0.1998728,1.0559976 -0.4738729,1.3099976 0.2429999,-0.056 0.506825,-0.353105 0.7498252,-0.8201052 -0.03,0.1960002 -0.054917,0.4363498 -0.089917,0.70435 -0.082,0.5999998 -0.031357,1.6747188 -0.9203573,2.6577193 L 2.1869466,8.1860635 c -0.165,-0.512 -0.2378537,-1.1102253 -0.1958537,-1.8102254 0.097,0.1870001 0.3969437,0.340165 0.5839437,0.3441652 C 2.3501621,6.5081213 1.8825903,5.4650375 2.5419637,4.5294393 Z m 2.5750366,0.035657 3.2561318,0.5420857 C 8.4801323,5.3921818 8.5379662,5.6851782 8.5529662,5.9701781 7.1689663,6.4941783 5.4238374,7.1429869 4.6958374,7.3359861 l -0.00258,0.00207 c -0.057,0.015 -0.6803882,-0.8901131 -1.2603882,-1.7451131 0.265,-0.337 0.5048787,-0.409794 0.5048787,-0.409794 C 4.3477441,5.0151461 4.5198368,4.8350881 4.9578368,4.6110879 a 0.53799999,0.53799999 0 0 1 0.1591635,-0.045992 z" />
</svg>
